<svg xmlns="http://www.w3.org/2000/svg">
  <symbol fill="currentColor" viewBox="0 0 24 24" id="error-severe">
    <path d="M21.94 17.677 13.967 4.031a2.278 2.278 0 0 0-3.935 0L2.08 17.644v.001l-.02.032a2.27 2.27 0 0 0-.007 2.279 2.28 2.28 0 0 0 1.975 1.142h15.944a2.28 2.28 0 0 0 1.976-1.142 2.27 2.27 0 0 0-.009-2.279Zm-6.417-.265a.938.938 0 0 1-1.325 0L12 15.217l-2.198 2.195a.938.938 0 0 1-1.574-.416.934.934 0 0 1 .25-.907l2.197-2.194-2.12-2.117a.934.934 0 0 1 .004-1.319.939.939 0 0 1 1.321-.004L12 12.57l2.12-2.116a.938.938 0 0 1 1.575.416.934.934 0 0 1-.25.907l-2.12 2.117 2.198 2.194a.935.935 0 0 1 0 1.323Z" style="fill-rule:evenodd"/>
  </symbol>
  <symbol fill="currentColor" viewBox="0 0 24 24" id="important">
    <path d="M12 1.77C6.35 1.77 1.77 6.35 1.77 12S6.35 22.23 12 22.23 22.23 17.65 22.23 12 17.65 1.77 12 1.77Zm-.958 3.896c.245-.261.566-.395.958-.409.392.014.713.148.958.41.258.275.387.66.387 1.153 0 .362-.508 7.023-.632 7.293-.125.27-.348.406-.669.406-.016 0-.029-.005-.044-.005-.016 0-.029.005-.045.005-.32 0-.543-.135-.668-.405s-.632-6.932-.632-7.294c0-.493.129-.878.387-1.154Zm1.902 12.72c-.255.233-.59.36-.935.357-.35.004-.688-.121-.95-.353-.27-.234-.404-.562-.404-.984 0-.368.129-.682.387-.94a1.29 1.29 0 0 1 .95-.388c.373 0 .692.13.957.388.258.244.402.585.396.94 0 .416-.133.742-.4.98Z" style="fill-rule:evenodd"/>
  </symbol>
  <symbol fill="currentColor" viewBox="0 0 24 24" id="info">
    <path d="M12 1.8C6.367 1.8 1.8 6.367 1.8 12c0 5.633 4.567 10.2 10.2 10.2 5.633 0 10.2-4.567 10.2-10.2 0-5.633-4.567-10.2-10.2-10.2Zm0 2.4a1.8 1.8 0 1 1 0 3.6 1.8 1.8 0 0 1 0-3.6Zm3 14.4H9.6v-.618l.127-.004c.373-.012.65-.118.825-.315.062-.071.167-.314.167-1.132V11.08c0-.778-.109-1.07-.2-1.18-.128-.153-.396-.243-.796-.268L9.6 9.624V9h4.2v7.531c0 .778.203 1.071.294 1.18.128.153.376.243.783.267l.123.008v.614Z" style="fill-rule:evenodd"/>
  </symbol>
  <symbol fill="currentColor" viewBox="0 0 24 24" id="tick-confirmation">
    <path d="M12 1.8c5.633 0 10.2 4.567 10.2 10.2 0 5.633-4.567 10.2-10.2 10.2-5.633 0-10.2-4.567-10.2-10.2C1.8 6.367 6.367 1.8 12 1.8Zm4.605 5.4a.958.958 0 0 0-.65.259l-5.684 5.486-1.873-2.067a.962.962 0 0 0-1.303.05l-.384.382a.955.955 0 0 0-.072 1.276l3.074 3.83a.962.962 0 0 0 1.5 0l6.147-7.661c.137-.17.211-.38.211-.598a.962.962 0 0 0-.966-.957Z" style="fill-rule:evenodd"/>
  </symbol>
  <symbol viewBox="0 0 24 24" fill="currentColor" id="internet">
    <path fill-rule="evenodd" clip-rule="evenodd" d="M12 1.8C6.367 1.8 1.8 6.367 1.8 12c0 5.633 4.567 10.2 10.2 10.2 5.633 0 10.2-4.567 10.2-10.2 0-5.633-4.567-10.2-10.2-10.2Zm7.962 14.4h-3.04c.266-1.108.43-2.323.469-3.6h3.59a8.915 8.915 0 0 1-1.02 3.6Zm-16.255-.697A8.914 8.914 0 0 1 3.02 12.6h3.59c.039 1.277.202 2.492.468 3.6h-3.04a9.21 9.21 0 0 1-.331-.697ZM4.038 7.8h3.04a17.88 17.88 0 0 0-.469 3.6H3.02a8.914 8.914 0 0 1 1.02-3.6Zm11.767.492c.225 1.022.354 2.062.385 3.108H12.6V7.8h3.085c.042.161.082.325.12.492ZM12.6 6.6V3.107c.252.088.504.233.753.432.506.405.992 1.03 1.405 1.81.212.404.397.822.553 1.251H12.6Zm-1.953-3.06c.25-.2.501-.345.753-.433V6.6H8.689c.156-.429.34-.847.553-1.251.413-.78.899-1.405 1.405-1.81ZM11.4 7.8v3.6H7.81c.031-1.046.16-2.086.385-3.108.038-.167.077-.33.12-.492H11.4Zm-3.205 7.908A16.733 16.733 0 0 1 7.81 12.6h3.59v3.6H8.315a15.317 15.317 0 0 1-.12-.492ZM11.4 17.4v3.494a2.61 2.61 0 0 1-.753-.433c-.506-.405-.992-1.03-1.405-1.81A10.211 10.211 0 0 1 8.69 17.4H11.4Zm1.953 3.06c-.25.2-.501.345-.753.433V17.4h2.711c-.156.429-.34.847-.553 1.251-.413.78-.899 1.405-1.405 1.81ZM12.6 16.2v-3.6h3.59a16.735 16.735 0 0 1-.385 3.108c-.038.167-.078.33-.12.492H12.6Zm4.79-4.8a17.878 17.878 0 0 0-.468-3.6h3.04a8.915 8.915 0 0 1 1.018 3.6h-3.59Zm.974-5.764c.301.301.581.623.837.964h-2.619c-.408-1.231-.95-2.286-1.589-3.09a8.97 8.97 0 0 1 3.37 2.127Zm-9.867-1.93c.168-.07.338-.136.51-.197-.639.805-1.182 1.86-1.59 3.091H4.8a9.08 9.08 0 0 1 .837-.964 8.972 8.972 0 0 1 2.861-1.93ZM5.636 18.365a9.08 9.08 0 0 1-.837-.964h2.619c.407 1.231.95 2.286 1.589 3.09a8.973 8.973 0 0 1-3.37-2.127Zm9.867 1.93a8.945 8.945 0 0 1-.51.197c.639-.805 1.181-1.86 1.589-3.091h2.62c-.257.34-.537.663-.838.964a8.971 8.971 0 0 1-2.861 1.93Z"/>
  </symbol>
  <symbol fill="currentColor" viewBox="0 0 24 24" id="heart-empty">
    <path d="m18.162 11.841-6.167 6.732-6.167-6.732-.004-.003a3.152 3.152 0 0 1 .238-4.497 3.266 3.266 0 0 1 4.457.123l.944.884.532.505.532-.505.944-.884.009-.01a3.234 3.234 0 0 1 2.285-.931c1.784 0 3.23 1.425 3.231 3.183 0 .788-.296 1.547-.83 2.132l-.004.003Zm1.41-5.887c-2.09-2.06-5.47-2.072-7.577-.037-2.106-2.035-5.487-2.023-7.578.037a5.252 5.252 0 0 0-.1 7.403l7.678 8.343 7.679-8.343a5.252 5.252 0 0 0-.101-7.403Z" style="fill-rule:evenodd"/>
  </symbol>
  <symbol fill="currentColor" viewBox="0 0 24 24" id="tick">
    <path d="M19.712 5.76A1.55 1.55 0 0 0 17.1 4.622L7.92 13.56l-3.025-3.369a1.545 1.545 0 0 0-2.108.082l-.62.624a1.565 1.565 0 0 0-.114 2.077l4.965 6.24a1.546 1.546 0 0 0 2.423 0l9.931-12.48c.221-.276.34-.62.34-.974Z" style="fill-rule:evenodd"/>
  </symbol>
  <symbol fill="currentColor" viewBox="0 0 24 24" id="delete">
    <path d="M19.632 16.24a1.2 1.2 0 0 1 0 1.696l-1.696 1.696a1.2 1.2 0 0 1-1.696 0L12 15.392l-4.24 4.24a1.2 1.2 0 0 1-1.696 0l-1.696-1.696a1.2 1.2 0 0 1 0-1.696L8.608 12l-4.24-4.24a1.2 1.2 0 0 1 0-1.696l1.696-1.696a1.2 1.2 0 0 1 1.696 0L12 8.608l4.24-4.24a1.2 1.2 0 0 1 1.696 0l1.696 1.696a1.2 1.2 0 0 1 0 1.696L15.392 12l4.24 4.24Z" style="fill-rule:evenodd"/>
  </symbol>
  <symbol fill="currentColor" viewBox="0 0 24 24" id="download">
    <path d="M7.2 12.6V4.2A1.805 1.805 0 0 1 9 2.4h6a1.805 1.805 0 0 1 1.8 1.8v8.4h5.4l-8.571 8.349A2.353 2.353 0 0 1 12 21.6c-.607 0-1.19-.233-1.629-.651L1.801 12.6H7.2Z" style="fill-rule:evenodd"/>
  </symbol>
  <symbol fill="currentColor" viewBox="0 0 24 24" id="settings">
    <path d="M19.874 12c0-2.655 2.897-.646 1.548-3.902-1.35-3.257-1.977.211-3.855-1.666-1.877-1.877 1.592-2.504-1.664-3.853C12.646 1.23 14.654 4.126 12 4.126c-2.655 0-.646-2.896-3.903-1.547-3.256 1.349.212 1.976-1.665 3.853-1.877 1.877-2.505-1.59-3.854 1.666C1.228 11.354 4.126 9.345 4.126 12c0 2.655-2.897.646-1.548 3.902 1.35 3.257 1.977-.211 3.854 1.665 1.877 1.877-1.591 2.505 1.665 3.854 3.257 1.349 1.248-1.547 3.903-1.547 2.654 0 .646 2.896 3.903 1.547 3.256-1.349-.213-1.977 1.664-3.854 1.878-1.876 2.505 1.592 3.855-1.665 1.349-3.256-1.548-1.247-1.548-3.902Zm-7.862-4.788a4.8 4.8 0 1 1 0 9.6 4.8 4.8 0 0 1 0-9.6Z" style="fill-rule:evenodd"/>
  </symbol>
  <symbol fill="currentColor" viewBox="0 0 24 24" id="trash">
    <path d="M18 3.6h-3V3a1.2 1.2 0 0 0-1.2-1.2h-3.6A1.2 1.2 0 0 0 9 3v.6H6a1.8 1.8 0 0 0-1.8 1.8v1.2h15.6V5.4A1.8 1.8 0 0 0 18 3.6ZM10.2 3h3.6v.6h-3.6V3ZM5.4 7.2v15h13.2v-15H5.4ZM9 9.6v10.2a.6.6 0 1 1-1.2 0V9.6a.6.6 0 1 1 1.2 0Zm3.6 0v10.2a.6.6 0 0 1-1.2 0V9.6a.6.6 0 1 1 1.2 0Zm3.6 0v10.2a.6.6 0 0 1-1.2 0V9.6a.6.6 0 1 1 1.2 0Z" style="fill-rule:evenodd"/>
  </symbol>
  <symbol id="book-half" viewBox="0 0 1000 1000" fill="currentColor">
    <path
      fill-rule="evenodd"
      d="M700,175.031c-75,0-143.182,19.44-200,54.1C443.182,194.471,375,175,300,175H75V679.5c0,25,20,45.469,45,45.469L300,725c40,0,78.156,6.764,112.027,21.09,25.277,10.691,69.509,42.527,69.509,42.527C490,794.5,492.74,796.5,500,796.5s10-2,18.463-7.883c0,0,44.233-31.836,69.51-42.527C621.844,731.764,660,724.969,700,724.969l180-.032A45.186,45.186,0,0,0,925,679.5V174.969ZM875,649.867a25.105,25.105,0,0,1-25,25.123H700c-50,0-91.454,8.1-131.49,25.03C549.572,708.03,515,729.5,515,729.5c-4.11,2.966-10,4.25-15,4.25s-10.89-1.284-15-4.25c0,0-34.572-21.47-53.51-29.48C391.454,683.086,350,674.99,300,674.99H150a25.105,25.105,0,0,1-25-25.123V624.929H299.939c75,0,143.243,19.542,200.061,54.2,56.818-34.657,125-54.138,200-54.138H875v24.877ZM150,274.916H350a25.052,25.052,0,0,1,0,50.1H150A25.052,25.052,0,0,1,150,274.916Zm0,100.1H350a25,25,0,0,1,0,50H150A25,25,0,0,1,150,375.019Zm0,99.907H250a25.053,25.053,0,0,1,0,50.106H150A25.053,25.053,0,0,1,150,474.926ZM713.222,274a34.5,34.5,0,1,1-34.666,34.5A34.584,34.584,0,0,1,713.222,274ZM771,550H667V538.161l2.444-.077c7.19-.231,12.533-2.263,15.886-6.042,1.19-1.367,3.215-6.026,3.215-21.691V405.841c0-14.9-2.091-20.517-3.842-22.605-2.477-2.94-7.634-4.667-15.332-5.132L667,377.962V366h80.889V510.351c0,14.911,3.909,20.524,5.658,22.606,2.468,2.938,7.247,4.665,15.08,5.129l2.373,0.14V550Z"
    ></path>
  </symbol>
  <symbol id="braces-asterisk" viewBox="0 0 1000 1000" fill="currentColor">
    <path
      fill-rule="evenodd"
      d="M198.29,196.607a125,125,0,0,1,176.776,0L799.331,620.871A125,125,0,0,1,622.554,797.648L198.29,373.384A125,125,0,0,1,198.29,196.607Zm53.033,53.033a50,50,0,1,1,0,70.711A50,50,0,0,1,251.323,249.64ZM587.2,479.45L551.843,514.8,587.2,550.16l-35.355,35.356L516.488,550.16l-35.356,35.356L445.777,550.16,481.132,514.8,445.777,479.45l35.355-35.356,35.356,35.356,35.355-35.356ZM529.207,741.656a17.812,17.812,0,0,0-25.456,0L464.86,780.547l-39.082-38.874a17.583,17.583,0,0,0-25.264-.017l-40.305,40.305-53.033-3.535,0,0L348.1,819.351a17.917,17.917,0,0,0,25.544.087l38.89-38.891,38.891,38.891c7.122,7.122,19.013,6.443,26.163-.707l38.184-38.184,38.891,38.891c7.122,7.122,18.857,6.6,26.007-.55L593.554,806Zm68.606-566.422-195.748.018L526.94,300.127l195.748-.018h0C722.694,231.421,666.5,175.227,597.813,175.234Zm-84.88,35.727a12.5,12.5,0,0,1,12.5-12.5h75a12.5,12.5,0,0,1,0,25h-75A12.5,12.5,0,0,1,512.933,210.961Z"
    ></path>
  </symbol>
  <symbol id="check2" viewBox="0 0 1000 1000" fill="currentColor">
    <path d="M729.667 250 396.333 583.333l-125-125L188 541.667l125 125L396.333 750l83.334-83.333L813 333.333z"></path>
  </symbol>
  <symbol id="chevron-expand" viewBox="0 0 16 16" fill="currentColor">
    <path
      fill-rule="evenodd"
      d="M3.646 9.146a.5.5 0 0 1 .708 0L8 12.793l3.646-3.647a.5.5 0 0 1 .708.708l-4 4a.5.5 0 0 1-.708 0l-4-4a.5.5 0 0 1 0-.708zm0-2.292a.5.5 0 0 0 .708 0L8 3.207l3.646 3.647a.5.5 0 0 0 .708-.708l-4-4a.5.5 0 0 0-.708 0l-4 4a.5.5 0 0 0 0 .708z"
    ></path>
  </symbol>
  <symbol id="copy" viewBox="0 0 1000 1000" fill="currentColor">
    <path d="M600,125H125v500c0,55.2,44.8,100,100,100h25V225h450c0-55.2-44.8-100-100-100Z"></path><path
      d="M775,275h-475v500c0,55.2,44.8,100,100,100h475v-500c0-55.2-44.8-100-100-100Z"></path>
  </symbol>
  <symbol id="file-earmark-richtext" viewBox="0 0 1000 1000" fill="currentColor">
    <path
      fill-rule="evenodd"
      d="M625,75V225c0,27.614,19.9,50,44.444,50H825Zm50,250a100,100,0,0,1-100-100V75H175V874.773h0.006c0,0.076-.006.151-0.006,0.227a50,50,0,0,0,50,50H825V325H675ZM325,375H675a25,25,0,0,1,0,50H325A25,25,0,0,1,325,375Zm0,100H675a25,25,0,0,1,0,50H325A25,25,0,0,1,325,475Zm0,100H675a25,25,0,0,1,0,50H325A25,25,0,0,1,325,575ZM425,725H325a25,25,0,0,1,0-50H425A25,25,0,0,1,425,725Z"
    ></path>
  </symbol>
  <symbol id="globe2" viewBox="0 0 1000 1000" fill="currentColor">
    <path
      fill-rule="evenodd"
      d="M500,75C265.279,75,75,265.279,75,500S265.279,925,500,925,925,734.721,925,500,734.721,75,500,75ZM831.747,675H705.1c11.063-46.188,17.877-96.781,19.512-150H874.182a371.393,371.393,0,0,1-28.631,120.952Q839.26,660.825,831.747,675Zm-677.3-29.048A371.393,371.393,0,0,1,125.818,525H275.387c1.635,53.219,8.449,103.812,19.512,150H168.253Q160.767,660.817,154.449,645.952ZM168.253,325H294.9c-11.063,46.189-17.877,96.782-19.512,150H125.818a371.393,371.393,0,0,1,28.631-120.952Q160.74,339.175,168.253,325Zm490.274,20.5A697.239,697.239,0,0,1,674.58,475H525V325H653.554Q656.179,335.082,658.527,345.5ZM525,275V129.439c10.492,3.706,20.98,9.722,31.371,18.023,21.1,16.861,41.347,42.939,58.539,75.412A425.68,425.68,0,0,1,637.977,275H525ZM443.629,147.462c10.391-8.3,20.879-14.317,31.371-18.023V275H362.023a425.682,425.682,0,0,1,23.068-52.126C402.282,190.4,422.525,164.323,443.629,147.462ZM475,325V475H325.42a697.239,697.239,0,0,1,16.053-129.5q2.335-10.426,4.973-20.5H475ZM341.473,654.5A697.239,697.239,0,0,1,325.42,525H475V675H346.446Q343.821,664.919,341.473,654.5ZM475,725V870.562c-10.492-3.707-20.98-9.723-31.371-18.024-21.1-16.861-41.347-42.938-58.538-75.412A425.682,425.682,0,0,1,362.023,725H475Zm81.371,127.538c-10.391,8.3-20.879,14.317-31.371,18.024V725H637.977a425.68,425.68,0,0,1-23.067,52.126C597.718,809.6,577.475,835.677,556.371,852.538ZM525,675V525H674.58a697.239,697.239,0,0,1-16.053,129.5q-2.336,10.427-4.973,20.5H525ZM724.613,475c-1.635-53.218-8.449-103.811-19.512-150H831.747q7.487,14.183,13.8,29.048A371.393,371.393,0,0,1,874.182,475H724.613Zm40.552-240.165A378.352,378.352,0,0,1,800.054,275H690.917c-16.979-51.292-39.591-95.245-66.2-128.778q10.711,3.781,21.233,8.227A373.819,373.819,0,0,1,765.165,234.835ZM354.048,154.449q10.518-4.449,21.233-8.227c-26.607,33.533-49.219,77.486-66.2,128.778H199.946a378.352,378.352,0,0,1,34.889-40.165A373.819,373.819,0,0,1,354.048,154.449ZM234.835,765.165A378.352,378.352,0,0,1,199.946,725H309.083c16.979,51.292,39.591,95.245,66.2,128.779q-10.713-3.783-21.234-8.228A373.819,373.819,0,0,1,234.835,765.165Zm411.117,80.386q-10.518,4.449-21.234,8.228c26.608-33.534,49.22-77.487,66.2-128.779H800.054a378.352,378.352,0,0,1-34.889,40.165A373.819,373.819,0,0,1,645.952,845.551Z"
    ></path>
  </symbol>
  <symbol id="grid-fill" viewBox="0 0 1000 1000" fill="currentColor">
    <path
      fill-rule="evenodd"
      d="M175,125H425a50,50,0,0,1,50,50V425a50,50,0,0,1-50,50H175a50,50,0,0,1-50-50V175A50,50,0,0,1,175,125Zm0,400H425a50,50,0,0,1,50,50V825a50,50,0,0,1-50,50H175a50,50,0,0,1-50-50V575A50,50,0,0,1,175,525ZM575,125H825a50,50,0,0,1,50,50V425a50,50,0,0,1-50,50H575a50,50,0,0,1-50-50V175A50,50,0,0,1,575,125Zm0,400H825a50,50,0,0,1,50,50V825a50,50,0,0,1-50,50H575a50,50,0,0,1-50-50V575A50,50,0,0,1,575,525Z"
    ></path>
  </symbol>
  <symbol id="lightning-charge-fill" viewBox="0 0 16 16" fill="currentColor">
    <path
      d="M11.251.068a.5.5 0 0 1 .227.58L9.677 6.5H13a.5.5 0 0 1 .364.843l-8 8.5a.5.5 0 0 1-.842-.49L6.323 9.5H3a.5.5 0 0 1-.364-.843l8-8.5a.5.5 0 0 1 .615-.09z"
    ></path>
  </symbol>
  <symbol id="magic" viewBox="0 0 1000 1000" fill="currentColor">
    <path
      fill-rule="evenodd"
      d="M885.338,813.694l-70.644,70.644a49.937,49.937,0,0,1-70.661,0l-17.666-17.645L434.716,575.042H344.744l44.995-44.978,141.3-141.325,44-43.995v87.993l292.63,292.63,17.666,17.666A49.937,49.937,0,0,1,885.338,813.694ZM672.369,636.057L637.04,600.729a24.982,24.982,0,0,0-35.332,35.328L637.04,671.39A24.983,24.983,0,0,0,672.369,636.057ZM207.1,453.4h-0.021a25.008,25.008,0,0,1,0-35.332L419.071,206.083a25.008,25.008,0,0,1,35.332,0L562.376,314.078,315.078,561.4ZM349.993,175a25.016,25.016,0,0,1-25-25.011V100a25.008,25.008,0,1,1,50.015,0v49.981A25.02,25.02,0,0,1,349.993,175Zm-152.68,56.341-35-35a24.759,24.759,0,0,1,35-35.025l35.024,35.025A24.758,24.758,0,1,1,197.313,231.337ZM175.007,350.014a24.988,24.988,0,0,1-25,25H99.991a25.008,25.008,0,0,1,0-50.015h50.017A25.007,25.007,0,0,1,175.007,350.014Z"
    ></path>
  </symbol>
  <symbol id="menu-button-wide-fill" viewBox="0 0 1000 1000" fill="currentColor">
    <path
      fill-rule="evenodd"
      d="M837.5,275H450L375,175H100V762.5A62.5,62.5,0,0,0,162.5,825H900V337.5A62.5,62.5,0,0,0,837.5,275ZM275,625H175L275,450,375,625H275Zm325,0H425V450H600V625Zm137.5,0A87.5,87.5,0,1,1,825,537.5,87.5,87.5,0,0,1,737.5,625Z"
    ></path>
  </symbol>
  <symbol id="palette2" viewBox="0 0 1000 1000" fill="currentColor">
    <path
      fill-rule="evenodd"
      class="cls-1"
      d="M843.715,331.562l-159.1,159.1-17.678-17.678,159.1-159.1a25.073,25.073,0,0,0,0-35.355L719.971,172.463a25.073,25.073,0,0,0-35.355,0l-17.678,17.678,44.194,44.194a12.5,12.5,0,0,1-17.678,17.678L649.26,207.818l-35.355,35.356,26.516,26.516a12.5,12.5,0,0,1-17.677,17.678l-26.517-26.517-35.355,35.356L605.066,340.4a12.5,12.5,0,1,1-17.678,17.678l-44.194-44.195-17.677,17.678-17.678-17.678,159.1-159.1a50.148,50.148,0,0,1,70.711,0L843.715,260.851A50.148,50.148,0,0,1,843.715,331.562Zm-30.633,322.01a58.843,58.843,0,0,1,13.786,21.609c0.008,0.02.013,0.042,0.021,0.063,0.546,1.567,1.014,3.156,1.417,4.757s0.724,3.194.984,4.807c0.079,0.491.155,0.982,0.221,1.475a56.109,56.109,0,0,1-15.976,47.253l-44.21,44.179-34.84,34.814A56.12,56.12,0,0,1,694.7,829l-0.064,0q-2.571,0-5.135-.241c-0.172-.016-0.344-0.035-0.515-0.052q-2.3-.234-4.581-0.657c-0.309-.057-0.617-0.117-0.926-0.18-10.465-2.117-21.09-6.433-29.2-14.542l-246.5-246.7L225.222,384.567h0l-36.335-121.63h0l-17.561-57.828-3.482-13.9c0-.012-0.006-0.024-0.01-0.036q-0.2-.669-0.353-1.335c-0.036-.162-0.06-0.323-0.093-0.485-0.058-.293-0.119-0.586-0.164-0.877-0.028-.189-0.044-0.375-0.067-0.563-0.032-.263-0.067-0.526-0.088-0.787-0.015-.2-0.019-0.392-0.028-0.588-0.011-.25-0.026-0.5-0.027-0.748,0-.038-0.005-0.078-0.005-0.116,0-.281.013-0.558,0.026-0.836,0-.081,0-0.163.007-0.244,0.024-.4.062-0.8,0.111-1.2,0.013-.1.032-0.2,0.046-0.3,0.042-.292.087-0.582,0.143-0.869,0.027-.14.059-0.278,0.089-0.417,0.053-.245.109-0.491,0.172-0.734,0.039-.148.081-0.3,0.123-0.442,0.067-.231.137-0.46,0.212-0.688,0.049-.146.1-0.292,0.15-0.436,0.081-.228.169-0.454,0.259-0.678,0.055-.137.109-0.274,0.167-0.409,0.1-.239.214-0.474,0.327-0.708,0.054-.114.106-0.229,0.162-0.341q0.249-.492.525-0.967l0.025-.046c0.194-.331.4-0.654,0.613-0.972,0.069-.1.143-0.2,0.214-0.3,0.149-.213.3-0.424,0.456-0.631,0.09-.117.182-0.231,0.274-0.346q0.222-.278.453-0.548c0.1-.117.2-0.231,0.307-0.345q0.234-.26.478-0.51c0.106-.109.213-0.219,0.322-0.326,0.172-.168.349-0.331,0.527-0.493,0.106-.1.21-0.194,0.318-0.288,0.206-.179.417-0.35,0.63-0.52,0.087-.068.171-0.141,0.258-0.208q0.454-.35.929-0.671c0.061-.042.126-0.08,0.189-0.121,0.257-.17.518-0.336,0.784-0.493,0.116-.069.236-0.133,0.354-0.2,0.217-.123.436-0.243,0.659-0.357,0.134-.069.27-0.134,0.405-0.2,0.214-.1.43-0.2,0.648-0.3q0.211-.093.427-0.18c0.221-.09.444-0.174,0.67-0.256,0.142-.051.284-0.1,0.427-0.151,0.241-.081.484-0.153,0.728-0.224,0.132-.038.261-0.079,0.394-0.114,0.3-.081.613-0.151,0.923-0.217,0.075-.015.148-0.035,0.223-0.05q0.579-.114,1.171-0.191c0.1-.014.211-0.021,0.315-0.033,0.291-.033.583-0.062,0.877-0.081,0.145-.009.292-0.013,0.438-0.018,0.258-.011.516-0.018,0.777-0.018,0.158,0,.317,0,0.477.009,0.253,0.007.507,0.02,0.762,0.037,0.162,0.011.323,0.024,0.485,0.039,0.261,0.025.522,0.058,0.784,0.093,0.156,0.022.312,0.042,0.469,0.068,0.286,0.046.573,0.1,0.86,0.164,0.133,0.028.265,0.051,0.4,0.082,0.42,0.1.842,0.208,1.264,0.336L232.8,179.7l30.221,9.164h0l121.462,36.412ZM249.008,201.918l-46.532,46.5,36.59,122.164,21.524-21.716L694.169,782.137l17.682-17.67L278.272,331.2l53.048-53.011L764.9,711.457l17.683-17.67L349,260.514l22.256-22.032Zm82.054,324.1-17.678,17.677,44.195,44.194A12.5,12.5,0,1,1,339.9,605.566l-44.194-44.194-35.356,35.355,26.517,26.517a12.5,12.5,0,0,1-17.678,17.677l-26.516-26.516L207.318,649.76l44.195,44.194a12.5,12.5,0,0,1-17.678,17.678l-44.194-44.194-17.678,17.678a25.073,25.073,0,0,0,0,35.355L278.029,826.537a25.073,25.073,0,0,0,35.355,0l159.1-159.1,17.677,17.678-159.1,159.1a50.148,50.148,0,0,1-70.711,0L154.285,738.149a50.148,50.148,0,0,1,0-70.711l159.1-159.1Z"
    ></path>
  </symbol>
  <symbol id="repair-tools" viewBox="0 0 960 960" fill="currentColor">
    <path fill-rule="evenodd" d="M889,746.184l-0.079-.076-259.2-259.2L481.566,635.065,740.842,894.342h0A104.763,104.763,0,1,0,889,746.184Zm-370.4-370.395L439.8,296.981A183.371,183.371,0,0,0,197.732,91.954L314.889,209.111a26.192,26.192,0,0,1,0,37.039h0l-74.078,74.078a26.192,26.192,0,0,1-37.04,0l-0.015-.015L86.613,203.072A183.374,183.374,0,0,0,291.639,445.139l78.808,78.808ZM851.92,79.433L685.243,209.071,648.2,283.15l-277.795,277.8-37.04-37.04L110.147,747.128l0.013,0.013A104.755,104.755,0,0,0,258.292,895.274l0.013,0.013,0.985-.984h0L481.526,672.065l-37.04-37.04,277.8-277.8,74.079-37.039L926,153.512ZM166.69,801.7a13.1,13.1,0,0,1-18.521-18.52h0L314.848,616.505a13.1,13.1,0,0,1,18.52,18.521ZM388.926,690.585L222.25,857.262h0a13.1,13.1,0,1,1-18.519-18.52h0L370.408,672.064A13.1,13.1,0,0,1,388.926,690.585Z" transform="scale(.96)"/>
  </symbol>
  <symbol id="transfers" viewBox="0 0 1000 1000" fill="currentColor">
    <path
      fill-rule="evenodd"
      d="M950 675a62.48 62.48 0 01-18.094 43.908L700 950V825H450a75 75 0 01-75-75V600a75 75 0 0175-75h250V400l231.908 231.09A62.48 62.48 0 01950 675M550 475H300v125L68.092 368.91a62.32 62.32 0 010-87.816L300 50v125h250a75 75 0 0175 75v150a75 75 0 01-75 75"
    ></path>
  </symbol>
  <symbol id="ui-auto-mode" viewBox="0 0 1000 1000" fill="currentColor">
    <path
      d="M500 75C265.3 75 75 265.5 75 500.5S265.3 926 500 926s425-190.5 425-425.5S734.7 75 500 75m0 775V150c192.6.9 350 157.5 350 350.5S692.6 849.1 500 850"
    ></path>
  </symbol>
  <symbol id="ui-dark-mode" viewBox="0 0 1000 1000" fill="currentColor">
    <path
      d="M675 649.88c-179.493 0-325-145.57-325-325.141A324.478 324.478 0 0 1 465.721 76C247.03 93.463 75 276.537 75 499.815 75 734.638 265.279 925 500 925c223.181 0 406.175-172.106 423.63-390.891A324.222 324.222 0 0 1 675 649.88Z"
    ></path>
  </symbol>
  <symbol id="ui-light-mode" viewBox="0 0 1000 1000" fill="currentColor">
    <path
      d="M287.868 712.132a25.073 25.073 0 0 0-35.355 0l-53.033 53.033a25 25 0 0 0 35.355 35.355l53.033-53.033a25.073 25.073 0 0 0 0-35.355Zm424.264-424.264a25.073 25.073 0 0 0 35.355 0l53.033-53.033a25 25 0 0 0-35.355-35.355l-53.033 53.033a25.073 25.073 0 0 0 0 35.355Zm35.355 424.264a25.073 25.073 0 0 0-35.355 0 25.073 25.073 0 0 0 0 35.355l53.033 53.033a25 25 0 0 0 35.355-35.355ZM252.513 287.868a25.073 25.073 0 0 0 35.355 0 25.073 25.073 0 0 0 0-35.355l-53.033-53.033a25 25 0 0 0-35.355 35.355ZM200 500a25.073 25.073 0 0 0-25-25h-75a25 25 0 0 0 0 50h75a25.073 25.073 0 0 0 25-25Zm700-25h-75a25 25 0 0 0 0 50h75a25 25 0 0 0 0-50ZM500 800a25.073 25.073 0 0 0-25 25v75a25 25 0 0 0 50 0v-75a25.073 25.073 0 0 0-25-25Zm0-600a25.073 25.073 0 0 0 25-25v-75a25 25 0 0 0-50 0v75a25.073 25.073 0 0 0 25 25Zm0 50c-138.071 0-250 111.929-250 250s111.929 250 250 250 250-111.929 250-250-111.929-250-250-250Z"
    ></path>
  </symbol>
  <symbol id="ui-radios" viewBox="0 0 1000 1000" fill="currentColor">
    <path
      fill-rule="evenodd"
      d="M500,100C265.279,100,75,251.1,75,437.5c0,144.464,114.3,267.724,275,315.873V925L500,775c234.722,0,425-151.1,425-337.5S734.722,100,500,100Zm0,475H325a25,25,0,0,1,0-50H500A25,25,0,0,1,500,575ZM675,450H325a25,25,0,0,1,0-50H675A25,25,0,0,1,675,450Zm0-125H325a25,25,0,0,1,0-50H675A25,25,0,0,1,675,325Z"
    ></path>
  </symbol>
</svg>
