<svg xmlns="http://www.w3.org/2000/svg">
  <symbol fill="currentColor" viewBox="0 0 24 24" id="error-severe">
    <path d="M21.94 17.677 13.967 4.031a2.278 2.278 0 0 0-3.935 0L2.08 17.644v.001l-.02.032a2.27 2.27 0 0 0-.007 2.279 2.28 2.28 0 0 0 1.975 1.142h15.944a2.28 2.28 0 0 0 1.976-1.142 2.27 2.27 0 0 0-.009-2.279Zm-6.417-.265a.938.938 0 0 1-1.325 0L12 15.217l-2.198 2.195a.938.938 0 0 1-1.574-.416.934.934 0 0 1 .25-.907l2.197-2.194-2.12-2.117a.934.934 0 0 1 .004-1.319.939.939 0 0 1 1.321-.004L12 12.57l2.12-2.116a.938.938 0 0 1 1.575.416.934.934 0 0 1-.25.907l-2.12 2.117 2.198 2.194a.935.935 0 0 1 0 1.323Z" style="fill-rule:evenodd"/>
  </symbol>
  <symbol fill="currentColor" viewBox="0 0 24 24" id="important">
    <path d="M12 1.77C6.35 1.77 1.77 6.35 1.77 12S6.35 22.23 12 22.23 22.23 17.65 22.23 12 17.65 1.77 12 1.77Zm-.958 3.896c.245-.261.566-.395.958-.409.392.014.713.148.958.41.258.275.387.66.387 1.153 0 .362-.508 7.023-.632 7.293-.125.27-.348.406-.669.406-.016 0-.029-.005-.044-.005-.016 0-.029.005-.045.005-.32 0-.543-.135-.668-.405s-.632-6.932-.632-7.294c0-.493.129-.878.387-1.154Zm1.902 12.72c-.255.233-.59.36-.935.357-.35.004-.688-.121-.95-.353-.27-.234-.404-.562-.404-.984 0-.368.129-.682.387-.94a1.29 1.29 0 0 1 .95-.388c.373 0 .692.13.957.388.258.244.402.585.396.94 0 .416-.133.742-.4.98Z" style="fill-rule:evenodd"/>
  </symbol>
  <symbol fill="currentColor" viewBox="0 0 24 24" id="info">
    <path d="M12 1.8C6.367 1.8 1.8 6.367 1.8 12c0 5.633 4.567 10.2 10.2 10.2 5.633 0 10.2-4.567 10.2-10.2 0-5.633-4.567-10.2-10.2-10.2Zm0 2.4a1.8 1.8 0 1 1 0 3.6 1.8 1.8 0 0 1 0-3.6Zm3 14.4H9.6v-.618l.127-.004c.373-.012.65-.118.825-.315.062-.071.167-.314.167-1.132V11.08c0-.778-.109-1.07-.2-1.18-.128-.153-.396-.243-.796-.268L9.6 9.624V9h4.2v7.531c0 .778.203 1.071.294 1.18.128.153.376.243.783.267l.123.008v.614Z" style="fill-rule:evenodd"/>
  </symbol>
  <symbol fill="currentColor" viewBox="0 0 24 24" id="tick-confirmation">
    <path d="M12 1.8c5.633 0 10.2 4.567 10.2 10.2 0 5.633-4.567 10.2-10.2 10.2-5.633 0-10.2-4.567-10.2-10.2C1.8 6.367 6.367 1.8 12 1.8Zm4.605 5.4a.958.958 0 0 0-.65.259l-5.684 5.486-1.873-2.067a.962.962 0 0 0-1.303.05l-.384.382a.955.955 0 0 0-.072 1.276l3.074 3.83a.962.962 0 0 0 1.5 0l6.147-7.661c.137-.17.211-.38.211-.598a.962.962 0 0 0-.966-.957Z" style="fill-rule:evenodd"/>
  </symbol>
  <symbol viewBox="0 0 46 48" fill="currentColor" id="internet">
    <path fill-rule="evenodd" clip-rule="evenodd" d="M12 1.8C6.367 1.8 1.8 6.367 1.8 12c0 5.633 4.567 10.2 10.2 10.2 5.633 0 10.2-4.567 10.2-10.2 0-5.633-4.567-10.2-10.2-10.2Zm7.962 14.4h-3.04c.266-1.108.43-2.323.469-3.6h3.59a8.915 8.915 0 0 1-1.02 3.6Zm-16.255-.697A8.914 8.914 0 0 1 3.02 12.6h3.59c.039 1.277.202 2.492.468 3.6h-3.04a9.21 9.21 0 0 1-.331-.697ZM4.038 7.8h3.04a17.88 17.88 0 0 0-.469 3.6H3.02a8.914 8.914 0 0 1 1.02-3.6Zm11.767.492c.225 1.022.354 2.062.385 3.108H12.6V7.8h3.085c.042.161.082.325.12.492ZM12.6 6.6V3.107c.252.088.504.233.753.432.506.405.992 1.03 1.405 1.81.212.404.397.822.553 1.251H12.6Zm-1.953-3.06c.25-.2.501-.345.753-.433V6.6H8.689c.156-.429.34-.847.553-1.251.413-.78.899-1.405 1.405-1.81ZM11.4 7.8v3.6H7.81c.031-1.046.16-2.086.385-3.108.038-.167.077-.33.12-.492H11.4Zm-3.205 7.908A16.733 16.733 0 0 1 7.81 12.6h3.59v3.6H8.315a15.317 15.317 0 0 1-.12-.492ZM11.4 17.4v3.494a2.61 2.61 0 0 1-.753-.433c-.506-.405-.992-1.03-1.405-1.81A10.211 10.211 0 0 1 8.69 17.4H11.4Zm1.953 3.06c-.25.2-.501.345-.753.433V17.4h2.711c-.156.429-.34.847-.553 1.251-.413.78-.899 1.405-1.405 1.81ZM12.6 16.2v-3.6h3.59a16.735 16.735 0 0 1-.385 3.108c-.038.167-.078.33-.12.492H12.6Zm4.79-4.8a17.878 17.878 0 0 0-.468-3.6h3.04a8.915 8.915 0 0 1 1.018 3.6h-3.59Zm.974-5.764c.301.301.581.623.837.964h-2.619c-.408-1.231-.95-2.286-1.589-3.09a8.97 8.97 0 0 1 3.37 2.127Zm-9.867-1.93c.168-.07.338-.136.51-.197-.639.805-1.182 1.86-1.59 3.091H4.8a9.08 9.08 0 0 1 .837-.964 8.972 8.972 0 0 1 2.861-1.93ZM5.636 18.365a9.08 9.08 0 0 1-.837-.964h2.619c.407 1.231.95 2.286 1.589 3.09a8.973 8.973 0 0 1-3.37-2.127Zm9.867 1.93a8.945 8.945 0 0 1-.51.197c.639-.805 1.181-1.86 1.589-3.091h2.62c-.257.34-.537.663-.838.964a8.971 8.971 0 0 1-2.861 1.93Z"/>
  </symbol>
  <symbol fill="currentColor" viewBox="0 0 24 24" id="heart-empty">
    <path d="m18.162 11.841-6.167 6.732-6.167-6.732-.004-.003a3.152 3.152 0 0 1 .238-4.497 3.266 3.266 0 0 1 4.457.123l.944.884.532.505.532-.505.944-.884.009-.01a3.234 3.234 0 0 1 2.285-.931c1.784 0 3.23 1.425 3.231 3.183 0 .788-.296 1.547-.83 2.132l-.004.003Zm1.41-5.887c-2.09-2.06-5.47-2.072-7.577-.037-2.106-2.035-5.487-2.023-7.578.037a5.252 5.252 0 0 0-.1 7.403l7.678 8.343 7.679-8.343a5.252 5.252 0 0 0-.101-7.403Z" style="fill-rule:evenodd"/>
  </symbol>
  <symbol fill="currentColor" viewBox="0 0 24 24" id="tick">
    <path d="M19.712 5.76A1.55 1.55 0 0 0 17.1 4.622L7.92 13.56l-3.025-3.369a1.545 1.545 0 0 0-2.108.082l-.62.624a1.565 1.565 0 0 0-.114 2.077l4.965 6.24a1.546 1.546 0 0 0 2.423 0l9.931-12.48c.221-.276.34-.62.34-.974Z" style="fill-rule:evenodd"/>
  </symbol>
  <symbol fill="currentColor" viewBox="0 0 24 24" id="delete">
    <path d="M19.632 16.24a1.2 1.2 0 0 1 0 1.696l-1.696 1.696a1.2 1.2 0 0 1-1.696 0L12 15.392l-4.24 4.24a1.2 1.2 0 0 1-1.696 0l-1.696-1.696a1.2 1.2 0 0 1 0-1.696L8.608 12l-4.24-4.24a1.2 1.2 0 0 1 0-1.696l1.696-1.696a1.2 1.2 0 0 1 1.696 0L12 8.608l4.24-4.24a1.2 1.2 0 0 1 1.696 0l1.696 1.696a1.2 1.2 0 0 1 0 1.696L15.392 12l4.24 4.24Z" style="fill-rule:evenodd"/>
  </symbol>
  <symbol fill="currentColor" viewBox="0 0 24 24" id="download">
    <path d="M7.2 12.6V4.2A1.805 1.805 0 0 1 9 2.4h6a1.805 1.805 0 0 1 1.8 1.8v8.4h5.4l-8.571 8.349A2.353 2.353 0 0 1 12 21.6c-.607 0-1.19-.233-1.629-.651L1.801 12.6H7.2Z" style="fill-rule:evenodd"/>
  </symbol>
  <symbol fill="currentColor" viewBox="0 0 24 24" id="settings">
    <path d="M19.874 12c0-2.655 2.897-.646 1.548-3.902-1.35-3.257-1.977.211-3.855-1.666-1.877-1.877 1.592-2.504-1.664-3.853C12.646 1.23 14.654 4.126 12 4.126c-2.655 0-.646-2.896-3.903-1.547-3.256 1.349.212 1.976-1.665 3.853-1.877 1.877-2.505-1.59-3.854 1.666C1.228 11.354 4.126 9.345 4.126 12c0 2.655-2.897.646-1.548 3.902 1.35 3.257 1.977-.211 3.854 1.665 1.877 1.877-1.591 2.505 1.665 3.854 3.257 1.349 1.248-1.547 3.903-1.547 2.654 0 .646 2.896 3.903 1.547 3.256-1.349-.213-1.977 1.664-3.854 1.878-1.876 2.505 1.592 3.855-1.665 1.349-3.256-1.548-1.247-1.548-3.902Zm-7.862-4.788a4.8 4.8 0 1 1 0 9.6 4.8 4.8 0 0 1 0-9.6Z" style="fill-rule:evenodd"/>
  </symbol>
  <symbol fill="currentColor" viewBox="0 0 24 24" id="trash">
    <path d="M18 3.6h-3V3a1.2 1.2 0 0 0-1.2-1.2h-3.6A1.2 1.2 0 0 0 9 3v.6H6a1.8 1.8 0 0 0-1.8 1.8v1.2h15.6V5.4A1.8 1.8 0 0 0 18 3.6ZM10.2 3h3.6v.6h-3.6V3ZM5.4 7.2v15h13.2v-15H5.4ZM9 9.6v10.2a.6.6 0 1 1-1.2 0V9.6a.6.6 0 1 1 1.2 0Zm3.6 0v10.2a.6.6 0 0 1-1.2 0V9.6a.6.6 0 1 1 1.2 0Zm3.6 0v10.2a.6.6 0 0 1-1.2 0V9.6a.6.6 0 1 1 1.2 0Z" style="fill-rule:evenodd"/>
  </symbol>
</svg>
