<svg xmlns="http://www.w3.org/2000/svg" viewBox="0 0 400 225">
  <path fill="#4bb4e6" d="M400 225H0V0h400v225"/>
  <path fill="#666" d="M400 225H0v-56.04h400V225"/>
  <path fill="#040606" d="M105.37 137.68h-10.9a2.1 2.1 0 01-2.1-2.1v-6.87c0-1.16.94-2.1 2.1-2.1h3.42c.76 0 1.45.41 1.82 1.07l5.66 10"/>
  <path fill="#040606" d="M94.17 128.66a.97.97 0 01-1.37 0l-2.65-2.65a.97.97 0 010-1.37.97.97 0 011.37 0l2.65 2.65c.38.38.38 1 0 1.37"/>
  <path fill="#040606" d="M85.34 129.45a.97.97 0 010-1.37l8.25-8.25a.97.97 0 011.37 0c.38.38.38 1 0 1.37l-8.25 8.25a.97.97 0 01-1.37 0"/>
  <path fill="#ffd200" d="M77.13 123.12L67.58 116l-4.2-.4s-2.59 1.89-2.59 8.16V126l-.01 8.89h16.51l-3.37-7.23s2.98 2.3 11.65 2.23v-3.9s-4.27.11-8.44-2.86"/>
  <path fill="#532727" d="M71.44 108.29l-.03 1.32s-.1 4.25-4.63 4.77c-2.9.33-5.88-3.18-6.82-5.97-1.39-4.13.1-6.4 3.09-7.39 3.28-1.08 5.98.03 7.65 3.5l1.94 2.79-1.2.98"/>
  <path fill="#532727" d="M63.37 115.61l4.21.4.01-2.09-4.23-.77.01 2.46"/>
  <path fill="#040606" d="M64.51 105.15a10.17 10.17 0 011.4 3.11l-.6.25s-.6-1.78-1.95-1.23c-1.2.48-.56 2-.56 2 .65 2.11.57 4.3.57 4.3-1.46-1.67-3.81-3.93-4.47-5.67-1.62-4.3.4-5.99 3.3-7.19 0 0 5.55-1.9 7.2 1.78l-4.89 2.65"/>
  <path fill="#f46c20" d="M71.7 101.6l-12.8 6.3s-3.4-6.01 2.49-8.74c5.9-2.73 8.22 2.1 8.22 2.1l2.1.35"/>
  <path fill="#040606" d="M68.35 106.33a.57.57 0 101.15 0 .57.57 0 00-1.15 0"/>
  <path fill="#532727" d="M85.57 125.99s1.3-.37 2.6-1.09c1.28-.7 1.5.2.88.84h1.7s.9-.05.9.77c0 .92.1 3.64-6.08 3.37v-3.9"/>
  <path fill="#4a4c4f" d="M106.71 147.11c-.44.56-1.17.87-2.06.87H53.09a3.7 3.7 0 01-3.69-3.69V98.34a3.7 3.7 0 013.69-3.69h37.98a5.6 5.6 0 015.05 4l10.96 46.26c.2.86.07 1.65-.37 2.2zm55.42-49.7l-39.03 2.33-.37-5.98a3.75 3.75 0 00-3.96-3.5l-3.7.24-.92-14.58a4.72 4.72 0 00-4.99-4.4 4.72 4.72 0 00-4.4 5l3.58 56.29-8.3-35.09a9.54 9.54 0 00-8.97-7.09H53.09a7.72 7.72 0 00-7.7 7.71v45.95a7.7 7.7 0 007.7 7.7h51.56c1.88 0 3.59-.69 4.79-1.91l.5 7.86a4.72 4.72 0 005 4.4 4.72 4.72 0 004.39-5l-3.52-55.3c.2.64.82 1.08 1.5 1.04l45-2.7a1.5 1.5 0 001.4-1.57 1.5 1.5 0 00-1.58-1.4"/>
  <path fill="#56c382" d="M114.24 162.36H45.66a2.96 2.96 0 01-2.96-2.97v-30.44a2.96 2.96 0 012.96-2.96H66.1c1.06 0 2.04.56 2.57 1.48l3.16 5.3c.5.88 1.43 1.44 2.44 1.49l27.96.67c1 .05 1.93.6 2.43 1.48l12.16 21.5a2.97 2.97 0 01-2.57 4.45"/>
  <path fill="#fbce17" d="M158.5 97.61l-32.55 1.96-1.59-26.37 32.55-1.96 1.59 26.37"/>
  <path fill="#faf89f" d="M156.22 94.82l-28.35 1.7-1.24-20.6 28.36-1.7 1.23 20.6"/>
  <path fill="#fbce17" d="M153.62 94.57l-2.57.16-1.2-19.8 2.58-.16 1.2 19.8m-5.16.31l-2.58.16-1.2-19.8 2.59-.16 1.19 19.8m-5.16.32l-2.57.15-1.2-19.8 2.58-.16 1.2 19.8m-5.16.31l-2.58.16-1.2-19.8 2.59-.16 1.19 19.8m-5.16.32l-2.58.15-1.19-19.8 2.58-.15 1.2 19.8"/>
  <path fill="#7f8283" d="M151.26 76.78l-2.49 4.18 1.44-.09.23 3.8 2.58-.16-.23-3.8 1.44-.08-2.97-3.85"/>
  <path fill="#040606" d="M117.7 156.92a11.88 11.88 0 11-23.75 0 11.88 11.88 0 0123.76 0"/>
  <path fill="#7f8283" d="M112.76 156.92a6.93 6.93 0 11-13.86 0 6.93 6.93 0 0113.86 0"/>
  <path fill="#4a4c4f" d="M102.47 161.33a.75.75 0 11-1.05-1.05.75.75 0 011.05 1.05m7.77-7.76a.75.75 0 11-1.06-1.06.75.75 0 011.06 1.06m-8.82 0a.75.75 0 111.05-1.06.75.75 0 01-1.05 1.06m7.76 7.76a.75.75 0 111.06-1.05.75.75 0 01-1.06 1.05m-1.16-4.41a2.2 2.2 0 11-4.38 0 2.2 2.2 0 014.38 0"/>
  <path fill="#040606" d="M65.02 165.57a11 11 0 11-15.57-15.56 11 11 0 0115.57 15.56"/>
  <path fill="#7f8283" d="M61.77 162.33a6.42 6.42 0 11-9.07-9.08 6.42 6.42 0 019.07 9.08"/>
  <path fill="#4a4c4f" d="M52.14 158.49a.7.7 0 110-1.39.7.7 0 010 1.39m10.18 0a.7.7 0 110-1.39.7.7 0 010 1.39m-5.78-5.79a.7.7 0 111.38 0 .7.7 0 01-1.38 0m0 10.18a.7.7 0 111.38 0 .7.7 0 01-1.38 0m2.13-3.65a2.03 2.03 0 11-2.87-2.88 2.03 2.03 0 012.87 2.88m7.93-20.1H47.66a1.6 1.6 0 01-1.61-1.61v-6.6c0-.9.72-1.61 1.6-1.61h15.03c.57 0 1.1.3 1.38.78l3.94 6.6a1.6 1.6 0 01-1.38 2.44"/>
  <path fill="#faf89f" d="M355.65 127.81c0 3.74-.8 6.77-1.79 6.77s-1.79-3.03-1.79-6.77c0-3.74.8-6.77 1.79-6.77s1.79 3.03 1.79 6.77"/>
  <path fill="#4a4c4f" d="M353.11 135.4a.75.75 0 01-.75-.75v-13.68a.75.75 0 111.5 0v13.68c0 .41-.33.75-.75.75"/>
  <path fill="#7f8283" d="M304.53 153.02H196.46a3.5 3.5 0 01-3.49-3.49 3.5 3.5 0 013.5-3.5h108.06a3.5 3.5 0 013.49 3.5 3.5 3.5 0 01-3.5 3.5m24.38-91h-43.16v77.05h67.37v-27.22c0-1.25-.24-2.49-.7-3.64L335.86 67.1a7.32 7.32 0 00-6.97-5.07"/>
  <path fill="#ade4ee" d="M340.14 103.6a1.85 1.85 0 001.72-2.54l-11.54-28.68a5.56 5.56 0 00-5.3-3.85H294.1c-1.02 0-1.85.83-1.85 1.86v31.36c0 1.02.83 1.85 1.85 1.85h46.04"/>
  <path fill="#f46c20" d="M285.74 139.08H143.8V25.1c0-.6.48-1.08 1.07-1.08h139.8c.59 0 1.07.48 1.07 1.08v113.97"/>
  <path fill="#4a4c4f" d="M338.57 139.08a22.27 22.27 0 00-38 0H200.1a22.27 22.27 0 00-38 0h-18.3V144a5.53 5.53 0 005.53 5.53h198.25a5.53 5.53 0 005.53-5.53v-4.93h-14.54"/>
  <path fill="#040606" d="M199.36 150.67a18.25 18.25 0 11-36.5 0 18.25 18.25 0 0136.5 0"/>
  <path fill="#7f8283" d="M191.75 150.67a10.64 10.64 0 11-21.29 0 10.64 10.64 0 0121.3 0"/>
  <path fill="#4a4c4f" d="M182.26 159.12a1.15 1.15 0 11-2.3 0 1.15 1.15 0 012.3 0m0-16.88a1.15 1.15 0 11-2.3 0 1.15 1.15 0 012.3 0m-9.59 9.59a1.15 1.15 0 110-2.3 1.15 1.15 0 010 2.3m16.88 0a1.15 1.15 0 110-2.3 1.15 1.15 0 010 2.3m-5.07-1.16a3.37 3.37 0 11-6.74 0 3.37 3.37 0 016.74 0"/>
  <path fill="#040606" d="M332.47 163.57a18.25 18.25 0 11-25.8-25.8 18.25 18.25 0 0125.8 25.8"/>
  <path fill="#7f8283" d="M327.1 158.2a10.64 10.64 0 11-15.06-15.06 10.64 10.64 0 0115.05 15.06"/>
  <path fill="#4a4c4f" d="M314.4 157.46a1.15 1.15 0 11-1.62-1.63 1.15 1.15 0 011.62 1.63m11.94-11.94a1.15 1.15 0 11-1.62-1.63 1.15 1.15 0 011.62 1.63m-13.56 0a1.15 1.15 0 111.62-1.63 1.15 1.15 0 01-1.62 1.63m11.94 11.94a1.15 1.15 0 111.62-1.63 1.15 1.15 0 01-1.62 1.63m-2.77-4.41a3.37 3.37 0 11-4.77-4.76 3.37 3.37 0 014.77 4.76m-17.29-40.08h-6.69a1 1 0 01-1-1 1 1 0 011-.99h6.7a1 1 0 01.99 1 1 1 0 01-1 1"/>
  <path fill="#fff" d="M212.98 48.27a33.28 33.28 0 00-30.19 19.25h20.6v-9.56c0-1.46 1.69-2.3 2.85-1.4l30.87 23.59c.92.7.92 2.1 0 2.81l-30.87 23.6a1.77 1.77 0 01-2.84-1.41v-9.56h-20.6a33.28 33.28 0 1030.18-47.32"/>
  <path fill="#f46c20" d="M324.76 95.92l-2.5 7.68h8.28l1.6-5.3-7.38-2.38"/>
  <path fill="#f2c29f" d="M312.7 85.44l-.39 1.39s-1.25 4.48-6.19 3.8c-3.15-.42-5.59-3.4-5.62-8.16-.02-4.76 1.84-6.75 5.26-6.99 3.77-.26 6.33 1.64 7.17 5.77l1.28 3.88-1.5.3"/>
  <path fill="#f2c29f" d="M302.04 91.6l4.35 1.55.72-2.78-4.28-1.95-.8 3.17"/>
  <path fill="#532727" d="M303.28 84.17c.12 2.4-.55 4.7-.55 4.7-2.05-1.71-4.01-4.42-3.93-7.2.1-3.17 1.84-6.68 5.4-7.03 0 0 7.54-.97 7.9 4.12-1.57 1.5-5.9 1.48-5.9 1.48.64 1.44.64 3.68.64 3.68l-.7.1s-.15-2.05-1.73-1.83c-1.4.2-1.13 1.98-1.13 1.98"/>
  <path fill="#f9a91a" d="M296.98 103.6c1.94-10.45 5.06-12 5.06-12l4.35 1.55 5.43 10.45h-14.84"/>
  <path fill="#040606" d="M309.95 82.53a.63.63 0 101.22.3.63.63 0 00-1.22-.3"/>
  <path fill="#f2c29f" d="M319.48 103.6s1.13-.88 2.1-2.12c.98-1.24 1.57-.44 1.22.46l1.67-.71s.89-.43 1.23.38c.17.4.5 1.12.3 2h-6.52"/>
</svg>
