<?xml version="1.0" encoding="UTF-8"?>
<svg width="305px" height="110px" viewBox="0 0 305 110" version="1.1" xmlns="http://www.w3.org/2000/svg" xmlns:xlink="http://www.w3.org/1999/xlink">
    <title>01 Logos / 03 Orange Business Services / Left Aligned White Descriptor</title>
    <g id="Core-elements" stroke="none" stroke-width="1" fill="none" fill-rule="evenodd">
        <g id="Logos" transform="translate(-360.000000, -1020.000000)">
            <g id="OBS-Logo" transform="translate(60.000000, 940.000000)">
                <g id="Orange-Business-Services" transform="translate(300.000000, 80.000000)">
                    <rect id="Rectangle" fill="#FF7900" x="0" y="0" width="110" height="110"></rect>
                    <path d="M43.0716312,99.1716312 C41.578817,100.171447 39.8207925,100.7013 38.0241135,100.692908 C36.812748,100.781699 35.6215445,100.346243 34.7530368,99.497135 C33.8845291,98.6480269 33.4222798,97.4669626 33.4836879,96.2539007 C33.4836879,92.829078 36.6042553,91.0191489 43.1106383,90.2858156 L43.1106383,89.435461 C43.1106383,88.3276596 42.2680851,87.6801418 40.7078014,87.6801418 C39.2699119,87.6511461 37.9024731,88.3016191 37.0177305,89.435461 L34.2950355,87.8751773 C35.7252955,85.8884161 37.8966903,84.892435 40.8092199,84.887234 C44.7879433,84.887234 47.0503546,86.6113475 47.0503546,89.4198582 C47.0503546,89.4198582 47.0503546,100.474468 47.0503546,100.497872 L43.4304965,100.497872 L43.0716312,99.1716312 Z M37.4390071,95.9574468 C37.3887163,96.4706228 37.555928,96.9813709 37.899967,97.3654489 C38.244006,97.749527 38.7333401,97.971733 39.2489362,97.9780142 C40.6497735,97.9232355 41.9796664,97.3473195 42.9780142,96.3631206 L42.9780142,92.7432624 C39.2177305,93.1801418 37.4390071,94.1475177 37.4390071,95.9574468 Z" id="Shape" fill="#FFFFFF" fill-rule="nonzero"></path>
                    <path d="M50.1787234,85.6361702 L53.5021277,85.1758865 L53.8687943,86.9858156 C55.7489362,85.612766 57.2390071,84.8794326 59.1191489,84.8794326 C62.2397163,84.8794326 63.8858156,86.5489362 63.8858156,89.8489362 L63.8858156,100.490071 L59.8680851,100.490071 L59.8680851,90.5510638 C59.8680851,88.6787234 59.3765957,87.8361702 57.9177305,87.8361702 C56.5103421,87.9378266 55.1853461,88.5380857 54.1808511,89.529078 L54.1808511,100.490071 L50.1787234,100.490071 L50.1787234,85.6361702 Z" id="Path" fill="#FFFFFF" fill-rule="nonzero"></path>
                    <path d="M90.5198582,100.786525 C86.0184397,100.786525 83.3269504,97.8921986 83.3269504,92.8602837 C83.3269504,87.8283688 86.0496454,84.8794326 90.4574468,84.8794326 C94.8652482,84.8794326 97.4787234,87.6879433 97.4787234,92.6808511 C97.4787234,92.9460993 97.4787234,93.2113475 97.4787234,93.4609929 L87.3368794,93.4609929 C87.3368794,96.3553191 88.5695035,97.8219858 90.9333333,97.8219858 C92.3590777,97.851505 93.6872958,97.100643 94.3971631,95.8638298 L97.3460993,97.4943262 C95.9964539,99.6475177 93.6638298,100.786525 90.5198582,100.786525 Z M93.5312057,90.8475177 C93.5312057,88.7957447 92.3687943,87.6021277 90.4574468,87.6021277 C88.5460993,87.6021277 87.5085106,88.7723404 87.3368794,90.8475177 L93.5312057,90.8475177 Z" id="Shape" fill="#FFFFFF" fill-rule="nonzero"></path>
                    <path d="M13.5120567,100.950355 C9.54113475,100.950355 5.95248227,98.4148936 5.95248227,92.8914894 C5.95248227,87.3680851 9.54113475,84.8248227 13.5120567,84.8248227 C17.4829787,84.8248227 21.0716312,87.3602837 21.0716312,92.8914894 C21.0716312,98.422695 17.5141844,100.950355 13.5120567,100.950355 Z M13.5120567,88.2184397 C10.5085106,88.2184397 9.95460993,90.9333333 9.95460993,92.8992908 C9.95460993,94.8652482 10.5085106,97.5801418 13.5120567,97.5801418 C16.5156028,97.5801418 17.0695035,94.8730496 17.0695035,92.8992908 C17.0695035,90.9255319 16.5156028,88.2184397 13.5120567,88.2184397 Z" id="Shape" fill="#FFFFFF" fill-rule="nonzero"></path>
                    <path d="M23.8333333,85.222695 L27.6560284,85.222695 L27.6560284,87.0560284 C28.7083788,85.8001652 30.2329623,85.0350501 31.8687943,84.941844 C32.0400753,84.9263374 32.212407,84.9263374 32.3836879,84.941844 L32.3836879,88.7099291 L32.1886525,88.7099291 C30.4411348,88.7099291 28.5297872,88.9829787 27.9134752,90.3404255 L27.9134752,100.48227 L23.8333333,100.48227 L23.8333333,85.222695 Z" id="Path" fill="#FFFFFF" fill-rule="nonzero"></path>
                    <path d="M73.7312057,97.1978723 C76.7815603,97.1978723 77.0390071,94.077305 77.0390071,92.0489362 C77.0390071,89.6617021 75.8687943,87.7113475 73.7,87.7113475 C72.2567376,87.7113475 70.641844,88.7723404 70.641844,92.212766 C70.641844,94.1241135 70.7822695,97.2446809 73.7312057,97.1978723 Z M80.9007092,85.1446809 L80.9007092,99.6163121 C80.9007092,102.167376 80.7056738,106.37234 73.4269504,106.419149 C70.4234043,106.419149 67.6382979,105.241135 67.0765957,102.612057 L71.0475177,101.97234 C71.2113475,102.752482 71.6716312,103.478014 73.9262411,103.478014 C76.0092199,103.478014 77.0468085,102.479433 77.0468085,100.092199 L77.0468085,98.3134752 L76.9921986,98.2588652 C76.2588844,99.7405216 74.6914337,100.620277 73.0446809,100.474468 C69.487234,100.474468 66.6787234,98.0092199 66.6787234,92.8368794 C66.6787234,87.664539 69.5730496,84.8716312 72.8262411,84.8638298 C75.8687943,84.8638298 77.0078014,86.2524823 77.2652482,86.9858156 L77.2184397,86.9858156 L77.5460993,85.1602837 L80.9007092,85.1446809 Z" id="Shape" fill="#FFFFFF" fill-rule="nonzero"></path>
                    <path d="M99.0624113,80.1049645 L97.5021277,80.1049645 L97.5021277,84.4815603 L96.6673759,84.4815603 L96.6673759,80.1049645 L95.1070922,80.1049645 L95.1070922,79.4262411 L99.1014184,79.4262411 L99.0624113,80.1049645 Z M105.670213,84.4815603 L104.812057,84.4815603 L104.812057,80.2609929 L104.812057,80.2609929 L103.158156,84.4815603 L102.62766,84.4815603 L100.989362,80.2609929 L100.989362,80.2609929 L100.989362,84.4815603 L100.162411,84.4815603 L100.162411,79.4262411 L101.441844,79.4262411 L102.955319,83.264539 L104.437589,79.4262411 L105.670213,79.4262411 L105.670213,84.4815603 Z" id="Shape" fill="#FFFFFF" fill-rule="nonzero"></path>
                    <path d="M150.840426,39.8028369 C152.102954,39.7906327 153.36328,39.9109127 154.600709,40.1617021 C155.638738,40.3676842 156.626962,40.7730415 157.510638,41.3553191 C158.325164,41.9101856 158.976892,42.672331 159.398582,43.5631206 C159.870685,44.6304831 160.097291,45.7901707 160.061702,46.9567376 C160.111437,48.2438639 159.765663,49.5153329 159.070922,50.6 C158.325277,51.6447374 157.312012,52.4693625 156.137589,52.987234 C157.744108,53.3820227 159.157436,54.3362265 160.124113,55.6787234 C161.697306,58.2209222 161.873558,61.3875733 160.592199,64.0886525 C160.045744,65.127005 159.262721,66.0222698 158.306383,66.7021277 C157.310526,67.3897939 156.201409,67.896819 155.029787,68.2 C153.794325,68.5218189 152.522788,68.6843659 151.246099,68.6836901 L137.250355,68.6836901 L137.250355,39.8184397 L150.840426,39.8028369 Z M150.060284,51.5049645 C151.051245,51.5548916 152.03155,51.2810634 152.853191,50.7248227 C153.625618,50.080046 154.033572,49.0980441 153.94539,48.0957447 C153.971643,47.5192185 153.845155,46.9459858 153.578723,46.4340426 C153.351489,46.0164816 153.017713,45.6665554 152.611348,45.4198582 C152.178755,45.171203 151.706241,44.9996193 151.214894,44.912766 C150.674023,44.8175925 150.125774,44.7705997 149.576596,44.7722938 L143.631915,44.7722938 L143.631915,51.5283688 L150.060284,51.5049645 Z M150.42695,63.7609929 C151.024612,63.7658815 151.62103,63.7057165 152.205674,63.5815603 C152.737953,63.4719554 153.245633,63.2657104 153.703546,62.9730496 C154.141267,62.6841553 154.496182,62.2862199 154.733333,61.8184397 C155.011497,61.2403771 155.142797,60.6026325 155.115603,59.9617021 C155.235149,58.7640519 154.770514,57.5821368 153.867376,56.7865248 C152.894855,56.1114313 151.726422,55.7768097 150.543972,55.8347518 L143.631915,55.8347518 L143.631915,63.7609929 L150.42695,63.7609929 Z" id="Shape" fill="#FFFFFF" fill-rule="nonzero"></path>
                    <path d="M178.551064,68.6836879 L178.551064,65.7737589 L178.426241,65.7737589 C177.770682,66.916989 176.783038,67.8338927 175.594326,68.4028369 C174.48055,68.9220408 173.265716,69.1884518 172.036879,69.1829787 C170.749024,69.2236077 169.465137,69.0197741 168.253191,68.5822695 C167.33273,68.2275216 166.524436,67.6320777 165.912766,66.858156 C165.316803,66.0567888 164.90885,65.1315612 164.719149,64.1510638 C164.48187,62.9855988 164.366826,61.7985592 164.375887,60.6092199 L164.375887,47.7680851 L170.11773,47.7680851 L170.11773,59.5794326 C170.011779,60.9268111 170.281848,62.2771584 170.897872,63.4801418 C171.554527,64.392612 172.651223,64.8813567 173.768794,64.7595745 C175.062387,64.8759783 176.331588,64.3549075 177.170213,63.3631206 C177.87234,62.4347518 178.215603,60.8978723 178.215603,58.7680851 L178.215603,47.8460993 L183.965248,47.8460993 L183.965248,68.7617021 L178.551064,68.6836879 Z" id="Path" fill="#FFFFFF" fill-rule="nonzero"></path>
                    <path d="M192.66383,63.4879433 C192.90835,63.9214543 193.246904,64.2946636 193.65461,64.5801418 C194.078197,64.8714954 194.551452,65.083006 195.051064,65.2042553 C195.586598,65.3397632 196.13695,65.4079021 196.689362,65.4070922 C197.11693,65.4039669 197.543045,65.3569113 197.960993,65.2666667 C198.38661,65.1800949 198.796844,65.030202 199.178014,64.8219858 C199.531994,64.6296563 199.840593,64.3636229 200.082979,64.041844 C200.337139,63.6676598 200.465564,63.2222723 200.449645,62.7702128 C200.449645,61.9042553 199.87234,61.2567376 198.725532,60.8276596 C197.162632,60.2795111 195.561652,59.8466727 193.935461,59.5326241 C193.100709,59.3453901 192.28156,59.1191489 191.485816,58.8617021 C190.735709,58.6250719 190.021696,58.2864406 189.36383,57.8553191 C188.756858,57.4505266 188.245649,56.918017 187.865957,56.2950355 C187.468644,55.5807738 187.274393,54.7713938 187.304255,53.9546099 C187.251853,52.7984527 187.52196,51.6504963 188.084397,50.6390071 C188.593588,49.7916185 189.310514,49.0881181 190.167376,48.5950355 C191.070142,48.0804822 192.054333,47.7242735 193.077305,47.541844 C194.171412,47.3440365 195.281064,47.2448206 196.392908,47.2452064 C197.500894,47.2401439 198.606554,47.3473119 199.692908,47.5652482 C200.700893,47.7607105 201.667114,48.1303034 202.548227,48.6574468 C203.385868,49.172761 204.095458,49.8716813 204.623404,50.7014184 C205.21872,51.6724392 205.559492,52.7779336 205.614184,53.9156028 L200.153191,53.9156028 C200.177469,52.9931867 199.695634,52.1312711 198.897163,51.6687943 C198.067714,51.2622685 197.152528,51.0615699 196.229078,51.0836879 C195.877176,51.0864002 195.525646,51.1072316 195.175887,51.1460993 C194.820302,51.1768681 194.472301,51.2665048 194.146099,51.4113475 C193.84401,51.5429248 193.576857,51.7432898 193.365957,51.9964539 C192.85841,52.7116971 192.965632,53.6934447 193.615603,54.2822695 C194.052637,54.6342808 194.553184,54.8991207 195.090071,55.0624113 C195.773223,55.2846721 196.468724,55.467013 197.17305,55.6085106 C197.953191,55.7723404 198.733333,55.9439716 199.560284,56.1312057 C200.387234,56.3184397 201.206383,56.5524823 202.002128,56.8177305 C202.760376,57.0717329 203.477773,57.4343734 204.131915,57.8943262 C204.741932,58.3318671 205.250217,58.8960375 205.621986,59.548227 C206.024149,60.300406 206.220604,61.1454281 206.191489,61.9978723 C206.234605,63.2035831 205.948737,64.3982921 205.364539,65.4539007 C204.832482,66.3661002 204.08858,67.1367606 203.195745,67.7007092 C202.263466,68.2876531 201.228432,68.6926664 200.14539,68.8943262 C197.815187,69.3619068 195.415309,69.3619068 193.085106,68.8943262 C191.979926,68.6805391 190.922647,68.2682004 189.964539,67.677305 C189.060692,67.1090569 188.299888,66.3402441 187.741135,65.4304965 C187.123647,64.3687834 186.795468,63.1636661 186.789362,61.935461 L192.250355,61.935461 C192.252813,62.4798437 192.395196,63.0144514 192.66383,63.4879433 L192.66383,63.4879433 Z" id="Path" fill="#FFFFFF" fill-rule="nonzero"></path>
                    <path d="M209.124823,44.5304965 L209.124823,39.8028369 L214.890071,39.8028369 L214.890071,44.5304965 L209.124823,44.5304965 Z M214.890071,47.7680851 L214.890071,68.6836879 L209.148227,68.6836879 L209.148227,47.7680851 L214.890071,47.7680851 Z" id="Shape" fill="#FFFFFF" fill-rule="nonzero"></path>
                    <path d="M224.251773,47.7680851 L224.251773,50.6858156 L224.376596,50.6858156 C225.031168,49.5360574 226.018426,48.6113535 227.208511,48.0333333 C228.316343,47.4916752 229.532799,47.2089026 230.765957,47.206383 C232.056104,47.1613167 233.342318,47.3734757 234.549645,47.8304965 C235.468264,48.1961785 236.275152,48.7959652 236.890071,49.5702128 C237.479743,50.3752284 237.887051,51.2989913 238.083688,52.277305 C238.320967,53.44277 238.436011,54.6298096 238.42695,55.8191489 L238.42695,68.6836879 L232.685106,68.6836879 L232.685106,56.8723404 C232.78901,55.5250846 232.519051,54.1752891 231.904965,52.9716312 C231.2206,52.0392978 230.076715,51.5619285 228.932624,51.7312057 C227.639031,51.6148019 226.369831,52.1358727 225.531206,53.1276596 C224.829078,54.0560284 224.478014,55.5929078 224.478014,57.722695 L224.478014,68.6446809 L218.79078,68.6446809 L218.79078,47.7680851 L224.251773,47.7680851 Z" id="Path" fill="#FFFFFF" fill-rule="nonzero"></path>
                    <path d="M248.280142,63.651773 C249.305894,64.5456755 250.643762,64.997241 252.001418,64.9078014 C253.066883,64.9376218 254.114795,64.6319809 254.997163,64.0340426 C255.713791,63.6183589 256.264934,62.9680109 256.557447,62.1929078 L261.612766,62.1929078 C261.040179,64.367277 259.723381,66.2720797 257.891489,67.5758865 C256.068797,68.6938644 253.959259,69.2551425 251.821986,69.1907801 C250.303358,69.21888 248.793549,68.9540012 247.375177,68.4106383 C246.102174,67.9192576 244.953852,67.1519339 244.012766,66.1638298 C243.078187,65.1618434 242.356334,63.9808705 241.89078,62.6921986 C241.367152,61.265737 241.102942,59.7571018 241.110638,58.2375887 C241.10055,56.7458026 241.364999,55.2648895 241.89078,53.8687943 C242.862572,51.2445061 244.875525,49.1383875 247.453191,48.0489362 C248.827158,47.467686 250.306866,47.1781201 251.798582,47.1985816 C253.419267,47.1573924 255.025673,47.5108017 256.479433,48.2283688 C257.764877,48.8853442 258.878922,49.8337514 259.732624,50.9978723 C260.594344,52.1888906 261.21937,53.5342852 261.573759,54.9609929 C261.953346,56.490393 262.09024,58.069943 261.979433,59.641844 L246.875887,59.641844 C246.9487,61.4933806 247.416785,62.8300236 248.280142,63.651773 Z M254.770922,52.651773 C253.943188,51.8406041 252.806006,51.4255327 251.650355,51.512766 C250.864555,51.4849187 250.083492,51.6454113 249.37234,51.9808511 C248.807596,52.2546082 248.309646,52.6487077 247.913475,53.135461 C247.560803,53.5633198 247.295725,54.0563647 247.133333,54.5865248 C246.99703,55.0359481 246.910693,55.4990294 246.875887,55.9673759 L256.237589,55.9673759 C256.066606,54.7519541 255.558515,53.6087487 254.770922,52.6673759 L254.770922,52.651773 Z" id="Shape" fill="#FFFFFF" fill-rule="nonzero"></path>
                    <path d="M269.5,63.4879433 C269.74452,63.9214543 270.083074,64.2946636 270.49078,64.5801418 C270.914368,64.8714954 271.387622,65.083006 271.887234,65.2042553 C272.422768,65.3397632 272.973121,65.4079021 273.525532,65.4070922 C273.9531,65.4039669 274.379215,65.3569113 274.797163,65.2666667 C275.220652,65.1813171 275.628494,65.0313366 276.006383,64.8219858 C276.364172,64.6320283 276.675792,64.3656867 276.919149,64.041844 C277.173309,63.6676598 277.301734,63.2222723 277.285816,62.7702128 C277.285816,61.9042553 276.708511,61.2567376 275.561702,60.8276596 C273.998168,60.2815609 272.397337,59.8487631 270.771631,59.5326241 C269.936879,59.3453901 269.11773,59.1191489 268.321986,58.8617021 C267.571367,58.6263792 266.857178,58.2876648 266.2,57.8553191 C265.591213,57.4526994 265.079574,56.9197422 264.702128,56.2950355 C264.301396,55.5821103 264.10691,54.7717543 264.140426,53.9546099 C264.092094,52.7988355 264.361945,51.6519686 264.920567,50.6390071 C265.434885,49.7929925 266.153906,49.0900685 267.011348,48.5950355 C267.914114,48.0804822 268.898305,47.7242735 269.921277,47.541844 C271.015383,47.3440365 272.125035,47.2448206 273.236879,47.2452312 C274.344848,47.2405183 275.450471,47.3476827 276.536879,47.5652482 C277.542786,47.7594106 278.506664,48.1291174 279.384397,48.6574468 C280.222707,49.1745975 280.934472,49.8730338 281.467376,50.7014184 C282.062692,51.6724392 282.403463,52.7779336 282.458156,53.9156028 L276.997163,53.9156028 C277.024742,52.9943967 276.545662,52.1320532 275.748936,51.6687943 C274.917032,51.2613335 273.999094,51.0606182 273.07305,51.0836879 C272.72375,51.0866397 272.37483,51.1074708 272.02766,51.1460993 C271.669731,51.1778409 271.31932,51.2674198 270.990071,51.4113475 C270.688699,51.544154 270.421807,51.7443226 270.209929,51.9964539 C269.984313,52.2907944 269.870918,52.6558739 269.890071,53.0262411 C269.872628,53.5093239 270.080081,53.9732098 270.451773,54.2822695 C270.892702,54.6327647 271.395495,54.8973926 271.934043,55.0624113 C272.61691,55.2856414 273.312468,55.4679974 274.017021,55.6085106 C274.797163,55.7723404 275.577305,55.9439716 276.404255,56.1312057 C277.231206,56.3184397 278.050355,56.5524823 278.846099,56.8177305 C279.602581,57.0701507 280.317627,57.4329314 280.968085,57.8943262 C281.582267,58.3295107 282.093562,58.8940661 282.465957,59.548227 C282.868121,60.300406 283.064575,61.1454281 283.035461,61.9978723 C283.07468,63.2031908 282.789058,64.3968785 282.208511,65.4539007 C281.676453,66.3661002 280.932552,67.1367606 280.039716,67.7007092 C279.107438,68.2876531 278.072404,68.6926664 276.989362,68.8943262 C274.659159,69.3619068 272.259281,69.3619068 269.929078,68.8943262 C268.823898,68.6805391 267.766619,68.2682004 266.808511,67.677305 C265.903062,67.1110563 265.141843,66.3418246 264.585106,65.4304965 C263.967619,64.3687834 263.63944,63.1636661 263.633333,61.935461 L269.094326,61.935461 C269.094403,62.4791523 269.234088,63.0137162 269.5,63.4879433 L269.5,63.4879433 Z" id="Path" fill="#FFFFFF" fill-rule="nonzero"></path>
                    <path d="M290.680851,63.4879433 C290.925371,63.9214543 291.263925,64.2946636 291.671631,64.5801418 C292.095219,64.8714954 292.568473,65.083006 293.068085,65.2042553 C293.603619,65.3397632 294.153972,65.4079021 294.706383,65.4070922 C295.133951,65.4039669 295.560066,65.3569113 295.978014,65.2666667 C296.403632,65.1800949 296.813865,65.030202 297.195035,64.8219858 C297.549016,64.6296563 297.857614,64.3636229 298.1,64.041844 C298.35416,63.6676598 298.482585,63.2222723 298.466667,62.7702128 C298.466667,61.9042553 297.889362,61.2567376 296.742553,60.8276596 C295.179341,60.2805188 293.578435,59.8477005 291.952482,59.5326241 C291.11773,59.3453901 290.298582,59.1191489 289.502837,58.8617021 C288.752731,58.6250719 288.038717,58.2864406 287.380851,57.8553191 C286.772064,57.4526994 286.260425,56.9197422 285.882979,56.2950355 C285.485665,55.5807738 285.291414,54.7713938 285.321277,53.9546099 C285.268874,52.7984527 285.538982,51.6504963 286.101418,50.6390071 C286.616166,49.7724288 287.347426,49.0546108 288.223404,48.5560284 C289.12617,48.0414751 290.110362,47.6852664 291.133333,47.5028369 C292.22744,47.3050294 293.337092,47.2058135 294.448936,47.2062241 C295.556905,47.2015112 296.662527,47.3086756 297.748936,47.5262411 C298.754843,47.7204035 299.718721,48.0901103 300.596454,48.6184397 C301.434763,49.1355904 302.146529,49.8340267 302.679433,50.6624113 C303.274749,51.6334321 303.61552,52.7389266 303.670213,53.8765957 L298.20922,53.8765957 C298.230108,52.9550186 297.749172,52.094712 296.953191,51.6297872 C296.121287,51.2223264 295.203349,51.0216111 294.277305,51.0446809 C293.928005,51.0476326 293.579085,51.0684637 293.231915,51.1070922 C292.87633,51.137861 292.528329,51.2274977 292.202128,51.3723404 C291.900038,51.5039177 291.632885,51.7042827 291.421986,51.9574468 C290.916103,52.6717347 291.019674,53.650651 291.66383,54.2432624 C292.104758,54.5937576 292.607551,54.8583855 293.146099,55.0234043 C293.828967,55.2466343 294.524525,55.4289903 295.229078,55.5695035 C296.00922,55.7333333 296.789362,55.9049645 297.616312,56.0921986 C298.443262,56.2794326 299.262411,56.5134752 300.058156,56.7787234 C300.816404,57.0327258 301.533802,57.3953663 302.187943,57.8553191 C302.79796,58.29286 303.306246,58.8570304 303.678014,59.5092199 C304.080178,60.2613989 304.276632,61.106421 304.247518,61.9588652 C304.290633,63.164576 304.004766,64.359285 303.420567,65.4148936 C302.88851,66.3270931 302.144608,67.0977535 301.251773,67.6617021 C300.319494,68.248646 299.28446,68.6536593 298.201418,68.8553191 C295.871215,69.3228997 293.471338,69.3228997 291.141135,68.8553191 C290.035954,68.641532 288.978676,68.2291933 288.020567,67.6382979 C287.11672,67.0700498 286.355916,66.3012371 285.797163,65.3914894 C285.179676,64.3297763 284.851497,63.124659 284.84539,61.8964539 L290.306383,61.8964539 C290.290143,62.450543 290.419246,62.9992294 290.680851,63.4879433 L290.680851,63.4879433 Z" id="Path" fill="#FFFFFF" fill-rule="nonzero"></path>
                    <path d="M142.102837,102.034752 C142.428182,102.686277 142.907516,103.248624 143.499291,103.67305 C144.115183,104.110011 144.808973,104.42513 145.543262,104.601418 C146.335773,104.805637 147.151106,104.907881 147.969504,104.905674 C148.577985,104.902229 149.185443,104.855301 149.787234,104.765248 C150.417761,104.678411 151.030978,104.494183 151.604965,104.219149 C152.156699,103.963255 152.642427,103.584281 153.024823,103.111348 C153.415422,102.593577 153.616459,101.957421 153.594326,101.30922 C153.614941,100.592973 153.331528,99.9014457 152.814184,99.4056738 C152.2449,98.8770565 151.57679,98.4661157 150.848227,98.1964539 C149.953638,97.8421939 149.032907,97.5578889 148.094326,97.3460993 C147.07234,97.1042553 146.034752,96.8312057 144.973759,96.5659574 C143.915409,96.2958871 142.873495,95.9650792 141.853191,95.5751773 C140.865159,95.206814 139.937125,94.6941608 139.099291,94.0539007 C137.31723,92.7111721 136.305904,90.5806861 136.392199,88.3510638 C136.349301,86.9885174 136.678334,85.6400185 137.343972,84.4503546 C137.965195,83.3725587 138.811344,82.4412619 139.824823,81.7198582 C140.883388,80.9809636 142.063836,80.4343132 143.312057,80.1049645 C144.582623,79.7540196 145.894624,79.5755875 147.212766,79.5743913 C148.678806,79.5702425 150.140142,79.7404698 151.565957,80.0815603 C152.889827,80.3926794 154.14395,80.9483035 155.26383,81.7198582 C156.334608,82.4699079 157.21386,83.4614051 157.830496,84.6141844 C158.501699,85.9339235 158.829061,87.4016836 158.78227,88.8815603 L152.634752,88.8815603 C152.612182,88.1350456 152.425748,87.4026238 152.088652,86.7361702 C151.79755,86.1941598 151.37338,85.7350899 150.856028,85.4021277 C150.31459,85.0687151 149.717243,84.8361198 149.092908,84.7156028 C148.381098,84.5764062 147.657194,84.5084585 146.931915,84.512766 C146.407464,84.5115451 145.88439,84.566468 145.371631,84.6765957 C144.876348,84.778968 144.403399,84.9692044 143.975177,85.2382979 C143.565853,85.5019821 143.215292,85.8472311 142.94539,86.2524823 C142.653452,86.7187091 142.511836,87.2633865 142.539716,87.812766 C142.519345,88.2910339 142.629941,88.7657873 142.859574,89.1858156 C143.186843,89.6237528 143.629987,89.961515 144.139007,90.1609929 C144.988094,90.5326705 145.86773,90.8302327 146.768085,91.0503546 C147.883688,91.3468085 149.350355,91.7212766 151.152482,92.1815603 C151.672577,92.2907801 152.421513,92.4858156 153.399291,92.7666667 C154.41373,93.073457 155.376265,93.5310559 156.25461,94.1241135 C157.231542,94.7788794 158.065003,95.6256125 158.704255,96.612766 C159.433595,97.8079159 159.791977,99.1925742 159.734043,100.591489 C159.743354,101.860888 159.477187,103.117199 158.953901,104.273759 C158.435621,105.419127 157.652076,106.424632 156.668085,107.207092 C155.552033,108.088047 154.274708,108.74261 152.907801,109.134043 C151.218684,109.615282 149.468198,109.846578 147.712057,109.820567 C146.148731,109.824162 144.591382,109.627527 143.078014,109.235461 C141.653833,108.873941 140.309732,108.249517 139.114894,107.394326 C137.965979,106.557562 137.030512,105.461729 136.384397,104.195745 C135.678292,102.764803 135.342971,101.179406 135.40922,99.5851064 L141.556738,99.5851064 C141.539298,100.433672 141.726619,101.273944 142.102837,102.034752 L142.102837,102.034752 Z" id="Path" fill="#FFFFFF" fill-rule="nonzero"></path>
                    <path d="M168.62766,104.141135 C170.564775,105.665036 173.247181,105.817693 175.344681,104.523404 C176.061309,104.107721 176.612451,103.457373 176.904965,102.68227 L181.960284,102.68227 C181.390758,104.858046 180.073296,106.763809 178.239007,108.065248 C176.417588,109.186192 174.307146,109.74771 172.169504,109.680142 C170.651238,109.703628 169.142296,109.438902 167.722695,108.9 C166.451037,108.410396 165.304893,107.642746 164.368085,106.653191 C163.426921,105.653237 162.704258,104.468282 162.246099,103.173759 C161.72241,101.750019 161.458184,100.24393 161.465957,98.7269504 C161.45587,97.2351643 161.720318,95.7542512 162.246099,94.358156 C163.211206,91.7278817 165.226013,89.6169964 167.808511,88.5304965 C169.183723,87.9533323 170.662571,87.6639348 172.153901,87.6801418 C173.775692,87.6366178 175.383265,87.9929631 176.834752,88.7177305 C178.120197,89.3747059 179.234241,90.3231131 180.087943,91.487234 C180.954103,92.6756424 181.579547,94.0219378 181.929078,95.4503546 C182.312299,96.9791479 182.449244,98.5592772 182.334752,100.131206 L167.215603,100.131206 C167.301418,101.956738 167.769504,103.306383 168.62766,104.141135 Z M175.102837,93.1333333 C174.271026,92.3293621 173.136041,91.91793 171.98227,92.0021277 C171.193905,91.9736351 170.410161,92.1341287 169.696454,92.4702128 C169.133036,92.7460799 168.635508,93.1398457 168.237589,93.6248227 C167.884405,94.0523379 167.61927,94.5454893 167.457447,95.0758865 C167.318988,95.5251322 167.230044,95.988165 167.192199,96.4567376 L176.553901,96.4567376 C176.384836,95.2366313 175.882764,94.0867247 175.102837,93.1333333 L175.102837,93.1333333 Z" id="Shape" fill="#FFFFFF" fill-rule="nonzero"></path>
                    <path d="M190.565248,88.241844 L190.565248,92.1425532 L190.643262,92.1425532 C190.918883,91.4907982 191.289577,90.8834911 191.743262,90.3404255 C192.18877,89.7933679 192.714879,89.3172396 193.303546,88.9283688 C193.891721,88.5405681 194.529342,88.2335655 195.199291,88.0156028 C195.879957,87.7968753 196.590729,87.6863107 197.305674,87.6879254 C197.731721,87.697086 198.154434,87.7653503 198.561702,87.8907801 L198.561702,93.2347518 C198.288652,93.1801418 197.968794,93.1333333 197.586525,93.0943262 C197.224107,93.050871 196.859335,93.0300269 196.494326,93.0319149 C195.576947,93.0029624 194.664881,93.1816421 193.826241,93.5546099 C193.131115,93.8800743 192.527889,94.3733789 192.070922,94.9900709 C191.61185,95.6277266 191.287963,96.3524899 191.119149,97.1198582 C190.923018,97.9823474 190.826171,98.8644383 190.830496,99.7489362 L190.830496,109.17305 L185.088652,109.17305 L185.088652,88.241844 L190.565248,88.241844 Z" id="Path" fill="#FFFFFF" fill-rule="nonzero"></path>
                    <polygon id="Path" fill="#FFFFFF" fill-rule="nonzero" points="207.502128 109.157447 200.340426 88.241844 206.363121 88.241844 210.778723 102.51844 210.856738 102.51844 215.264539 88.241844 220.967376 88.241844 213.891489 109.157447"></polygon>
                    <path d="M222.909929,85.0042553 L222.909929,80.2765957 L228.651773,80.2765957 L228.651773,85.0042553 L222.909929,85.0042553 Z M228.651773,88.241844 L228.651773,109.157447 L222.909929,109.157447 L222.909929,88.241844 L228.651773,88.241844 Z" id="Shape" fill="#FFFFFF" fill-rule="nonzero"></path>
                    <path d="M242.38227,92.0021277 C241.568658,91.9733068 240.765666,92.1937893 240.080851,92.6340426 C239.442015,93.0433928 238.907707,93.5964016 238.520567,94.2489362 C238.125947,94.9262947 237.846499,95.6644592 237.693617,96.4333333 C237.534578,97.203369 237.453554,97.9874733 237.451773,98.7737589 C237.450185,99.5602183 237.531245,100.344667 237.693617,101.114184 C237.838773,101.858609 238.102152,102.575 238.473759,103.23617 C238.836108,103.864683 239.341195,104.399166 239.948227,104.796454 C240.628712,105.218004 241.418343,105.429658 242.21844,105.404965 C243.391153,105.477076 244.541142,105.058899 245.393617,104.250355 C246.178257,103.385403 246.664955,102.291699 246.78227,101.129787 L252.329078,101.129787 C252.114002,103.586262 250.953178,105.863156 249.091489,107.480142 C247.143768,108.994094 244.722186,109.768115 242.257447,109.664539 C240.785215,109.683344 239.323136,109.418475 237.951064,108.884397 C236.693363,108.394977 235.554894,107.642204 234.612057,106.676596 C233.676868,105.709443 232.94709,104.563027 232.466667,103.306383 C231.937154,101.930311 231.672462,100.466566 231.686525,98.9921986 C231.673133,97.4608959 231.910307,95.9377134 232.388652,94.4829787 C232.826016,93.1526632 233.535373,91.927893 234.471631,90.8865248 C235.410077,89.8724992 236.557236,89.0740132 237.834043,88.5460993 C239.269326,87.9596897 240.808616,87.6704095 242.358865,87.6957447 C243.569568,87.6916896 244.774879,87.8571245 245.939716,88.187234 C247.045358,88.4879408 248.086955,88.9875902 249.013475,89.6617021 C250.947244,91.0447853 252.122201,93.2532422 252.188652,95.6297872 L246.571631,95.6297872 C246.251773,93.2035461 244.839716,92.0021277 242.38227,92.0021277 Z" id="Path" fill="#FFFFFF" fill-rule="nonzero"></path>
                    <path d="M261.253901,104.141135 C263.191016,105.665036 265.873422,105.817693 267.970922,104.523404 C268.68755,104.107721 269.238692,103.457373 269.531206,102.68227 L274.586525,102.68227 C274.02009,104.859464 272.701956,106.766199 270.865248,108.065248 C269.050542,109.181762 266.94889,109.743107 264.819149,109.680142 C263.298297,109.704239 261.786686,109.439508 260.364539,108.9 C259.092881,108.410396 257.946737,107.642746 257.009929,106.653191 C256.071467,105.651179 255.349168,104.466822 254.887943,103.173759 C254.364254,101.750019 254.100028,100.24393 254.107635,98.7269504 C254.101566,97.2354949 254.365891,95.7552744 254.887943,94.358156 C255.85305,91.7278817 257.867857,89.6169964 260.450355,88.5304965 C261.827984,87.9522853 263.309594,87.6628667 264.803546,87.6801418 C266.425399,87.6359746 268.033126,87.9923541 269.484397,88.7177305 C270.769842,89.3747059 271.883887,90.3231131 272.737589,91.487234 C273.603748,92.6756424 274.229192,94.0219378 274.578723,95.4503546 C274.966097,96.9784492 275.1031,98.5592511 274.984397,100.131206 L259.841844,100.131206 C259.919858,101.956738 260.395745,103.306383 261.253901,104.141135 Z M267.752482,93.1333333 C266.921211,92.3284987 265.785826,91.9169217 264.631915,92.0021277 C263.843626,91.9745399 263.060093,92.1349904 262.346099,92.4702128 C261.782682,92.7460799 261.285153,93.1398457 260.887234,93.6248227 C260.53405,94.0523379 260.268915,94.5454893 260.107092,95.0758865 C259.972385,95.5260596 259.883518,95.9886938 259.841844,96.4567376 L269.203546,96.4567376 C269.034482,95.2366313 268.53241,94.0867247 267.752482,93.1333333 L267.752482,93.1333333 Z" id="Shape" fill="#FFFFFF" fill-rule="nonzero"></path>
                    <path d="M282.434752,103.953901 C282.679487,104.387256 283.018002,104.760422 283.425532,105.046099 C283.846917,105.343065 284.320761,105.557486 284.821986,105.678014 C285.35752,105.813522 285.907872,105.881661 286.460284,105.880851 C286.887888,105.87834 287.314066,105.831277 287.731915,105.740426 C288.156527,105.650325 288.566259,105.500615 288.948936,105.295745 C289.302916,105.103415 289.611515,104.837382 289.853901,104.515603 C290.111111,104.142856 290.239832,103.696438 290.220567,103.243972 C290.220567,102.378014 289.651064,101.730496 288.504255,101.301418 C286.939466,100.750799 285.335707,100.317915 283.706383,100.006383 C282.871631,99.8191489 282.052482,99.5929078 281.256738,99.335461 C280.506631,99.0988308 279.792618,98.7601994 279.134752,98.329078 C278.52778,97.9242855 278.016571,97.3917758 277.636879,96.7687943 C277.239566,96.0545326 277.045315,95.2451527 277.075177,94.4283688 C277.026845,93.2725944 277.296696,92.1257275 277.855319,91.112766 C278.362305,90.2636399 279.079741,89.5596391 279.938298,89.0687943 C280.841577,88.5553528 281.825573,88.1992149 282.848227,88.0156028 C283.941566,87.8113283 285.051573,87.7094687 286.16383,87.7112997 C287.272081,87.7086692 288.377744,87.8184513 289.46383,88.0390071 C290.472213,88.2330758 291.43867,88.6027589 292.319149,89.1312057 C293.157458,89.6483564 293.869224,90.3467927 294.402128,91.1751773 C294.990525,92.1493112 295.330745,93.2530147 295.392908,94.3893617 L289.931915,94.3893617 C289.956192,93.4669456 289.474358,92.6050299 288.675887,92.1425532 C287.846437,91.7360274 286.931252,91.5353288 286.007801,91.5574468 C285.655899,91.5601591 285.30437,91.5809905 284.95461,91.6198582 C284.599026,91.650627 284.251024,91.7402636 283.924823,91.8851064 C283.622733,92.0166836 283.35558,92.2170487 283.144681,92.4702128 C282.637134,93.1854559 282.744355,94.1672035 283.394326,94.7560284 C283.83136,95.1080396 284.331908,95.3728795 284.868794,95.5361702 C285.552227,95.757474 286.247672,95.9398004 286.951773,96.0822695 C287.731915,96.2382979 288.512057,96.4177305 289.339007,96.6049645 C290.164026,96.792424 290.979019,97.0215593 291.780851,97.2914894 C292.539099,97.5454918 293.256497,97.9081322 293.910638,98.3680851 C294.521061,98.8074905 295.031544,99.3711483 295.408511,100.021986 C295.804541,100.77618 295.998083,101.620237 295.970213,102.471631 C296.013328,103.677342 295.727461,104.872051 295.143262,105.92766 C294.614147,106.839519 293.872843,107.610261 292.98227,108.174468 C292.0472,108.76148 291.009602,109.16646 289.924113,109.368085 C288.773077,109.596166 287.602494,109.711134 286.429078,109.711461 C285.23103,109.715741 284.035905,109.592829 282.86383,109.344681 C281.760292,109.129403 280.703719,108.719981 279.743262,108.135461 C277.744626,106.917038 276.537522,104.734166 276.568085,102.393617 L282.029078,102.393617 C282.025303,102.940267 282.165196,103.478317 282.434752,103.953901 Z" id="Path" fill="#FFFFFF" fill-rule="nonzero"></path>
                </g>
            </g>
        </g>
    </g>
</svg>