<svg xmlns="http://www.w3.org/2000/svg" viewBox="0 0 32 32"><path d="M15.46 2.42c-1.42.2-2.47.7-3.41 1.63a5.53 5.53 0 00-1.64 3.62L10.4 8H5.6v9.72c0 10.41 0 9.86.16 10.32.08.25.3.6.5.81.31.31.64.52 1.1.67l.2.06h8.36c9.16.02 8.55.03 9.02-.17a2.5 2.5 0 001.39-1.59c.05-.18.06-.65.06-10L26.4 8h-4.8V7.8l-.01-.23-.03-.26a5.61 5.61 0 00-6.1-4.9zm1.32 1.66a4 4 0 013.2 3.69l.03.23h-8.02l.02-.27a4.05 4.05 0 013.54-3.7 6 6 0 011.23.05zm-6.24 7.55a.79.79 0 001.36-.04l.08-.15.01-.81.02-.8.1.05c.16.1.44.43.53.63.17.38.2.72.1 1.1a1.59 1.59 0 01-2.66.71c-.7-.69-.61-1.84.18-2.4l.12-.1.02.81.02.82.12.19zm9.57-.03a.8.8 0 001.38 0l.1-.15v-.82l.02-.8.1.05c.14.09.41.4.5.59a1.59 1.59 0 01-2.6 1.8 1.6 1.6 0 01.25-2.36l.13-.1.03 1.63.1.16zm-9.71 9.6v5.2h-.8V16h.8v5.2zm2.4-.4v4.8h-1.6V16h1.6v4.8zm1.6 0v4.8h-.8V16h.8v4.8zm2.4 0v4.8h-1.6V16h1.6v4.8zm1.6 0v4.8h-.8V16h.8v4.8zm2.4 0v4.8h-1.6V16h1.6v4.8zm1.6.4v5.2h-.8V16h.8v5.2z"/></svg>