<svg xmlns="http://www.w3.org/2000/svg" viewBox="0 0 32 32"><path d="M15.3 2.41l-.38.03a4.15 4.15 0 00-.62.07A13.7 13.7 0 003.84 9.93a13.59 13.59 0 0010.18 19.52l.27.04c.5.07 1.04.1 1.84.1a22 22 0 001.32-.07l.32-.04a13.39 13.39 0 007.84-3.87 13.53 13.53 0 003.98-10.57l-.04-.37-.13-.97a14.5 14.5 0 00-1.24-3.78 13.62 13.62 0 00-12.89-7.5zm1.77 2.43l.26.04.9.13a11.29 11.29 0 017.04 4.71c-.01.02-.15.1-.3.2a57.28 57.28 0 00-1.75 1l-.31-.38c-.3-.38-.79-.9-1.13-1.19-.2-.17-.25-.2-.25-.12l-.07.28-.49 1.5-.56 1.74-.35 1.1-.3.95-.62 1.92a3.2 3.2 0 01-6.32-.7c0-.54.1-.97.33-1.43.2-.4.3-.54.86-1.13a160.44 160.44 0 002.08-2.26l.58-.62 1.47-1.6.18-.2c.4-.41.88-.95.88-.97 0-.06-.97-.34-1.59-.46a8.85 8.85 0 00-10.4 8.64c0 .37.04.98.07 1.09.02.08.08.04-1.38.88-.43.26-.8.46-.82.45a10.72 10.72 0 01-.26-2.34 10.92 10.92 0 011.15-5.01 11.26 11.26 0 019.39-6.25c.01-.01 1.63.02 1.71.03zm9.21 6.68a11.25 11.25 0 01.67 6.89.87.87 0 01-.26-.13 70.26 70.26 0 01-1.15-.66c-.76-.44-.79-.46-.78-.55l.03-.37a8.8 8.8 0 00-.76-4.37 114.41 114.41 0 002.07-1.22l.18.4z"/><path d="M21.3 6.75l-.5.53-.35.39-.37.4-.93 1a313.82 313.82 0 01-1.57 1.7l-.4.43-.72.78-.97 1.06-.21.22-.94 1.02a2.4 2.4 0 103.53 3.24c.29-.35.33-.46.9-2.27l.17-.53.62-1.92.52-1.6.53-1.66.43-1.35c.38-1.16.56-1.74.55-1.75l-.3.3z"/></svg>