<?xml version="1.0" encoding="UTF-8" standalone="no"?>
<svg
   xmlns:dc="http://purl.org/dc/elements/1.1/"
   xmlns:cc="http://creativecommons.org/ns#"
   xmlns:rdf="http://www.w3.org/1999/02/22-rdf-syntax-ns#"
   xmlns:svg="http://www.w3.org/2000/svg"
   xmlns="http://www.w3.org/2000/svg"
   xmlns:sodipodi="http://sodipodi.sourceforge.net/DTD/sodipodi-0.dtd"
   xmlns:inkscape="http://www.inkscape.org/namespaces/inkscape"
   viewBox="0 0 283.46399 283.46399"
   height="283.46399"
   width="283.46399"
   id="svg4136"
   version="1.1"
   inkscape:version="0.91 r13725"
   sodipodi:docname="orange-frame-fun.svg">
  <metadata
     id="metadata4143">
    <rdf:RDF>
      <cc:Work
         rdf:about="">
        <dc:format>image/svg+xml</dc:format>
        <dc:type
           rdf:resource="http://purl.org/dc/dcmitype/StillImage" />
        <dc:title />
      </cc:Work>
    </rdf:RDF>
  </metadata>
  <defs
     id="defs4141" />
  <sodipodi:namedview
     pagecolor="#ffffff"
     bordercolor="#666666"
     borderopacity="1"
     objecttolerance="10"
     gridtolerance="10"
     guidetolerance="10"
     inkscape:pageopacity="0"
     inkscape:pageshadow="2"
     inkscape:window-width="1341"
     inkscape:window-height="630"
     id="namedview4139"
     showgrid="false"
     inkscape:snap-bbox="true"
     inkscape:bbox-nodes="true"
     inkscape:snap-page="true"
     inkscape:showpageshadow="false"
     showborder="false"
     fit-margin-top="0"
     fit-margin-left="0"
     fit-margin-right="0"
     fit-margin-bottom="0"
     inkscape:zoom="1.3956229"
     inkscape:cx="10.929439"
     inkscape:cy="169.3779"
     inkscape:window-x="1430"
     inkscape:window-y="180"
     inkscape:window-maximized="0"
     inkscape:current-layer="svg4136" />
  <path
     d="m 236.167,141.729 c 11.849,12.06 19.166,28.584 19.166,46.816 0,36.889 -29.902,66.788 -66.788,66.788 -18.235,0 -34.758,-7.319 -46.81,-19.167 -12.054,11.848 -28.577,19.167 -46.813,19.167 -36.885,0 -66.792,-29.899 -66.792,-66.788 0,-18.232 7.322,-34.756 19.17,-46.816 -11.848,-12.045 -19.17,-28.571 -19.17,-46.806 0,-36.885 29.907,-66.788 66.792,-66.788 18.236,0 34.759,7.319 46.813,19.169 12.052,-11.85 28.575,-19.169 46.81,-19.169 36.886,0 66.788,29.903 66.788,66.788 0,18.235 -7.317,34.761 -19.166,46.806 M 283.464,0 0,0 l 0,283.464 283.464,0 0,-283.464 z"
     style="fill:#ff7900;fill-opacity:1;fill-rule:nonzero;stroke:none"
     id="path4156"
     inkscape:connector-curvature="0" />
</svg>
