<svg xmlns="http://www.w3.org/2000/svg">
  <symbol fill="currentColor" viewBox="0 0 125 125" id="success">
    <path d="M62.5 0a62.5 62.5 0 100 125 62.5 62.5 0 000-125zm28 29.4c3.3 0 6 2.6 6 5.9a5.9 5.9 0 01-1.3 3.7L57.7 86a5.8 5.8 0 01-9.1 0L29.8 62.5c-.8-1-1.2-2.3-1.2-3.7a5.9 5.9 0 011.7-4.1l2.3-2.4a5.8 5.8 0 014.2-1.7 5.8 5.8 0 013.8 1.4L52 64.7 86.6 31a5.8 5.8 0 014-1.6z"/>
  </symbol>
  <symbol fill="currentColor" viewBox="0 0 125 125" id="info">
    <path d="M62.5 0a62.5 62.5 0 100 125 62.5 62.5 0 000-125zm0 14.7a11 11 0 110 22 11 11 0 010-22zM47.8 44.1h25.7v46.2c0 4.7 1.3 6.5 1.8 7.2.8 1 2.3 1.5 4.8 1.6h.8v3.8H47.8v-3.7h.8c2.3-.1 4-.8 5-2 .4-.4 1-2 1-7V57c0-4.8-.6-6.6-1.2-7.3-.8-1-2.4-1.5-4.9-1.6h-.7V44z"/>
  </symbol>
  <symbol fill="currentColor" viewBox="0 0 30 30" id="warning">
    <path d="M15 0a15 15 0 100 30 15 15 0 000-30zm.15 5.39h.01c1.12 0 2 .95 1.92 2.06l-.63 10.43c0 .7-.58.97-1.29.97-.72 0-1.28-.27-1.28-.97l-.63-10.46c-.06-1.09.8-2.01 1.9-2.03zm-.3 15.33c.11 0 .21 0 .31.02 2.19.35 2.19 3.5 0 3.84-2.77.44-3.1-3.86-.3-3.86z"/>
  </symbol>
  <symbol fill="currentColor" viewBox="0 0 140 125" id="danger">
    <path d="M70.3 0c-5.8 0-10.8 3.1-13.5 7.8L2.3 101.3l-.2.2A15.6 15.6 0 0015.6 125H125a15.6 15.6 0 0013.5-23.5L83.8 7.8A15.6 15.6 0 0070.3 0zm19.2 50a6.4 6.4 0 014.4 1.9 6.4 6.4 0 010 9L79.4 75.6l15 15a6.4 6.4 0 010 9.2 6.4 6.4 0 01-4.5 1.9 6.4 6.4 0 01-4.6-2l-15-15-15 15a6.4 6.4 0 01-4.6 2 6.4 6.4 0 01-4.6-2 6.4 6.4 0 010-9l15-15L46.8 61a6.4 6.4 0 119-9.1l14.6 14.5L84.8 52a6.4 6.4 0 014.7-1.9z"/>
  </symbol>
  <symbol fill="currentColor" viewBox="0 0 30 30" id="buy">
    <path d="M26.406 11.622H19.76V8.176c0-2.64-2.145-4.801-4.785-4.801s-4.785 2.16-4.785 4.801v3.446H3.35a1.5 1.5 0 00-1.286 2.272L7.85 26.625H21.8l5.892-12.731c.136-.225.258-.49.258-.772 0-.828-.715-1.5-1.544-1.5zm-21.556 3h5.25l.577 3.751H6.618zm4.5 9.753l-1.8-3.751h3.473l.577 3.75zm6.75 0h-2.4l-.6-3.751h3.6zm.9-6.002h-4.05l-.6-3.75h5.1zm.51-6.751H12.44l-.003-3.446a2.537 2.537 0 115.073 0zm2.94 12.753h-2.26l.61-3.751h3.45zm2.731-6.002H19.08l.471-3.75h5.255z"/>
  </symbol>
  <symbol fill="currentColor" viewBox="0 0 1000 1000" id="search">
    <path d="M892.285,819.383L666.631,593.728a310.794,310.794,0,0,0,58.05-181.388c0-172.5-139.839-312.34-312.341-312.34S100,239.838,100,412.34,239.838,724.681,412.34,724.681a310.918,310.918,0,0,0,181.4-58.05L819.383,892.275a25.053,25.053,0,0,0,35.342,0l37.56-37.55A25.071,25.071,0,0,0,892.285,819.383ZM412.34,624.732c-117.3,0-212.391-95.092-212.391-212.392S295.04,199.949,412.34,199.949,624.732,295.04,624.732,412.34,529.64,624.732,412.34,624.732Z"/>
  </symbol>
  <symbol fill="currentColor" viewBox="0 0 30 30" id="delete">
    <path d="M24.536 20.298a1.499 1.499 0 010 2.12l-2.119 2.118a1.499 1.499 0 01-2.119 0L15 19.238l-5.298 5.298a1.499 1.499 0 01-2.12 0l-2.118-2.119a1.499 1.499 0 010-2.119L10.762 15 5.464 9.702a1.499 1.499 0 010-2.12l2.119-2.118a1.499 1.499 0 012.119 0L15 10.762l5.298-5.298a1.499 1.499 0 012.12 0l2.118 2.119a1.499 1.499 0 010 2.119L19.238 15z"/>
  </symbol>
  <symbol fill="currentColor" viewBox="0 0 30 30" id="settings">
    <path d="M24.842 15c0-3.319 3.622-.808 1.936-4.878-1.687-4.071-2.472.264-4.819-2.082-2.346-2.347 1.99-3.131-2.08-4.817C15.807 1.536 18.318 5.157 15 5.157c-3.318 0-.807-3.62-4.878-1.934-4.07 1.686.265 2.47-2.082 4.817-2.346 2.346-3.131-1.99-4.817 2.082-1.687 4.07 1.934 1.56 1.934 4.878s-3.621.808-1.934 4.878c1.686 4.071 2.47-.264 4.817 2.081 2.347 2.347-1.989 3.132 2.082 4.818 4.07 1.687 1.56-1.934 4.878-1.934s.807 3.62 4.879 1.934c4.07-1.686-.266-2.471 2.08-4.818 2.347-2.345 3.132 1.99 4.819-2.08 1.686-4.071-1.936-1.56-1.936-4.88zm-9.827-5.985a6 6 0 110 12 6 6 0 010-12z"/>
  </symbol>
  <symbol fill="currentColor" viewBox="0 0 30 30" id="tick">
    <path d="M26.76 6.205a2.017 2.017 0 00-3.4-1.481h-.001L11.41 16.356l-3.937-4.385a2.01 2.01 0 00-2.742.106l-.808.812a2.038 2.038 0 00-.149 2.704l6.463 8.122a2.012 2.012 0 003.153 0L26.318 7.473a2.028 2.028 0 00.443-1.268z"/>
  </symbol>
  <symbol fill="currentColor" viewBox="0 0 30 30" id="day">
    <path d="M24.677 5.323h-3.096V4.146c0-.642-.52-1.146-1.162-1.146a1.161 1.161 0 00-1.16 1.161v1.162h-8.517V4.16a1.161 1.161 0 00-2.323 0v1.162H3v19.354A2.323 2.323 0 005.323 27H27V7.645a2.323 2.323 0 00-2.323-2.322zm.775 20.129H5.71a1.161 1.161 0 01-1.162-1.162v-12H24.29a1.161 1.161 0 011.162 1.162zM7.645 8.032a1.932 1.932 0 01.774-1.548v1.548a1.161 1.161 0 002.323 0V6.485a1.935 1.935 0 11-3.097 1.547zm10.839 0a1.932 1.932 0 01.774-1.548v1.548a1.161 1.161 0 002.323 0V6.5a1.904 1.904 0 01.774 1.533 1.935 1.935 0 01-3.871 0z"/>
  </symbol>
  <symbol fill="currentColor" viewBox="0 0 30 30" id="week">
    <path d="M24.677 5.323h-3.096V4.146c0-.642-.52-1.146-1.162-1.146a1.161 1.161 0 00-1.16 1.161v1.162h-8.517V4.16a1.161 1.161 0 00-2.323 0v1.162H3v19.354A2.323 2.323 0 005.323 27H27V7.645a2.323 2.323 0 00-2.323-2.322zM9.194 25.452H5.71a1.161 1.161 0 01-1.162-1.162v-12h4.646zM7.645 8.032a1.932 1.932 0 01.774-1.548v1.548a1.161 1.161 0 002.323 0V6.485a1.935 1.935 0 11-3.097 1.547zm6.968 17.42H9.968V12.29h4.645zm5.42 0h-4.646V12.29h4.645zm-1.55-17.42a1.932 1.932 0 01.775-1.548v1.548a1.161 1.161 0 002.323 0V6.5a1.904 1.904 0 01.774 1.533 1.935 1.935 0 01-3.871 0zm6.969 17.42h-4.646V12.29h3.484a1.161 1.161 0 011.162 1.162z"/>
  </symbol>
  <symbol fill="currentColor" viewBox="0 0 30 30" id="month">
    <path d="M24.677 5.323h-3.096V4.16a1.161 1.161 0 00-2.323 0v1.162h-8.516V4.16a1.161 1.161 0 00-2.323 0v1.162H3v19.354A2.323 2.323 0 005.323 27H27V7.645a2.323 2.323 0 00-2.323-2.322zM9.194 25.449H5.708a1.161 1.161 0 01-1.161-1.161V21.58h4.647zm0-4.643H4.547v-3.87h4.647zm0-4.645H4.547v-3.873h4.647zM7.645 8.032a1.932 1.932 0 01.774-1.548v1.548a1.161 1.161 0 002.323 0V6.484a1.935 1.935 0 11-3.097 1.548zm6.968 17.417H9.968V21.58h4.645zm0-4.643H9.968v-3.87h4.645zm0-4.645H9.968v-3.873h4.645zm5.42 9.288h-4.646V21.58h4.646zm0-4.643h-4.646v-3.87h4.646zm0-4.645h-4.646v-3.873h4.646zm-1.55-8.129a1.932 1.932 0 01.775-1.548v1.548a1.161 1.161 0 002.323 0V6.484a1.935 1.935 0 11-3.097 1.548zm6.967 12.774h-4.643v-3.87h4.643zm0-4.645h-4.643v-3.873h3.482a1.161 1.161 0 011.161 1.16z"/>
  </symbol>
</svg>
