<svg xmlns="http://www.w3.org/2000/svg" width="1000" height="1000" viewBox="0 0 1000 1000">
  <defs>
    <style>
      .cls-1 {
        fill-rule: evenodd;
      }
    </style>
  </defs>
  <path class="cls-1" d="M825,461H750L600.749,212.249C592.017,196.593,574.2,186,555,186H175a50,50,0,0,0-50,50V701h0.032a112.5,112.5,0,0,0,224.936,0H550.031a112.5,112.5,0,0,0,224.938,0H875V511A50,50,0,0,0,825,461Zm-344.865-2.557L387.5,611h-0.054L294.511,458.443C283.24,437.467,275,421.88,275,398.5A112.339,112.339,0,0,1,387.5,286C449.1,286,500,336.692,500,398.5,500,421.87,491.408,437.467,480.135,458.443ZM430,403.5A42.5,42.5,0,1,1,387.5,361,42.5,42.5,0,0,1,430,403.5Z"/>
</svg>
