<svg width="540" height="360" fill="none" xmlns="http://www.w3.org/2000/svg"><path fill="#141414" d="M0 0h540v360H0z"/><mask id="a" fill="#fff"><path d="M141 132h257v96H141v-96Z"/></mask><path d="M141 132v-2h-2v2h2Zm257 0h2v-2h-2v2Zm0 96v2h2v-2h-2Zm-257 0h-2v2h2v-2Zm0-94h257v-4H141v4Zm255-2v96h4v-96h-4Zm2 94H141v4h257v-4Zm-255 2v-96h-4v96h4Z" fill="#EEE" mask="url(#a)"/><path fill-rule="evenodd" clip-rule="evenodd" d="M211.947 179.027 201 191.153l-10.947-12.126-.006-.006a5.735 5.735 0 0 1 8.317-7.894l.017.018 1.674 1.591.945.909.944-.908 1.675-1.592.017-.018a5.696 5.696 0 0 1 4.055-1.679 5.736 5.736 0 0 1 4.262 9.573l-.006.006Zm2.504-10.603a9.56 9.56 0 0 0-13.451-.066 9.56 9.56 0 0 0-13.63 13.399L201 196.785l13.63-15.028a9.56 9.56 0 0 0-.179-13.333Z" fill="#EEE"/><path d="M244.466 178.4h5.088c.896 0 1.632-.213 2.208-.64.576-.427.864-1.12.864-2.08 0-.533-.096-.971-.288-1.312a2.133 2.133 0 0 0-.768-.8 3.025 3.025 0 0 0-1.12-.384 6.222 6.222 0 0 0-1.28-.128h-4.704v5.344Zm-5.024-9.248h10.752c1.088 0 2.08.096 2.976.288.896.192 1.664.512 2.304.96a4.16 4.16 0 0 1 1.472 1.728c.363.725.544 1.621.544 2.688 0 1.152-.266 2.112-.8 2.88-.512.768-1.28 1.397-2.304 1.888 1.408.405 2.454 1.12 3.136 2.144.704 1.003 1.056 2.219 1.056 3.648 0 1.152-.224 2.155-.672 3.008a5.808 5.808 0 0 1-1.824 2.048c-.746.533-1.61.928-2.592 1.184a11.5 11.5 0 0 1-2.976.384h-11.072v-22.848Zm5.024 18.944h5.376c.491 0 .96-.043 1.408-.128a3.952 3.952 0 0 0 1.184-.48c.342-.235.608-.544.8-.928.214-.384.32-.875.32-1.472 0-1.173-.33-2.005-.992-2.496-.661-.512-1.536-.768-2.624-.768h-5.472v6.272ZM277.414 192h-4.32v-2.304h-.096c-.576.96-1.323 1.653-2.24 2.08a6.609 6.609 0 0 1-2.816.64c-1.216 0-2.219-.16-3.008-.48-.768-.32-1.376-.768-1.824-1.344-.448-.597-.768-1.312-.96-2.144a14.356 14.356 0 0 1-.256-2.816v-10.176h4.544v9.344c0 1.365.213 2.389.64 3.072.426.661 1.184.992 2.272.992 1.237 0 2.133-.363 2.688-1.088.554-.747.832-1.963.832-3.648v-8.672h4.544V192Zm9.608-16.544h3.328v3.04h-3.328v8.192c0 .768.128 1.28.384 1.536s.768.384 1.536.384c.256 0 .502-.011.736-.032.235-.021.459-.053.672-.096V192c-.384.064-.81.107-1.28.128-.469.021-.928.032-1.376.032-.704 0-1.376-.053-2.016-.16a4.641 4.641 0 0 1-1.664-.544 3.004 3.004 0 0 1-1.12-1.184c-.277-.512-.416-1.184-.416-2.016v-9.76h-2.752v-3.04h2.752v-4.96h4.544v4.96Zm11.65 0H302v3.04h-3.328v8.192c0 .768.128 1.28.384 1.536s.768.384 1.536.384c.256 0 .502-.011.736-.032.235-.021.459-.053.672-.096V192c-.384.064-.81.107-1.28.128-.469.021-.928.032-1.376.032-.704 0-1.376-.053-2.016-.16a4.641 4.641 0 0 1-1.664-.544 3.004 3.004 0 0 1-1.12-1.184c-.277-.512-.416-1.184-.416-2.016v-9.76h-2.752v-3.04h2.752v-4.96h4.544v4.96Zm9.922 8.288c0 .661.064 1.312.192 1.952a5.6 5.6 0 0 0 .64 1.696c.32.491.736.885 1.248 1.184.512.299 1.152.448 1.92.448s1.408-.149 1.92-.448c.534-.299.95-.693 1.248-1.184a5.13 5.13 0 0 0 .672-1.696c.128-.64.192-1.291.192-1.952s-.064-1.312-.192-1.952a4.793 4.793 0 0 0-.672-1.696 3.325 3.325 0 0 0-1.248-1.184c-.512-.32-1.152-.48-1.92-.48s-1.408.16-1.92.48a3.685 3.685 0 0 0-1.248 1.184 5.21 5.21 0 0 0-.64 1.696 9.931 9.931 0 0 0-.192 1.952Zm-4.544 0c0-1.323.203-2.517.608-3.584.406-1.088.982-2.005 1.728-2.752a7.456 7.456 0 0 1 2.688-1.76c1.046-.427 2.219-.64 3.52-.64 1.302 0 2.475.213 3.52.64 1.067.405 1.974.992 2.72 1.76.747.747 1.323 1.664 1.728 2.752.406 1.067.608 2.261.608 3.584s-.202 2.517-.608 3.584a7.928 7.928 0 0 1-1.728 2.752c-.746.747-1.653 1.323-2.72 1.728-1.045.405-2.218.608-3.52.608-1.301 0-2.474-.203-3.52-.608a7.666 7.666 0 0 1-2.688-1.728 7.957 7.957 0 0 1-1.728-2.752c-.405-1.067-.608-2.261-.608-3.584Zm20.475-8.288h4.32v2.304h.096c.576-.96 1.323-1.653 2.24-2.08a6.35 6.35 0 0 1 2.816-.672c1.216 0 2.208.171 2.976.512.789.32 1.408.779 1.856 1.376.448.576.757 1.291.928 2.144.192.832.288 1.76.288 2.784V192h-4.544v-9.344c0-1.365-.213-2.379-.64-3.04-.427-.683-1.184-1.024-2.272-1.024-1.237 0-2.133.373-2.688 1.12-.555.725-.832 1.931-.832 3.616V192h-4.544v-16.544Z" fill="#EEE"/></svg>