<svg xmlns="http://www.w3.org/2000/svg"{{ with .width }} width="{{ . }}"{{ end }}{{ with .height }} height="{{ . }}"{{ end }} fill="currentColor" aria-hidden="true"{{ with .class }} class="{{ . }}"{{ end }} viewBox="0 0 32 32"><title>{{ with .title }}{{ . }}{{ else }}Download{{ end }}</title><path d="  M19 7a8.23 8.23 0 00-6.42 3.07 3.38 3.38 0 00-4.06 2.97A6 6 0 009.25 25h15a4.5 4.5 0 004.5-4.5 4.5 4.5 0 00-1.68-3.51 8.28 8.28 0 00.18-1.74C27.25 10.69 23.55 7 19 7zm3.9 3.21a.58.58 0 01.6.58.57.57 0 01-.13.36l-3.72 4.63a.58.58 0 01-.91 0l-1.86-2.31a.58.58 0 01.04-.77l.23-.24a.58.58 0 01.8-.03l1.13 1.25 3.44-3.31a.58.58 0 01.38-.16z"/></svg>
