<?xml version="1.0" standalone="no"?>
<!DOCTYPE svg PUBLIC "-//W3C//DTD SVG 20010904//EN"
 "http://www.w3.org/TR/2001/REC-SVG-20010904/DTD/svg10.dtd">
<svg version="1.0" xmlns="http://www.w3.org/2000/svg"
 width="128.000000pt" height="128.000000pt" viewBox="0 0 128.000000 128.000000"
 preserveAspectRatio="xMidYMid meet">
<metadata>
Created by potrace 1.14, written by Peter Selinger 2001-2017
</metadata>
<g transform="translate(0.000000,128.000000) scale(0.100000,-0.100000)"
fill="#000000" stroke="none">
<path d="M630 1272 c-31 -9 -40 -36 -40 -118 0 -97 18 -132 62 -121 31 8 38
30 38 125 0 94 -17 128 -60 114z"/>
<path d="M193 1088 c-27 -36 -22 -48 47 -118 39 -40 78 -70 89 -70 19 0 51 34
51 53 0 5 -30 40 -67 78 -66 69 -99 84 -120 57z"/>
<path d="M967 1031 c-67 -70 -72 -82 -44 -118 19 -26 49 -11 117 57 52 51 68
74 63 87 -23 64 -55 58 -136 -26z"/>
<path d="M577 918 c-124 -26 -218 -144 -219 -274 -1 -69 15 -112 78 -219 29
-49 55 -105 58 -124 2 -18 9 -38 15 -44 7 -7 60 -11 132 -11 133 1 149 7 149
63 0 13 25 67 56 118 72 119 88 181 70 278 -28 146 -187 246 -339 213z m145
-106 c5 -5 -3 -9 -19 -10 -102 -3 -207 -109 -215 -216 -2 -33 -4 -35 -15 -20
-22 30 -21 119 1 162 35 67 110 105 190 97 27 -2 53 -8 58 -13z"/>
<path d="M32 683 c-23 -8 -33 -40 -20 -67 11 -25 14 -26 109 -26 93 0 99 1
114 24 13 19 14 29 5 45 -6 12 -14 22 -18 23 -18 4 -178 4 -190 1z"/>
<path d="M1064 680 c-30 -11 -37 -39 -19 -66 13 -21 24 -24 78 -25 103 -2 121
1 140 23 21 24 21 29 3 53 -11 15 -28 19 -97 20 -46 2 -93 -1 -105 -5z"/>
<path d="M315 370 c-25 -10 -130 -118 -138 -143 -9 -24 26 -57 54 -52 29 6
151 135 144 153 -3 7 -5 17 -5 20 0 15 -36 29 -55 22z"/>
<path d="M910 344 c-8 -19 -7 -31 2 -43 14 -18 129 -131 134 -131 20 0 53 23
57 41 9 33 -114 159 -155 159 -22 0 -31 -6 -38 -26z"/>
<path d="M518 193 c-10 -3 -18 -5 -19 -6 -18 -65 -1 -137 33 -137 12 0 31 -9
43 -20 33 -31 90 -33 124 -4 16 13 38 24 50 24 25 0 37 23 39 75 4 66 -2 69
-135 70 -65 1 -126 0 -135 -2z"/>
</g>
</svg>
