<svg xmlns="http://www.w3.org/2000/svg" viewBox="0 0 1000 1000">
  <path fill-rule="evenodd" d="M887.5 425H700v300c0 110.46-89.54 200-200 200s-200-89.54-200-200V425H112.5l325-323.75v.02a87.48 87.48 0 01125 0v-.02zM650 725a150 150 0 11-150-150 150 150 0 01150 150zM509.31 598.87v15.46q15.32 1.57 26.28 6.3a51.76 51.76 0 0119.1 14.32 60.78 60.78 0 019.96 15.03 34.67 34.67 0 013.51 14.18 16.93 16.93 0 01-5.23 12.38 17.25 17.25 0 01-12.67 5.23q-14.04 0-18.19-15.18-4.72-17.9-22.76-23.76v59.56q17.75 4.86 28.28 8.88a58.6 58.6 0 0118.82 11.6 53.48 53.48 0 0113.68 18.83 59.05 59.05 0 014.8 23.98 63.6 63.6 0 01-7.66 30.57 60.52 60.52 0 01-22.56 23.26q-14.89 9.02-35.36 10.74v17.58q0 8.45-1.65 12.32c-1.1 2.58-3.5 3.86-7.23 3.86-3.44 0-5.85-1.05-7.23-3.15s-2.08-5.34-2.08-9.73v-20.59q-16.75-1.87-29.28-7.88a69.43 69.43 0 01-20.9-14.96 62.3 62.3 0 01-12.39-18.62 49.27 49.27 0 01-4-18.97 17.32 17.32 0 015.36-12.38 17.92 17.92 0 0113.39-5.52 18.93 18.93 0 0110.88 3.01 15.46 15.46 0 016.16 8.45 181.37 181.37 0 006.73 17.96 34.57 34.57 0 008.66 11.38q5.8 5.17 15.4 7.88v-66.57q-19.2-5.3-32.08-11.81a54.04 54.04 0 01-20.9-18.55q-8.02-12.02-8.02-30.92 0-24.63 15.68-40.38t45.31-18.33v-15.17q0-12.03 9.02-12.03 9.16 0 9.17 11.74m-18.19 98.22v-54.84q-12.03 3.59-18.75 9.45t-6.74 17.76q0 11.31 6.3 17.1t19.2 10.53m18.18 42.52v62.72q14.46-2.87 22.34-11.6a29.44 29.44 0 007.87-20.34q0-12.45-7.66-19.25T509.3 739.6" data-name="merged shape"/>
</svg>
