<svg xmlns="http://www.w3.org/2000/svg" viewBox="0 0 32 32"><path d="M5.22 5.6V8h1.6V4.8h7.33c4.2 0 7.39.01 7.45.03.26.07.29.07.29.02a2.47 2.47 0 00-1.61-1.56l-.2-.07L5.22 3.2v2.4z"/><path d="M7.62 7.98v2.39h1.6V7.2h7.32c6.34 0 7.35 0 7.54.05l.23.05-.14-.36c-.3-.63-1-1.16-1.75-1.3-.1-.03-2.7-.04-7.48-.04H7.62v2.38z"/><path d="M10.02 10.48v2.48H11l.16-.16c.19-.18.3-.25.54-.3.89-.25 1.7.58 1.45 1.48-.05.2-.23.46-.4.6a1.2 1.2 0 01-1.78-.31 2 2 0 00-.48-.03h-.48v7.87h1l.12-.14c.07-.08.23-.19.35-.25.2-.1.24-.1.52-.1.26 0 .32 0 .48.08.25.13.45.3.57.53a1.16 1.16 0 01.02 1.1c-.27.53-.85.78-1.42.6-.25-.07-.5-.25-.62-.43l-.07-.1H10l.01 1.7a9.9 9.9 0 00.07 1.92c.21.71.74 1.32 1.38 1.58.48.2-.2.18 7.93.19l7.41.01v-9.41l-.01-9.42-.07-.21a2.5 2.5 0 00-1.66-1.68l-.2-.06L10.02 8v2.48zM23.82 13c.07.02.18.1.25.16.3.31.2.83-.18 1.01l-.15.07-8.33-.02-.12-.07a.65.65 0 01-.24-.84c.07-.14.26-.3.39-.33a368.26 368.26 0 018.38.02zm.1 3.24c.5.26.41 1.01-.13 1.17-.1.02-1.22.03-4.25.02H15.4l-.12-.08a.67.67 0 01-.28-.73c.04-.16.25-.38.39-.43.06-.01 1.7-.02 4.25-.02 4.13 0 4.14 0 4.27.07zm-3.95 3.24c.44.31.34.96-.16 1.13-.08.02-.72.03-2.22.03h-2.12l-.14-.07a.86.86 0 01-.24-.21c-.09-.13-.1-.17-.1-.36s.01-.24.1-.35a.78.78 0 01.24-.21l.14-.08 4.36.02.14.1zm4.17 2.39c.42.14.7.37.92.77.09.16.12.26.12.36 0 .26-.17.43-.43.43-.2 0-.3-.09-.41-.31-.17-.34-.36-.5-.68-.55-.45-.08-.91.06-1.16.37-.1.14-.24.39-.27.52l-.02.08h.95c.8 0 .96 0 1.06.05.25.1.27.53.04.68-.07.05-.2.06-1.12.06H22.1l-.01.2-.01.2h.87c.63 0 .9.02.95.05.24.11.24.55.01.66a5.8 5.8 0 01-.9.03h-.84l.02.07c.1.32.34.62.6.74.2.1.33.12.63.12.47 0 .72-.14.91-.53.11-.2.23-.3.42-.3.23 0 .47.2.47.4 0 .17-.23.55-.45.78-.19.17-.53.34-.83.4-.38.07-.95.05-1.27-.06-.64-.2-1.07-.69-1.28-1.44l-.05-.18h-.2a.8.8 0 01-.27-.04c-.12-.06-.2-.24-.18-.37.04-.22.18-.32.45-.32.15 0 .15 0 .15-.18 0-.24 0-.23-.18-.23-.29 0-.45-.17-.42-.44.03-.25.16-.34.48-.35.2 0 .21 0 .23-.08.04-.21.19-.58.3-.78.26-.41.6-.7 1.04-.82.31-.1.34-.1.77-.08.3 0 .43.02.63.09zM5.22 13.22v3.93h1.6V9.28h-1.6v3.94zM7.62 15.58v3.94h1.6v-7.87h-1.6v3.93zM5.23 20.23c0 1.96 0 1.93.2 2.35.25.56.76 1.04 1.32 1.26.15.06.17.06.15 0l-.04-.16-.03-.18-.01-2.57v-2.5h-1.6v1.8zM7.62 22.61c.01 1.75.02 1.83.08 2.03.2.62.54 1.08 1.05 1.4.23.14.56.28.56.24l-.03-.14c-.06-.22-.06-.43-.06-2.87V20.8h-1.6v1.81z"/></svg>