<svg xmlns="http://www.w3.org/2000/svg" viewBox="0 0 100 125"><path d="M22 79h-3L9 89a2 2 0 002 3l11-11v-2zm4 5l-5 5a2 2 0 003 3l5-5a2 2 0 00-3-3zm66-74V9l-2-1-1-1h-3c-7 0-25 2-37 13l-4 5-5-1c-3 0-7 1-9 3L19 39l-1 4v1a5 5 0 003 3l11 5-11 11v1s0 5 4 10c5 4 9 4 10 4h1l11-11 5 11a5 5 0 005 3l3-1 13-13c3-3 4-9 2-13l4-4c14-15 13-39 13-40zM31 44a2 2 0 01-1-3l9-9a2 2 0 113 3l-10 9h-1zm36 16l-9 10a2 2 0 01-3 0v-3l10-9a2 2 0 112 2zm9-31a5 5 0 01-7 0 5 5 0 117 0zM13 77h2l4-5a2 2 0 10-3-3l-4 5a2 2 0 001 3z"/></svg>

