<svg xmlns="http://www.w3.org/2000/svg" viewBox="0 0 32 32"><path d="M9.23 2.44c-.58.15-1.07.65-1.2 1.23-.04.24-.04 24.42 0 24.66.13.6.65 1.11 1.24 1.23.24.06 13.22.06 13.46 0 .6-.12 1.11-.64 1.23-1.23.06-.24.06-24.42 0-24.66a1.7 1.7 0 00-1.16-1.23c-.05-.01-3.1-.03-6.75-.03-5.25 0-6.7 0-6.82.03zm8.17.82c.11.07.2.21.2.34s-.09.27-.2.34C17.3 4 17.23 4 16 4c-1.42 0-1.41 0-1.54-.2a.38.38 0 01.14-.54c.1-.06.17-.06 1.4-.06s1.3 0 1.4.06zm5 12.34v10.8H9.6V4.8h12.8v10.8zm-6 11.7a.8.8 0 01-.15 1.45c-.6.22-1.22-.4-1-1a.83.83 0 01.52-.52.97.97 0 01.63.08z"/><path d="M15.52 9.65c-.86.18-1.53.8-1.83 1.68-.06.19-.07.29-.08 1.24l-.02 1.03H12v3.08c0 3.28 0 3.2.15 3.5.1.19.32.4.55.5l.21.1 7.09.02v-3.14l-.02-3.15-.1-.2a1.2 1.2 0 00-1.13-.7l-.34-.02-.02-1.01c-.01-1.12-.02-1.2-.24-1.62a2.41 2.41 0 00-2.63-1.31zm.77.94c.5.1.92.48 1.08 1 .06.18.07.27.07 1.1v.91h-2.88v-.92c0-.82.01-.94.07-1.11.23-.7.93-1.11 1.65-.98zm.04 4.84c.5.18.75.73.57 1.22-.07.18-.27.42-.4.5-.06.02-.06.04-.02.44a66.5 66.5 0 00.15 1.47l.01.14h-1.29l.02-.12.04-.34.06-.66c.1-.94.1-.9 0-.96a1.1 1.1 0 01-.38-.52.88.88 0 010-.56.95.95 0 011.24-.61z"/></svg>