<svg xmlns="http://www.w3.org/2000/svg" viewBox="0 0 400 225">
  <path fill="#ffb4e6" d="M400 225H0V.06h400V225"/>
  <path fill="#56c382" d="M400 168.96H0V225h400v-56.04"/>
  <path fill="#b68363" d="M192.96 109.05l-2.7-2.82-3.63 3.32s-1.4 1.29-.83 3.06c.56 1.76 3.3 1.39 3.3 1.39s.76-.04.76-.6c0-.69-.68-.64-.68-.64l.12-2.35s2.63-.64 3.66-1.36"/>
  <path fill="#4a4c4f" d="M214.15 146.6h5.9v-1.5h-5.9v1.5"/>
  <path fill="#040606" d="M221.94 137.6l2.24 3.4c-1.53 1.15-4.9 4.1-4.9 4.1h-4.12s1.45-1.46 2.9-2.89c1.24-2.19 1.13-2.8 1.13-2.8l2.75-1.8"/>
  <path fill="#5bb8e9" d="M227.63 105.75a5.16 5.16 0 01-1.07 6.82l-15.27 9.67 10.65 15.36-2.75 1.8-16.1-15.54c-1.8-1.7-1.4-4.08.61-5.63l17.58-13.49 6.35 1"/>
  <path fill="#7f8283" d="M238.15 148.15a3.47 3.47 0 106.95 0 3.47 3.47 0 00-6.95 0"/>
  <path fill="#040606" d="M223.76 118.23l-.13-.01a.65.65 0 01-.5-.77l.78-3.85a.65.65 0 011.28.26l-.8 3.85a.65.65 0 01-.63.52M191 119.13l-.18-.03a.65.65 0 01-.45-.8l1.22-4.3-3.1-1.88a.65.65 0 11.68-1.12l3.52 2.14c.25.15.37.45.29.73l-1.36 4.78a.65.65 0 01-.62.48M182.02 129.1a18.8 18.8 0 00-18.78 18.77A18.8 18.8 0 00182 166.66v1.15-1.15a18.8 18.8 0 0013.29-32.06 18.65 18.65 0 00-13.28-5.5zm0 39.86a21.1 21.1 0 01-21.09-21.09 21.1 21.1 0 0121.09-21.08c5.63 0 10.93 2.2 14.9 6.18a20.94 20.94 0 016.18 14.91 21.11 21.11 0 01-21.08 21.08M242.1 129.1a18.8 18.8 0 00-13.28 32.05 18.65 18.65 0 0013.28 5.5v1.16-1.15a18.8 18.8 0 0018.78-18.78 18.8 18.8 0 00-18.77-18.78zm0 39.86c-5.64 0-10.93-2.2-14.91-6.18a21.1 21.1 0 0114.91-35.99 21.1 21.1 0 0121.08 21.1 21.11 21.11 0 01-21.08 21.07"/>
  <path fill="#fff" d="M191.25 119.94l29.71 7.4-5.34 24.42-24.88-30.17zm49.6 27.61l-24 4.84 5.3-24.25zm1.87.05l-20.24-21 2-9.16-1.3-.28-1.93 8.89-29.62-7.39-1.26-.4L181.3 148c-.1.35.09.73.44.83.35.11.72-.09.83-.44l7.7-25.26 25.14 30.47v.02l.05.04v.02h.02l.03.03.09.1c.02 0 .04 0 .06.02l.07.03.1.04h.05c.05.01.1 0 .14 0h.08l26.2-5.27c.29-.06.49-.32.5-.62a.6.6 0 00-.09-.4"/>
  <path fill="#4a4c4f" d="M210.88 152.6a4.96 4.96 0 109.92 0 4.96 4.96 0 00-9.92 0"/>
  <path fill="#040606" d="M231.06 110.86s.29 3.65-2.78 4.05c-2.34.3-4.32-1.33-8.39-.9-4.06.43-3.7-1.22-3.7-1.22l14.87-1.93"/>
  <path fill="#5bb8e9" d="M232.67 100.85c1.04 2.99.56 6.38-.6 8.04-.05.13-.1.26-.17.38l-15.45 17.99 4.46 24.22-4.73 1.36-7.53-24.23c-.8-2.12.15-3.47.15-3.47l9.62-17.59c.36-.6.44-1.28.28-1.92l13.97-4.78"/>
  <path fill="#4a4c4f" d="M210.1 159.9h5.9v-1.45h-5.9v1.45"/>
  <path fill="#040606" d="M216.94 152.62l3.72-1.07.9 3.97-5.97 2.93h-4.26s.44-1.76 3.83-2.92l1.78-2.9"/>
  <path fill="#b68363" d="M208.98 74.2l1.05 1.13-3.5 3.81c-1.67-3.2-3.1-2.6-3.1-2.6-6.2 1.4-7.94-3.43-7.94-3.43l-.7-1.57-1.78-.37.8-4.52c.58-5.47 2.98-7.7 7.47-8.02 4.07-.3 6.6 1.72 7.38 7.34 0 0-.04 2.63-.3 6.03-.07.78.15 1.56.62 2.2"/>
  <path fill="#613e3b" d="M219.9 72.91c-.81 1.94-5.48 4.96-10.32 1.94 0 0-3.63-3.56-3.9-6.41 0 0 .01-2.15-1.67-2.14-1.9.01-1.73 2.46-1.73 2.46-1.56-1.56-1.72-4.45-1.72-4.45h10.45s2.13 8.37 8.9 8.6"/>
  <path fill="#040606" d="M197.6 66.96a.75.75 0 11-1.39.57.75.75 0 011.38-.57M192.17 64.12c-.04.28.18.52.45.53 1.73.1 5.56.21 9.24.32l3.7.12c4.96.15 8.12.71 6.97-3.37-1-3.56-5.49-6.23-10.43-5.83-5.67.46-9.47 4.73-9.93 8.23"/>
  <path fill="#f46c20" d="M233.29 103.75l-16.21 4.28a.49.49 0 01-.58-.3l-9.72-20.04s-.4-8.94-.2-9.83c.15-2.21 3.62-4.43 6.46-2.16 0 0 13.33 14.05 20.85 26.6a.98.98 0 01-.6 1.45"/>
  <path fill="#f46c20" d="M190.26 106.23c15.12-12.51 16.24-27.68 16.24-27.86a2.88 2.88 0 012.82-2.93h.05c1.57 0 5.02 3.91 5.05 5.48.02.85 2.07 12.03-21.46 28.13l-2.7-2.82"/>
  <path fill="#040606" d="M190.07 111.56a1.24 1.24 0 11-2.48 0 1.24 1.24 0 012.48 0"/>
  <path fill="#4a4c4f" d="M202.1 76.75s.28.03 1.33-.2V65.01l-1.57-.06.25 11.8"/>
</svg>
