<svg width="540" height="360" fill="none" xmlns="http://www.w3.org/2000/svg"><path fill="#141414" d="M0 0h540v360H0z"/><path d="M101.328 180.416h3.416a9.17 9.17 0 0 0 1.456-.112 3.573 3.573 0 0 0 1.232-.42c.355-.224.635-.532.84-.924.224-.392.336-.905.336-1.54s-.112-1.148-.336-1.54a2.162 2.162 0 0 0-.84-.896 3.243 3.243 0 0 0-1.232-.448 9.17 9.17 0 0 0-1.456-.112h-3.416v5.992Zm-4.396-9.408h9.016c1.251 0 2.315.187 3.192.56.877.355 1.587.831 2.128 1.428.56.597.961 1.279 1.204 2.044.261.765.392 1.559.392 2.38a7.49 7.49 0 0 1-.392 2.38 5.301 5.301 0 0 1-1.204 2.044c-.541.597-1.251 1.083-2.128 1.456-.877.355-1.941.532-3.192.532h-4.62V191h-4.396v-19.992Zm18.438 9.968c.056-.933.289-1.708.7-2.324a4.754 4.754 0 0 1 1.568-1.484 6.589 6.589 0 0 1 2.128-.784 11.718 11.718 0 0 1 2.408-.252 14.9 14.9 0 0 1 2.212.168 6.487 6.487 0 0 1 2.044.588c.616.299 1.12.719 1.512 1.26.392.523.588 1.223.588 2.1v7.532c0 .653.037 1.279.112 1.876.074.597.205 1.045.392 1.344h-4.032a8.958 8.958 0 0 1-.196-.672 9.014 9.014 0 0 1-.084-.728 5.187 5.187 0 0 1-2.24 1.372 9.004 9.004 0 0 1-2.632.392 7.107 7.107 0 0 1-1.932-.252 4.413 4.413 0 0 1-1.568-.784 3.786 3.786 0 0 1-1.064-1.344c-.243-.541-.364-1.185-.364-1.932 0-.821.14-1.493.42-2.016a3.778 3.778 0 0 1 1.12-1.288 4.964 4.964 0 0 1 1.568-.7 15.278 15.278 0 0 1 1.792-.392 30.608 30.608 0 0 1 1.764-.224c.578-.056 1.092-.14 1.54-.252.448-.112.802-.271 1.064-.476.261-.224.382-.541.364-.952 0-.429-.075-.765-.224-1.008a1.324 1.324 0 0 0-.56-.588 1.828 1.828 0 0 0-.812-.28 5.335 5.335 0 0 0-.98-.084c-.784 0-1.4.168-1.848.504-.448.336-.71.896-.784 1.68h-3.976Zm9.184 2.94a1.942 1.942 0 0 1-.644.364c-.243.075-.514.14-.812.196-.28.056-.579.103-.896.14-.318.037-.635.084-.952.14a7.874 7.874 0 0 0-.896.224c-.28.093-.532.224-.756.392a1.703 1.703 0 0 0-.504.588c-.131.243-.196.551-.196.924 0 .355.065.653.196.896.13.243.308.439.532.588.224.131.485.224.784.28.298.056.606.084.924.084.784 0 1.39-.131 1.82-.392.429-.261.746-.569.952-.924.205-.373.326-.747.364-1.12.056-.373.084-.672.084-.896v-1.484Zm14.16 3.668c.56 0 1.055-.112 1.484-.336a3.111 3.111 0 0 0 1.064-.896c.28-.373.485-.793.616-1.26a5.12 5.12 0 0 0 .224-1.512c0-.597-.056-1.157-.168-1.68a4.243 4.243 0 0 0-.56-1.428 2.899 2.899 0 0 0-1.036-.98c-.429-.243-.971-.364-1.624-.364-.56 0-1.045.112-1.456.336a3.16 3.16 0 0 0-1.008.924 4.05 4.05 0 0 0-.588 1.316 6.832 6.832 0 0 0-.168 1.54c0 .523.047 1.045.14 1.568.112.504.289.961.532 1.372.261.411.597.747 1.008 1.008.411.261.924.392 1.54.392Zm7.168 2.492c0 .579-.084 1.241-.252 1.988-.149.747-.485 1.437-1.008 2.072-.523.653-1.279 1.204-2.268 1.652-.989.448-2.315.672-3.976.672a8.976 8.976 0 0 1-2.184-.28 6.83 6.83 0 0 1-2.016-.812 5.112 5.112 0 0 1-1.512-1.456c-.392-.579-.616-1.279-.672-2.1h3.948c.187.747.551 1.26 1.092 1.54.541.299 1.167.448 1.876.448 1.12 0 1.932-.336 2.436-1.008.523-.672.775-1.521.756-2.548v-1.904h-.056a3.998 3.998 0 0 1-1.848 1.708 5.973 5.973 0 0 1-2.492.532c-1.083 0-2.016-.187-2.8-.56a5.514 5.514 0 0 1-1.932-1.568 6.902 6.902 0 0 1-1.12-2.324 11.623 11.623 0 0 1-.336-2.828c0-.933.131-1.829.392-2.688a7.074 7.074 0 0 1 1.204-2.296 5.727 5.727 0 0 1 1.932-1.596c.784-.392 1.68-.588 2.688-.588.952 0 1.783.177 2.492.532.728.355 1.335.952 1.82 1.792h.056v-1.932h3.78v13.552Zm13.295-7.868c-.187-1.008-.523-1.773-1.008-2.296-.467-.523-1.185-.784-2.156-.784-.635 0-1.167.112-1.596.336a3.043 3.043 0 0 0-1.008.784c-.243.317-.42.653-.532 1.008a5.193 5.193 0 0 0-.168.952h6.468Zm-6.468 2.52c.056 1.288.383 2.221.98 2.8.597.579 1.456.868 2.576.868.803 0 1.493-.196 2.072-.588.579-.411.933-.84 1.064-1.288h3.5c-.56 1.736-1.419 2.977-2.576 3.724-1.157.747-2.557 1.12-4.2 1.12-1.139 0-2.165-.177-3.08-.532a6.551 6.551 0 0 1-2.324-1.568 7.174 7.174 0 0 1-1.484-2.408c-.336-.933-.504-1.96-.504-3.08 0-1.083.177-2.091.532-3.024a6.96 6.96 0 0 1 1.512-2.408 7.044 7.044 0 0 1 2.324-1.624c.915-.392 1.923-.588 3.024-.588 1.232 0 2.305.243 3.22.728a6.171 6.171 0 0 1 2.24 1.904 7.743 7.743 0 0 1 1.288 2.744c.261 1.027.355 2.1.28 3.22h-10.444Zm21.407-13.72h3.976V191h-3.976v-19.992Zm11.545 3.276h-3.976v-3.276h3.976v3.276Zm-3.976 2.24h3.976V191h-3.976v-14.476Zm7.457 0h3.78v2.016h.084c.504-.84 1.157-1.447 1.96-1.82a5.555 5.555 0 0 1 2.464-.588c1.064 0 1.932.149 2.604.448.69.28 1.232.681 1.624 1.204.392.504.662 1.129.812 1.876.168.728.252 1.54.252 2.436V191h-3.976v-8.176c0-1.195-.187-2.081-.56-2.66-.374-.597-1.036-.896-1.988-.896-1.083 0-1.867.327-2.352.98-.486.635-.728 1.689-.728 3.164V191h-3.976v-14.476Zm17.311-5.516h3.976v10.724l5.012-5.208h4.704l-5.46 5.32 6.076 9.156h-4.816l-3.976-6.468-1.54 1.484V191h-3.976v-19.992Z" fill="#EEE"/><path d="M95 194.5h125.649v1.4H95v-1.4ZM242.302 189.5 252 180l-9.698-9.5-2.771 2.713L246.46 180l-6.929 6.784 2.771 2.716ZM293.24 176.028c-.299-1.419-.961-2.483-1.988-3.192-1.008-.709-2.212-1.064-3.612-1.064-1.195 0-2.221.224-3.08.672a6.166 6.166 0 0 0-2.1 1.82 7.795 7.795 0 0 0-1.204 2.576 11.6 11.6 0 0 0-.392 3.024c0 1.139.131 2.221.392 3.248.261 1.008.663 1.895 1.204 2.66a6.202 6.202 0 0 0 2.128 1.792c.859.448 1.885.672 3.08.672.877 0 1.652-.14 2.324-.42a5.378 5.378 0 0 0 1.764-1.204 5.59 5.59 0 0 0 1.176-1.848c.28-.709.448-1.475.504-2.296h2.66c-.261 2.52-1.129 4.48-2.604 5.88-1.475 1.4-3.491 2.1-6.048 2.1-1.549 0-2.903-.261-4.06-.784-1.157-.541-2.119-1.279-2.884-2.212-.765-.933-1.344-2.035-1.736-3.304-.373-1.269-.56-2.632-.56-4.088s.205-2.819.616-4.088c.411-1.288 1.008-2.408 1.792-3.36a8.44 8.44 0 0 1 2.968-2.24c1.195-.56 2.557-.84 4.088-.84 1.045 0 2.035.14 2.968.42.933.28 1.764.691 2.492 1.232a6.858 6.858 0 0 1 1.82 2.044c.485.803.803 1.736.952 2.8h-2.66ZM311.333 190h-2.24v-2.296h-.056c-.504.896-1.148 1.559-1.932 1.988-.784.411-1.708.616-2.772.616-.952 0-1.745-.121-2.38-.364-.635-.261-1.148-.625-1.54-1.092a4.201 4.201 0 0 1-.84-1.652 9.698 9.698 0 0 1-.224-2.156v-9.52h2.38v9.8c0 .896.261 1.605.784 2.128.523.523 1.241.784 2.156.784.728 0 1.353-.112 1.876-.336a3.524 3.524 0 0 0 1.344-.952c.355-.411.616-.887.784-1.428.187-.56.28-1.167.28-1.82v-8.176h2.38V190Zm3.841-14.476h2.24v3.052h.056c.578-1.176 1.288-2.044 2.128-2.604.84-.56 1.904-.821 3.192-.784v2.52c-.952 0-1.764.131-2.436.392-.672.261-1.214.644-1.624 1.148-.411.504-.71 1.12-.896 1.848-.187.709-.28 1.531-.28 2.464V190h-2.38v-14.476Zm9.674 0h2.24v3.052h.056c.579-1.176 1.288-2.044 2.128-2.604.84-.56 1.904-.821 3.192-.784v2.52c-.952 0-1.764.131-2.436.392-.672.261-1.213.644-1.624 1.148-.411.504-.709 1.12-.896 1.848-.187.709-.28 1.531-.28 2.464V190h-2.38v-14.476Zm19.318 5.852a4.654 4.654 0 0 0-.392-1.596 3.654 3.654 0 0 0-.868-1.288 3.654 3.654 0 0 0-1.288-.868 3.83 3.83 0 0 0-1.624-.336c-.616 0-1.176.112-1.68.336a3.719 3.719 0 0 0-1.26.868 4.162 4.162 0 0 0-.84 1.316 4.815 4.815 0 0 0-.364 1.568h8.316Zm2.296 4.032c-.317 1.624-1.017 2.847-2.1 3.668-1.083.821-2.445 1.232-4.088 1.232-1.157 0-2.165-.187-3.024-.56a5.962 5.962 0 0 1-2.128-1.568c-.579-.672-1.017-1.475-1.316-2.408a11.995 11.995 0 0 1-.476-3.052c0-1.101.168-2.109.504-3.024a7.362 7.362 0 0 1 1.4-2.38 6.605 6.605 0 0 1 2.156-1.568 6.686 6.686 0 0 1 2.744-.56c1.288 0 2.352.271 3.192.812a6.04 6.04 0 0 1 2.044 2.016 7.647 7.647 0 0 1 1.064 2.688c.205.971.289 1.895.252 2.772H335.85a5.86 5.86 0 0 0 .224 1.82c.168.56.439 1.064.812 1.512.373.429.849.775 1.428 1.036s1.26.392 2.044.392c1.008 0 1.829-.233 2.464-.7.653-.467 1.083-1.176 1.288-2.128h2.352Zm3.041-9.884h2.24v2.296h.056c.989-1.755 2.557-2.632 4.704-2.632.952 0 1.745.131 2.38.392.635.261 1.148.625 1.54 1.092.392.467.663 1.027.812 1.68a8.32 8.32 0 0 1 .252 2.128V190h-2.38v-9.8c0-.896-.261-1.605-.784-2.128-.523-.523-1.241-.784-2.156-.784-.728 0-1.363.112-1.904.336a3.564 3.564 0 0 0-1.316.952 4.264 4.264 0 0 0-.812 1.456 6.025 6.025 0 0 0-.252 1.792V190h-2.38v-14.476Zm19.213 0h2.884v2.1h-2.884v8.988c0 .28.018.504.056.672a.758.758 0 0 0 .28.392c.13.093.308.159.532.196.242.019.55.028.924.028h1.092v2.1h-1.82a9.815 9.815 0 0 1-1.596-.112c-.43-.093-.784-.252-1.064-.476-.262-.224-.458-.541-.588-.952-.131-.411-.196-.952-.196-1.624v-9.212h-2.464v-2.1h2.464v-4.34h2.38v4.34Zm14.105 0h2.38v1.96h.056c.392-.803 1.008-1.381 1.848-1.736.84-.373 1.764-.56 2.772-.56 1.12 0 2.09.205 2.912.616.84.411 1.53.971 2.072 1.68a7.06 7.06 0 0 1 1.26 2.408c.28.915.42 1.885.42 2.912s-.14 1.997-.42 2.912a6.706 6.706 0 0 1-1.232 2.408 5.722 5.722 0 0 1-2.072 1.596c-.822.392-1.783.588-2.884.588-.355 0-.756-.037-1.204-.112a6.668 6.668 0 0 1-1.288-.364 5.655 5.655 0 0 1-1.232-.672 4.132 4.132 0 0 1-.952-1.092h-.056v7.448h-2.38v-19.992Zm11.2 7.112c0-.672-.094-1.325-.28-1.96a4.966 4.966 0 0 0-.812-1.736 3.834 3.834 0 0 0-1.4-1.204c-.56-.299-1.223-.448-1.988-.448-.803 0-1.484.159-2.044.476a4.028 4.028 0 0 0-1.372 1.26 5.26 5.26 0 0 0-.784 1.736 8.853 8.853 0 0 0-.224 1.988c0 .709.084 1.4.252 2.072a5.26 5.26 0 0 0 .784 1.736c.373.504.849.915 1.428 1.232.578.299 1.278.448 2.1.448.821 0 1.502-.159 2.044-.476a3.784 3.784 0 0 0 1.344-1.26 5.5 5.5 0 0 0 .728-1.792 9.546 9.546 0 0 0 .224-2.072Zm18.487 7.308c-.41.243-.98.364-1.708.364-.616 0-1.11-.168-1.484-.504-.354-.355-.532-.924-.532-1.708-.653.784-1.418 1.353-2.296 1.708-.858.336-1.792.504-2.8.504a7.73 7.73 0 0 1-1.876-.224 4.348 4.348 0 0 1-1.512-.7 3.526 3.526 0 0 1-1.036-1.232c-.242-.523-.364-1.148-.364-1.876 0-.821.14-1.493.42-2.016.28-.523.644-.943 1.092-1.26.467-.336.99-.588 1.568-.756a19.852 19.852 0 0 1 1.82-.42c.654-.131 1.27-.224 1.848-.28a13.42 13.42 0 0 0 1.568-.28c.448-.131.803-.308 1.064-.532.262-.243.392-.588.392-1.036 0-.523-.102-.943-.308-1.26a1.883 1.883 0 0 0-.756-.728 2.939 2.939 0 0 0-1.036-.336 7.53 7.53 0 0 0-1.12-.084c-1.008 0-1.848.196-2.52.588-.672.373-1.036 1.092-1.092 2.156h-2.38c.038-.896.224-1.652.56-2.268a4.12 4.12 0 0 1 1.344-1.484 5.494 5.494 0 0 1 1.904-.84 10.316 10.316 0 0 1 2.324-.252c.654 0 1.298.047 1.932.14a4.9 4.9 0 0 1 1.764.588c.523.28.943.681 1.26 1.204.318.523.476 1.204.476 2.044v7.448c0 .56.028.971.084 1.232.075.261.299.392.672.392.206 0 .448-.047.728-.14v1.848Zm-3.864-7.42c-.298.224-.69.392-1.176.504-.485.093-.998.177-1.54.252-.522.056-1.054.131-1.596.224a5.55 5.55 0 0 0-1.456.392 2.708 2.708 0 0 0-1.064.812c-.261.336-.392.803-.392 1.4 0 .392.075.728.224 1.008.168.261.374.476.616.644.262.168.56.289.896.364.336.075.691.112 1.064.112.784 0 1.456-.103 2.016-.308.56-.224 1.018-.495 1.372-.812a3.4 3.4 0 0 0 .784-1.064c.168-.392.252-.756.252-1.092v-2.436Zm18.917 6.244c0 2.371-.541 4.144-1.624 5.32-1.082 1.176-2.781 1.764-5.096 1.764-.672 0-1.362-.075-2.072-.224a6.502 6.502 0 0 1-1.904-.728 4.498 4.498 0 0 1-1.4-1.316c-.373-.541-.578-1.204-.616-1.988h2.38c.019.429.15.793.392 1.092.262.299.57.541.924.728a4.35 4.35 0 0 0 1.204.392c.43.093.84.14 1.232.14.784 0 1.447-.14 1.988-.42.542-.261.99-.635 1.344-1.12.355-.467.607-1.036.756-1.708a9.112 9.112 0 0 0 .252-2.212v-.952h-.056c-.41.896-1.036 1.559-1.876 1.988a5.798 5.798 0 0 1-2.632.616c-1.082 0-2.025-.196-2.828-.588a6.014 6.014 0 0 1-2.016-1.568 7.12 7.12 0 0 1-1.232-2.324 10.064 10.064 0 0 1-.392-2.828c0-.859.112-1.736.336-2.632a7.068 7.068 0 0 1 1.12-2.464c.523-.747 1.214-1.353 2.072-1.82.859-.485 1.914-.728 3.164-.728a5.24 5.24 0 0 1 2.52.616c.766.392 1.363.989 1.792 1.792h.028v-2.072h2.24v13.244Zm-6.664-.7c.784 0 1.447-.159 1.988-.476a4.037 4.037 0 0 0 1.344-1.288 5.802 5.802 0 0 0 .728-1.82 8.285 8.285 0 0 0 .252-2.016c0-.635-.074-1.26-.224-1.876a4.891 4.891 0 0 0-.728-1.652 3.54 3.54 0 0 0-1.26-1.204c-.522-.299-1.157-.448-1.904-.448-.765 0-1.418.149-1.96.448-.541.28-.989.663-1.344 1.148a5.304 5.304 0 0 0-.756 1.68 8.671 8.671 0 0 0-.224 1.988c0 .653.066 1.307.196 1.96.131.653.355 1.251.672 1.792.318.523.738.952 1.26 1.288.523.317 1.176.476 1.96.476Zm20.656-6.692a4.654 4.654 0 0 0-.392-1.596 3.64 3.64 0 0 0-.868-1.288 3.645 3.645 0 0 0-1.288-.868 3.827 3.827 0 0 0-1.624-.336c-.616 0-1.176.112-1.68.336a3.719 3.719 0 0 0-1.26.868 4.197 4.197 0 0 0-.84 1.316 4.84 4.84 0 0 0-.364 1.568h8.316Zm2.296 4.032c-.317 1.624-1.017 2.847-2.1 3.668-1.082.821-2.445 1.232-4.088 1.232-1.157 0-2.165-.187-3.024-.56a5.962 5.962 0 0 1-2.128-1.568c-.578-.672-1.017-1.475-1.316-2.408-.28-.933-.438-1.951-.476-3.052 0-1.101.168-2.109.504-3.024a7.362 7.362 0 0 1 1.4-2.38 6.605 6.605 0 0 1 2.156-1.568 6.686 6.686 0 0 1 2.744-.56c1.288 0 2.352.271 3.192.812a6.04 6.04 0 0 1 2.044 2.016 7.628 7.628 0 0 1 1.064 2.688c.206.971.29 1.895.252 2.772h-10.836a5.89 5.89 0 0 0 .224 1.82c.168.56.439 1.064.812 1.512.374.429.85.775 1.428 1.036.579.261 1.26.392 2.044.392 1.008 0 1.83-.233 2.464-.7.654-.467 1.083-1.176 1.288-2.128h2.352Z" fill="#EEE"/></svg>