<svg width="540" height="360" fill="none" xmlns="http://www.w3.org/2000/svg"><path fill="#141414" d="M0 0h540v360H0z"/><path d="M203.208 169.152h5.024v18.624h11.136V192h-16.16v-22.848Zm18.697 11.392c.064-1.067.33-1.952.8-2.656a5.441 5.441 0 0 1 1.792-1.696 7.533 7.533 0 0 1 2.432-.896 13.393 13.393 0 0 1 2.752-.288c.832 0 1.674.064 2.528.192a7.448 7.448 0 0 1 2.336.672c.704.341 1.28.821 1.728 1.44.448.597.672 1.397.672 2.4v8.608c0 .747.042 1.461.128 2.144.085.683.234 1.195.448 1.536h-4.608c-.086-.256-.16-.512-.224-.768a10.702 10.702 0 0 1-.096-.832 5.927 5.927 0 0 1-2.56 1.568c-.982.299-1.984.448-3.008.448a8.12 8.12 0 0 1-2.208-.288 5.06 5.06 0 0 1-1.792-.896 4.311 4.311 0 0 1-1.216-1.536c-.278-.619-.416-1.355-.416-2.208 0-.939.16-1.707.48-2.304.341-.619.768-1.109 1.28-1.472a5.674 5.674 0 0 1 1.792-.8 17.613 17.613 0 0 1 2.048-.448 34.301 34.301 0 0 1 2.016-.256c.661-.064 1.248-.16 1.76-.288.512-.128.917-.309 1.216-.544.298-.256.437-.619.416-1.088 0-.491-.086-.875-.256-1.152a1.505 1.505 0 0 0-.64-.672 2.09 2.09 0 0 0-.928-.32 6.096 6.096 0 0 0-1.12-.096c-.896 0-1.6.192-2.112.576-.512.384-.811 1.024-.896 1.92h-4.544Zm10.496 3.36a2.223 2.223 0 0 1-.736.416c-.278.085-.587.16-.928.224-.32.064-.662.117-1.024.16-.363.043-.726.096-1.088.16a8.858 8.858 0 0 0-1.024.256c-.32.107-.608.256-.864.448a1.969 1.969 0 0 0-.576.672c-.15.277-.224.629-.224 1.056 0 .405.074.747.224 1.024.149.277.352.501.608.672.256.149.554.256.896.32.341.064.693.096 1.056.096.896 0 1.589-.149 2.08-.448.49-.299.853-.651 1.088-1.056.234-.427.373-.853.416-1.28a7.27 7.27 0 0 0 .096-1.024v-1.696Zm20.599-.16c0-.704-.075-1.376-.224-2.016a5.285 5.285 0 0 0-.704-1.696 3.486 3.486 0 0 0-1.216-1.152c-.47-.299-1.046-.448-1.728-.448-.662 0-1.238.149-1.728.448a3.477 3.477 0 0 0-1.216 1.152 5.262 5.262 0 0 0-.704 1.696 8.81 8.81 0 0 0-.224 2.016c0 .683.074 1.344.224 1.984.149.64.384 1.205.704 1.696.32.491.725.885 1.216 1.184.49.277 1.066.416 1.728.416.682 0 1.258-.139 1.728-.416.49-.299.896-.693 1.216-1.184.32-.491.554-1.056.704-1.696a8.72 8.72 0 0 0 .224-1.984Zm-12.128-14.592h4.544v8.32h.064a4.763 4.763 0 0 1 2.24-1.856 7.585 7.585 0 0 1 2.976-.608c.832 0 1.653.171 2.464.512.81.341 1.536.864 2.176 1.568.661.704 1.194 1.611 1.6 2.72.405 1.088.608 2.389.608 3.904 0 1.515-.203 2.827-.608 3.936-.406 1.088-.939 1.984-1.6 2.688-.64.704-1.366 1.227-2.176 1.568a6.306 6.306 0 0 1-2.464.512c-1.216 0-2.304-.192-3.264-.576a4.142 4.142 0 0 1-2.176-1.952h-.064V192h-4.32v-22.848Zm31.098 12.8c-.213-1.152-.597-2.027-1.152-2.624-.533-.597-1.354-.896-2.464-.896-.725 0-1.333.128-1.824.384a3.492 3.492 0 0 0-1.152.896c-.277.363-.48.747-.608 1.152-.106.405-.17.768-.192 1.088h7.392Zm-7.392 2.88c.064 1.472.438 2.539 1.12 3.2.683.661 1.664.992 2.944.992.918 0 1.707-.224 2.368-.672.662-.469 1.067-.96 1.216-1.472h4c-.64 1.984-1.621 3.403-2.944 4.256-1.322.853-2.922 1.28-4.8 1.28-1.301 0-2.474-.203-3.52-.608-1.045-.427-1.93-1.024-2.656-1.792-.725-.768-1.29-1.685-1.696-2.752-.384-1.067-.576-2.24-.576-3.52 0-1.237.203-2.389.608-3.456a7.957 7.957 0 0 1 1.728-2.752 8.069 8.069 0 0 1 2.656-1.856c1.046-.448 2.198-.672 3.456-.672 1.408 0 2.635.277 3.68.832a7.044 7.044 0 0 1 2.56 2.176 8.832 8.832 0 0 1 1.472 3.136c.299 1.173.406 2.4.32 3.68h-11.936Zm15.159-15.68h4.544V192h-4.544v-22.848Z" fill="#EEE"/><path d="M315.628 191.875 327.75 180l-12.122-11.875-3.464 3.391 8.661 8.484-8.661 8.48 3.464 3.395Z" fill="#FF7900"/></svg>