<svg width="540" height="360" fill="none" xmlns="http://www.w3.org/2000/svg"><path fill="#141414" d="M0 0h540v360H0z"/><mask id="a" fill="#fff"><path d="M185 180c0-11.046 8.954-20 20-20s20 8.954 20 20-8.954 20-20 20-20-8.954-20-20Z"/></mask><path d="M205 196c-8.837 0-16-7.163-16-16h-8c0 13.255 10.745 24 24 24v-8Zm16-16c0 8.837-7.163 16-16 16v8c13.255 0 24-10.745 24-24h-8Zm-16-16c8.837 0 16 7.163 16 16h8c0-13.255-10.745-24-24-24v8Zm0-8c-13.255 0-24 10.745-24 24h8c0-8.837 7.163-16 16-16v-8Z" fill="#FF7900" mask="url(#a)"/><path d="M213.001 180a8 8 0 1 1-16 0 8 8 0 0 1 16 0Z" fill="#FF7900"/><path d="M261.256 180.576c0 1.152.149 2.293.448 3.424a9.286 9.286 0 0 0 1.408 3.008 7.356 7.356 0 0 0 2.464 2.176c1.003.533 2.197.8 3.584.8s2.581-.267 3.584-.8a7.356 7.356 0 0 0 2.464-2.176 9.286 9.286 0 0 0 1.408-3.008 13.34 13.34 0 0 0 .448-3.424c0-1.152-.149-2.283-.448-3.392a9.24 9.24 0 0 0-1.408-3.04 7.04 7.04 0 0 0-2.464-2.144c-1.003-.555-2.197-.832-3.584-.832s-2.581.277-3.584.832a7.04 7.04 0 0 0-2.464 2.144 9.24 9.24 0 0 0-1.408 3.04 12.975 12.975 0 0 0-.448 3.392Zm-3.04 0c0-1.557.224-3.051.672-4.48.469-1.451 1.163-2.731 2.08-3.84s2.059-1.995 3.424-2.656c1.365-.661 2.955-.992 4.768-.992 1.813 0 3.403.331 4.768.992 1.365.661 2.507 1.547 3.424 2.656.917 1.109 1.6 2.389 2.048 3.84.469 1.429.704 2.923.704 4.48a14.58 14.58 0 0 1-.704 4.512 11.142 11.142 0 0 1-2.048 3.808c-.917 1.109-2.059 1.995-3.424 2.656-1.365.64-2.955.96-4.768.96-1.813 0-3.403-.32-4.768-.96-1.365-.661-2.507-1.547-3.424-2.656a11.583 11.583 0 0 1-2.08-3.808 15.207 15.207 0 0 1-.672-4.512Zm25.64-5.12h2.72v2.24h.065c.448-.917 1.152-1.579 2.112-1.984.96-.427 2.016-.64 3.167-.64 1.28 0 2.39.235 3.328.704a6.521 6.521 0 0 1 2.368 1.92 8.07 8.07 0 0 1 1.441 2.752c.32 1.045.48 2.155.48 3.328s-.16 2.283-.48 3.328a7.673 7.673 0 0 1-1.408 2.752c-.619.768-1.408 1.376-2.368 1.824-.939.448-2.038.672-3.297.672a8.49 8.49 0 0 1-1.375-.128 7.602 7.602 0 0 1-1.473-.416 6.496 6.496 0 0 1-1.408-.768 4.717 4.717 0 0 1-1.087-1.248h-.065v8.512h-2.72v-22.848Zm12.8 8.128c0-.768-.106-1.515-.319-2.24a5.674 5.674 0 0 0-.928-1.984 4.373 4.373 0 0 0-1.6-1.376c-.64-.341-1.398-.512-2.273-.512-.917 0-1.696.181-2.335.544a4.625 4.625 0 0 0-1.569 1.44 6.019 6.019 0 0 0-.896 1.984c-.17.747-.256 1.504-.256 2.272 0 .811.096 1.6.288 2.368.192.747.491 1.408.896 1.984a4.981 4.981 0 0 0 1.633 1.408c.661.341 1.461.512 2.399.512.939 0 1.718-.181 2.337-.544a4.338 4.338 0 0 0 1.536-1.44c.384-.597.661-1.28.832-2.048.17-.768.255-1.557.255-2.368Zm10.249-8.128h3.296v2.4h-3.296v10.272c0 .32.022.576.064.768a.874.874 0 0 0 .32.448c.15.107.352.181.608.224.278.021.63.032 1.056.032h1.248v2.4h-2.08c-.704 0-1.312-.043-1.824-.128-.49-.107-.896-.288-1.216-.544-.298-.256-.522-.619-.672-1.088-.149-.469-.224-1.088-.224-1.856v-10.528h-2.816v-2.4h2.816v-4.96h2.72v4.96Zm9.598-2.976h-2.72v-3.328h2.72v3.328Zm-2.72 2.976h2.72V192h-2.72v-16.544Zm9.318 8.288c0 1.003.128 1.899.384 2.688.277.768.65 1.419 1.12 1.952a4.921 4.921 0 0 0 1.632 1.184c.64.277 1.312.416 2.016.416a4.8 4.8 0 0 0 1.984-.416 4.848 4.848 0 0 0 1.664-1.184c.469-.533.832-1.184 1.088-1.952.277-.789.416-1.685.416-2.688 0-1.003-.139-1.888-.416-2.656-.256-.789-.619-1.451-1.088-1.984a4.67 4.67 0 0 0-1.664-1.216 4.8 4.8 0 0 0-1.984-.416c-.704 0-1.376.139-2.016.416a4.736 4.736 0 0 0-1.632 1.216c-.47.533-.843 1.195-1.12 1.984-.256.768-.384 1.653-.384 2.656Zm-2.88 0c0-1.216.17-2.347.512-3.392.341-1.067.853-1.984 1.536-2.752a7.139 7.139 0 0 1 2.528-1.856c1.002-.448 2.154-.672 3.456-.672 1.322 0 2.474.224 3.456.672a7.157 7.157 0 0 1 2.528 1.856c.682.768 1.194 1.685 1.536 2.752.341 1.045.512 2.176.512 3.392 0 1.216-.171 2.347-.512 3.392a7.93 7.93 0 0 1-1.536 2.752c-.683.768-1.526 1.376-2.528 1.824-.982.427-2.134.64-3.456.64-1.302 0-2.454-.213-3.456-.64-1.003-.448-1.846-1.056-2.528-1.824a7.898 7.898 0 0 1-1.536-2.752c-.342-1.045-.512-2.176-.512-3.392Zm19.671-8.288h2.56v2.624h.064c1.13-2.005 2.922-3.008 5.376-3.008 1.088 0 1.994.149 2.72.448.725.299 1.312.715 1.76 1.248.448.533.757 1.173.928 1.92.192.725.288 1.536.288 2.432V192h-2.72v-11.2c0-1.024-.299-1.835-.896-2.432-.598-.597-1.419-.896-2.464-.896-.832 0-1.558.128-2.176.384a4.073 4.073 0 0 0-1.504 1.088 4.85 4.85 0 0 0-.928 1.664 6.886 6.886 0 0 0-.288 2.048V192h-2.72v-16.544Z" fill="#EEE"/></svg>