<svg width="540" height="360" fill="none" xmlns="http://www.w3.org/2000/svg"><path fill="#141414" d="M0 0h540v360H0z"/><path d="M159 180c0-17.673 14.327-32 32-32h48c17.673 0 32 14.327 32 32 0 17.673-14.327 32-32 32h-48c-17.673 0-32-14.327-32-32Z" fill="#1ECD3C"/><g filter="url(#a)"><g clip-path="url(#b)"><path d="M215 180c0-13.255 10.745-24 24-24s24 10.745 24 24-10.745 24-24 24-24-10.745-24-24Z" fill="#141414"/><path fill-rule="evenodd" clip-rule="evenodd" d="m249.825 173.924-12.414 14.401a1.996 1.996 0 0 1-1.514.675 1.996 1.996 0 0 1-1.515-.676l-6.207-7.2a1.713 1.713 0 0 1-.425-1.124c0-.497.217-.947.568-1.273l.776-.72a2.01 2.01 0 0 1 1.372-.527c.482 0 .922.164 1.262.434l3.781 3.886 11.475-10.313a2.015 2.015 0 0 1 1.326-.487c1.072 0 1.94.806 1.94 1.8 0 .425-.159.816-.425 1.124Z" fill="#EEE"/></g></g><path d="M305.496 169.152h3.04v20.288h12.096V192h-15.136v-22.848Zm32.389 22.784c-.469.277-1.12.416-1.952.416-.704 0-1.269-.192-1.696-.576-.405-.405-.608-1.056-.608-1.952-.746.896-1.621 1.547-2.624 1.952-.981.384-2.048.576-3.2.576a8.798 8.798 0 0 1-2.144-.256 4.962 4.962 0 0 1-1.728-.8 4.035 4.035 0 0 1-1.184-1.408c-.277-.597-.416-1.312-.416-2.144 0-.939.16-1.707.48-2.304a4.111 4.111 0 0 1 1.248-1.44 5.826 5.826 0 0 1 1.792-.864 22.655 22.655 0 0 1 2.08-.48 21.363 21.363 0 0 1 2.112-.32c.683-.085 1.28-.192 1.792-.32.512-.149.918-.352 1.216-.608.299-.277.448-.672.448-1.184 0-.597-.117-1.077-.352-1.44a2.153 2.153 0 0 0-.864-.832 3.361 3.361 0 0 0-1.184-.384 8.607 8.607 0 0 0-1.28-.096c-1.152 0-2.112.224-2.88.672-.768.427-1.184 1.248-1.248 2.464h-2.72c.043-1.024.256-1.888.64-2.592a4.715 4.715 0 0 1 1.536-1.696 6.281 6.281 0 0 1 2.176-.96 11.791 11.791 0 0 1 2.656-.288c.747 0 1.483.053 2.208.16a5.634 5.634 0 0 1 2.016.672c.598.32 1.078.779 1.44 1.376.363.597.544 1.376.544 2.336v8.512c0 .64.032 1.109.096 1.408.086.299.342.448.768.448.235 0 .512-.053.832-.16v2.112Zm-4.416-8.48c-.341.256-.789.448-1.344.576-.554.107-1.141.203-1.76.288-.597.064-1.205.149-1.824.256a6.34 6.34 0 0 0-1.664.448c-.49.213-.896.523-1.216.928-.298.384-.448.917-.448 1.6 0 .448.086.832.256 1.152.192.299.427.544.704.736.299.192.64.331 1.024.416.384.085.79.128 1.216.128.896 0 1.664-.117 2.304-.352.64-.256 1.163-.565 1.568-.928.406-.384.704-.789.896-1.216.192-.448.288-.864.288-1.248v-2.784Zm7.444-14.304h2.72v8.544h.064c.448-.917 1.152-1.579 2.112-1.984.96-.427 2.016-.64 3.168-.64 1.28 0 2.389.235 3.328.704a6.538 6.538 0 0 1 2.368 1.92 8.068 8.068 0 0 1 1.44 2.752c.32 1.045.48 2.155.48 3.328s-.16 2.283-.48 3.328a7.657 7.657 0 0 1-1.408 2.752c-.619.768-1.408 1.376-2.368 1.824-.939.448-2.038.672-3.296.672a8.49 8.49 0 0 1-1.376-.128 7.573 7.573 0 0 1-1.472-.416 6.473 6.473 0 0 1-1.408-.768 4.703 4.703 0 0 1-1.088-1.248h-.064V192h-2.72v-22.848Zm12.8 14.432c0-.768-.107-1.515-.32-2.24a5.674 5.674 0 0 0-.928-1.984 4.373 4.373 0 0 0-1.6-1.376c-.64-.341-1.398-.512-2.272-.512-.918 0-1.696.181-2.336.544a4.622 4.622 0 0 0-1.568 1.44 5.998 5.998 0 0 0-.896 1.984 10.147 10.147 0 0 0-.256 2.272c0 .811.096 1.6.288 2.368.192.747.49 1.408.896 1.984.426.576.97 1.045 1.632 1.408.661.341 1.461.512 2.4.512.938 0 1.717-.181 2.336-.544a4.338 4.338 0 0 0 1.536-1.44c.384-.597.661-1.28.832-2.048.17-.768.256-1.557.256-2.368Zm17.961-1.44a5.336 5.336 0 0 0-.448-1.824 4.182 4.182 0 0 0-.992-1.472 4.178 4.178 0 0 0-1.472-.992 4.38 4.38 0 0 0-1.856-.384c-.704 0-1.344.128-1.92.384a4.236 4.236 0 0 0-1.44.992 4.755 4.755 0 0 0-.96 1.504 5.481 5.481 0 0 0-.416 1.792h9.504Zm2.624 4.608c-.363 1.856-1.163 3.253-2.4 4.192-1.238.939-2.795 1.408-4.672 1.408-1.323 0-2.475-.213-3.456-.64a6.816 6.816 0 0 1-2.432-1.792c-.662-.768-1.163-1.685-1.504-2.752-.32-1.067-.502-2.229-.544-3.488 0-1.259.192-2.411.576-3.456.384-1.045.917-1.952 1.6-2.72a7.551 7.551 0 0 1 2.464-1.792c.96-.427 2.005-.64 3.136-.64 1.472 0 2.688.309 3.648.928a6.896 6.896 0 0 1 2.336 2.304 8.769 8.769 0 0 1 1.216 3.072c.234 1.109.33 2.165.288 3.168H362.17a6.688 6.688 0 0 0 .256 2.08c.192.64.501 1.216.928 1.728.426.491.97.885 1.632 1.184.661.299 1.44.448 2.336.448 1.152 0 2.09-.267 2.816-.8.746-.533 1.237-1.344 1.472-2.432h2.688Zm3.635-17.6h2.72V192h-2.72v-22.848Z" fill="#EEE"/><defs><clipPath id="b"><path d="M215 180c0-13.255 10.745-24 24-24s24 10.745 24 24-10.745 24-24 24-24-10.745-24-24Z" fill="#fff"/></clipPath><filter id="a" x="211" y="154" width="56" height="56" filterUnits="userSpaceOnUse" color-interpolation-filters="sRGB"><feFlood flood-opacity="0" result="BackgroundImageFix"/><feColorMatrix in="SourceAlpha" values="0 0 0 0 0 0 0 0 0 0 0 0 0 0 0 0 0 0 127 0" result="hardAlpha"/><feOffset dy="2"/><feGaussianBlur stdDeviation="2"/><feComposite in2="hardAlpha" operator="out"/><feColorMatrix values="0 0 0 0 0 0 0 0 0 0 0 0 0 0 0 0 0 0 0.32 0"/><feBlend in2="BackgroundImageFix" result="effect1_dropShadow_222_9151"/><feBlend in="SourceGraphic" in2="effect1_dropShadow_222_9151" result="shape"/></filter></defs></svg>