<?xml version="1.0" standalone="no"?>
<!DOCTYPE svg PUBLIC "-//W3C//DTD SVG 20010904//EN"
 "http://www.w3.org/TR/2001/REC-SVG-20010904/DTD/svg10.dtd">
<svg version="1.0" xmlns="http://www.w3.org/2000/svg"
 width="1181.000000pt" height="1181.000000pt" viewBox="0 0 1181.000000 1181.000000"
 preserveAspectRatio="xMidYMid meet">
<metadata>
Created by potrace 1.11, written by Peter Selinger 2001-2013
</metadata>
<g transform="translate(0.000000,1181.000000) scale(0.100000,-0.100000)"
fill="#000000" stroke="none">
<path d="M0 5905 l0 -5905 5905 0 5905 0 0 5905 0 5905 -5905 0 -5905 0 0
-5905z m10660 -2675 l0 -40 -85 0 -85 0 0 -235 0 -235 -45 0 -45 0 0 235 0
235 -85 0 -85 0 0 40 0 40 215 0 215 0 0 -40z m259 8 c6 -18 42 -109 78 -202
50 -125 69 -165 76 -154 6 8 42 98 81 199 l71 184 68 3 67 3 0 -276 0 -275
-45 0 -45 0 0 223 -1 222 -84 -214 c-47 -118 -89 -219 -94 -224 -5 -5 -19 -7
-32 -5 -21 3 -34 30 -111 223 l-87 220 0 -222 -1 -223 -45 0 -45 0 0 275 0
275 69 0 c69 0 69 0 80 -32z m-9239 -579 c41 -10 118 -40 170 -65 180 -88 322
-266 379 -474 66 -238 44 -541 -54 -746 -94 -195 -268 -336 -490 -396 -109
-29 -324 -31 -440 -5 -98 23 -241 91 -317 152 -116 91 -210 244 -255 413 -24
87 -26 115 -27 277 0 153 3 193 22 270 84 336 327 552 672 595 90 11 250 1
340 -21z m1800 -183 l0 -203 -92 -7 c-162 -12 -268 -45 -331 -105 -59 -54 -57
-33 -57 -621 l0 -540 -220 0 -220 0 0 820 0 820 205 0 205 0 0 -90 c0 -49 1
-90 3 -90 2 0 27 23 57 51 101 93 273 164 408 168 l42 1 0 -204z m1147 179
c239 -48 397 -197 423 -397 5 -40 10 -340 10 -665 l0 -593 -194 0 -195 0 -16
58 c-9 31 -18 63 -20 69 -3 9 -23 1 -63 -22 -165 -99 -424 -148 -603 -115 -83
15 -189 72 -243 130 -95 102 -141 258 -118 411 16 112 51 180 138 266 134 133
367 223 718 278 89 14 165 25 169 25 11 0 8 91 -4 135 -22 81 -100 132 -217
142 -135 10 -277 -39 -380 -133 l-59 -53 -139 79 c-76 44 -141 85 -143 91 -2
6 34 48 80 93 127 123 268 188 464 215 92 13 294 5 392 -14z m1885 11 c185
-40 299 -154 342 -343 14 -62 16 -156 16 -697 l0 -626 -215 0 -215 0 0 562 c0
364 -4 584 -11 625 -19 110 -69 161 -167 170 -115 11 -239 -32 -371 -128 l-60
-44 -1 -592 0 -593 -215 0 -215 0 0 800 c0 440 2 800 4 800 4 0 142 19 317 45
l37 5 17 -93 c10 -50 19 -94 21 -95 1 -2 37 20 80 49 103 69 243 134 329 152
90 20 222 20 307 3z m1451 4 c134 -20 259 -82 309 -156 12 -18 26 -34 29 -34
3 0 12 37 20 83 l14 82 183 3 183 2 -3 -892 c-4 -989 0 -937 -70 -1077 -86
-172 -278 -279 -554 -311 -329 -37 -600 32 -748 190 -46 49 -106 158 -106 192
0 21 -2 20 210 53 91 14 175 28 186 30 17 4 26 -5 46 -43 19 -38 35 -53 81
-76 50 -25 71 -30 163 -34 145 -6 219 14 285 77 70 68 89 139 89 328 l0 145
-44 -60 c-81 -110 -186 -161 -346 -169 -349 -18 -603 178 -692 534 -19 76 -22
115 -22 283 0 168 3 207 22 284 61 244 188 421 365 510 118 60 247 78 400 56z
m1917 0 c288 -46 482 -218 564 -503 28 -95 51 -300 41 -364 l-6 -43 -546 0
-546 0 6 -73 c13 -153 72 -275 160 -334 60 -40 102 -53 193 -60 151 -12 284
51 382 180 l21 28 155 -86 c86 -48 156 -90 156 -94 0 -4 -18 -33 -41 -64 -83
-117 -241 -215 -414 -259 -76 -19 -117 -22 -260 -23 -147 0 -181 3 -248 23
-318 91 -490 319 -528 700 -21 209 12 430 86 586 101 213 291 351 530 386 76
11 222 11 295 0z"/>
<path d="M1349 2307 c-172 -49 -260 -191 -275 -442 -15 -249 64 -438 214 -512
52 -26 67 -28 167 -28 100 0 115 3 167 28 141 69 212 226 211 467 -1 253 -74
403 -229 471 -59 27 -189 35 -255 16z"/>
<path d="M4509 1820 c-198 -35 -339 -92 -413 -166 -99 -99 -83 -284 30 -350
102 -60 281 -18 447 105 l47 35 0 198 c0 109 -1 198 -2 197 -2 0 -50 -9 -109
-19z"/>
<path d="M7835 2358 c-153 -55 -235 -224 -235 -485 1 -215 34 -343 113 -429
62 -68 115 -89 222 -88 178 2 286 104 332 316 22 104 22 315 0 397 -52 192
-177 302 -340 300 -34 0 -75 -5 -92 -11z"/>
<path d="M9645 2377 c-121 -32 -196 -110 -231 -242 -8 -27 -14 -60 -14 -72 l0
-23 331 0 332 0 -6 53 c-11 91 -36 148 -91 203 -78 77 -208 110 -321 81z"/>
</g>
</svg>
