<svg xmlns="http://www.w3.org/2000/svg" width="50" height="50" viewBox="0 0 50 50"><path d="M0 0h50v50H0z" fill="#ff7900"/><g fill="#fff"><path d="M19.612 45.15c-.705.458-1.48.688-2.293.688-1.306 0-2.064-.864-2.064-2.028 0-1.553 1.428-2.38 4.374-2.717v-.388c0-.51-.388-.793-1.094-.793-.705 0-1.287.282-1.693.793L15.608 40c.653-.9 1.64-1.358 2.963-1.358 1.818 0 2.84.794 2.84 2.063v5.045H19.79l-.176-.6zm-2.575-1.464c0 .46.3.9.83.9.58 0 1.128-.247 1.692-.74v-1.64c-1.712.228-2.523.65-2.523 1.48zM22.84 38.995l1.516-.212.16.83c.863-.618 1.533-.953 2.398-.953 1.428 0 2.17.758 2.17 2.257v4.85h-1.835v-4.532c0-.847-.23-1.235-.883-1.235-.547 0-1.094.247-1.71.776v4.99H22.84v-6.77zM41.217 45.89c-2.046 0-3.28-1.322-3.28-3.615 0-2.31 1.234-3.633 3.245-3.633 2.01 0 3.21 1.27 3.21 3.545 0 .123-.018.247-.018.353h-4.64c.02 1.322.566 1.975 1.642 1.975.687 0 1.146-.282 1.57-.9l1.34.74c-.582 1.007-1.64 1.536-3.07 1.536zm1.376-4.532c0-.935-.53-1.48-1.394-1.48-.83 0-1.34.528-1.412 1.48h2.805zM6.155 45.96c-1.816 0-3.44-1.145-3.44-3.667s1.64-3.67 3.44-3.67c1.817 0 3.44 1.148 3.44 3.67 0 2.522-1.623 3.668-3.44 3.668zm0-5.8c-1.358 0-1.622 1.233-1.622 2.115 0 .9.247 2.117 1.622 2.117 1.376 0 1.623-1.235 1.623-2.117 0-.882-.265-2.116-1.623-2.116zM10.847 38.8h1.746v.812c.335-.44 1.146-.97 1.922-.97.07 0 .16 0 .23.018v1.71h-.09c-.793 0-1.674.124-1.94.74v4.622h-1.868v-6.93zM33.563 44.268c1.393-.018 1.5-1.428 1.5-2.346 0-1.093-.53-1.975-1.518-1.975-.653 0-1.393.476-1.393 2.046.017.864.07 2.275 1.41 2.275zm3.28-5.485v6.596c0 1.163-.088 3.068-3.404 3.103-1.377 0-2.63-.546-2.893-1.728l1.8-.282c.07.335.28.687 1.304.687.953 0 1.412-.458 1.412-1.534v-.81l-.018-.02c-.282.513-.74 1.006-1.8 1.006-1.62 0-2.89-1.128-2.89-3.474 0-2.328 1.32-3.633 2.803-3.633 1.393 0 1.905.635 2.028.97h-.017l.158-.83h1.517zM45.097 36.473h-.723v1.993h-.388v-1.993h-.723v-.3h1.816v.3zm2.998 1.993h-.388v-1.923h-.017l-.76 1.923h-.246l-.758-1.923h-.018v1.923h-.388v-2.293h.582l.688 1.746.67-1.747h.582v2.293z"/></g></svg>