<svg xmlns="http://www.w3.org/2000/svg" viewBox="0 0 1000 1000">
  <path fill-rule="evenodd" d="M923.2 436.01L713.14 226.5c-151.7-151.32-397.66-151.32-549.36 0s-151.7 396.66 0 547.99 397.66 151.32 549.37 0L923.2 564.95a91 91 0 000-128.94zM724.98 637.99V362.99l150 137.5zm-100-72.79c0 39.4-32.26 71.36-72.1 71.36-39.82 0-72.1-31.96-72.1-71.36 0-39.43 32.28-71.39 72.1-71.39a77.3 77.3 0 0112.44 1.08v-128.5L364.2 419.15v232.46c0 39.41-32.29 71.36-72.1 71.36S220 691.02 220 651.62c0-39.43 32.3-71.37 72.1-71.37a73.03 73.03 0 0113.36 1.22V333.1h.17l263.8-68.55s7.68-1.55 11.72-1.55a43.61 43.61 0 0143.83 43.39v258.81z"/>
</svg>
