<svg version="1.1" id="Outline" xmlns="http://www.w3.org/2000/svg" xmlns:xlink="http://www.w3.org/1999/xlink" x="0px" y="0px" viewBox="0 0 2694.6 566.9" style="enable-background:new 0 0 2694.6 566.9;" xml:space="preserve">
<style type="text/css">
	.st0{fill:#FFFFFF;}
	.st1{fill:#FF7900;}
</style>
<g>
	<path class="st0" d="M899.7,113.4c16.2,0,30.9,1.4,44.3,4.3c13.3,2.9,24.8,7.5,34.3,14c9.5,6.5,16.9,15.2,22.1,26   c5.2,10.8,7.9,24.1,7.9,40c0,17.1-3.9,31.4-11.7,42.9s-19.3,20.8-34.5,28.1c20.9,6,36.6,16.6,46.9,31.7   c10.3,15.1,15.5,33.3,15.5,54.5c0,17.1-3.3,32-10,44.5c-6.7,12.5-15.6,22.8-26.9,30.7c-11.3,7.9-24.1,13.8-38.6,17.6   c-14.4,3.8-29.3,5.7-44.5,5.7H739.7v-340L899.7,113.4L899.7,113.4z M890.2,251.1c13.3,0,24.3-3.2,32.9-9.5   c8.6-6.3,12.9-16.7,12.9-31c0-7.9-1.4-14.4-4.3-19.5c-2.9-5.1-6.7-9-11.4-11.9c-4.8-2.9-10.2-4.8-16.4-6   c-6.2-1.1-12.6-1.7-19.3-1.7h-70v79.5L890.2,251.1L890.2,251.1z M894.5,395.4c7.3,0,14.3-0.7,20.9-2.1s12.5-3.8,17.6-7.1   c5.1-3.3,9.1-7.9,12.1-13.6c3-5.7,4.5-13,4.5-21.9c0-17.5-4.9-29.9-14.8-37.4c-9.8-7.5-22.9-11.2-39.1-11.2h-81.4v93.3L894.5,395.4   L894.5,395.4z"/>
	<path class="st0" d="M1224.6,453.5v-34.3h-1.4c-8.6,14.3-19.7,24.6-33.3,31c-13.7,6.3-27.6,9.5-41.9,9.5c-18.1,0-32.9-2.4-44.5-7.1   c-11.6-4.8-20.7-11.5-27.4-20.2c-6.7-8.7-11.3-19.4-14.1-31.9c-2.7-12.5-4.1-26.4-4.1-41.7V207.3h67.6v139   c0,20.3,3.2,35.5,9.5,45.5s17.6,15,33.8,15c18.4,0,31.7-5.5,40-16.4c8.2-11,12.4-29,12.4-54v-129h67.6v246.2L1224.6,453.5   L1224.6,453.5z"/>
	<path class="st0" d="M1389.5,392.3c3,5.2,6.9,9.5,11.7,12.9s10.2,5.8,16.4,7.4c6.2,1.6,12.6,2.4,19.3,2.4c4.8,0,9.8-0.5,15-1.7   c5.2-1.1,10-2.9,14.3-5.2s7.9-5.5,10.7-9.5c2.9-4,4.3-9,4.3-15c0-10.2-6.8-17.8-20.2-22.9c-13.5-5.1-32.3-10.2-56.4-15.2   c-9.8-2.2-19.4-4.8-28.8-7.9c-9.4-3-17.7-7-25-11.9c-7.3-4.9-13.2-11.1-17.6-18.6c-4.4-7.5-6.7-16.6-6.7-27.4   c0-15.9,3.1-28.9,9.3-39c6.2-10.2,14.4-18.2,24.5-24c10.2-5.9,21.6-10,34.3-12.4c12.7-2.4,25.7-3.6,39.1-3.6s26.3,1.3,38.8,3.8   s23.7,6.8,33.6,12.9s18,14,24.5,24c6.5,10,10.4,22.6,11.7,37.9h-64.3c-0.9-13-5.9-21.8-14.8-26.4c-8.9-4.6-19.4-6.9-31.4-6.9   c-3.8,0-7.9,0.2-12.4,0.7c-4.4,0.5-8.5,1.5-12.1,3.1c-3.7,1.6-6.8,3.9-9.3,6.9c-2.5,3-3.8,7.1-3.8,12.1c0,6,2.2,11,6.7,14.8   c4.4,3.8,10.2,6.9,17.4,9.3c7.1,2.4,15.3,4.5,24.5,6.4c9.2,1.9,18.6,4,28.1,6.2c9.8,2.2,19.4,4.9,28.8,8.1   c9.4,3.2,17.7,7.4,25,12.6c7.3,5.2,13.2,11.8,17.6,19.5c4.4,7.8,6.7,17.4,6.7,28.8c0,16.2-3.3,29.8-9.8,40.7   c-6.5,11-15,19.8-25.5,26.4s-22.5,11.3-35.9,14c-13.5,2.7-27.2,4-41.2,4s-28.3-1.4-41.9-4.3s-25.8-7.6-36.4-14.3   c-10.6-6.7-19.4-15.5-26.2-26.4c-6.8-11-10.6-24.7-11.2-41.2h64.3C1385,380.8,1386.5,387,1389.5,392.3L1389.5,392.3z"/>
	<path class="st0" d="M1582.1,169.2v-55.7h67.6v55.7H1582.1z M1649.7,207.3v246.2h-67.6V207.3H1649.7z"/>
	<path class="st0" d="M1758.5,207.3v34.3h1.4c8.6-14.3,19.7-24.7,33.3-31.2c13.6-6.5,27.6-9.8,41.9-9.8c18.1,0,32.9,2.5,44.5,7.4   c11.6,4.9,20.7,11.8,27.4,20.5c6.7,8.7,11.4,19.4,14.1,31.9c2.7,12.5,4.1,26.4,4.1,41.7v151.4h-67.6v-139c0-20.3-3.2-35.5-9.5-45.5   c-6.4-10-17.6-15-33.8-15c-18.4,0-31.8,5.5-40,16.4c-8.3,11-12.4,29-12.4,54v129h-67.6V207.3L1758.5,207.3L1758.5,207.3z"/>
	<path class="st0" d="M2040.5,394.4c10.2,9.8,24.8,14.8,43.8,14.8c13.6,0,25.4-3.4,35.2-10.2c9.8-6.8,15.9-14,18.1-21.7h59.5   c-9.5,29.5-24.1,50.6-43.8,63.3c-19.7,12.7-43.5,19-71.4,19c-19.4,0-36.8-3.1-52.4-9.3c-15.6-6.2-28.7-15-39.5-26.4   c-10.8-11.4-19.1-25.1-25-41c-5.9-15.9-8.8-33.3-8.8-52.4s3-35.5,9.1-51.4c6-15.9,14.6-29.6,25.7-41.2   c11.1-11.6,24.4-20.7,39.8-27.4c15.4-6.7,32.5-10,51.2-10c20.9,0,39.2,4,54.8,12.1c15.6,8.1,28.3,19,38.3,32.6s17.2,29.2,21.7,46.7   c4.4,17.5,6,35.7,4.8,54.8h-177.6C2024.7,368.7,2030.3,384.6,2040.5,394.4L2040.5,394.4z M2116.9,264.9   c-8.1-8.9-20.4-13.3-36.9-13.3c-10.8,0-19.8,1.8-26.9,5.5c-7.1,3.7-12.9,8.2-17.1,13.6c-4.3,5.4-7.3,11.1-9.1,17.1   c-1.8,6-2.8,11.4-3.1,16.2h110C2130.6,286.8,2125,273.8,2116.9,264.9L2116.9,264.9z"/>
	<path class="st0" d="M2287.8,392.3c3,5.2,6.9,9.5,11.7,12.9s10.2,5.8,16.4,7.4c6.2,1.6,12.6,2.4,19.3,2.4c4.8,0,9.8-0.5,15-1.7   c5.2-1.1,10-2.9,14.3-5.2s7.9-5.5,10.7-9.5c2.9-4,4.3-9,4.3-15c0-10.2-6.8-17.8-20.2-22.9c-13.5-5.1-32.3-10.2-56.4-15.2   c-9.8-2.2-19.4-4.8-28.8-7.9c-9.4-3-17.7-7-25-11.9c-7.3-4.9-13.2-11.1-17.6-18.6c-4.4-7.5-6.7-16.6-6.7-27.4   c0-15.9,3.1-28.9,9.3-39c6.2-10.2,14.4-18.2,24.5-24c10.2-5.9,21.6-10,34.3-12.4c12.7-2.4,25.7-3.6,39.1-3.6s26.3,1.3,38.8,3.8   s23.7,6.8,33.6,12.9s18,14,24.5,24c6.5,10,10.4,22.6,11.7,37.9h-64.3c-0.9-13-5.9-21.8-14.8-26.4c-8.9-4.6-19.4-6.9-31.4-6.9   c-3.8,0-7.9,0.2-12.4,0.7c-4.4,0.5-8.5,1.5-12.1,3.1c-3.6,1.6-6.8,3.9-9.3,6.9c-2.5,3-3.8,7.1-3.8,12.1c0,6,2.2,11,6.7,14.8   c4.4,3.8,10.2,6.9,17.4,9.3c7.1,2.4,15.3,4.5,24.5,6.4c9.2,1.9,18.6,4,28.1,6.2c9.8,2.2,19.4,4.9,28.8,8.1   c9.4,3.2,17.7,7.4,25,12.6c7.3,5.2,13.2,11.8,17.6,19.5c4.4,7.8,6.7,17.4,6.7,28.8c0,16.2-3.3,29.8-9.8,40.7   c-6.5,11-15,19.8-25.5,26.4s-22.5,11.3-35.9,14c-13.5,2.7-27.2,4-41.2,4s-28.3-1.4-41.9-4.3s-25.8-7.6-36.4-14.3   c-10.6-6.7-19.4-15.5-26.2-26.4c-6.8-11-10.6-24.7-11.2-41.2h64.3C2283.3,380.8,2284.8,387,2287.8,392.3L2287.8,392.3z"/>
	<path class="st0" d="M2535.3,392.3c3,5.2,6.9,9.5,11.7,12.9s10.2,5.8,16.4,7.4c6.2,1.6,12.6,2.4,19.3,2.4c4.8,0,9.8-0.5,15-1.7   c5.2-1.1,10-2.9,14.3-5.2s7.9-5.5,10.7-9.5c2.9-4,4.3-9,4.3-15c0-10.2-6.8-17.8-20.2-22.9c-13.5-5.1-32.3-10.2-56.4-15.2   c-9.8-2.2-19.4-4.8-28.8-7.9c-9.4-3-17.7-7-25-11.9c-7.3-4.9-13.2-11.1-17.6-18.6c-4.4-7.5-6.7-16.6-6.7-27.4   c0-15.9,3.1-28.9,9.3-39c6.2-10.2,14.4-18.2,24.5-24c10.2-5.9,21.6-10,34.3-12.4c12.7-2.4,25.7-3.6,39.1-3.6s26.3,1.3,38.8,3.8   s23.7,6.8,33.6,12.9s18,14,24.5,24c6.5,10,10.4,22.6,11.7,37.9h-64.3c-0.9-13-5.9-21.8-14.8-26.4c-8.9-4.6-19.4-6.9-31.4-6.9   c-3.8,0-7.9,0.2-12.4,0.7c-4.4,0.5-8.5,1.5-12.1,3.1c-3.6,1.6-6.8,3.9-9.3,6.9c-2.5,3-3.8,7.1-3.8,12.1c0,6,2.2,11,6.7,14.8   c4.4,3.8,10.2,6.9,17.4,9.3c7.1,2.4,15.3,4.5,24.5,6.4c9.2,1.9,18.6,4,28.1,6.2c9.8,2.2,19.4,4.9,28.8,8.1   c9.4,3.2,17.7,7.4,25,12.6c7.3,5.2,13.2,11.8,17.6,19.5c4.4,7.8,6.7,17.4,6.7,28.8c0,16.2-3.3,29.8-9.8,40.7   c-6.5,11-15,19.8-25.5,26.4s-22.5,11.3-35.9,14c-13.5,2.7-27.2,4-41.2,4s-28.3-1.4-41.9-4.3s-25.8-7.6-36.4-14.3   c-10.6-6.7-19.4-15.5-26.2-26.4c-6.8-11-10.6-24.7-11.2-41.2h64.3C2530.8,380.8,2532.3,387,2535.3,392.3L2535.3,392.3z"/>
</g>
<g>
	<rect class="st1" width="566.9" height="566.9"/>
	<g>
		<path class="st0" d="M222.4,512c-8,5.3-16.7,7.8-26.1,7.8c-14.7,0-23.4-9.8-23.4-22.9c0-17.7,16.2-27,49.7-30.8v-4.4    c0-5.7-4.4-9.1-12.4-9.1s-14.5,3.2-19.2,9.1l-14-8c7.4-10.3,18.6-15.4,33.6-15.4c20.6,0,32.1,8.9,32.1,23.4c0,0,0,57.1,0,57.2    h-18.4L222.4,512L222.4,512z M193.3,495.4c0,5.3,3.4,10.2,9.4,10.2c6.5,0,12.9-2.7,19.2-8.3v-18.7    C202.5,481.1,193.3,486.1,193.3,495.4L193.3,495.4z"/>
		<path class="st0" d="M259.1,442.1l17.2-2.4l1.9,9.4c9.7-7.1,17.4-10.9,27.1-10.9c16.2,0,24.6,8.6,24.6,25.7v54.9h-20.8v-51.3    c0-9.7-2.5-14-10-14c-6.2,0-12.4,2.9-19.4,8.8v56.6H259L259.1,442.1L259.1,442.1z"/>
		<path class="st0" d="M467.4,520.3c-23.2,0-37.1-14.9-37.1-40.9s14-41.2,36.8-41.2s36.3,14.5,36.3,40.2c0,1.4-0.2,2.7-0.2,4.1    h-52.5c0.2,15,6.4,22.5,18.6,22.5c7.9,0,13-3.2,17.9-10.1l15.2,8.5C495.6,514.5,483.6,520.4,467.4,520.3L467.4,520.3z M482.9,469    c0-10.6-6-16.8-15.9-16.8c-9.4,0-15.2,6-16.1,16.8H482.9L482.9,469z"/>
		<path class="st0" d="M69.8,521.2c-20.5,0-39-13.1-39-41.6s18.5-41.6,39-41.6s39,13.1,39,41.6S90.3,521.2,69.8,521.2z M69.8,455.5    c-15.5,0-18.4,14-18.4,24.1s2.9,24.1,18.4,24.1s18.4-14,18.4-24.1S85.3,455.5,69.8,455.5z"/>
		<path class="st0" d="M123,440h19.7v9.3c3.8-5,13-10.9,21.8-10.9c0.8,0,1.8,0,2.7,0.2V458h-1c-9,0-18.9,1.4-22.1,8.4v52.5H123    L123,440L123,440z"/>
		<path class="st0" d="M380.7,502c15.8-0.1,17.1-16.1,17.1-26.6c0-12.3-6-22.4-17.2-22.4c-7.5,0-15.8,5.5-15.8,23.2    C364.8,486,365.4,502.1,380.7,502L380.7,502z M417.7,439.7v74.7c0,13.2-1,34.9-38.6,35.1c-15.5,0.1-29.9-6.1-32.8-19.7l20.5-3.3    c0.9,3.9,3.2,7.8,14.8,7.8c10.8,0,15.9-5.2,15.9-17.5v-9.2l-0.3-0.3c-3.3,5.9-8.3,11.5-20.4,11.5c-18.4,0-32.9-12.8-32.9-39.4    s14.9-41.1,31.7-41.2c15.7,0,21.6,7.2,22.9,10.9l-0.2,0l1.7-9.4L417.7,439.7L417.7,439.7z"/>
		<path class="st0" d="M511.5,413.6h-8.2v22.6H499v-22.6h-8.2v-3.5h20.6L511.5,413.6L511.5,413.6z M545.5,436.2h-4.3v-21.8H541    l-8.5,21.8h-2.7l-8.5-21.8h-0.1v21.8h-4.3v-26.1h6.6l7.8,19.8l7.7-19.8h6.6L545.5,436.2L545.5,436.2z"/>
	</g>
</g>
</svg>
