<svg xmlns="http://www.w3.org/2000/svg">
  <symbol id="vector" viewBox="0 0 46 48" fill="currentColor">
    <path fill-rule="evenodd" clip-rule="evenodd" d="M45.9904 12.6121C45.9727 12.3798 45.8933 12.1551 45.7592 11.9578C45.6251 11.7604 45.4403 11.5965 45.2213 11.4804L23.7573 0.186037C23.5256 0.0641222 23.2634 0 22.9966 0C22.7299 0 22.4677 0.0641222 22.236 0.186037L0.772225 11.4804C0.538301 11.6045 0.343845 11.783 0.20832 11.9981C0.0727954 12.2133 0.000958303 12.4574 0 12.7061V35.2951C2.44038e-05 35.544 0.071468 35.7884 0.207087 36.0037C0.342705 36.219 0.537675 36.3973 0.772225 36.5207L22.2361 47.8153C22.4681 47.9364 22.7302 48 22.9968 48C23.2634 48 23.5254 47.9364 23.7574 47.8153L45.2213 36.5209C45.4558 36.3974 45.6508 36.2191 45.7864 36.0038C45.9221 35.7886 45.9935 35.5441 45.9935 35.2952C45.9588 35.181 46.0231 12.7124 45.9904 12.6121ZM22.9968 3.03787L41.3708 12.7062L30.1113 18.6309C26.5566 14.5196 19.4353 14.5213 15.8822 18.6309L4.62324 12.7062L22.9968 3.03787ZM29.1293 24.0005C29.1472 27.1344 26.2967 29.6711 22.9967 29.6477C19.6968 29.6709 16.8463 27.1346 16.8642 24.0005C16.838 20.9466 19.623 18.3303 22.9968 18.3534C26.3702 18.3302 29.1559 20.9467 29.1293 24.0005ZM21.4636 44.1567L3.06598 34.4755V15.139L14.3588 21.0814C12.3232 25.9841 15.9333 31.5789 21.4636 32.3535V44.1567ZM42.9275 34.4755L24.5299 44.1567V32.3536C30.0608 31.5789 33.67 25.9833 31.6347 21.0815L42.9275 15.1391V34.4755Z"/>
  </symbol>
</svg>
