<svg width="100" height="100" viewBox="0 0 100 100" xmlns="http://www.w3.org/2000/svg">
  <path fill="#000000" fill-rule="evenodd" d="M851.8,172.224C754.746,75.18,597.77,74.613,500,170.492l0,0v0C402.23,74.613,245.254,75.18,148.205,172.224c-96.042,96.038-97.605,250.77-4.7,348.724l0,0L500,914l0-.006V914L856.5,520.95l0,0C949.4,422.994,947.838,268.262,851.8,172.224ZM786.324,449.556L500,766.694,213.677,449.557l-0.145-.162A150.005,150.005,0,0,1,431.058,242.931q0.222,0.222.45,0.438l43.788,41.64L500,308.784v0l0,0,24.7-23.77,43.794-41.645q0.226-.216.449-0.438A149.05,149.05,0,0,1,675.018,199h0A150,150,0,0,1,786.469,449.4Z" transform="scale(.1)"/>
</svg>
