<svg xmlns="http://www.w3.org/2000/svg">
  <symbol fill="currentColor" viewBox="0 0 1000 1000" id="error-severe">
    <path d="M863.641 699.619h.008L571.982 199.365h-.008a83.294 83.294 0 0 0-143.948 0h-.007L137.068 698.386l-.031.053-.685 1.176h.007A83.369 83.369 0 0 0 208.334 825h583.333a83.369 83.369 0 0 0 71.974-125.381ZM628.9 689.894a34.271 34.271 0 0 1-48.477 0L500 609.432l-80.423 80.462a34.285 34.285 0 1 1-48.469-48.5l80.421-80.454-77.562-77.6a34.288 34.288 0 0 1 48.479-48.5l77.56 77.6 77.559-77.6a34.287 34.287 0 1 1 48.474 48.5l-77.56 77.6 80.421 80.451a34.318 34.318 0 0 1 0 48.503Z" style="fill-rule:evenodd"/>
  </symbol>
  <symbol fill="currentColor" viewBox="0 0 1000 1000" id="important">
    <path d="M500.5 74.75C265.088 74.75 74.249 265.59 74.249 501S265.088 927.25 500.5 927.25 926.751 736.412 926.751 501 735.912 74.75 500.5 74.75ZM460.578 237.1c10.208-10.906 23.587-16.481 39.92-17.04 16.319.559 29.7 6.134 39.907 17.04q16.134 17.256 16.149 48.079c0 15.088-21.166 292.627-26.357 303.885s-14.487 16.893-27.855 16.893c-.666 0-1.2-.194-1.844-.229-.649.035-1.2.229-1.858.229q-20.05 0-27.842-16.893c-5.2-11.258-26.358-288.8-26.358-303.885q0-30.822 16.138-48.079Zm79.273 529.988a56.906 56.906 0 0 1-38.99 14.85 58.393 58.393 0 0 1-39.535-14.675q-16.885-14.66-16.886-41.01 0-23.025 16.138-39.179t39.548-16.147q23.376 0 39.913 16.147a52.768 52.768 0 0 1 16.521 39.179q0 25.979-16.709 40.835Z" style="fill-rule:evenodd"/>
  </symbol>
  <symbol fill="currentColor" viewBox="0 0 1000 1000" id="info">
    <path d="M500 75.5c-234.72 0-425 190.28-425 425s190.28 425 425 425 425-190.28 425-425-190.28-425-425-425Zm0 100a75 75 0 1 1-75 75 75 75 0 0 1 75-75Zm125 600H400v-25.737l5.287-.167c15.555-.5 27.115-4.919 34.368-13.136 2.576-2.972 6.956-13.1 6.956-47.153v-227.2c0-32.392-4.523-44.6-8.311-49.141-5.359-6.391-16.516-10.147-33.17-11.156l-5.13-.31v-26h175v313.807c0 32.415 8.457 44.618 12.24 49.142 5.34 6.389 15.68 10.142 32.625 11.152l5.135.3v25.6Z" style="fill-rule:evenodd"/>
  </symbol>
  <symbol fill="currentColor" viewBox="0 0 1000 1000" id="tick-confirmation">
    <path d="M500 75C265.279 75 75 265.279 75 500s190.279 425 425 425 425-190.279 425-425S734.721 75 500 75Zm222.051 264.988-254.642 320-.007-.006a39.635 39.635 0 0 1-62.125 0l-.006.005-127.321-160 .006-.006a40.142 40.142 0 0 1 2.928-53.267l15.915-16a39.612 39.612 0 0 1 54.022-2.077l.006-.008L428.382 515 663.77 285.818l.006.008A39.734 39.734 0 0 1 730.77 315a39.952 39.952 0 0 1-8.726 24.981Z" style="fill-rule:evenodd"/>
  </symbol>
  <symbol viewBox="0 0 46 48" fill="currentColor" id="vector">
    <path fill-rule="evenodd" clip-rule="evenodd" d="M45.9904 12.6121C45.9727 12.3798 45.8933 12.1551 45.7592 11.9578C45.6251 11.7604 45.4403 11.5965 45.2213 11.4804L23.7573 0.186037C23.5256 0.0641222 23.2634 0 22.9966 0C22.7299 0 22.4677 0.0641222 22.236 0.186037L0.772225 11.4804C0.538301 11.6045 0.343845 11.783 0.20832 11.9981C0.0727954 12.2133 0.000958303 12.4574 0 12.7061V35.2951C2.44038e-05 35.544 0.071468 35.7884 0.207087 36.0037C0.342705 36.219 0.537675 36.3973 0.772225 36.5207L22.2361 47.8153C22.4681 47.9364 22.7302 48 22.9968 48C23.2634 48 23.5254 47.9364 23.7574 47.8153L45.2213 36.5209C45.4558 36.3974 45.6508 36.2191 45.7864 36.0038C45.9221 35.7886 45.9935 35.5441 45.9935 35.2952C45.9588 35.181 46.0231 12.7124 45.9904 12.6121ZM22.9968 3.03787L41.3708 12.7062L30.1113 18.6309C26.5566 14.5196 19.4353 14.5213 15.8822 18.6309L4.62324 12.7062L22.9968 3.03787ZM29.1293 24.0005C29.1472 27.1344 26.2967 29.6711 22.9967 29.6477C19.6968 29.6709 16.8463 27.1346 16.8642 24.0005C16.838 20.9466 19.623 18.3303 22.9968 18.3534C26.3702 18.3302 29.1559 20.9467 29.1293 24.0005ZM21.4636 44.1567L3.06598 34.4755V15.139L14.3588 21.0814C12.3232 25.9841 15.9333 31.5789 21.4636 32.3535V44.1567ZM42.9275 34.4755L24.5299 44.1567V32.3536C30.0608 31.5789 33.67 25.9833 31.6347 21.0815L42.9275 15.1391V34.4755Z"/>
  </symbol>
  <symbol fill="currentColor" viewBox="0 0 1000 1000" id="heart-recommend">
    <path d="M851.8 172.224C754.746 75.18 597.77 74.613 500 170.492c-97.77-95.879-254.746-95.312-351.795 1.732-96.042 96.038-97.605 250.77-4.7 348.724L500 914v-.006.006l356.5-393.05c92.9-97.956 91.338-252.688-4.7-348.726Zm-65.476 277.332L500 766.694 213.677 449.557l-.145-.162a150.005 150.005 0 0 1 217.526-206.464q.222.222.45.438l43.788 41.64L500 308.784l24.7-23.77 43.794-41.645q.226-.216.449-.438A149.05 149.05 0 0 1 675.018 199a150 150 0 0 1 111.451 250.4Z" style="fill-rule:evenodd"/>
  </symbol>
  <symbol fill="currentColor" viewBox="0 0 1000 1000" id="tick">
    <path d="M875 240a64.568 64.568 0 0 0-108.864-47.408l-.011-.012L383.621 565 257.594 424.648l-.011.014a64.372 64.372 0 0 0-87.784 3.375l-25.862 26a65.23 65.23 0 0 0-4.758 86.56l-.011.008 206.9 260 .01-.008a64.407 64.407 0 0 0 100.953 0l.011.009 413.793-520-.011-.008A64.916 64.916 0 0 0 875 240Z" style="fill-rule:evenodd"/>
  </symbol>
  <symbol fill="currentColor" viewBox="0 0 1000 1000" id="delete">
    <path d="M817.493 676.165a49.977 49.977 0 0 1 0 70.664l-70.664 70.664a49.977 49.977 0 0 1-70.664 0L499.5 640.828 322.835 817.493a49.977 49.977 0 0 1-70.664 0l-70.664-70.664a49.977 49.977 0 0 1 0-70.664L358.172 499.5 181.507 322.835a49.977 49.977 0 0 1 0-70.664l70.664-70.664a49.977 49.977 0 0 1 70.664 0L499.5 358.172l176.665-176.665a49.977 49.977 0 0 1 70.664 0l70.664 70.664a49.977 49.977 0 0 1 0 70.664L640.828 499.5Z" style="fill-rule:evenodd"/>
  </symbol>
  <symbol fill="currentColor" viewBox="0 0 1000 1000" id="download">
    <path d="M300 524V174a75.221 75.221 0 0 1 75-75h250a75.221 75.221 0 0 1 75 75v350h225L567.862 871.862A98.064 98.064 0 0 1 500 899a98.065 98.065 0 0 1-67.857-27.141L75 524h225Z" style="fill-rule:evenodd"/>
  </symbol>
  <symbol fill="currentColor" viewBox="0 0 1000 1000" id="settings">
    <path d="M827.568 500.5c0-110.61 120.715-26.921 64.516-162.6-56.231-135.681-82.391 8.823-160.606-69.384s66.333-104.365-69.36-160.562c-135.718-56.2-52.024 64.481-162.61 64.481-110.619 0-26.921-120.68-162.612-64.481s8.827 82.349-69.391 160.562-104.372-66.3-160.575 69.384c-56.23 135.679 64.486 51.99 64.486 162.6S50.7 527.419 106.93 663.1c56.2 135.681 82.359-8.823 160.575 69.352 78.218 78.214-66.3 104.4 69.391 160.6s51.993-64.483 162.612-64.483c110.586 0 26.892 120.678 162.61 64.483 135.693-56.2-8.854-82.384 69.36-160.6 78.215-78.175 104.375 66.329 160.606-69.352 56.199-135.681-64.516-51.99-64.516-162.6ZM500 301.015c110.457 0 200 89.537 200 199.985s-89.543 199.985-200 199.985S300 611.448 300 501s89.543-199.985 200-199.985Z" style="fill-rule:evenodd"/>
  </symbol>
  <symbol fill="currentColor" viewBox="0 0 1000 1000" id="trash">
    <path d="M750 149.959H625V125a50 50 0 0 0-50-50H425a50 50 0 0 0-50 50v24.959H250a75 75 0 0 0-75 75V275h650v-50.041a75 75 0 0 0-75-75ZM425 125h150v24.959H425V125ZM225 299.959V925h550V299.959H225ZM375 400v425a25 25 0 0 1-50 0V399.959a25 25 0 0 1 50 0V400Zm150 0v425a25 25 0 0 1-50 0V399.959a25 25 0 0 1 50 0V400Zm150 0v425a25 25 0 0 1-50 0V399.959a25 25 0 0 1 50 0V400Z" style="fill-rule:evenodd"/>
  </symbol>
</svg>
