<svg xmlns="http://www.w3.org/2000/svg" width="1000" height="1000" viewBox="0 0 1000 1000">
  <defs>
    <style>
      .cls-1 {
        fill-rule: evenodd;
      }
    </style>
  </defs>
  <path id="Buy" class="cls-1" d="M883.53,387.9H662V273.033C662,185.015,590.5,113,502.5,113S343,185.015,343,273.033V387.9H115a50.016,50.016,0,0,0-42.88,75.736L265,888H730L926.41,463.633c4.52-7.512,8.59-16.314,8.59-25.726C935,410.292,911.15,387.9,883.53,387.9ZM165,487.918H340l19.23,125.025H223.95ZM315,812.984L255,687.959H370.77L390,812.984H315Zm225,0H460L440,687.959H560Zm30-200.041H435L415,487.918H585ZM586.99,387.9H418.05l-0.13-114.864a84.556,84.556,0,1,1,169.11,0ZM685,812.984H609.69L630,687.959H745Zm91.05-200.041H639.3L655,487.918H830.17Z"/>
</svg>
