<svg xmlns="http://www.w3.org/2000/svg">
  <symbol fill="currentColor" viewBox="0 0 125 125" id="success">
    <path d="M62.5 0a62.5 62.5 0 100 125 62.5 62.5 0 000-125zm28 29.4c3.3 0 6 2.6 6 5.9a5.9 5.9 0 01-1.3 3.7L57.7 86a5.8 5.8 0 01-9.1 0L29.8 62.5c-.8-1-1.2-2.3-1.2-3.7a5.9 5.9 0 011.7-4.1l2.3-2.4a5.8 5.8 0 014.2-1.7 5.8 5.8 0 013.8 1.4L52 64.7 86.6 31a5.8 5.8 0 014-1.6z"/>
  </symbol>
  <symbol fill="currentColor" viewBox="0 0 125 125" id="info">
    <path d="M62.5 0a62.5 62.5 0 100 125 62.5 62.5 0 000-125zm0 14.7a11 11 0 110 22 11 11 0 010-22zM47.8 44.1h25.7v46.2c0 4.7 1.3 6.5 1.8 7.2.8 1 2.3 1.5 4.8 1.6h.8v3.8H47.8v-3.7h.8c2.3-.1 4-.8 5-2 .4-.4 1-2 1-7V57c0-4.8-.6-6.6-1.2-7.3-.8-1-2.4-1.5-4.9-1.6h-.7V44z"/>
  </symbol>
  <symbol fill="currentColor" viewBox="0 0 30 30" id="warning">
    <path d="M15 0a15 15 0 100 30 15 15 0 000-30zm.15 5.39h.01c1.12 0 2 .95 1.92 2.06l-.63 10.43c0 .7-.58.97-1.29.97-.72 0-1.28-.27-1.28-.97l-.63-10.46c-.06-1.09.8-2.01 1.9-2.03zm-.3 15.33c.11 0 .21 0 .31.02 2.19.35 2.19 3.5 0 3.84-2.77.44-3.1-3.86-.3-3.86z"/>
  </symbol>
  <symbol fill="currentColor" viewBox="0 0 140 125" id="danger">
    <path d="M70.3 0c-5.8 0-10.8 3.1-13.5 7.8L2.3 101.3l-.2.2A15.6 15.6 0 0015.6 125H125a15.6 15.6 0 0013.5-23.5L83.8 7.8A15.6 15.6 0 0070.3 0zm19.2 50a6.4 6.4 0 014.4 1.9 6.4 6.4 0 010 9L79.4 75.6l15 15a6.4 6.4 0 010 9.2 6.4 6.4 0 01-4.5 1.9 6.4 6.4 0 01-4.6-2l-15-15-15 15a6.4 6.4 0 01-4.6 2 6.4 6.4 0 01-4.6-2 6.4 6.4 0 010-9l15-15L46.8 61a6.4 6.4 0 119-9.1l14.6 14.5L84.8 52a6.4 6.4 0 014.7-1.9z"/>
  </symbol>
</svg>
