<svg xmlns="http://www.w3.org/2000/svg" width="24" height="24" viewBox="0 0 24 24" fill="none">
  <path d="M12 20a.63.63 0 0 1-.462-.2l-8.16-8.754A5.427 5.427 0 0 1 2 7.436C2 4.439 4.449 2 7.46 2c1.846 0 3.543.938 4.54 2.428A5.476 5.476 0 0 1 16.54 2c.349 0 .63.28.63.627a.629.629 0 0 1-.63.627 4.205 4.205 0 0 0-3.947 2.77.63.63 0 0 1-1.186 0 4.205 4.205 0 0 0-3.948-2.77c-2.316 0-4.2 1.876-4.2 4.182 0 1.02.374 2.003 1.052 2.768L12 18.451l7.699-8.258a4.174 4.174 0 0 0 .058-5.446.626.626 0 0 1 .077-.884.632.632 0 0 1 .887.076 5.418 5.418 0 0 1-.088 7.095L12.462 19.8A.63.63 0 0 1 12 20Z"/>
  <path d="M5.274 8.512a.472.472 0 0 1-.465-.394 3.078 3.078 0 0 1 3.04-3.571c.073 0 .145.006.217.014l.054.005a.47.47 0 0 1 .429.51.475.475 0 0 1-.512.427l-.066-.006c-.04-.004-.081-.01-.123-.01a2.134 2.134 0 0 0-2.107 2.478.47.47 0 0 1-.467.547Z"/>
</svg>
