<svg width="1440" height="580" viewBox="0 0 1440 580" fill="none" xmlns="http://www.w3.org/2000/svg">
<circle cx="1168.37" cy="243.5" r="155.5" fill="currentColor"/>
<rect x="790.281" y="330" width="445" height="202" transform="rotate(15 790.281 330)" fill="currentColor"/>
<path d="M978.537 179.084C960.852 168.874 945.352 155.28 932.921 139.079C920.489 122.879 911.371 104.388 906.086 84.6633C900.8 64.9386 899.452 44.3659 902.117 24.1201C904.783 3.87425 911.41 -15.6484 921.62 -33.3331C931.83 -51.0178 945.424 -66.5183 961.625 -78.9495C977.825 -91.3808 996.316 -100.499 1016.04 -105.785C1035.77 -111.07 1056.34 -112.418 1076.58 -109.753C1096.83 -107.087 1116.35 -100.46 1134.04 -90.25L978.537 179.084Z" fill="currentColor"/>
<path d="M1289.36 406.999C1309.09 412.285 1327.58 421.403 1343.78 433.834C1359.98 446.266 1373.57 461.766 1383.78 479.451C1393.99 497.136 1400.62 516.658 1403.29 536.904C1405.95 557.15 1404.6 577.723 1399.32 597.447C1394.03 617.172 1384.91 635.663 1372.48 651.863C1360.05 668.064 1344.55 681.658 1326.87 691.868C1309.18 702.078 1289.66 708.705 1269.41 711.371C1249.17 714.036 1228.59 712.688 1208.87 707.402L1289.36 406.999Z" fill="currentColor"/>
<defs>
<clipPath id="clip0_5174_9285">
<rect width="1440" height="580" fill="white"/>
</clipPath>
</defs>
</svg>
