<svg xmlns="http://www.w3.org/2000/svg">
  <!-- icon alert important-fill v1.4 -->
  <symbol fill="currentColor" viewBox="0 0 24 24" id="alert-important">
    <path d="M12 2.4a9.6 9.6 0 1 1 0 19.2 9.6 9.6 0 0 1 0-19.2Zm0 13.2c-.333 0-.617.12-.85.36-.233.24-.35.52-.35.84 0 .33.117.613.35.847.219.23.528.358.85.353.335 0 .618-.117.851-.353a1.16 1.16 0 0 0 .35-.847c0-.32-.117-.6-.35-.84a1.142 1.142 0 0 0-.85-.36Zm.001-9.6c-.642 0-1.17.455-1.2 1.025l.24 7.135h1.92l.24-7.135C13.17 6.455 12.643 6 12 6Z"/>
  </symbol>
  <!-- icon alert warning-external-shape v1.4 -->
  <symbol fill="currentColor" viewBox="0 0 24 24" id="alert-warning">
    <path d="M12 3.36c.786 0 1.473.43 1.843 1.072l7.467 12.96c.184.32.29.692.29 1.088 0 1.193-.955 2.16-2.133 2.16H4.533c-1.178 0-2.132-.967-2.133-2.16 0-.396.106-.769.29-1.088l.018-.03.001-.003 7.448-12.927A2.127 2.127 0 0 1 12 3.36Zm0 12.72c-.334 0-.618.12-.85.36-.233.24-.35.52-.35.84 0 .33.117.612.35.847.218.23.528.357.85.353.335 0 .618-.118.85-.353.234-.235.35-.517.35-.847 0-.32-.116-.6-.35-.84a1.142 1.142 0 0 0-.85-.36Zm.001-9.6c-.643 0-1.171.455-1.201 1.025l.24 7.135h1.92l.24-7.135c-.03-.57-.556-1.025-1.199-1.025Z"/>
  </symbol>
  <!-- icon alert accessible warning v1.4 -->
  <symbol fill="currentColor" viewBox="0 0 24 24" id="alert-warning-accessible">
    <path fill="var(--bs-icon-color-content-status-warning-external-shape)" d="M12 3.36c.786 0 1.473.43 1.843 1.072l7.467 12.96c.184.32.29.692.29 1.088 0 1.193-.955 2.16-2.133 2.16H4.533c-1.178 0-2.132-.967-2.133-2.16 0-.396.106-.769.29-1.088l.018-.03.001-.003 7.448-12.927A2.127 2.127 0 0 1 12 3.36Zm0 12.72c-.334 0-.618.12-.85.36-.233.24-.35.52-.35.84 0 .33.117.612.35.847.218.23.528.357.85.353.335 0 .618-.118.85-.353.234-.235.35-.517.35-.847 0-.32-.116-.6-.35-.84a1.142 1.142 0 0 0-.85-.36Zm.001-9.6c-.643 0-1.171.455-1.201 1.025l.24 7.135h1.92l.24-7.135c-.03-.57-.556-1.025-1.199-1.025Z"/>
    <path fill="var(--bs-icon-color-content-status-warning-internal-shape)" d="M10.8 7.505c.03-.57.558-1.025 1.2-1.025.643 0 1.17.455 1.2 1.025l-.24 7.135h-1.92l-.24-7.135Zm2.05 10.622a1.15 1.15 0 0 1-.85.353 1.15 1.15 0 0 1-.85-.353 1.16 1.16 0 0 1-.35-.847c0-.32.116-.6.35-.84.232-.24.516-.36.85-.36.334 0 .618.12.85.36.234.24.35.52.35.84 0 .33-.116.613-.35.847Z"/>
  </symbol>
  <!-- icon alert info-fill v1.4 -->
  <symbol fill="currentColor" viewBox="0 0 24 24" id="alert-info">
    <path d="M12 2.4a9.6 9.6 0 1 1 0 19.2 9.6 9.6 0 0 1 0-19.2Zm-1.2 7.44v7.135c.03.57.557 1.025 1.2 1.025.642 0 1.17-.455 1.2-1.025V9.84h-2.4ZM12 6c-.334 0-.617.117-.85.353a1.16 1.16 0 0 0-.35.847c0 .32.117.6.35.84.233.24.516.36.85.36.334 0 .618-.12.85-.36.234-.24.35-.52.35-.84 0-.33-.116-.613-.35-.847A1.151 1.151 0 0 0 12 6Z"/>
  </symbol>
  <!-- icon alert tick-confirmation-fill v1.4 -->
  <symbol fill="currentColor" viewBox="0 0 24 24" id="alert-success">
    <path d="M12 2.4a9.6 9.6 0 1 1 0 19.2 9.6 9.6 0 0 1 0-19.2Zm4.703 5.09a.844.844 0 0 0-1.188.114l-5.521 6.69-1.401-2.966a.844.844 0 1 0-1.526.72l1.968 4.168a.844.844 0 0 0 1.414.177l6.367-7.715a.843.843 0 0 0-.113-1.187Z"/>
  </symbol>
  <symbol viewBox="0 0 24 24" fill="currentColor" id="internet">
    <path fill-rule="evenodd" clip-rule="evenodd" d="M19.435 5.745a9.734 9.734 0 0 0-4.259-3.126.61.61 0 1 0-.426 1.141A8.566 8.566 0 0 1 19.6 8.398h-3.926c-.07-.465-.15-.919-.248-1.352a15.723 15.723 0 0 0-.278-1.062.61.61 0 0 0-1.167.35c.094.313.18.642.256.979.078.35.147.712.205 1.085H9.065c.5-3.109 1.64-5.18 2.688-5.18a.61.61 0 1 0 0-1.218c-.11 0-.217.012-.323.029a.594.594 0 0 0-.172-.017 9.688 9.688 0 0 0-5.51 2.056 9.685 9.685 0 0 0-3.674 6.497 9.684 9.684 0 0 0 1.996 7.19 9.733 9.733 0 0 0 7.521 3.736c.054.004.107.009.162.009.075 0 .15-.004.224-.013a9.696 9.696 0 0 0 5.781-2.055c4.236-3.311 4.989-9.45 1.677-13.687Zm.24 3.872a.604.604 0 0 0 .318-.091 8.518 8.518 0 0 1 .229 3.262 8.627 8.627 0 0 1-.354 1.603h-4.094a23.838 23.838 0 0 0 .046-4.774h3.855Zm-5.079 0a22.461 22.461 0 0 1-.056 4.774H8.965a22.07 22.07 0 0 1-.056-4.774h5.687Zm-2.773 10.658h-.146c-.968-.09-2-1.913-2.522-4.665h5.196c-.525 2.756-1.558 4.58-2.528 4.665Zm-8.54-9.562c.046-.373.118-.738.21-1.096H7.68c-.06.683-.093 1.395-.093 2.133 0 .922.05 1.806.144 2.64H3.636a8.506 8.506 0 0 1-.352-3.677Zm3.215-5.684a8.501 8.501 0 0 1 2.951-1.495c-.754 1.13-1.326 2.821-1.626 4.864H3.904a8.483 8.483 0 0 1 2.594-3.37ZM5.03 17.004a8.646 8.646 0 0 1-.89-1.395h3.763c.315 1.812.852 3.314 1.54 4.35a8.488 8.488 0 0 1-4.413-2.955Zm11.977 1.467a8.478 8.478 0 0 1-2.95 1.491c.69-1.035 1.228-2.538 1.544-4.352h3.764a8.5 8.5 0 0 1-2.358 2.86Z"/>
  </symbol>
  <!-- icon heart-empty v1.4 -->
  <symbol fill="currentColor" viewBox="0 0 24 24" id="heart-empty">
    <path d="M12 21.5a.63.63 0 0 1-.462-.2l-8.16-8.754A5.427 5.427 0 0 1 2 8.936C2 5.939 4.449 3.5 7.46 3.5c1.846 0 3.543.938 4.54 2.428A5.476 5.476 0 0 1 16.54 3.5c.349 0 .63.28.63.627a.629.629 0 0 1-.63.627 4.205 4.205 0 0 0-3.947 2.77.63.63 0 0 1-1.186 0 4.205 4.205 0 0 0-3.948-2.77c-2.316 0-4.2 1.876-4.2 4.182 0 1.02.374 2.004 1.052 2.768L12 19.951l7.699-8.258a4.174 4.174 0 0 0 .058-5.446.626.626 0 0 1 .077-.884.632.632 0 0 1 .887.076 5.418 5.418 0 0 1-.088 7.095L12.462 21.3a.63.63 0 0 1-.462.2Z" style="fill-rule:evenodd"/>
    <path d="M5.274 10.012a.472.472 0 0 1-.465-.394 3.078 3.078 0 0 1 3.04-3.571c.073 0 .145.006.217.014l.054.005a.47.47 0 0 1 .429.51.475.475 0 0 1-.512.427l-.066-.006c-.04-.004-.081-.01-.123-.01a2.134 2.134 0 0 0-2.107 2.478.47.47 0 0 1-.467.547Z" style="fill-rule:evenodd"/>
  </symbol>
  <symbol fill="currentColor" viewBox="0 0 24 24" id="tick">
    <path d="M18.185 5.333 9.513 14.89l-3.228-3.552c-.416-.44-1.41-.489-1.959.128-.544.614-.331 1.485.083 1.922l4.182 4.614c.208.22.667.498.94.498.272 0 .672-.24.88-.46l9.676-10.643c.414-.439.636-1.344.083-1.943-.561-.609-1.57-.56-1.985-.121Z" style="fill-rule:evenodd"/>
  </symbol>
  <symbol fill="currentColor" viewBox="0 0 24 24" id="delete">
    <path d="M18.147 5.353c.47.47.47 1.235 0 1.706l-4.691 4.69 4.69 4.692a1.207 1.207 0 0 1-1.705 1.706l-4.691-4.692-4.691 4.692a1.207 1.207 0 0 1-1.706-1.706l4.691-4.692-4.69-4.69a1.207 1.207 0 0 1 1.705-1.706l4.691 4.69 4.691-4.69c.47-.47 1.235-.47 1.706 0Z" style="fill-rule:evenodd"/>
  </symbol>
  <symbol fill="currentColor" viewBox="0 0 24 24" id="download">
    <path d="M13.875 2.25c.311 0 .563.252.563.563V16.31l3.174-3.03a.563.563 0 0 1 .817.772l-.04.041-3.86 3.685a.938.938 0 0 1-1.24.048l-.07-.063-3.679-3.679a.562.562 0 1 1 .796-.795l2.977 2.977V10.5h-8.25c-.932 0-1.688.755-1.688 1.688v6.75c0 .931.756 1.687 1.688 1.687h13.875c.931 0 1.687-.756 1.687-1.688v-6.75c0-.931-.756-1.687-1.688-1.687h-1.09a.563.563 0 0 1 0-1.125h1.09a2.813 2.813 0 0 1 2.813 2.813v6.75a2.813 2.813 0 0 1-2.813 2.812H5.063a2.813 2.813 0 0 1-2.812-2.813v-6.75a2.813 2.813 0 0 1 2.813-2.812h8.25V2.812c0-.31.252-.562.562-.562Z" style="fill-rule:evenodd"/>
  </symbol>
  <symbol fill="currentColor" viewBox="0 0 24 24" id="settings">
    <path d="M11.902 16.321a4.423 4.423 0 0 1-4.418-4.418 4.423 4.423 0 0 1 4.418-4.418 4.423 4.423 0 0 1 4.418 4.418 4.423 4.423 0 0 1-4.418 4.418Zm0-7.617a3.203 3.203 0 0 0-3.199 3.199c0 1.764 1.435 3.2 3.2 3.2 1.763 0 3.199-1.436 3.199-3.2 0-1.764-1.436-3.2-3.2-3.2Zm8.487 2.058c-.447.18-.672.27-.672.989 0 .718.225.808.672.989.333.134.789.318 1.002.825.206.49.124 1.108-.273 2.067-.398.958-.777 1.453-1.268 1.654-.51.208-.962.015-1.292-.125-.445-.19-.667-.284-1.174.223-.508.508-.413.731-.224 1.175.14.33.332.783.124 1.293-.2.49-.695.87-1.653 1.267-.96.397-1.578.479-2.067.274-.508-.213-.691-.67-.825-1.002-.18-.447-.271-.672-.989-.672s-.809.225-.989.672c-.134.333-.318.789-.825 1.002a1.458 1.458 0 0 1-.573.108c-.393 0-.871-.124-1.493-.382-.959-.397-1.454-.776-1.654-1.267-.208-.51-.016-.962.124-1.293.19-.444.284-.666-.224-1.175-.508-.507-.73-.412-1.174-.223-.33.14-.782.333-1.292.125-.491-.201-.87-.696-1.267-1.655-.398-.958-.48-1.576-.274-2.066.213-.507.669-.691 1.001-.825.448-.18.673-.271.673-.99 0-.717-.225-.808-.673-.988-.332-.135-.788-.318-1.001-.826-.206-.489-.124-1.107.274-2.066.397-.959.776-1.454 1.267-1.654.51-.209.962-.016 1.292.124.443.19.666.284 1.174-.224.508-.508.413-.73.224-1.174-.14-.33-.332-.783-.124-1.292.2-.491.695-.87 1.654-1.268.96-.397 1.577-.478 2.066-.273.507.213.691.669.825 1.002.18.447.27.672.99.672.717 0 .807-.225.988-.672.134-.333.317-.789.825-1.002.49-.205 1.107-.124 2.066.273.96.398 1.454.777 1.654 1.268.209.51.016.962-.124 1.292-.19.444-.284.666.224 1.174a.61.61 0 1 1-.862.862c-1.09-1.09-.71-1.981-.484-2.514.048-.112.128-.3.119-.351 0 0-.08-.226-.993-.605-.915-.378-1.13-.274-1.13-.274-.043.028-.12.219-.165.332-.216.537-.578 1.435-2.119 1.435-1.54 0-1.903-.898-2.119-1.435-.046-.113-.123-.303-.165-.333 0 0-.216-.103-1.13.275-.913.379-.992.603-.993.605-.01.05.07.239.119.352.226.532.605 1.423-.484 2.513-1.09 1.09-1.98.71-2.513.484-.113-.048-.303-.127-.352-.119-.002 0-.226.08-.605.994-.378.913-.276 1.128-.275 1.13.03.042.22.118.333.164.537.217 1.435.579 1.435 2.12 0 1.54-.898 1.903-1.435 2.12-.113.045-.304.122-.333.164-.001.002-.103.216.275 1.13.379.914.603.993.605.993.048.007.239-.07.352-.118.532-.227 1.423-.607 2.513.483 1.09 1.09.71 1.98.484 2.513-.048.113-.128.302-.119.352 0 .002.079.226.993.605.913.378 1.13.275 1.13.275.042-.029.12-.22.165-.333.216-.536.579-1.435 2.12-1.435 1.54 0 1.902.898 2.118 1.435.046.114.122.304.165.333 0 0 .215.104 1.13-.275.914-.378.993-.602.993-.604.01-.05-.07-.24-.119-.352-.226-.533-.606-1.424.484-2.514 1.09-1.09 1.98-.71 2.513-.483.112.047.3.125.352.118.002 0 .226-.078.605-.993.378-.914.276-1.128.275-1.13-.03-.042-.22-.12-.334-.165-.536-.216-1.435-.578-1.435-2.12 0-1.54.899-1.902 1.435-2.119.114-.046.305-.122.334-.165 0-.002.103-.216-.275-1.13-.235-.565-.41-.814-.516-.923a.61.61 0 1 1 .873-.85c.27.277.514.693.769 1.307.397.959.479 1.577.273 2.066-.213.508-.67.691-1.002.826Z" style="fill-rule:evenodd"/>
  </symbol>
  <symbol fill="currentColor" viewBox="0 0 24 24" id="trash">
    <path d="M5.206 6.869c0-.457.498-.842 1.087-.842h10.94c.59 0 1.089.385 1.089.842v1.26H5.206v-1.26Zm3.303-2.785c0-.456.498-.842 1.088-.842h4.033c.59 0 1.088.386 1.088.842v.7H8.509v-.7Zm8.725.7h-1.31v-.7C15.924 2.935 14.894 2 13.63 2H9.597c-1.265 0-2.293.935-2.293 2.084v.7h-1.01C5.028 4.785 4 5.72 4 6.87v1.88c0 .344.27.622.603.622h.251v10.027c0 1.366 1.079 2.477 2.405 2.477h8.709c1.326 0 2.405-1.111 2.405-2.477v-5.051a.612.612 0 0 0-.603-.621.612.612 0 0 0-.603.621v5.05c0 .682-.538 1.236-1.2 1.236H7.26c-.661 0-1.2-.554-1.2-1.235V9.37h11.108v1.882c0 .343.27.621.603.621a.612.612 0 0 0 .603-.62V9.37h.551a.612.612 0 0 0 .603-.621V6.869c0-1.15-1.029-2.084-2.293-2.084Zm-8.88 6.633c-.33 0-.6.275-.603.616l-.047 5.927a.613.613 0 0 0 .598.627h.005c.33 0 .6-.275.603-.616l.047-5.928a.613.613 0 0 0-.598-.626h-.005Zm5.953.62v5.929c0 .342.27.62.603.62a.612.612 0 0 0 .603-.62v-5.928a.612.612 0 0 0-.603-.621.612.612 0 0 0-.603.62Zm-3.272-.004a.612.612 0 0 1 .602-.616h.006c.332.003.6.283.597.626l-.047 5.928a.612.612 0 0 1-.603.616h-.005a.612.612 0 0 1-.598-.627l.048-5.927Z" style="fill-rule:evenodd"/>
  </symbol>
  <symbol id="book-half" viewBox="0 0 24 24" fill="currentColor">
    <path fill-rule="evenodd" d="M19.063 21.5H4.438A2.44 2.44 0 0 1 2 19.062V4.438A2.44 2.44 0 0 1 4.438 2h7.617a.61.61 0 0 1 0 1.219H4.438a1.22 1.22 0 0 0-1.22 1.219v14.625a1.22 1.22 0 0 0 1.22 1.218h14.625a1.22 1.22 0 0 0 1.218-1.218V9.008a1.22 1.22 0 0 0-1.218-1.219h-.61v10.055a.61.61 0 0 1-1.219 0V4.437a1.22 1.22 0 0 0-1.218-1.218h-.99a.61.61 0 0 1 0-1.219h.99a2.44 2.44 0 0 1 2.437 2.438V6.57h.61A2.44 2.44 0 0 1 21.5 9.008v10.055a2.44 2.44 0 0 1-2.438 2.437ZM5.809 5.96h8.226a.61.61 0 1 1 0 1.22H5.81a.61.61 0 0 1 0-1.22Zm0 2.743h8.226a.61.61 0 1 1 0 1.219H5.81a.61.61 0 0 1 0-1.219Zm0 5.485h8.226a.61.61 0 1 1 0 1.218H5.81a.61.61 0 0 1 0-1.219Zm0-2.743h5.18a.61.61 0 0 1 0 1.22h-5.18a.61.61 0 0 1 0-1.22Z"/>
  </symbol>
  <symbol id="braces-asterisk" viewBox="0 0 24 24" fill="currentColor">
    <path fill-rule="evenodd" d="M6.371 19.538c-.45.45-1.181.45-1.631 0a1.138 1.138 0 0 1-.334-.81c0-.307.119-.594.334-.81l3.104-3.105 1.625 1.626-3.098 3.099ZM19 4.688l.595.594-.918 1.374-1.051-1.052L19 4.687Zm1.326 12.258-1.253-1.25a.562.562 0 1 0-.794.796l1.254 1.252c.22.219.343.512.343.824 0 .312-.122.605-.343.824a1.193 1.193 0 0 1-1.675 0l-8.454-8.383a.563.563 0 0 0-.583-.132 3.558 3.558 0 0 1-3.673-.814 3.478 3.478 0 0 1-1.015-2.696l1.212 1.2c.898.892 2.36.892 3.26 0a2.27 2.27 0 0 0 .675-1.622c0-.615-.24-1.19-.675-1.623l-1.201-1.19c.992-.065 2 .292 2.722 1.009a3.476 3.476 0 0 1 .82 3.63.562.562 0 0 0 .133.59l5.212 5.16a.563.563 0 0 0 .791-.799l-2.926-2.898 3.647-3.617.639.634a.562.562 0 0 0 .863-.086l1.594-2.37a.562.562 0 0 0-.07-.713l-1.274-1.264a.562.562 0 0 0-.707-.07l-2.39 1.581a.56.56 0 0 0-.085.869l.632.627-3.649 3.618-1.242-1.23a4.606 4.606 0 0 0-1.196-4.461 4.69 4.69 0 0 0-4.84-1.077.562.562 0 0 0-.208.93L7.81 6.121c.221.22.342.512.342.824 0 .312-.121.605-.342.824a1.193 1.193 0 0 1-1.675 0L4.194 5.843a.565.565 0 0 0-.926.21 4.605 4.605 0 0 0 1.087 4.81 4.689 4.689 0 0 0 4.495 1.182l1.238 1.227-1.1 1.091-.838-.83a.563.563 0 0 0-.792 0l-3.583 3.553a2.27 2.27 0 0 0-.676 1.623c0 .614.24 1.19.676 1.623.45.445 1.04.668 1.63.668.59 0 1.18-.223 1.63-.668l3.583-3.554a.562.562 0 0 0 0-.799l-.831-.824 1.1-1.09 6.178 6.126c.449.445 1.039.668 1.63.668.59 0 1.18-.223 1.63-.669A2.27 2.27 0 0 0 21 18.569c0-.615-.24-1.19-.675-1.622Z"/>
  </symbol>
  <symbol id="check2" viewBox="0 0 24 24" fill="currentColor">
    <path d="M18.185 5.333 9.513 14.89l-3.228-3.552c-.416-.44-1.41-.489-1.959.128-.544.614-.331 1.485.083 1.922l4.182 4.614c.208.22.667.498.94.498.272 0 .672-.24.88-.46l9.676-10.643c.414-.439.636-1.344.083-1.943-.561-.609-1.57-.56-1.985-.121Z"/>
  </symbol>
  <symbol id="chevron-expand" viewBox="0 0 24 24" fill="currentColor">
    <path fill-rule="evenodd" d="M17.019 7.431c-.015.015.015-.019 0 0l-4.905 5.55-4.811-5.55c-.615-.619-1.388-.506-1.913 0-.019.015.015-.019 0 0-.536.566-.506 1.448.008 2.036l5.812 6.709c.48.551 1.286.506 1.808 0L18.9 9.467c.717-.716.574-1.545.094-2.036-.48-.491-1.339-.652-1.976 0Z"/>
  </symbol>
  <symbol id="copy" viewBox="0 0 24 24" fill="currentColor">
    <path d="M13.001 1.012c.023.004.045.013.066.02l.012.004.015.004a.645.645 0 0 1 .103.05l.011.007.014.007a.61.61 0 0 1 .093.078l8.3 8.298c.029.03.055.06.077.094.004.005.006.01.008.016l.006.01a.618.618 0 0 1 .043.08l.007.021.005.016.002.007a.575.575 0 0 1 .034.194v2.804a.618.618 0 0 1-1.236-.001v-2.186h-4.939a.618.618 0 0 1-.617-.617v-4.94H8.213c-.68 0-1.234.554-1.234 1.235V21.03c0 .681.553 1.235 1.234 1.235h11.114c.681 0 1.234-.554 1.234-1.235v-5.41a.618.618 0 0 1 1.236 0v5.41a2.473 2.473 0 0 1-2.47 2.47H8.213a2.473 2.473 0 0 1-2.47-2.47v-.274H5.47A2.473 2.473 0 0 1 3 18.286V3.47A2.473 2.473 0 0 1 5.47 1h7.409c.041 0 .082.004.122.012ZM5.47 2.234c-.681 0-1.236.555-1.236 1.236v14.816c0 .681.555 1.235 1.236 1.235h.273V6.213a2.472 2.472 0 0 1 2.47-2.469h5.92l-1.51-1.51H5.47Zm10.77 7.067h3.449L16.24 5.85v3.45Z"/>
    <path d="M16.78 18.213a.618.618 0 0 1 0 1.235h-6.367a.618.618 0 1 1 0-1.235h6.367ZM16.78 15.608a.618.618 0 0 1 0 1.236h-6.367a.618.618 0 0 1 0-1.236h6.367ZM16.78 12.956a.618.618 0 0 1 0 1.234h-6.367a.618.618 0 1 1 0-1.234h6.367Z"/>
  </symbol>
  <symbol id="file-earmark-richtext" viewBox="0 0 24 24" fill="currentColor">
    <path fill-rule="evenodd" d="M8.786 11.443h6.526a.633.633 0 1 1 0 1.265H8.786a.633.633 0 0 1 0-1.265Zm0 5.388h6.526a.633.633 0 0 1 0 1.266H8.786a.633.633 0 0 1 0-1.266Zm0-2.67h6.526a.633.633 0 0 1 0 1.266H8.786a.633.633 0 0 1 0-1.265Zm9.137 8.089H6.531A2.534 2.534 0 0 1 4 19.719V4.53A2.534 2.534 0 0 1 6.531 2H9.38a.633.633 0 1 1 0 1.265H6.531c-.698 0-1.265.568-1.265 1.266V19.72c0 .698.567 1.265 1.265 1.265h11.392c.698 0 1.266-.567 1.266-1.265V8.96h-5.063a.633.633 0 0 1-.633-.633V3.265h-1.147a.633.633 0 1 1 0-1.265h1.78c.042 0 .084.004.125.012.028.006.054.016.08.025.013.004.026.007.038.012.029.012.056.028.082.043l.027.015c.034.023.066.05.095.079L20.27 7.88a.61.61 0 0 1 .078.096l.015.027a.623.623 0 0 1 .044.082c.005.012.007.025.011.037.01.027.02.053.025.081.008.04.012.083.012.125v11.39a2.534 2.534 0 0 1-2.531 2.532ZM14.759 4.16v3.535h3.535L14.759 4.16Z"/>
  </symbol>
  <symbol id="globe2" viewBox="0 0 24 24" fill="currentColor">
    <path fill-rule="evenodd" d="M19.435 5.745a9.734 9.734 0 0 0-4.259-3.126.61.61 0 1 0-.426 1.141A8.566 8.566 0 0 1 19.6 8.398h-3.926c-.07-.465-.15-.919-.248-1.352a15.723 15.723 0 0 0-.278-1.062.61.61 0 0 0-1.167.35c.094.313.18.642.256.979.078.35.147.712.205 1.085H9.065c.5-3.109 1.64-5.18 2.688-5.18a.61.61 0 1 0 0-1.218c-.11 0-.217.012-.323.029a.594.594 0 0 0-.172-.017 9.688 9.688 0 0 0-5.51 2.056 9.685 9.685 0 0 0-3.674 6.497 9.684 9.684 0 0 0 1.996 7.19 9.733 9.733 0 0 0 7.521 3.736c.054.004.107.009.162.009.075 0 .15-.004.224-.013a9.696 9.696 0 0 0 5.781-2.055c4.236-3.311 4.989-9.45 1.677-13.687Zm.24 3.872a.604.604 0 0 0 .318-.091 8.518 8.518 0 0 1 .229 3.262 8.627 8.627 0 0 1-.354 1.603h-4.094a23.838 23.838 0 0 0 .046-4.774h3.855Zm-5.079 0a22.461 22.461 0 0 1-.056 4.774H8.965a22.07 22.07 0 0 1-.056-4.774h5.687Zm-2.773 10.658h-.146c-.968-.09-2-1.913-2.522-4.665h5.196c-.525 2.756-1.558 4.58-2.528 4.665Zm-8.54-9.562c.046-.373.118-.738.21-1.096H7.68c-.06.683-.093 1.395-.093 2.133 0 .922.05 1.806.144 2.64H3.636a8.506 8.506 0 0 1-.352-3.677Zm3.215-5.684a8.501 8.501 0 0 1 2.951-1.495c-.754 1.13-1.326 2.821-1.626 4.864H3.904a8.483 8.483 0 0 1 2.594-3.37ZM5.03 17.004a8.646 8.646 0 0 1-.89-1.395h3.763c.315 1.812.852 3.314 1.54 4.35a8.488 8.488 0 0 1-4.413-2.955Zm11.977 1.467a8.478 8.478 0 0 1-2.95 1.491c.69-1.035 1.228-2.538 1.544-4.352h3.764a8.5 8.5 0 0 1-2.358 2.86Z"/>
  </symbol>
  <symbol id="grid-fill" viewBox="0 0 24 24" fill="currentColor">
    <path fill-rule="evenodd" d="M18.75 21h-3.937c-1.241 0-2.25-1.01-2.25-2.25v-3.775c0-1.241 1.009-2.25 2.25-2.25h3.937c1.24 0 2.25 1.009 2.25 2.25v3.775c0 1.24-1.01 2.25-2.25 2.25Zm1.125-6.025c0-.621-.504-1.125-1.125-1.125h-3.937c-.621 0-1.126.504-1.126 1.125v3.775c.001.621.505 1.124 1.126 1.125h3.937c.621 0 1.124-.504 1.125-1.125v-3.775Zm-.947-3.531h-4.146c-1.117 0-2.026-.932-2.026-2.077v-4.29c0-1.145.909-2.077 2.026-2.077h2.238a.563.563 0 1 1 0 1.125h-2.238c-.497 0-.9.427-.9.952v4.29c0 .525.403.952.9.952h4.146c.497 0 .901-.427.901-.952v-4.29a.967.967 0 0 0-.406-.794.562.562 0 1 1 .645-.922c.557.393.888 1.034.886 1.716v4.29c0 1.145-.909 2.077-2.026 2.077ZM9.188 21H5.25C4.01 21 3 19.99 3 18.75v-3.775c0-1.241 1.01-2.25 2.25-2.25h3.937c1.241 0 2.25 1.009 2.25 2.25v3.775c0 1.24-1.009 2.25-2.25 2.25Zm1.124-6.025c0-.621-.504-1.125-1.125-1.125H5.25c-.621 0-1.124.504-1.125 1.125v3.775c0 .621.504 1.124 1.125 1.125h3.937c.621 0 1.125-.504 1.125-1.125v-3.775Zm-1.125-3.7H5.25c-1.24 0-2.25-1.009-2.25-2.25V5.25C3 4.01 4.01 3 5.25 3h3.937c1.241 0 2.25 1.01 2.25 2.25v3.776c0 1.24-1.009 2.25-2.25 2.25Zm1.125-6.025c0-.621-.504-1.124-1.125-1.125H5.25c-.621 0-1.124.504-1.125 1.125v3.776c0 .62.504 1.124 1.125 1.124h3.937c.621 0 1.125-.503 1.125-1.124V5.25Z"/>
  </symbol>
  <symbol id="lightning-charge-fill" viewBox="0 0 16 16" fill="currentColor">
    <path d="M11.251.068a.5.5 0 0 1 .227.58L9.677 6.5H13a.5.5 0 0 1 .364.843l-8 8.5a.5.5 0 0 1-.842-.49L6.323 9.5H3a.5.5 0 0 1-.364-.843l8-8.5a.5.5 0 0 1 .615-.09z"/>
  </symbol>
  <symbol id="magic" viewBox="0 0 24 24" fill="currentColor">
    <path fill-rule="evenodd" d="M13.564 2.109c.49-.205 1.108-.124 2.066.273.959.398 1.454.777 1.655 1.268.208.51.015.962-.125 1.292-.19.444-.284.667.224 1.175.508.507.73.412 1.174.223.33-.14.782-.332 1.292-.124.491.2.87.696 1.268 1.655.397.958.478 1.576.273 2.065-.213.508-.669.691-1.002.825-.447.18-.672.272-.672.99s.225.809.672.989c.333.134.79.318 1.002.826.205.49.124 1.107-.273 2.065-.398.96-.777 1.454-1.268 1.655-.51.208-.962.015-1.292-.125-.443-.189-.666-.283-1.174.224-.508.508-.413.731-.224 1.175.14.33.333.783.125 1.292-.2.491-.696.87-1.655 1.268-.958.396-1.577.478-2.066.273-.507-.213-.691-.669-.825-1.002-.18-.447-.272-.672-.99-.672-.717 0-.808.225-.988.672-.134.333-.318.789-.825 1.002-.172.072-.36.108-.573.108-.393 0-.872-.124-1.493-.381-.565-.234-.976-.48-1.257-.75a.604.604 0 0 1-.15-.24.61.61 0 0 1 .002-.857l3.24-3.247a.61.61 0 0 1 .635-.144 3.828 3.828 0 0 0 3.974-.89 3.826 3.826 0 0 0 1.101-2.954l-1.31 1.31a2.502 2.502 0 0 1-3.534 0 2.502 2.502 0 0 1 0-3.534l1.31-1.31a3.818 3.818 0 0 0-2.954 1.101 3.83 3.83 0 0 0-.89 3.975.61.61 0 0 1-.143.635l-1.215 1.212a.609.609 0 1 1-.86-.862l.954-.952a5.054 5.054 0 0 1 1.293-4.87 5.05 5.05 0 0 1 5.244-1.176.61.61 0 0 1 .226 1.005l-2.103 2.103c-.5.5-.5 1.312 0 1.812.5.499 1.311.499 1.81 0l2.104-2.104a.607.607 0 0 1 1.004.226 5.053 5.053 0 0 1-1.175 5.245 5.053 5.053 0 0 1-4.869 1.294l-2.555 2.56c.14.083.33.18.584.285.908.376 1.125.278 1.13.275.043-.029.119-.22.165-.333.216-.536.578-1.434 2.118-1.434 1.541 0 1.903.897 2.12 1.434.045.113.122.303.165.333 0 0 .216.103 1.13-.275.913-.378.992-.603.993-.605.008-.05-.07-.239-.119-.351-.226-.533-.605-1.424.484-2.513 1.089-1.09 1.98-.71 2.513-.484.113.047.303.127.352.119.006-.002.23-.088.605-.993.37-.894.28-1.12.275-1.13-.03-.043-.22-.12-.333-.165-.536-.217-1.435-.58-1.436-2.12 0-1.54.9-1.904 1.436-2.12.114-.046.304-.122.333-.165.004-.008.096-.231-.275-1.13-.375-.902-.598-.99-.605-.993-.05-.01-.239.071-.351.12-.533.226-1.424.605-2.514-.484-1.09-1.09-.71-1.981-.483-2.514.047-.113.127-.302.118-.352-.005-.011-.098-.234-.993-.605-.914-.378-1.128-.275-1.13-.274-.043.03-.12.22-.165.333-.217.537-.58 1.434-2.12 1.434s-1.902-.898-2.118-1.434c-.046-.114-.122-.304-.165-.333-.002-.001-.215-.105-1.13.274-.896.371-.99.594-.993.605-.01.05.07.24.118.352.227.533.606 1.425-.483 2.514-1.089 1.09-1.98.71-2.513.483-.113-.048-.307-.13-.352-.119-.01.004-.233.095-.605.993-.378.915-.275 1.128-.274 1.13.03.043.219.12.333.165.536.216 1.434.58 1.434 2.12s-.898 1.903-1.434 2.12c-.114.045-.304.122-.333.165 0 0-.081.162.151.811a.61.61 0 0 1-1.147.41c-.624-1.746.123-2.215.873-2.517.447-.18.673-.27.673-.989 0-.718-.226-.81-.673-.99-.333-.134-.789-.318-1.002-.825-.205-.49-.124-1.107.273-2.065.398-.959.777-1.454 1.268-1.655.51-.208.962-.016 1.292.124.444.19.667.284 1.175-.223.507-.508.412-.73.223-1.174-.14-.33-.333-.783-.125-1.293.201-.491.696-.87 1.655-1.268.959-.397 1.576-.478 2.066-.273.507.213.691.669.825 1.002.18.447.271.672.988.672.718 0 .81-.225.99-.672.134-.333.317-.79.825-1.002Z"/>
  </symbol>
  <symbol id="menu-button-wide-fill" viewBox="0 0 24 24" fill="currentColor">
    <path fill-rule="evenodd" d="M17.922 22.25H6.532A2.534 2.534 0 0 1 4 19.719V4.53A2.534 2.534 0 0 1 6.531 2H9.38a.633.633 0 0 1 0 1.266H6.53c-.698 0-1.265.567-1.265 1.265V19.72c0 .698.567 1.265 1.265 1.265h11.39c.699 0 1.267-.567 1.267-1.265V8.96h-5.063a.633.633 0 0 1-.633-.633V3.266h-1.147a.633.633 0 0 1 0-1.266h1.78c.042 0 .084.004.125.013.028.005.054.015.08.024.013.004.026.007.038.012a.656.656 0 0 1 .082.043l.027.015c.034.023.067.05.096.079l5.694 5.694a.64.64 0 0 1 .08.096c.005.009.008.018.014.027a.642.642 0 0 1 .043.082c.006.012.008.025.012.037a.64.64 0 0 1 .037.206v11.39a2.534 2.534 0 0 1-2.531 2.532ZM14.758 4.16v3.535h3.535L14.758 4.16Zm-2.448 5.904c.075-.186.187-.466.51-.6.293-.123.646-.082 1.178.139.533.22.812.44.932.735.132.323.014.6-.064.784-.09.21-.101.238.079.418s.207.168.418.079c.183-.078.46-.197.785-.064.294.12.514.4.735.932.22.532.262.885.139 1.178-.135.322-.415.435-.6.51-.213.085-.24.096-.24.351s.027.267.24.352c.185.074.465.187.6.51.123.292.081.645-.14 1.178-.22.533-.44.811-.735.932-.324.132-.6.013-.784-.065-.212-.09-.239-.1-.418.08-.18.18-.169.206-.08.417.079.184.197.462.065.785-.12.295-.4.515-.932.735-.336.14-.601.208-.825.208a.9.9 0 0 1-.354-.069c-.322-.135-.434-.415-.509-.6-.086-.212-.096-.24-.351-.24s-.266.028-.352.24c-.075.185-.187.465-.509.6-.294.124-.646.082-1.179-.139-.533-.22-.811-.44-.932-.735-.132-.323-.014-.6.064-.785.09-.21.101-.237-.079-.418-.18-.18-.206-.169-.418-.079-.183.078-.462.196-.784.065-.295-.12-.515-.4-.735-.932-.221-.533-.263-.886-.14-1.179.136-.322.416-.435.601-.51.212-.084.24-.096.24-.35 0-.256-.028-.267-.24-.352-.185-.075-.466-.188-.6-.51-.124-.293-.082-.646.139-1.178.22-.533.44-.812.735-.932.323-.132.6-.014.784.064.21.09.238.102.418-.08.18-.18.169-.206.08-.417-.079-.184-.197-.461-.065-.784.12-.295.4-.515.932-.735.533-.221.885-.262 1.18-.14.32.135.433.415.508.6.086.213.097.24.352.24s.265-.027.351-.24Zm-1.583.355a2.757 2.757 0 0 0-.029-.07 1.795 1.795 0 0 0-.415.13 1.826 1.826 0 0 0-.387.202l.03.07c.113.268.35.827-.283 1.46-.633.634-1.192.396-1.46.282l-.07-.03c-.04.052-.109.163-.202.387a1.808 1.808 0 0 0-.13.416l.07.028c.27.11.834.336.834 1.232 0 .896-.564 1.123-.834 1.232l-.07.03c.009.063.037.19.13.415.093.224.163.334.202.386l.07-.029c.269-.114.828-.352 1.46.281.634.633.396 1.192.282 1.46l-.03.07c.052.04.163.11.388.202.224.093.35.122.415.131l.029-.07c.109-.27.336-.834 1.232-.834.895 0 1.122.563 1.231.834l.03.07a1.78 1.78 0 0 0 .415-.13 1.78 1.78 0 0 0 .387-.202l-.03-.07c-.114-.269-.352-.828.282-1.461.633-.633 1.191-.396 1.46-.28l.07.028c.04-.052.109-.162.202-.386.093-.225.122-.352.13-.416l-.07-.029c-.27-.108-.833-.336-.833-1.231 0-.896.563-1.123.834-1.233a1.94 1.94 0 0 0 .07-.028 1.76 1.76 0 0 0-.131-.416 1.78 1.78 0 0 0-.201-.386l-.07.029c-.27.114-.827.352-1.461-.282-.634-.633-.396-1.192-.281-1.46.008-.022.02-.047.029-.07a1.818 1.818 0 0 0-.387-.201 1.788 1.788 0 0 0-.415-.131l-.03.07c-.109.27-.336.833-1.231.833-.896 0-1.123-.563-1.232-.833Zm3.72 4.113a2.386 2.386 0 0 1-2.385 2.384 2.386 2.386 0 0 1-2.384-2.384 2.386 2.386 0 0 1 2.384-2.384 2.386 2.386 0 0 1 2.384 2.384Zm-3.82 0a1.436 1.436 0 0 0 2.87 0c0-.791-.644-1.434-1.435-1.434-.79 0-1.434.643-1.434 1.434Z"/>
  </symbol>
  <symbol id="palette2" viewBox="0 0 24 24" fill="currentColor">
    <path d="M5.138 5.109c3.23-3.193 8.123-3.711 11.893-1.556.38.217.437.722.155 1.035a.715.715 0 0 1-.884.135c-3.236-1.828-7.42-1.375-10.185 1.359a8.305 8.305 0 0 0 0 11.84c2.363 2.336 5.776 3.005 8.74 2.002.16-.053.137-.29-.033-.305l-.03-.002a3.411 3.411 0 0 1-2.39-.985 3.333 3.333 0 0 1-.989-2.379v-.004l.005-.163v-.005c.099-1.78 1.61-3.167 3.413-3.167h2.982c1.681 0 2.9-1.58 2.455-3.164a8.296 8.296 0 0 0-1.627-3.078.787.787 0 0 1-.029-.986l.01-.012a.615.615 0 0 1 .952-.036 9.672 9.672 0 0 1 2.03 3.743c.696 2.476-1.21 4.907-3.791 4.907h-2.982c-1.12 0-2.027.888-2.031 1.97-.002.525.207 1.03.582 1.403a2.02 2.02 0 0 0 1.42.583c1.738 0 2.165 2.418.502 2.98-3.445 1.166-7.417.391-10.168-2.329a9.67 9.67 0 0 1 0-13.786Z"/>
    <path d="M7.586 13.838a1.472 1.472 0 1 1 0 2.944 1.472 1.472 0 0 1 0-2.944ZM6.483 9.793a1.471 1.471 0 1 1 0 2.943 1.471 1.471 0 0 1 0-2.943ZM8.322 5.747a1.471 1.471 0 1 1 0 2.943 1.471 1.471 0 0 1 0-2.943ZM16.413 5.747a1.471 1.471 0 1 1 0 2.942 1.471 1.471 0 0 1 0-2.942ZM12.368 4.276a1.471 1.471 0 1 1 0 2.942 1.471 1.471 0 0 1 0-2.942Z"/>
  </symbol>
  <symbol id="repair-tools" viewBox="0 0 24 24" fill="currentColor">
    <path fill-rule="evenodd" d="M20.344 9.221H17.51l-3.554 3.154a.679.679 0 0 1-.832.056.689.689 0 0 1-.267-.793l.822-2.417a2.014 2.014 0 0 1-1.96-2.017v-4.16A2.04 2.04 0 0 1 13.75 1h3.013c.377 0 .683.308.683.687a.686.686 0 0 1-.683.687H13.75a.668.668 0 0 0-.665.67v4.16c0 .355.286.643.639.643h.91c.22 0 .427.107.556.287a.69.69 0 0 1 .09.622l-.297.875 1.817-1.612a.68.68 0 0 1 .452-.172h3.09a.668.668 0 0 0 .666-.67V3.044a.668.668 0 0 0-.665-.669h-.717a.685.685 0 0 1-.683-.687c0-.38.306-.687.683-.687h.717a2.04 2.04 0 0 1 2.031 2.043v4.135a2.04 2.04 0 0 1-2.031 2.043Zm-6.226 6.966a.69.69 0 0 1-.482 1.173.68.68 0 0 1-.483-.2l-4.746-4.767a.69.69 0 0 1-.161-.717 3.077 3.077 0 0 0-.708-3.182 3.028 3.028 0 0 0-1.953-.882l.812.816c.885.891.885 2.341 0 3.232a2.25 2.25 0 0 1-1.607.667 2.251 2.251 0 0 1-1.607-.667l-.811-.816c.045.739.356 1.437.877 1.963a3.034 3.034 0 0 0 3.164.713.68.68 0 0 1 .712.16l7.7 7.744c.169.171.4.267.64.265.243 0 .47-.094.64-.265a.915.915 0 0 0 0-1.288l-1.142-1.156a.69.69 0 0 1 .486-1.172.68.68 0 0 1 .482.203l1.142 1.155c.885.89.885 2.34-.001 3.23a2.257 2.257 0 0 1-1.607.668 2.26 2.26 0 0 1-1.607-.668l-7.411-7.454a4.407 4.407 0 0 1-4.164-1.163 4.462 4.462 0 0 1-1.03-4.615.684.684 0 0 1 1.127-.255l1.77 1.78a.93.93 0 0 0 1.28 0 .916.916 0 0 0 0-1.29L3.662 7.62a.69.69 0 0 1 .254-1.133 4.4 4.4 0 0 1 4.588 1.035A4.464 4.464 0 0 1 9.66 11.71l4.458 4.477Z"/>
  </symbol>
  <symbol id="transfers" viewBox="0 0 24 24" fill="currentColor">
    <path d="M15.56 12.257a.655.655 0 0 1 .88-.146l.04.028 5.264 4.073c.33.254.34.742.035 1.01l-.036.03-5.235 3.99a.656.656 0 0 1-.835-1.014l.038-.03 3.714-2.832H7.416a.658.658 0 0 1-.657-.655.654.654 0 0 1 .596-.655l.057-.002h11.99l-3.722-2.877a.657.657 0 0 1-.149-.88l.03-.04ZM6.503 3.135a.656.656 0 0 1 .833 1.011l-.038.032L3.598 7l7.362.034a.656.656 0 0 1 .05 1.31l-.056.002-7.374-.034 3.74 2.89a.656.656 0 0 1 .147.88l-.03.04a.655.655 0 0 1-.88.146l-.04-.028-5.262-4.065a.657.657 0 0 1-.033-1.012l.037-.03 5.244-3.998ZM15.463 7.044a.656.656 0 0 1 .191 1.283L14.36 8.32a.656.656 0 0 1-.191-1.283l1.295.006Z"/>
  </symbol>
  <symbol id="ui-auto-mode" viewBox="0 0 24 24" fill="currentColor">
    <path d="M6.906 7.61c.368 0 .665.288.665.644v1.5h1.623c.367 0 .665.288.665.645a.655.655 0 0 1-.665.644H7.571v1.5a.655.655 0 0 1-.665.645.655.655 0 0 1-.665-.646v-1.499H4.618a.655.655 0 0 1-.665-.644c0-.357.298-.645.665-.645h1.623v-1.5c0-.356.298-.645.665-.645Zm9.843 4.647a.985.985 0 1 1-1.967-.108.985.985 0 0 1 1.967.108Zm-2.952-.71a.981.981 0 0 1-.985-.985.988.988 0 0 1 .985-.984.98.98 0 0 1 .984.984.988.988 0 0 1-.984.985Zm1.969-3.281a.985.985 0 1 1 0 1.969.985.985 0 0 1 0-1.97Zm1.968 3.28a.981.981 0 0 1-.984-.984.988.988 0 0 1 .984-.984.98.98 0 0 1 .985.984.988.988 0 0 1-.985.985Zm3.681 7.65c-.342.393-1.055 1.21-2.713.74-1.18-.335-2.443-1.92-3.74-3.654-.153-.203-.291-.388-.413-.545-.504-.653-.706-.675-2.162-.65-.264.005-.557.01-.887.01-.33 0-.624-.005-.887-.01-1.453-.024-1.658-.003-2.163.65-.121.157-.26.342-.411.545-1.298 1.734-2.56 3.319-3.741 3.654-.353.1-.664.142-.937.142-1.009 0-1.507-.572-1.776-.881-.51-.587-.637-1.075-.567-2.178.065-1.026.425-8.326.428-8.399C1.446 5.77 4.365 4 6.457 4c1.945 0 3.025.93 3.74 1.544.512.441.95.664 1.303.664.352 0 .79-.223 1.303-.664C13.518 4.929 14.598 4 16.543 4c2.092 0 5.01 1.77 5.01 4.652l.045.876a.654.654 0 0 1-.623.685.65.65 0 0 1-.688-.62l-.045-.91c0-2.227-2.408-3.376-3.699-3.376-1.457 0-2.247.68-2.882 1.226-1.537 1.322-2.785 1.322-4.322 0-.635-.546-1.426-1.226-2.882-1.226-1.29 0-3.699 1.149-3.699 3.345-.015.333-.365 7.414-.43 8.45-.057.887.045 1.005.249 1.239.282.324.507.58 1.36.338.853-.242 2.281-2.152 3.05-3.178.156-.21.299-.4.423-.561.928-1.2 1.746-1.186 3.225-1.16.257.004.543.01.865.01.322 0 .608-.006.865-.01 1.48-.025 2.297-.04 3.224 1.16.125.16.268.352.425.561.768 1.026 2.196 2.936 3.048 3.178.854.242 1.079-.014 1.362-.34.203-.232.305-.35.248-1.237-.028-.442-.223-4.278-.23-4.441a.654.654 0 0 1 .622-.686.66.66 0 0 1 .688.62c.002.04.203 3.99.23 4.424.07 1.103-.057 1.591-.567 2.177Z"/>
  </symbol>
  <symbol id="ui-dark-mode" viewBox="0 0 24 24" fill="currentColor">
    <path d="M11.824 21.5c-.278 0-.558-.012-.84-.035-4.706-.394-8.554-4.24-8.949-8.946a9.86 9.86 0 0 1 3.562-8.451.613.613 0 0 1 .776.945 8.635 8.635 0 0 0-3.118 7.404c.345 4.118 3.713 7.484 7.831 7.829 4.133.344 7.866-2.253 9.003-6.143a7.627 7.627 0 0 1-4.456 1.432h-.008c-4.224 0-7.66-3.436-7.66-7.66a7.629 7.629 0 0 1 1.431-4.463c-.256.076-.51.163-.757.262a.613.613 0 0 1-.454-1.136 9.798 9.798 0 0 1 1.776-.52.926.926 0 0 1 .995.458c.2.353.151.794-.12 1.097a6.41 6.41 0 0 0-1.648 4.3 6.445 6.445 0 0 0 6.438 6.44h.006a6.412 6.412 0 0 0 4.295-1.647.945.945 0 0 1 1.097-.122.937.937 0 0 1 .459.995c-.898 4.663-4.97 7.96-9.659 7.961Z"/>
  </symbol>
  <symbol id="ui-light-mode" viewBox="0 0 24 24" fill="currentColor">
    <path d="M11.936 18.183a.72.72 0 0 1 .72.72v2.217a.72.72 0 0 1-1.44 0v-2.217a.72.72 0 0 1 .72-.72ZM16.326 16.417a.72.72 0 0 1 1.018 0l1.568 1.568a.72.72 0 1 1-1.018 1.018l-1.568-1.568a.72.72 0 0 1 0-1.018ZM6.565 16.327a.72.72 0 1 1 1.018 1.018l-1.568 1.568a.72.72 0 0 1-1.018-1.018l1.568-1.568Z"/>
    <path d="M8.758 7.533a5.52 5.52 0 0 1 7.165.585l.044.044.025.027a.72.72 0 0 1-1.06.974 4.08 4.08 0 1 0 1.081 2.102l-.017-.09-.007-.037a.72.72 0 0 1 1.408-.291l.009.036.012.06a5.52 5.52 0 1 1-8.66-3.41ZM5.098 11.217a.72.72 0 1 1 0 1.44H2.88a.72.72 0 0 1 0-1.44h2.218ZM21.12 11.217a.72.72 0 1 1 0 1.44h-2.218a.72.72 0 0 1 0-1.44h2.218ZM4.997 5.088a.72.72 0 0 1 1.018 0l1.568 1.568a.72.72 0 0 1-1.018 1.018L4.997 6.106a.72.72 0 0 1 0-1.018ZM17.894 4.998a.72.72 0 1 1 1.018 1.018l-1.568 1.568a.72.72 0 0 1-1.018-1.018l1.568-1.568ZM11.936 2.16a.72.72 0 0 1 .72.72v2.218a.72.72 0 0 1-1.44 0V2.881a.72.72 0 0 1 .72-.72Z"/>
  </symbol>
  <symbol id="ui-radios" viewBox="0 0 24 24" fill="currentColor">
    <path fill-rule="evenodd" d="M6.96 8.227h9.493a.633.633 0 0 1 0 1.265H6.961a.633.633 0 0 1 0-1.265Zm0-3.797h9.493a.633.633 0 1 1 0 1.265H6.961a.633.633 0 1 1 0-1.265Zm10.722 9.175h-9.85l-5.198 4.588a.632.632 0 0 1-.996-.734l1.734-3.854H2.53A2.533 2.533 0 0 1 0 11.075V2.568A2.571 2.571 0 0 1 2.568 0h11.037a.633.633 0 1 1 0 1.265H2.568c-.718 0-1.302.585-1.302 1.303v8.507c0 .697.567 1.265 1.264 1.265h1.82a.633.633 0 0 1 .578.892l-.932 2.072 3.179-2.806a.631.631 0 0 1 .419-.158h10.088c.718 0 1.303-.584 1.303-1.303V2.568c0-.718-.585-1.303-1.303-1.303h-.992a.632.632 0 1 1 0-1.265h.992a2.571 2.571 0 0 1 2.568 2.568v8.47a2.571 2.571 0 0 1-2.568 2.567Z"/>
  </symbol>
  <symbol id="lock-closed" viewBox="0 0 960 960" fill="currentColor">
    <path stroke-width="0px" d="M725,400h-25v-25c0-110-90-200-200-200s-200,90-200,200v25h-100v450c0,41.42,33.58,75,75,75h525v-450c0-41.42-33.58-75-75-75ZM374.99,375c0-69.04,55.96-125,125-125s125,55.96,125,125v25h-250v-25ZM565.5,636.55c-6.78,12.14-16.8,22.16-28.94,28.94h-.01s13.45,134.51,13.45,134.51h-100l13.46-134.51c-36.17-20.19-49.13-65.87-28.94-102.04,20.19-36.17,65.87-49.13,102.04-28.94,36.17,20.19,49.13,65.87,28.94,102.04Z" transform="scale(.96)"/>
  </symbol>
  <symbol id="accessibility-vision" viewBox="0 0 960 960" fill="currentColor">
    <path fill-rule="evenodd" d="M513.081,250.129c-4.017,0-8.041-.129-12.081-0.129s-8.064.129-12.081,0.129C301.335,250.129,111.491,382.343,50,500c61.491,117.656,249.335,249.871,436.919,249.871,4.017,0,8.04.129,12.081,0.129s8.064-.129,12.081-0.129C698.665,749.871,888.51,617.656,950,500,888.51,382.343,700.665,250.129,513.081,250.129ZM498.62,680a180,180,0,1,1,180-180A180,180,0,0,1,498.62,680Zm-378.2-179.963c29.782-41.595,77.4-84.081,132.916-117.816a545.263,545.263,0,0,1,55.918-29.695,239.848,239.848,0,0,0,.78,295.942,537.117,537.117,0,0,1-57.553-30.6C197.469,584.226,150.153,541.734,120.417,500.034Zm626.25,117.747a544.106,544.106,0,0,1-60.236,31.655,239.784,239.784,0,0,0-.761-299.823,536.07,536.07,0,0,1,61.852,32.517c55.01,33.642,102.326,76.136,132.061,117.836C849.8,541.564,802.185,584.045,746.667,617.781ZM597.931,453.153a48.227,48.227,0,1,1-62.472-56.6A109.731,109.731,0,1,0,597.931,453.153Z"/>
  </symbol>
</svg>
