<svg xmlns="http://www.w3.org/2000/svg">
  <symbol fill="currentColor" viewBox="0 0 24 24" id="error-severe">
    <path d="M15.101 16.85a.889.889 0 0 1-1.26 0l-2.091-2.096-2.091 2.095a.888.888 0 0 1-1.26 0 .894.894 0 0 1 0-1.263l2.09-2.094-2.016-2.02a.895.895 0 0 1 0-1.264.89.89 0 0 1 1.26 0l2.017 2.02 2.017-2.02a.89.89 0 0 1 1.26 0 .894.894 0 0 1 0 1.263l-2.017 2.02 2.091 2.095a.895.895 0 0 1 0 1.263Zm6.104.253L13.622 4.077a2.165 2.165 0 0 0-3.743 0L2.314 17.07l-.001.002-.018.03a2.169 2.169 0 0 0 1.872 3.265h15.166a2.169 2.169 0 0 0 1.872-3.264Z" style="fill-rule:evenodd"/>
  </symbol>
  <symbol fill="currentColor" viewBox="0 0 24 24" id="important">
    <path d="M11.75 2c5.385 0 9.75 4.365 9.75 9.75s-4.365 9.75-9.75 9.75S2 17.135 2 11.75 6.365 2 11.75 2Zm0 13.406a1.16 1.16 0 0 0-.863.367 1.186 1.186 0 0 0-.356.852c0 .335.12.622.356.86.222.233.536.364.863.359.34 0 .628-.12.864-.359.237-.238.355-.525.355-.86 0-.325-.118-.609-.355-.852a1.16 1.16 0 0 0-.864-.367Zm.001-9.75c-.653 0-1.189.463-1.22 1.041l.244 7.246h1.95l.244-7.246c-.03-.578-.565-1.04-1.218-1.04Z" style="fill-rule:evenodd"/>
  </symbol>
  <symbol fill="currentColor" viewBox="0 0 24 24" id="info">
    <path d="M11.75 2c5.385 0 9.75 4.365 9.75 9.75s-4.365 9.75-9.75 9.75S2 17.135 2 11.75 6.365 2 11.75 2Zm-1.219 7.557v7.246c.03.578.565 1.04 1.218 1.04s1.189-.462 1.22-1.04V9.557H10.53Zm1.219-3.9c-.34 0-.628.119-.864.358a1.178 1.178 0 0 0-.355.86c0 .325.118.609.355.853.236.243.524.366.864.366.339 0 .627-.123.863-.366.237-.244.356-.528.356-.853 0-.335-.12-.622-.356-.86a1.169 1.169 0 0 0-.863-.359Z" style="fill-rule:evenodd"/>
  </symbol>
  <symbol fill="currentColor" viewBox="0 0 24 24" id="tick-confirmation">
    <path d="M11.75 2c5.385 0 9.75 4.365 9.75 9.75s-4.365 9.75-9.75 9.75S2 17.135 2 11.75 6.365 2 11.75 2Zm4.775 5.17a.858.858 0 0 0-1.207.116L9.711 14.08l-1.422-3.013a.858.858 0 1 0-1.55.732l1.998 4.233a.857.857 0 0 0 1.437.18l6.467-7.836a.857.857 0 0 0-.116-1.206Z" style="fill-rule:evenodd"/>
  </symbol>
  <symbol viewBox="0 0 46 48" fill="currentColor" id="internet">
    <path fill-rule="evenodd" clip-rule="evenodd" d="M19.435 5.745a9.734 9.734 0 0 0-4.259-3.126.61.61 0 1 0-.426 1.141A8.566 8.566 0 0 1 19.6 8.398h-3.926c-.07-.465-.15-.919-.248-1.352a15.723 15.723 0 0 0-.278-1.062.61.61 0 0 0-1.167.35c.094.313.18.642.256.979.078.35.147.712.205 1.085H9.065c.5-3.109 1.64-5.18 2.688-5.18a.61.61 0 1 0 0-1.218c-.11 0-.217.012-.323.029a.594.594 0 0 0-.172-.017 9.688 9.688 0 0 0-5.51 2.056 9.685 9.685 0 0 0-3.674 6.497 9.684 9.684 0 0 0 1.996 7.19 9.733 9.733 0 0 0 7.521 3.736c.054.004.107.009.162.009.075 0 .15-.004.224-.013a9.696 9.696 0 0 0 5.781-2.055c4.236-3.311 4.989-9.45 1.677-13.687Zm.24 3.872a.604.604 0 0 0 .318-.091 8.518 8.518 0 0 1 .229 3.262 8.627 8.627 0 0 1-.354 1.603h-4.094a23.838 23.838 0 0 0 .046-4.774h3.855Zm-5.079 0a22.461 22.461 0 0 1-.056 4.774H8.965a22.07 22.07 0 0 1-.056-4.774h5.687Zm-2.773 10.658h-.146c-.968-.09-2-1.913-2.522-4.665h5.196c-.525 2.756-1.558 4.58-2.528 4.665Zm-8.54-9.562c.046-.373.118-.738.21-1.096H7.68c-.06.683-.093 1.395-.093 2.133 0 .922.05 1.806.144 2.64H3.636a8.506 8.506 0 0 1-.352-3.677Zm3.215-5.684a8.501 8.501 0 0 1 2.951-1.495c-.754 1.13-1.326 2.821-1.626 4.864H3.904a8.483 8.483 0 0 1 2.594-3.37ZM5.03 17.004a8.646 8.646 0 0 1-.89-1.395h3.763c.315 1.812.852 3.314 1.54 4.35a8.488 8.488 0 0 1-4.413-2.955Zm11.977 1.467a8.478 8.478 0 0 1-2.95 1.491c.69-1.035 1.228-2.538 1.544-4.352h3.764a8.5 8.5 0 0 1-2.358 2.86Z"/>
  </symbol>
  <symbol fill="currentColor" viewBox="0 0 24 24" id="heart-empty">
    <path d="M12 20a.63.63 0 0 1-.462-.2l-8.16-8.754A5.427 5.427 0 0 1 2 7.436C2 4.439 4.449 2 7.46 2c1.846 0 3.543.938 4.54 2.428A5.476 5.476 0 0 1 16.54 2c.349 0 .63.28.63.627a.629.629 0 0 1-.63.627 4.205 4.205 0 0 0-3.947 2.77.63.63 0 0 1-1.186 0 4.205 4.205 0 0 0-3.948-2.77c-2.316 0-4.2 1.876-4.2 4.182 0 1.02.374 2.003 1.052 2.768L12 18.451l7.699-8.258a4.174 4.174 0 0 0 .058-5.446.626.626 0 0 1 .077-.884.632.632 0 0 1 .887.076 5.418 5.418 0 0 1-.088 7.095L12.462 19.8A.63.63 0 0 1 12 20Z" style="fill-rule:evenodd"/>
    <path d="M5.274 8.512a.472.472 0 0 1-.465-.394 3.078 3.078 0 0 1 3.04-3.571c.073 0 .145.006.217.014l.054.005a.47.47 0 0 1 .429.51.475.475 0 0 1-.512.427l-.066-.006c-.04-.004-.081-.01-.123-.01a2.134 2.134 0 0 0-2.107 2.478.47.47 0 0 1-.467.547Z" style="fill-rule:evenodd"/>
  </symbol>
  <symbol fill="currentColor" viewBox="0 0 24 24" id="tick">
    <path d="M18.185 5.333 9.513 14.89l-3.228-3.552c-.416-.44-1.41-.489-1.959.128-.544.614-.331 1.485.083 1.922l4.182 4.614c.208.22.667.498.94.498.272 0 .672-.24.88-.46l9.676-10.643c.414-.439.636-1.344.083-1.943-.561-.609-1.57-.56-1.985-.121Z" style="fill-rule:evenodd"/>
  </symbol>
  <symbol fill="currentColor" viewBox="0 0 24 24" id="delete">
    <path d="M18.147 5.353c.47.47.47 1.235 0 1.706l-4.691 4.69 4.69 4.692a1.207 1.207 0 0 1-1.705 1.706l-4.691-4.692-4.691 4.692a1.207 1.207 0 0 1-1.706-1.706l4.691-4.692-4.69-4.69a1.207 1.207 0 0 1 1.705-1.706l4.691 4.69 4.691-4.69c.47-.47 1.235-.47 1.706 0Z" style="fill-rule:evenodd"/>
  </symbol>
  <symbol fill="currentColor" viewBox="0 0 24 24" id="download">
    <path d="M13.875 2.25c.311 0 .563.252.563.563V16.31l3.174-3.03a.563.563 0 0 1 .817.772l-.04.041-3.86 3.685a.938.938 0 0 1-1.24.048l-.07-.063-3.679-3.679a.562.562 0 1 1 .796-.795l2.977 2.977V10.5h-8.25c-.932 0-1.688.755-1.688 1.688v6.75c0 .931.756 1.687 1.688 1.687h13.875c.931 0 1.687-.756 1.687-1.688v-6.75c0-.931-.756-1.687-1.688-1.687h-1.09a.563.563 0 0 1 0-1.125h1.09a2.813 2.813 0 0 1 2.813 2.813v6.75a2.813 2.813 0 0 1-2.813 2.812H5.063a2.813 2.813 0 0 1-2.812-2.813v-6.75a2.813 2.813 0 0 1 2.813-2.812h8.25V2.812c0-.31.252-.562.562-.562Z" style="fill-rule:evenodd"/>
  </symbol>
  <symbol fill="currentColor" viewBox="0 0 24 24" id="settings">
    <path d="M11.902 16.321a4.423 4.423 0 0 1-4.418-4.418 4.423 4.423 0 0 1 4.418-4.418 4.423 4.423 0 0 1 4.418 4.418 4.423 4.423 0 0 1-4.418 4.418Zm0-7.617a3.203 3.203 0 0 0-3.199 3.199c0 1.764 1.435 3.2 3.2 3.2 1.763 0 3.199-1.436 3.199-3.2 0-1.764-1.436-3.2-3.2-3.2Zm8.487 2.058c-.447.18-.672.27-.672.989 0 .718.225.808.672.989.333.134.789.318 1.002.825.206.49.124 1.108-.273 2.067-.398.958-.777 1.453-1.268 1.654-.51.208-.962.015-1.292-.125-.445-.19-.667-.284-1.174.223-.508.508-.413.731-.224 1.175.14.33.332.783.124 1.293-.2.49-.695.87-1.653 1.267-.96.397-1.578.479-2.067.274-.508-.213-.691-.67-.825-1.002-.18-.447-.271-.672-.989-.672s-.809.225-.989.672c-.134.333-.318.789-.825 1.002a1.458 1.458 0 0 1-.573.108c-.393 0-.871-.124-1.493-.382-.959-.397-1.454-.776-1.654-1.267-.208-.51-.016-.962.124-1.293.19-.444.284-.666-.224-1.175-.508-.507-.73-.412-1.174-.223-.33.14-.782.333-1.292.125-.491-.201-.87-.696-1.267-1.655-.398-.958-.48-1.576-.274-2.066.213-.507.669-.691 1.001-.825.448-.18.673-.271.673-.99 0-.717-.225-.808-.673-.988-.332-.135-.788-.318-1.001-.826-.206-.489-.124-1.107.274-2.066.397-.959.776-1.454 1.267-1.654.51-.209.962-.016 1.292.124.443.19.666.284 1.174-.224.508-.508.413-.73.224-1.174-.14-.33-.332-.783-.124-1.292.2-.491.695-.87 1.654-1.268.96-.397 1.577-.478 2.066-.273.507.213.691.669.825 1.002.18.447.27.672.99.672.717 0 .807-.225.988-.672.134-.333.317-.789.825-1.002.49-.205 1.107-.124 2.066.273.96.398 1.454.777 1.654 1.268.209.51.016.962-.124 1.292-.19.444-.284.666.224 1.174a.61.61 0 1 1-.862.862c-1.09-1.09-.71-1.981-.484-2.514.048-.112.128-.3.119-.351 0 0-.08-.226-.993-.605-.915-.378-1.13-.274-1.13-.274-.043.028-.12.219-.165.332-.216.537-.578 1.435-2.119 1.435-1.54 0-1.903-.898-2.119-1.435-.046-.113-.123-.303-.165-.333 0 0-.216-.103-1.13.275-.913.379-.992.603-.993.605-.01.05.07.239.119.352.226.532.605 1.423-.484 2.513-1.09 1.09-1.98.71-2.513.484-.113-.048-.303-.127-.352-.119-.002 0-.226.08-.605.994-.378.913-.276 1.128-.275 1.13.03.042.22.118.333.164.537.217 1.435.579 1.435 2.12 0 1.54-.898 1.903-1.435 2.12-.113.045-.304.122-.333.164-.001.002-.103.216.275 1.13.379.914.603.993.605.993.048.007.239-.07.352-.118.532-.227 1.423-.607 2.513.483 1.09 1.09.71 1.98.484 2.513-.048.113-.128.302-.119.352 0 .002.079.226.993.605.913.378 1.13.275 1.13.275.042-.029.12-.22.165-.333.216-.536.579-1.435 2.12-1.435 1.54 0 1.902.898 2.118 1.435.046.114.122.304.165.333 0 0 .215.104 1.13-.275.914-.378.993-.602.993-.604.01-.05-.07-.24-.119-.352-.226-.533-.606-1.424.484-2.514 1.09-1.09 1.98-.71 2.513-.483.112.047.3.125.352.118.002 0 .226-.078.605-.993.378-.914.276-1.128.275-1.13-.03-.042-.22-.12-.334-.165-.536-.216-1.435-.578-1.435-2.12 0-1.54.899-1.902 1.435-2.119.114-.046.305-.122.334-.165 0-.002.103-.216-.275-1.13-.235-.565-.41-.814-.516-.923a.61.61 0 1 1 .873-.85c.27.277.514.693.769 1.307.397.959.479 1.577.273 2.066-.213.508-.67.691-1.002.826Z" style="fill-rule:evenodd"/>
  </symbol>
  <symbol fill="currentColor" viewBox="0 0 24 24" id="trash">
    <path d="M5.206 6.869c0-.457.498-.842 1.087-.842h10.94c.59 0 1.089.385 1.089.842v1.26H5.206v-1.26Zm3.303-2.785c0-.456.498-.842 1.088-.842h4.033c.59 0 1.088.386 1.088.842v.7H8.509v-.7Zm8.725.7h-1.31v-.7C15.924 2.935 14.894 2 13.63 2H9.597c-1.265 0-2.293.935-2.293 2.084v.7h-1.01C5.028 4.785 4 5.72 4 6.87v1.88c0 .344.27.622.603.622h.251v10.027c0 1.366 1.079 2.477 2.405 2.477h8.709c1.326 0 2.405-1.111 2.405-2.477v-5.051a.612.612 0 0 0-.603-.621.612.612 0 0 0-.603.621v5.05c0 .682-.538 1.236-1.2 1.236H7.26c-.661 0-1.2-.554-1.2-1.235V9.37h11.108v1.882c0 .343.27.621.603.621a.612.612 0 0 0 .603-.62V9.37h.551a.612.612 0 0 0 .603-.621V6.869c0-1.15-1.029-2.084-2.293-2.084Zm-8.88 6.633c-.33 0-.6.275-.603.616l-.047 5.927a.613.613 0 0 0 .598.627h.005c.33 0 .6-.275.603-.616l.047-5.928a.613.613 0 0 0-.598-.626h-.005Zm5.953.62v5.929c0 .342.27.62.603.62a.612.612 0 0 0 .603-.62v-5.928a.612.612 0 0 0-.603-.621.612.612 0 0 0-.603.62Zm-3.272-.004a.612.612 0 0 1 .602-.616h.006c.332.003.6.283.597.626l-.047 5.928a.612.612 0 0 1-.603.616h-.005a.612.612 0 0 1-.598-.627l.048-5.927Z" style="fill-rule:evenodd"/>
  </symbol>
</svg>
