<svg xmlns="http://www.w3.org/2000/svg">
  <symbol fill="currentColor" viewBox="0 0 125 125" id="success">
    <path d="M62.5 0a62.5 62.5 0 100 125 62.5 62.5 0 000-125zm28 29.4c3.3 0 6 2.6 6 5.9a5.9 5.9 0 01-1.3 3.7L57.7 86a5.8 5.8 0 01-9.1 0L29.8 62.5c-.8-1-1.2-2.3-1.2-3.7a5.9 5.9 0 011.7-4.1l2.3-2.4a5.8 5.8 0 014.2-1.7 5.8 5.8 0 013.8 1.4L52 64.7 86.6 31a5.8 5.8 0 014-1.6z"/>
  </symbol>
  <symbol fill="currentColor" viewBox="0 0 125 125" id="info">
    <path d="M62.5 0a62.5 62.5 0 100 125 62.5 62.5 0 000-125zm0 14.7a11 11 0 110 22 11 11 0 010-22zM47.8 44.1h25.7v46.2c0 4.7 1.3 6.5 1.8 7.2.8 1 2.3 1.5 4.8 1.6h.8v3.8H47.8v-3.7h.8c2.3-.1 4-.8 5-2 .4-.4 1-2 1-7V57c0-4.8-.6-6.6-1.2-7.3-.8-1-2.4-1.5-4.9-1.6h-.7V44z"/>
  </symbol>
  <symbol fill="currentColor" viewBox="0 0 30 30" id="warning">
    <path d="M15 0a15 15 0 100 30 15 15 0 000-30zm.15 5.39h.01c1.12 0 2 .95 1.92 2.06l-.63 10.43c0 .7-.58.97-1.29.97-.72 0-1.28-.27-1.28-.97l-.63-10.46c-.06-1.09.8-2.01 1.9-2.03zm-.3 15.33c.11 0 .21 0 .31.02 2.19.35 2.19 3.5 0 3.84-2.77.44-3.1-3.86-.3-3.86z"/>
  </symbol>
  <symbol fill="currentColor" viewBox="0 0 140 125" id="danger">
    <path d="M70.3 0c-5.8 0-10.8 3.1-13.5 7.8L2.3 101.3l-.2.2A15.6 15.6 0 0015.6 125H125a15.6 15.6 0 0013.5-23.5L83.8 7.8A15.6 15.6 0 0070.3 0zm19.2 50a6.4 6.4 0 014.4 1.9 6.4 6.4 0 010 9L79.4 75.6l15 15a6.4 6.4 0 010 9.2 6.4 6.4 0 01-4.5 1.9 6.4 6.4 0 01-4.6-2l-15-15-15 15a6.4 6.4 0 01-4.6 2 6.4 6.4 0 01-4.6-2 6.4 6.4 0 010-9l15-15L46.8 61a6.4 6.4 0 119-9.1l14.6 14.5L84.8 52a6.4 6.4 0 014.7-1.9z"/>
  </symbol>
  <symbol fill="currentColor" viewBox="0 0 30 30" id="buy">
    <path d="M26.406 11.622H19.76V8.176c0-2.64-2.145-4.801-4.785-4.801s-4.785 2.16-4.785 4.801v3.446H3.35a1.5 1.5 0 00-1.286 2.272L7.85 26.625H21.8l5.892-12.731c.136-.225.258-.49.258-.772 0-.828-.715-1.5-1.544-1.5zm-21.556 3h5.25l.577 3.751H6.618zm4.5 9.753l-1.8-3.751h3.473l.577 3.75zm6.75 0h-2.4l-.6-3.751h3.6zm.9-6.002h-4.05l-.6-3.75h5.1zm.51-6.751H12.44l-.003-3.446a2.537 2.537 0 115.073 0zm2.94 12.753h-2.26l.61-3.751h3.45zm2.731-6.002H19.08l.471-3.75h5.255z"/>
  </symbol>
  <symbol fill="currentColor" viewBox="0 0 1000 1000" id="search">
    <path d="M892.285,819.383L666.631,593.728a310.794,310.794,0,0,0,58.05-181.388c0-172.5-139.839-312.34-312.341-312.34S100,239.838,100,412.34,239.838,724.681,412.34,724.681a310.918,310.918,0,0,0,181.4-58.05L819.383,892.275a25.053,25.053,0,0,0,35.342,0l37.56-37.55A25.071,25.071,0,0,0,892.285,819.383ZM412.34,624.732c-117.3,0-212.391-95.092-212.391-212.392S295.04,199.949,412.34,199.949,624.732,295.04,624.732,412.34,529.64,624.732,412.34,624.732Z"/>
  </symbol>
  <symbol fill="currentColor" viewBox="0 0 30 30" id="delete">
    <path d="M24.536 20.298a1.499 1.499 0 010 2.12l-2.119 2.118a1.499 1.499 0 01-2.119 0L15 19.238l-5.298 5.298a1.499 1.499 0 01-2.12 0l-2.118-2.119a1.499 1.499 0 010-2.119L10.762 15 5.464 9.702a1.499 1.499 0 010-2.12l2.119-2.118a1.499 1.499 0 012.119 0L15 10.762l5.298-5.298a1.499 1.499 0 012.12 0l2.118 2.119a1.499 1.499 0 010 2.119L19.238 15z"/>
  </symbol>
  <symbol fill="currentColor" viewBox="0 0 30 30" id="settings">
    <path d="M24.842 15c0-3.319 3.622-.808 1.936-4.878-1.687-4.071-2.472.264-4.819-2.082-2.346-2.347 1.99-3.131-2.08-4.817C15.807 1.536 18.318 5.157 15 5.157c-3.318 0-.807-3.62-4.878-1.934-4.07 1.686.265 2.47-2.082 4.817-2.346 2.346-3.131-1.99-4.817 2.082-1.687 4.07 1.934 1.56 1.934 4.878s-3.621.808-1.934 4.878c1.686 4.071 2.47-.264 4.817 2.081 2.347 2.347-1.989 3.132 2.082 4.818 4.07 1.687 1.56-1.934 4.878-1.934s.807 3.62 4.879 1.934c4.07-1.686-.266-2.471 2.08-4.818 2.347-2.345 3.132 1.99 4.819-2.08 1.686-4.071-1.936-1.56-1.936-4.88zm-9.827-5.985a6 6 0 110 12 6 6 0 010-12z"/>
  </symbol>
  <symbol fill="currentColor" viewBox="0 0 30 30" id="tick">
    <path d="M26.76 6.205a2.017 2.017 0 00-3.4-1.481h-.001L11.41 16.356l-3.937-4.385a2.01 2.01 0 00-2.742.106l-.808.812a2.038 2.038 0 00-.149 2.704l6.463 8.122a2.012 2.012 0 003.153 0L26.318 7.473a2.028 2.028 0 00.443-1.268z"/>
  </symbol>
  <symbol fill="currentColor" viewBox="0 0 30 30" id="day">
    <path d="M24.677 5.323h-3.096V4.146c0-.642-.52-1.146-1.162-1.146a1.161 1.161 0 00-1.16 1.161v1.162h-8.517V4.16a1.161 1.161 0 00-2.323 0v1.162H3v19.354A2.323 2.323 0 005.323 27H27V7.645a2.323 2.323 0 00-2.323-2.322zm.775 20.129H5.71a1.161 1.161 0 01-1.162-1.162v-12H24.29a1.161 1.161 0 011.162 1.162zM7.645 8.032a1.932 1.932 0 01.774-1.548v1.548a1.161 1.161 0 002.323 0V6.485a1.935 1.935 0 11-3.097 1.547zm10.839 0a1.932 1.932 0 01.774-1.548v1.548a1.161 1.161 0 002.323 0V6.5a1.904 1.904 0 01.774 1.533 1.935 1.935 0 01-3.871 0z"/>
  </symbol>
  <symbol fill="currentColor" viewBox="0 0 30 30" id="week">
    <path d="M24.677 5.323h-3.096V4.146c0-.642-.52-1.146-1.162-1.146a1.161 1.161 0 00-1.16 1.161v1.162h-8.517V4.16a1.161 1.161 0 00-2.323 0v1.162H3v19.354A2.323 2.323 0 005.323 27H27V7.645a2.323 2.323 0 00-2.323-2.322zM9.194 25.452H5.71a1.161 1.161 0 01-1.162-1.162v-12h4.646zM7.645 8.032a1.932 1.932 0 01.774-1.548v1.548a1.161 1.161 0 002.323 0V6.485a1.935 1.935 0 11-3.097 1.547zm6.968 17.42H9.968V12.29h4.645zm5.42 0h-4.646V12.29h4.645zm-1.55-17.42a1.932 1.932 0 01.775-1.548v1.548a1.161 1.161 0 002.323 0V6.5a1.904 1.904 0 01.774 1.533 1.935 1.935 0 01-3.871 0zm6.969 17.42h-4.646V12.29h3.484a1.161 1.161 0 011.162 1.162z"/>
  </symbol>
  <symbol fill="currentColor" viewBox="0 0 30 30" id="month">
    <path d="M24.677 5.323h-3.096V4.16a1.161 1.161 0 00-2.323 0v1.162h-8.516V4.16a1.161 1.161 0 00-2.323 0v1.162H3v19.354A2.323 2.323 0 005.323 27H27V7.645a2.323 2.323 0 00-2.323-2.322zM9.194 25.449H5.708a1.161 1.161 0 01-1.161-1.161V21.58h4.647zm0-4.643H4.547v-3.87h4.647zm0-4.645H4.547v-3.873h4.647zM7.645 8.032a1.932 1.932 0 01.774-1.548v1.548a1.161 1.161 0 002.323 0V6.484a1.935 1.935 0 11-3.097 1.548zm6.968 17.417H9.968V21.58h4.645zm0-4.643H9.968v-3.87h4.645zm0-4.645H9.968v-3.873h4.645zm5.42 9.288h-4.646V21.58h4.646zm0-4.643h-4.646v-3.87h4.646zm0-4.645h-4.646v-3.873h4.646zm-1.55-8.129a1.932 1.932 0 01.775-1.548v1.548a1.161 1.161 0 002.323 0V6.484a1.935 1.935 0 11-3.097 1.548zm6.967 12.774h-4.643v-3.87h4.643zm0-4.645h-4.643v-3.873h3.482a1.161 1.161 0 011.161 1.16z"/>
  </symbol>
  <symbol fill="#527EDB" viewBox="0 0 20 20" id="tooltip">
    <path fill-rule="evenodd" d="M10 1.5c-4.694 0-8.5 3.806-8.5 8.5s3.806 8.5 8.5 8.5 8.5-3.806 8.5-8.5-3.806-8.5-8.5-8.5zm.616 13.613c-.202.185-.467.287-.741.285-.28.004-.55-.097-.76-.282-.216-.187-.324-.45-.324-.787 0-.3.105-.552.314-.756.209-.204.465-.306.77-.306.3 0 .551.102.755.306.205.204.307.456.307.756 0 .332-.107.594-.321.784zm2.662-6.601c-.153.29-.35.556-.584.787-.226.221-.63.593-1.216 1.116-.136.122-.266.252-.388.389-.084.093-.157.196-.217.306-.046.089-.083.182-.11.278-.027.093-.066.256-.119.488-.09.495-.372.742-.848.742-.247 0-.455-.081-.624-.243-.168-.161-.253-.401-.253-.72 0-.399.062-.745.186-1.037.117-.283.284-.544.492-.77.204-.22.48-.483.827-.788.304-.266.523-.466.659-.602.134-.134.25-.286.342-.453.093-.165.14-.352.14-.541 0-.38-.142-.701-.425-.963-.283-.261-.648-.392-1.094-.392-.523 0-.908.132-1.155.396s-.456.652-.627 1.165c-.162.537-.469.806-.92.806-.266 0-.49-.094-.674-.282-.183-.187-.274-.39-.274-.609 0-.451.145-.909.435-1.372.29-.464.713-.847 1.269-1.151.556-.305 1.204-.457 1.946-.457.689 0 1.297.127 1.825.382.527.254.934.6 1.222 1.037.288.437.431.912.431 1.426 0 .404-.082.758-.246 1.062z"/>
  </symbol>
  <symbol fill="currentColor" viewBox="0 0 30 30" id="document">
    <path fill-rule="evenodd" d="M18.75 2.25v4.5c0 .828.597 1.5 1.333 1.5h4.667l-6-6zm1.5 7.5c-1.657 0-3-1.343-3-3v-4.5h-12v24c0 .828.672 1.5 1.5 1.5h18v-18h-4.5zm-10.5 1.5h10.5c.414 0 .75.336.75.75s-.336.75-.75.75H9.75c-.414 0-.75-.336-.75-.75s.336-.75.75-.75zm0 3h10.5c.414 0 .75.336.75.75s-.336.75-.75.75H9.75c-.414 0-.75-.336-.75-.75s.336-.75.75-.75zm0 3h10.5c.414 0 .75.336.75.75s-.336.75-.75.75H9.75c-.414 0-.75-.336-.75-.75s.336-.75.75-.75zm3 4.5h-3c-.414 0-.75-.336-.75-.75s.336-.75.75-.75h3c.414 0 .75.336.75.75s-.336.75-.75.75z"/>
  </symbol>
  <symbol fill="currentColor" viewBox="0 0 1000 1000" id="contact">
    <path fill-rule="evenodd" d="M 825 125 H 100 V 650 a 75 75 0 0 0 75 75 H 275 V 900 L 450 725 H 900 V 200 A 75 75 0 0 0 825 125 Z M 672.059 345.588 H 661.034 C 636.487 260.512 573.648 200 500 200 S 363.513 260.512 338.966 345.588 H 327.941 A 52.942 52.942 0 0 0 275 398.529 v 52.942 a 52.942 52.942 0 0 0 52.941 52.941 h 11.025 C 363.513 589.488 426.352 650 500 650 s 136.487 -60.512 161.034 -145.588 h 11.025 A 52.942 52.942 0 0 0 725 451.471 V 398.529 A 52.942 52.942 0 0 0 672.059 345.588 Z M 622.983 530.882 H 537.438 a 39.707 39.707 0 1 0 0 26.471 h 70.784 q -3.633 5.5 -7.585 10.666 c -13.568 17.743 -29.2 31.583 -46.476 41.136 a 109.226 109.226 0 0 1 -108.322 0 c -17.271 -9.553 -32.908 -23.393 -46.476 -41.136 c -13.97 -18.268 -24.977 -39.661 -32.715 -63.585 a 263.954 263.954 0 0 1 0 -158.868 q 3.219 -9.948 7.188 -19.3 a 18.115 18.115 0 0 1 19.246 -10.826 C 413.6 318.373 450.416 329.608 500 368.876 c 60.075 47.576 123.906 34.466 143.568 23.146 A 268.978 268.978 0 0 1 645.588 425 a 257.715 257.715 0 0 1 -12.236 79.434 A 230.064 230.064 0 0 1 622.983 530.882 Z"/>
  </symbol>
  <symbol fill="currentColor" viewBox="0 0 1000 1000" id="locate">
    <path fill-rule="evenodd" d="M 775 350 C 775 198.125 651.877 75 500 75 S 225 198.125 225 350 a 273.743 273.743 0 0 0 36.235 136.528 h 0 L 500 925 L 738.769 486.528 h 0 A 273.733 273.733 0 0 0 775 350 Z M 500 550 c -110.457 0 -200 -89.543 -200 -200 s 89.543 -200 200 -200 s 200 89.543 200 200 S 610.457 550 500 550 Z M 623.457 234.342 L 335.14 362.17 l 103.051 30.409 l 15.768 117.692 Z"/>
  </symbol>
  <symbol fill="currentColor" viewBox="0 0 24 24" id="coverage">
    <path d="M18 21.6a.602.602 0 0 0 .6.6h3a.602.602 0 0 0 .6-.6V7.2a.602.602 0 0 0-.6-.6h-3a.602.602 0 0 0-.6.6v14.4Zm-5.4 0a.602.602 0 0 0 .6.6h3a.602.602 0 0 0 .6-.6V10.8a.602.602 0 0 0-.6-.6h-3a.602.602 0 0 0-.6.6v10.8Zm-5.4 0a.602.602 0 0 0 .6.6h3a.602.602 0 0 0 .6-.6v-7.2a.602.602 0 0 0-.6-.6h-3a.602.602 0 0 0-.6.6v7.2Zm-5.4 0a.602.602 0 0 0 .6.6h3a.602.602 0 0 0 .6-.6V18a.602.602 0 0 0-.6-.6h-3a.602.602 0 0 0-.6.6v3.6Z"/>
  </symbol>
  <symbol fill="currentColor" viewBox="0 0 1000 1000" id="protection">
    <path fill-rule="evenodd" d="M 664.923 225.063 c 0 90.608 -73.615 164.062 -164.423 164.062 S 336.077 315.671 336.077 225.063 S 409.692 61 500.5 61 S 664.923 134.454 664.923 225.063 Z M 632.188 376.531 a 201.295 201.295 0 0 1 -263.376 0 A 200.419 200.419 0 0 0 263 553.187 V 699.021 C 263 829.9 369.333 936 500.5 936 S 738 829.9 738 699.021 V 553.187 A 200.419 200.419 0 0 0 632.188 376.531 Z M 516.793 563.4 a 65.557 65.557 0 1 1 -65.556 -65.625 A 65.591 65.591 0 0 1 516.793 563.4 Z m -8.773 66.439 a 87.1 87.1 0 0 1 -112.756 0.7 a 83.527 83.527 0 0 0 -41.634 72.31 v 60.764 a 98.64 98.64 0 1 0 197.279 0 V 702.849 A 83.526 83.526 0 0 0 508.02 629.835 Z"/>
  </symbol>
</svg>
