<svg xmlns="http://www.w3.org/2000/svg">
  <symbol fill="currentColor" viewBox="0 0 1000 1000" id="tick-confirmation">
    <path d="M500 75C265.279 75 75 265.279 75 500s190.279 425 425 425 425-190.279 425-425S734.721 75 500 75m222.051 264.988-254.642 320-.007-.006a39.635 39.635 0 0 1-62.125 0l-.006.005-127.321-160 .006-.006a40.14 40.14 0 0 1 2.928-53.267l15.915-16a39.61 39.61 0 0 1 54.022-2.077l.006-.008L428.382 515 663.77 285.818l.006.008A39.734 39.734 0 0 1 730.77 315a39.95 39.95 0 0 1-8.726 24.981Z" style="fill-rule:evenodd"/>
  </symbol>
  <symbol fill="currentColor" viewBox="0 0 1000 1000" id="info">
    <path d="M500 75.5c-234.72 0-425 190.28-425 425s190.28 425 425 425 425-190.28 425-425-190.28-425-425-425m0 100a75 75 0 1 1-75 75 75 75 0 0 1 75-75m125 600H400v-25.737l5.287-.167c15.555-.5 27.115-4.919 34.368-13.136 2.576-2.972 6.956-13.1 6.956-47.153v-227.2c0-32.392-4.523-44.6-8.311-49.141-5.359-6.391-16.516-10.147-33.17-11.156l-5.13-.31v-26h175v313.807c0 32.415 8.457 44.618 12.24 49.142 5.34 6.389 15.68 10.142 32.625 11.152l5.135.3v25.6Z" style="fill-rule:evenodd"/>
  </symbol>
  <symbol fill="currentColor" viewBox="0 0 1000 1000" id="warning-important-accessible">
    <path d="M499.352 125a93.95 93.95 0 0 1 81.072 46.494L908.91 733.919A93.676 93.676 0 0 1 827.838 874.9H170.867A93.711 93.711 0 0 1 89.8 733.919l.8-1.3v-.1l327.681-561.025A93.83 93.83 0 0 1 499.352 125"/>
    <path fill="#000" d="M500.352 679.926a47.494 47.494 0 1 0 47.484 47.494 47.53 47.53 0 0 0-47.484-47.494m0-379.949a47.53 47.53 0 0 0-47.483 47.493 28 28 0 0 0 .1 2.9l15.694 258.665v.5c.3 17.1 14.395 23.5 31.689 23.5 17.494 0 31.689-6.6 31.689-24l15.695-258.065.1-.9a23 23 0 0 0 .1-2.6 47.68 47.68 0 0 0-47.583-47.493"/>
  </symbol>
  <symbol fill="currentColor" viewBox="0 0 1000 1000" id="error-severe">
    <path d="M909.294 734.037 581.141 171.784a93.755 93.755 0 0 0-161.976 0L91.913 732.637v.1l-.8 1.3A93.752 93.752 0 0 0 172.05 875h656.206a93.819 93.819 0 0 0 81.038-140.963m-264.123-10.9a38.485 38.485 0 0 1-54.526 0L500.2 632.664l-90.439 90.476a38.543 38.543 0 0 1-55.026-53.986l.5-.5 90.442-90.476L358.437 491a38.542 38.542 0 0 1 54.525-54.486l87.238 87.278 87.241-87.277a38.543 38.543 0 0 1 55.028 53.985l-.5.5-87.241 87.277 90.443 90.476a38.3 38.3 0 0 1 0 54.386" style="fill-rule:evenodd"/>
  </symbol>
  <symbol fill="currentColor" viewBox="0 0 1000 1000" id="buy">
    <path d="M883.53 387.9H662V273.033C662 185.015 590.5 113 502.5 113S343 185.015 343 273.033V387.9H115a50.016 50.016 0 0 0-42.88 75.736L265 888h465l196.41-424.367c4.52-7.512 8.59-16.314 8.59-25.726 0-27.615-23.85-50.007-51.47-50.007M165 487.918h175l19.23 125.025H223.95Zm150 325.066-60-125.025h115.77L390 812.984zm225 0h-80l-20-125.025h120Zm30-200.041H435l-20-125.025h170ZM586.99 387.9H418.05l-.13-114.864a84.556 84.556 0 1 1 169.11 0ZM685 812.984h-75.31L630 687.959h115Zm91.05-200.041H639.3L655 487.918h175.17Z" style="fill-rule:evenodd"/>
  </symbol>
  <symbol fill="currentColor" viewBox="0 0 1000 1000" id="search">
    <path d="M892.285 819.383 666.631 593.728a310.8 310.8 0 0 0 58.05-181.388c0-172.5-139.839-312.34-312.341-312.34S100 239.838 100 412.34s139.838 312.341 312.34 312.341a310.9 310.9 0 0 0 181.4-58.05l225.643 225.644a25.053 25.053 0 0 0 35.342 0l37.56-37.55a25.07 25.07 0 0 0 0-35.342M412.34 624.732c-117.3 0-212.391-95.092-212.391-212.392S295.04 199.949 412.34 199.949 624.732 295.04 624.732 412.34 529.64 624.732 412.34 624.732" style="fill-rule:evenodd"/>
  </symbol>
  <symbol fill="currentColor" viewBox="0 0 1000 1000" id="delete">
    <path d="M817.493 676.165a49.977 49.977 0 0 1 0 70.664l-70.664 70.664a49.977 49.977 0 0 1-70.664 0L499.5 640.828 322.835 817.493a49.977 49.977 0 0 1-70.664 0l-70.664-70.664a49.977 49.977 0 0 1 0-70.664L358.172 499.5 181.507 322.835a49.977 49.977 0 0 1 0-70.664l70.664-70.664a49.977 49.977 0 0 1 70.664 0L499.5 358.172l176.665-176.665a49.977 49.977 0 0 1 70.664 0l70.664 70.664a49.977 49.977 0 0 1 0 70.664L640.828 499.5Z" style="fill-rule:evenodd"/>
  </symbol>
  <symbol fill="currentColor" viewBox="0 0 1000 1000" id="settings">
    <path d="M827.568 500.5c0-110.61 120.715-26.921 64.516-162.6-56.231-135.681-82.391 8.823-160.606-69.384s66.333-104.365-69.36-160.562c-135.718-56.2-52.024 64.481-162.61 64.481-110.619 0-26.921-120.68-162.612-64.481s8.827 82.349-69.391 160.562-104.372-66.3-160.575 69.384c-56.23 135.679 64.486 51.99 64.486 162.6S50.7 527.419 106.93 663.1c56.2 135.681 82.359-8.823 160.575 69.352 78.218 78.214-66.3 104.4 69.391 160.6s51.993-64.483 162.612-64.483c110.586 0 26.892 120.678 162.61 64.483 135.693-56.2-8.854-82.384 69.36-160.6 78.215-78.175 104.375 66.329 160.606-69.352 56.199-135.681-64.516-51.99-64.516-162.6M500 301.015c110.457 0 200 89.537 200 199.985s-89.543 199.985-200 199.985S300 611.448 300 501s89.543-199.985 200-199.985" style="fill-rule:evenodd"/>
  </symbol>
  <symbol fill="currentColor" viewBox="0 0 1000 1000" id="tick">
    <path d="M875 240a64.568 64.568 0 0 0-108.864-47.408l-.011-.012L383.621 565 257.594 424.648l-.011.014a64.37 64.37 0 0 0-87.784 3.375l-25.862 26a65.23 65.23 0 0 0-4.758 86.56l-.011.008 206.9 260 .01-.008a64.407 64.407 0 0 0 100.953 0l.011.009 413.793-520-.011-.008A64.9 64.9 0 0 0 875 240" style="fill-rule:evenodd"/>
  </symbol>
  <symbol fill="currentColor" viewBox="0 0 1000 1000" id="calendar-day">
    <path d="M800 175H700v-38c0-20.71-16.789-37-37.5-37a37.5 37.5 0 0 0-37.5 37.5V175H350.011L350 137.5a37.5 37.5 0 0 0-75 0V175H100v625a75 75 0 0 0 75 75h700V250a75 75 0 0 0-75-75m25 650H187.5a37.5 37.5 0 0 1-37.5-37.5V400h637.5a37.5 37.5 0 0 1 37.5 37.5zM250 262.5a62.4 62.4 0 0 1 25-50v50a37.5 37.5 0 0 0 75 0V250h.011v-37.493A62.5 62.5 0 1 1 250 262.5m350 0a62.4 62.4 0 0 1 25-50v50a37.5 37.5 0 0 0 75 0l-.011-12.5H700v-37a61.47 61.47 0 0 1 25 49.5 62.5 62.5 0 0 1-125 0" style="fill-rule:evenodd"/>
  </symbol>
  <symbol fill="currentColor" viewBox="0 0 1000 1000" id="calendar-week">
    <path d="M800 175H700v-38c0-20.71-16.789-37-37.5-37a37.5 37.5 0 0 0-37.5 37.5V175H350.011L350 137.5a37.5 37.5 0 0 0-75 0V175H100v625a75 75 0 0 0 75 75h700V250a75 75 0 0 0-75-75M300 825H187.5a37.5 37.5 0 0 1-37.5-37.5V400h150zm-50-562.5a62.4 62.4 0 0 1 25-50v50a37.5 37.5 0 0 0 75 0V250h.011v-37.493A62.5 62.5 0 1 1 250 262.5M475 825H325V400h150zm175 0H500V400h150zm-50-562.5a62.4 62.4 0 0 1 25-50v50a37.5 37.5 0 0 0 75 0l-.011-12.5H700v-37a61.47 61.47 0 0 1 25 49.5 62.5 62.5 0 0 1-125 0M825 825H675V400h112.5a37.5 37.5 0 0 1 37.5 37.5z" style="fill-rule:evenodd"/>
  </symbol>
  <symbol fill="currentColor" viewBox="0 0 1000 1000" id="calendar-month">
    <path d="M800 175H700v-37.5a37.5 37.5 0 0 0-75 0V175H350v-37.5a37.5 37.5 0 0 0-75 0V175H100v625a75 75 0 0 0 75 75h700V250a75 75 0 0 0-75-75M300.01 824.91H187.45a37.5 37.5 0 0 1-37.5-37.5V700h150.06zm0-149.91H149.95V550h150.06zm0-150H149.95V399.91h150.06zM250 262.5a62.39 62.39 0 0 1 25-50v50a37.5 37.5 0 0 0 75 0v-50l.01.01A62.5 62.5 0 1 1 250 262.5m225.01 562.41h-150V700h150zm0-149.91h-150V550h150zm0-150h-150V399.91h150zm175 299.91h-150V700h150zm0-149.91h-150V550h150zm0-150h-150V399.91h150zM600 262.5a62.39 62.39 0 0 1 25-50v50a37.5 37.5 0 0 0 75 0v-50l.01.01A62.5 62.5 0 1 1 600 262.5M824.95 675H675.01V550h149.94zm0-150H675.01V399.91h112.44a37.5 37.5 0 0 1 37.5 37.5z" style="fill-rule:evenodd"/>
  </symbol>
  <symbol fill="currentColor" viewBox="0 0 1000 1000" id="assistance">
    <path d="M500 75C265.277 75 75 265.279 75 500s190.277 425 425 425 425-190.279 425-425S734.721 75 500 75m30.8 680.633a54.15 54.15 0 0 1-37.069 14.267 56.1 56.1 0 0 1-37.95-14.085q-16.233-14.079-16.226-39.384 0-22.458 15.679-37.781t38.5-15.324q22.464 0 37.789 15.324t15.324 37.781q-.003 24.951-16.047 39.202m133.12-330.046a162.3 162.3 0 0 1-29.23 39.38q-16.92 16.574-60.772 55.785A248 248 0 0 0 554.5 540.18a79.2 79.2 0 0 0-10.868 15.32 75 75 0 0 0-5.529 13.9q-1.953 6.954-5.879 24.42-6.762 37.068-42.413 37.069-18.541 0-31.192-12.119t-12.647-36q0-29.945 9.262-51.863a131.4 131.4 0 0 1 24.6-38.491q15.319-16.577 41.35-39.4 22.789-19.946 32.962-30.113a102 102 0 0 0 17.105-22.632 54.7 54.7 0 0 0 6.955-27.086q0-28.517-21.213-48.119t-54.7-19.6q-39.213 0-57.743 19.783t-31.359 58.272Q401.059 423.8 367.2 423.8q-19.964 0-33.683-14.079T319.8 379.248q0-33.852 21.739-68.606t63.447-57.562q41.7-22.814 97.3-22.813 51.66 0 91.244 19.069 39.549 19.074 61.119 51.856t21.571 71.286q.004 30.297-12.297 53.109Z" style="fill-rule:evenodd"/>
  </symbol>
  <symbol fill="currentColor" viewBox="0 0 1000 1000" id="file-document">
    <path d="M625 75v150c0 27.614 19.9 50 44.444 50H825Zm50 250a100 100 0 0 1-100-100V75H175v799.773h.006c0 .076-.006.151-.006.227a50 50 0 0 0 50 50h600V325zm-350 50h350a25 25 0 0 1 0 50H325a25 25 0 0 1 0-50m0 100h350a25 25 0 0 1 0 50H325a25 25 0 0 1 0-50m0 100h350a25 25 0 0 1 0 50H325a25 25 0 0 1 0-50m100 150H325a25 25 0 0 1 0-50h100a25 25 0 0 1 0 50" style="fill-rule:evenodd"/>
  </symbol>
  <symbol fill="currentColor" viewBox="0 0 1000 1000" id="live-chat">
    <path d="M825 125H100v525c0 41.4 33.6 75 75 75h100v175l175-175h450V200c0-41.4-33.6-75-75-75M725 451.5c0 29.2-23.7 52.9-52.9 52.9h-11C636.5 589.5 573.6 650 500 650s-136.5-60.5-161-145.6h-11c-29.2 0-52.9-23.7-52.9-52.9v-52.9c0-29.2 23.7-52.9 52.9-52.9h11C363.5 260.5 426.4 200 500 200s136.5 60.5 161 145.6h11c29.2 0 52.9 23.7 52.9 52.9v53z"/><path d="M500 368.9c-49.6-39.3-86.4-50.5-106.9-53.4-8.1-1.2-16 3.3-19.2 10.8-2.6 6.2-5 12.7-7.2 19.3-16.3 51.7-16.3 107.2 0 158.9 7.7 23.9 18.7 45.3 32.7 63.6 13.6 17.7 29.2 31.6 46.5 41.1 33.6 19.2 74.8 19.2 108.3 0 17.3-9.6 32.9-23.4 46.5-41.1 2.6-3.4 5.2-7 7.6-10.7h-70.8c-4 11.3-12.9 20.2-24.2 24.2-20.7 7.3-43.4-3.5-50.7-24.2s3.5-43.4 24.2-50.7 43.4 3.5 50.7 24.2H623c4-8.6 7.5-17.4 10.4-26.4 8.2-25.7 12.3-52.5 12.2-79.4 0-11-.7-22-2-33-19.7 11.2-83.5 24.4-143.6-23.2"/>
  </symbol>
  <symbol fill="currentColor" viewBox="0 0 1000 1000" id="location-pin-compass">
    <path d="M775 350c0-151.875-123.123-275-275-275S225 198.125 225 350a273.74 273.74 0 0 0 36.235 136.528L500 925l238.769-438.472A273.73 273.73 0 0 0 775 350M500 550c-110.457 0-200-89.543-200-200s89.543-200 200-200 200 89.543 200 200-89.543 200-200 200m123.457-315.658L335.14 362.17l103.051 30.409 15.768 117.692Z" style="fill-rule:evenodd"/>
  </symbol>
  <symbol fill="currentColor" viewBox="0 0 1000 1000" id="mobile-network-coverage">
    <path d="M750 800a25.073 25.073 0 0 0 25 25h125a25.073 25.073 0 0 0 25-25V200a25.073 25.073 0 0 0-25-25H775a25.073 25.073 0 0 0-25 25zm-225 0a25.073 25.073 0 0 0 25 25h125a25.073 25.073 0 0 0 25-25V350a25.073 25.073 0 0 0-25-25H550a25.073 25.073 0 0 0-25 25zm-225 0a25.073 25.073 0 0 0 25 25h125a25.073 25.073 0 0 0 25-25V500a25.073 25.073 0 0 0-25-25H325a25.073 25.073 0 0 0-25 25zm-225 0a25.073 25.073 0 0 0 25 25h125a25.073 25.073 0 0 0 25-25V650a25.073 25.073 0 0 0-25-25H100a25.073 25.073 0 0 0-25 25z" style="fill-rule:evenodd"/>
  </symbol>
  <symbol fill="currentColor" viewBox="0 0 1000 1000" id="child-protection">
    <path d="M632.2 376.5c-75.6 65.4-187.8 65.4-263.4 0C303.7 411.4 263 479.3 263 553.2V699c0 130.9 106.3 237 237.5 237S738 829.9 738 699V553.2c0-73.9-40.7-141.8-105.8-176.7m-181 121.3c36.2 0 65.6 29.4 65.6 65.6s-29.4 65.5-65.6 65.5-65.5-29.4-65.5-65.6 29.4-65.5 65.5-65.5m99.7 265.8v.6c-.2 54.5-44.5 98.5-99 98.3s-98.5-44.5-98.3-99v-60.8c0-29.8 15.8-57.4 41.6-72.3 32.7 27.4 80.4 27.1 112.8-.7 26.5 14.8 42.9 42.7 42.9 73z"/>
    <ellipse cx="500.5" cy="225.1" rx="164.4" ry="164.1"/>
  </symbol>
  <symbol fill="currentColor" viewBox="0 0 1000 1000" id="trash">
    <path d="M750 149.959H625V125a50 50 0 0 0-50-50H425a50 50 0 0 0-50 50v24.959H250a75 75 0 0 0-75 75V275h650v-50.041a75 75 0 0 0-75-75M425 125h150v24.959H425zM225 299.959V925h550V299.959zM375 400v425a25 25 0 0 1-50 0V399.959a25 25 0 0 1 50 0zm150 0v425a25 25 0 0 1-50 0V399.959a25 25 0 0 1 50 0zm150 0v425a25 25 0 0 1-50 0V399.959a25 25 0 0 1 50 0z" style="fill-rule:evenodd"/>
  </symbol>
</svg>
