<svg xmlns='http://www.w3.org/2000/svg' viewBox="0 0 1000 1000">
  <path fill="#fc0" d="M499.352 125a93.95 93.95 0 0 1 81.072 46.494L908.91 733.919A93.676 93.676 0 0 1 827.838 874.9H170.867A93.711 93.711 0 0 1 89.8 733.919l.8-1.3v-.1l327.681-561.025A93.83 93.83 0 0 1 499.352 125"/>
  <path fill="#000" d="M500.352 679.926a47.494 47.494 0 1 0 47.484 47.494 47.53 47.53 0 0 0-47.484-47.494m0-379.949a47.53 47.53 0 0 0-47.483 47.493 28 28 0 0 0 .1 2.9l15.694 258.665v.5c.3 17.1 14.395 23.5 31.689 23.5 17.494 0 31.689-6.6 31.689-24l15.695-258.065.1-.9a23 23 0 0 0 .1-2.6 47.68 47.68 0 0 0-47.583-47.493"/>
</svg>
