<svg xmlns='http://www.w3.org/2000/svg' fill="currentColor" viewBox="0 0 1000 1000">
  <path fill="#fc0" d="M500.497 125a93.94 93.94 0 0 1 81.09 46.517l328.62 562.5-.008.005a93.709 93.709 0 0 1-81.09 140.983H171.887a93.71 93.71 0 0 1-81.09-140.983l.765-1.326.036-.062 327.8-561.117C436.254 142.707 467.122 125 500.497 125Z"/>
  <path fill="#000" d="M501.507 680.005c-26.233-.002-47.5 21.262-47.502 47.495s21.26 47.5 47.493 47.505a47.5 47.5 0 0 0 47.507-47.5c0-26.233-21.265-47.5-47.498-47.5m-.01-380.007c-26.238 0-47.507 21.27-47.507 47.507 0 .967.037 1.918.094 2.867l15.74 258.716.004.52c.288 17.092 14.355 23.53 31.667 23.53 17.486 0 31.662-6.568 31.67-24.05l15.7-258.121.057-.86a44 44 0 0 0 .082-2.602c0-26.238-21.27-47.507-47.507-47.507"/>
</svg>
