<svg xmlns="http://www.w3.org/2000/svg">
  <symbol fill="currentColor" viewBox="0 0 24 24" id="success">
    <path d="M12 1.8C6.367 1.8 1.8 6.367 1.8 12c0 5.633 4.567 10.2 10.2 10.2 5.633 0 10.2-4.567 10.2-10.2 0-5.633-4.567-10.2-10.2-10.2Zm5.33 6.36-6.112 7.68a.951.951 0 0 1-1.491 0L6.67 12a.963.963 0 0 1 .07-1.279l.382-.384a.95.95 0 0 1 1.297-.05l1.861 2.073 5.65-5.5a.954.954 0 0 1 1.608.7c0 .218-.074.43-.21.6Z"/>
  </symbol>
  <symbol fill="currentColor" viewBox="0 0 24 24" id="info">
    <path d="M12 1.812c-5.633 0-10.2 4.567-10.2 10.2 0 5.633 4.567 10.2 10.2 10.2 5.633 0 10.2-4.567 10.2-10.2 0-5.633-4.567-10.2-10.2-10.2Zm0 2.4a1.8 1.8 0 1 1 0 3.6 1.8 1.8 0 0 1 0-3.6Zm3 14.4H9.6v-.618l.127-.004c.373-.012.65-.118.825-.315.062-.071.167-.314.167-1.132v-5.452c0-.778-.109-1.07-.2-1.18-.128-.153-.396-.243-.796-.268L9.6 9.636v-.624h4.2v7.531c0 .778.203 1.071.294 1.18.128.153.376.243.783.267l.123.008v.614Z"/>
  </symbol>
  <symbol fill="currentColor" viewBox="0 0 24 24" id="warning">
    <path d="M12.012 1.794c-5.65 0-10.23 4.58-10.23 10.23s4.58 10.23 10.23 10.23 10.23-4.58 10.23-10.23-4.58-10.23-10.23-10.23Zm-.958 3.896c.245-.261.566-.395.958-.409.392.014.713.148.958.41.258.275.387.66.387 1.153 0 .362-.508 7.023-.632 7.294-.125.27-.348.405-.669.405-.016 0-.029-.005-.044-.006-.016.001-.029.006-.045.006-.32 0-.543-.135-.668-.405s-.632-6.932-.632-7.294c0-.493.129-.877.387-1.154Zm1.902 12.72c-.255.233-.59.36-.935.357-.35.004-.688-.121-.95-.353-.27-.234-.404-.562-.404-.984 0-.368.129-.682.387-.94a1.29 1.29 0 0 1 .949-.388c.374 0 .693.13.958.388.258.244.402.585.396.94 0 .416-.133.742-.4.98Z"/>
  </symbol>
  <symbol fill="currentColor" viewBox="0 0 24 24" id="danger">
    <path d="m21.832 17.617-7.886-13.5a2.256 2.256 0 0 0-3.892 0L2.186 17.583v.002l-.02.032h.001A2.248 2.248 0 0 0 4.113 21h15.773a2.25 2.25 0 0 0 1.946-3.383Zm-6.88-.714a.823.823 0 0 1-1.163 0l-1.93-1.932-1.93 1.932a.823.823 0 0 1-1.174-1.155l.01-.01 1.93-1.93-1.861-1.863a.823.823 0 0 1 1.163-1.164l1.862 1.862 1.861-1.862a.823.823 0 0 1 1.174 1.153l-.01.011-1.862 1.862 1.93 1.931a.824.824 0 0 1 0 1.165Z"/>
  </symbol>
  <symbol fill="currentColor" viewBox="0 0 24 24" id="buy">
    <path d="M21.205 9.31h-5.317V6.553c0-2.113-1.716-3.841-3.828-3.841S8.232 4.44 8.232 6.552V9.31H2.76a1.2 1.2 0 0 0-1.03 1.817l4.63 10.185h11.16l4.714-10.185c.108-.18.206-.391.206-.617 0-.663-.572-1.2-1.235-1.2ZM3.96 11.71h4.2l.462 3H5.375l-1.415-3Zm3.6 7.802L6.12 16.51h2.778l.462 3h-1.8Zm5.4 0h-1.92l-.48-3.001h2.88l-.48 3Zm.72-4.801h-3.24l-.48-3.001h4.08l-.36 3Zm.408-5.401h-4.055l-.003-2.757a2.03 2.03 0 1 1 4.059 0l-.001 2.757Zm2.352 10.202h-1.807l.487-3.001h2.76l-1.44 3Zm2.185-4.801h-3.282l.377-3.001h4.204l-1.299 3Z"/>
  </symbol>
  <symbol fill="currentColor" viewBox="0 0 24 24" id="search">
    <path d="m21.415 19.665-5.416-5.416A7.496 7.496 0 1 0 14.25 16l5.416 5.416a.601.601 0 0 0 .848 0l.902-.902a.602.602 0 0 0 0-.848ZM9.896 14.994a5.097 5.097 0 1 1 0-10.195 5.097 5.097 0 0 1 0 10.195Z"/>
  </symbol>
  <symbol fill="currentColor" viewBox="0 0 24 24" id="delete">
    <path d="M19.62 16.228a1.2 1.2 0 0 1 0 1.696l-1.696 1.696a1.2 1.2 0 0 1-1.696 0l-4.24-4.24-4.24 4.24a1.2 1.2 0 0 1-1.696 0l-1.696-1.696a1.2 1.2 0 0 1 0-1.696l4.24-4.24-4.24-4.24a1.2 1.2 0 0 1 0-1.696l1.696-1.696a1.2 1.2 0 0 1 1.696 0l4.24 4.24 4.24-4.24a1.2 1.2 0 0 1 1.696 0l1.696 1.696a1.2 1.2 0 0 1 0 1.696l-4.24 4.24 4.24 4.24Z"/>
  </symbol>
  <symbol fill="currentColor" viewBox="0 0 24 24" id="tick">
    <path d="M21 5.76a1.55 1.55 0 0 0-2.613-1.138l-9.18 8.938-3.025-3.368a1.545 1.545 0 0 0-2.107.08l-.62.625a1.566 1.566 0 0 0-.115 2.077l4.966 6.24a1.546 1.546 0 0 0 2.423 0l9.931-12.48c.22-.276.34-.62.34-.974Z"/>
  </symbol>
  <symbol fill="currentColor" viewBox="0 0 24 24" id="day">
    <path d="M19.2 4.2h-2.4v-.912a.89.89 0 0 0-.9-.888.9.9 0 0 0-.9.9v.9H8.4v-.9a.9.9 0 1 0-1.8 0v.9H2.4v15A1.8 1.8 0 0 0 4.2 21H21V6a1.8 1.8 0 0 0-1.8-1.8Zm.6 15.6H4.5a.9.9 0 0 1-.9-.9V9.6h15.3a.9.9 0 0 1 .9.9v9.3ZM6 6.3c0-.472.222-.917.6-1.2v1.2a.9.9 0 1 0 1.8 0V5.1A1.5 1.5 0 1 1 6 6.3Zm8.4 0c0-.472.222-.917.6-1.2v1.2a.9.9 0 1 0 1.8 0V5.112c.377.278.6.72.6 1.188a1.5 1.5 0 1 1-3 0Z"/>
  </symbol>
  <symbol fill="currentColor" viewBox="0 0 24 24" id="week">
    <path d="M19.2 4.2h-2.4v-.912a.89.89 0 0 0-.9-.888.9.9 0 0 0-.9.9v.9H8.4v-.9a.9.9 0 1 0-1.8 0v.9H2.4v15A1.8 1.8 0 0 0 4.2 21H21V6a1.8 1.8 0 0 0-1.8-1.8Zm-12 15.6H4.5a.9.9 0 0 1-.9-.9V9.6h3.6v10.2ZM6 6.3c0-.472.222-.917.6-1.2v1.2a.9.9 0 1 0 1.8 0V5.1A1.5 1.5 0 1 1 6 6.3Zm5.4 13.5H7.8V9.6h3.6v10.2Zm4.2 0H12V9.6h3.6v10.2ZM14.4 6.3c0-.472.222-.917.6-1.2v1.2a.9.9 0 1 0 1.8 0V5.112c.377.278.6.72.6 1.188a1.5 1.5 0 1 1-3 0Zm5.4 13.5h-3.6V9.6h2.7a.9.9 0 0 1 .9.9v9.3Z"/>
  </symbol>
  <symbol fill="currentColor" viewBox="0 0 24 24" id="month">
    <path d="M19.2 4.2h-2.4v-.9a.9.9 0 1 0-1.8 0v.9H8.4v-.9a.9.9 0 1 0-1.8 0v.9H2.4v15A1.8 1.8 0 0 0 4.2 21H21V6a1.8 1.8 0 0 0-1.8-1.8Zm-12 15.598H4.5a.9.9 0 0 1-.9-.9V16.8H7.2v2.998Zm0-3.598H3.6v-3H7.2v3Zm0-3.6H3.6V9.598H7.2V12.6ZM6 6.3c0-.472.222-.917.6-1.2v1.2a.9.9 0 1 0 1.8 0V5.1A1.5 1.5 0 1 1 6 6.3Zm5.4 13.498H7.8V16.8h3.6v2.998Zm0-3.598H7.8v-3h3.6v3Zm0-3.6H7.8V9.598h3.6V12.6Zm4.2 7.198H12V16.8h3.6v2.998Zm0-3.598H12v-3h3.6v3Zm0-3.6H12V9.598h3.6V12.6Zm-1.2-6.3c0-.472.222-.917.6-1.2v1.2a.9.9 0 1 0 1.8 0V5.1a1.5 1.5 0 1 1-2.4 1.2Zm5.399 9.9H16.2v-3H19.8v3Zm0-3.6H16.2V9.598H18.9a.9.9 0 0 1 .9.9V12.6Z"/>
  </symbol>
  <symbol fill="currentColor" viewBox="0 0 24 24" id="assistance">
    <path fill="#527edb" d="M12 1.8C6.367 1.8 1.8 6.367 1.8 12c0 5.633 4.567 10.2 10.2 10.2 5.633 0 10.2-4.567 10.2-10.2 0-5.633-4.567-10.2-10.2-10.2Zm.74 16.335a1.3 1.3 0 0 1-.89.343 1.346 1.346 0 0 1-.911-.338c-.26-.226-.39-.54-.39-.946 0-.359.126-.661.377-.906.25-.246.558-.368.924-.368.359 0 .661.122.907.368.245.245.367.547.367.906 0 .4-.128.713-.385.941Zm3.194-7.92a3.894 3.894 0 0 1-.701.944c-.271.265-.757.712-1.459 1.339-.164.147-.32.302-.466.466a1.9 1.9 0 0 0-.26.368c-.056.107-.1.218-.134.334-.03.11-.078.306-.14.586-.109.593-.448.89-1.019.89a1.04 1.04 0 0 1-.748-.292c-.203-.193-.304-.481-.304-.864 0-.479.074-.894.223-1.244.14-.34.34-.653.59-.924.245-.265.576-.58.992-.946.365-.319.629-.56.792-.722.161-.161.3-.344.41-.543.111-.2.169-.423.167-.65 0-.457-.17-.842-.51-1.155-.339-.314-.776-.47-1.312-.47-.627 0-1.09.157-1.386.474-.296.317-.547.783-.752 1.399-.195.644-.562.966-1.104.966-.32 0-.59-.112-.809-.338-.22-.225-.329-.469-.329-.731 0-.542.174-1.09.522-1.647.348-.556.855-1.016 1.523-1.381.667-.365 1.445-.548 2.335-.548.826 0 1.556.153 2.19.458.633.305 1.121.72 1.467 1.245.345.524.517 1.094.517 1.71 0 .485-.098.91-.295 1.275Z"/>
  </symbol>
  <symbol fill="currentColor" viewBox="0 0 24 24" id="document">
    <path d="M15 1.8v3.6c0 .663.478 1.2 1.067 1.2H19.8L15 1.8Zm1.2 6a2.4 2.4 0 0 1-2.4-2.4V1.8H4.2V21a1.2 1.2 0 0 0 1.2 1.2h14.4V7.8h-3.6ZM7.8 9h8.4a.6.6 0 1 1 0 1.2H7.8a.6.6 0 0 1 0-1.2Zm0 2.4h8.4a.6.6 0 1 1 0 1.2H7.8a.6.6 0 1 1 0-1.2Zm0 2.4h8.4a.6.6 0 1 1 0 1.2H7.8a.6.6 0 1 1 0-1.2Zm2.4 3.6H7.8a.6.6 0 1 1 0-1.2h2.4a.6.6 0 0 1 0 1.2Z"/>
  </symbol>
  <symbol fill="currentColor" viewBox="0 0 24 24" id="live-chat">
    <path fill-rule="evenodd" d="M19.8 3H2.4v12.6a1.8 1.8 0 0 0 1.8 1.8h2.4v4.2l4.2-4.2h10.8V4.8A1.8 1.8 0 0 0 19.8 3Zm-3.67 5.294h-.265C15.275 6.252 13.768 4.8 12 4.8c-1.768 0-3.276 1.452-3.865 3.494h-.264A1.27 1.27 0 0 0 6.6 9.564v1.271c0 .702.569 1.27 1.27 1.27h.265C8.725 14.149 10.232 15.6 12 15.6c1.768 0 3.276-1.452 3.865-3.494h.264a1.27 1.27 0 0 0 1.271-1.27V9.564a1.27 1.27 0 0 0-1.27-1.27Zm-1.178 4.447h-2.053a.953.953 0 1 0 0 .635h1.698a4.534 4.534 0 0 1-.182.256c-.325.426-.7.758-1.115.988-.806.46-1.794.46-2.6 0a3.624 3.624 0 0 1-1.115-.988 5.066 5.066 0 0 1-.785-1.526 6.335 6.335 0 0 1 0-3.812 5.59 5.59 0 0 1 .172-.464.435.435 0 0 1 .462-.26c.492.071 1.376.34 2.566 1.283 1.442 1.142 2.974.827 3.446.556.032.262.048.526.048.791a6.186 6.186 0 0 1-.294 1.906c-.07.217-.152.429-.248.635Z"/>
  </symbol>
  <symbol fill="currentColor" viewBox="0 0 24 24" id="location-pin-compass">
    <path d="M18.6 8.4a6.6 6.6 0 1 0-12.33 3.277L12 22.2l5.73-10.523A6.57 6.57 0 0 0 18.6 8.4ZM12 13.2a4.8 4.8 0 1 1 0-9.6 4.8 4.8 0 0 1 0 9.6Zm2.963-7.576-6.92 3.068 2.474.73.378 2.825 4.068-6.623Z"/>
  </symbol>
  <symbol fill="currentColor" viewBox="0 0 24 24" id="mobile-network-coverage">
    <path d="M18 21.6a.602.602 0 0 0 .6.6h3a.602.602 0 0 0 .6-.6V7.2a.602.602 0 0 0-.6-.6h-3a.602.602 0 0 0-.6.6v14.4Zm-5.4 0a.602.602 0 0 0 .6.6h3a.602.602 0 0 0 .6-.6V10.8a.602.602 0 0 0-.6-.6h-3a.602.602 0 0 0-.6.6v10.8Zm-5.4 0a.602.602 0 0 0 .6.6h3a.602.602 0 0 0 .6-.6v-7.2a.602.602 0 0 0-.6-.6h-3a.602.602 0 0 0-.6.6v7.2Zm-5.4 0a.602.602 0 0 0 .6.6h3a.602.602 0 0 0 .6-.6V18a.602.602 0 0 0-.6-.6h-3a.602.602 0 0 0-.6.6v3.6Z"/>
  </symbol>
  <symbol fill="currentColor" viewBox="0 0 24 24" id="child-protection">
    <path fill-rule="evenodd" d="M15.958 5.402a3.942 3.942 0 0 1-3.946 3.937 3.942 3.942 0 0 1-3.946-3.937 3.942 3.942 0 0 1 3.946-3.938 3.942 3.942 0 0 1 3.946 3.938Zm-.785 3.635a4.831 4.831 0 0 1-6.322 0 4.81 4.81 0 0 0-2.539 4.24v3.5c0 3.14 2.552 5.687 5.7 5.687s5.7-2.546 5.7-5.687v-3.5a4.81 4.81 0 0 0-2.54-4.24Zm-2.77 4.485a1.573 1.573 0 1 1-3.147-.004 1.573 1.573 0 0 1 3.147.004Zm-.21 1.594a2.09 2.09 0 0 1-2.707.017c-.619.359-1 1.02-.999 1.735v1.459a2.367 2.367 0 1 0 4.735 0v-1.459c0-.727-.394-1.398-1.03-1.752Z"/>
  </symbol>
</svg>
