<?xml version="1.0" encoding="UTF-8" standalone="no"?>
<!-- Created with Inkscape (http://www.inkscape.org/) -->

<svg
   xmlns:dc="http://purl.org/dc/elements/1.1/"
   xmlns:cc="http://creativecommons.org/ns#"
   xmlns:rdf="http://www.w3.org/1999/02/22-rdf-syntax-ns#"
   xmlns:svg="http://www.w3.org/2000/svg"
   xmlns="http://www.w3.org/2000/svg"
   xmlns:sodipodi="http://sodipodi.sourceforge.net/DTD/sodipodi-0.dtd"
   xmlns:inkscape="http://www.inkscape.org/namespaces/inkscape"
   width="1200"
   height="630"
   viewBox="0 0 317.49999 166.6875"
   version="1.1"
   id="svg8"
   sodipodi:docname="orange-social.svg"
   inkscape:version="0.92.3 (2405546, 2018-03-11)">
  <defs
     id="defs2">
    <style
       id="style815">#a{fill:#ff7900}#b,#c{fill:#fff}@media (max-width:49.98px){#b{display:none}}@media (min-width:50px){#c{display:none}}</style>
  </defs>
  <sodipodi:namedview
     id="base"
     pagecolor="#000000"
     bordercolor="#666666"
     borderopacity="1.0"
     inkscape:pageopacity="0"
     inkscape:pageshadow="2"
     inkscape:zoom="0.35"
     inkscape:cx="-241.42857"
     inkscape:cy="560"
     inkscape:document-units="mm"
     inkscape:current-layer="g832"
     showgrid="false"
     units="px"
     inkscape:window-width="1920"
     inkscape:window-height="1016"
     inkscape:window-x="0"
     inkscape:window-y="27"
     inkscape:window-maximized="1" />
  <metadata
     id="metadata5">
    <rdf:RDF>
      <cc:Work
         rdf:about="">
        <dc:format>image/svg+xml</dc:format>
        <dc:type
           rdf:resource="http://purl.org/dc/dcmitype/StillImage" />
        <dc:title></dc:title>
      </cc:Work>
    </rdf:RDF>
  </metadata>
  <g
     inkscape:label="Calque 1"
     inkscape:groupmode="layer"
     id="layer1"
     transform="translate(0,-130.31248)">
    <g
       id="g832"
       transform="matrix(0.34992333,0,0,0.34992333,109.91132,165.00653)">
      <rect
         style="opacity:1;fill:#000000;fill-opacity:1;fill-rule:evenodd;stroke:none;stroke-width:1.39180672;stroke-linecap:round;stroke-linejoin:round;stroke-miterlimit:4;stroke-dasharray:none;stroke-opacity:1"
         id="rect834"
         width="907.34161"
         height="476.35434"
         x="-314.10114"
         y="-99.147575" />
      <g
         id="g838"
         transform="translate(-3.3187734,-1.541962)">
        <path
           style="fill:#ff7900;stroke-width:1.00817358"
           inkscape:connector-curvature="0"
           d="M 0,-2.3168872 H 285.77689 V 283.46 H 0 Z"
           id="a" />
        <path
           style="fill:#ffffff"
           inkscape:connector-curvature="0"
           d="m 111.2,256 a 23.23,23.23 0 0 1 -13,3.92 c -7.36,0 -11.71,-4.9 -11.71,-11.46 0,-8.83 8.12,-13.51 24.85,-15.4 v -2.19 c 0,-2.87 -2.18,-4.53 -6.2,-4.53 a 11.76,11.76 0 0 0 -9.61,4.53 l -7,-4 q 5.52,-7.71 16.82,-7.7 c 10.28,0 16,4.45 16,11.7 v 28.6 h -9.2 z m -14.55,-8.3 c 0,2.65 1.67,5.13 4.68,5.13 3.27,0 6.44,-1.36 9.62,-4.16 v -9.34 c -9.7,1.23 -14.3,3.72 -14.3,8.39 z m 32.89,-26.63 8.59,-1.19 0.94,4.68 c 4.85,-3.55 8.7,-5.44 13.55,-5.44 8.12,0 12.3,4.31 12.3,12.84 v 27.47 h -10.37 v -25.66 c 0,-4.83 -1.26,-7 -5,-7 -3.1,0 -6.19,1.43 -9.71,4.38 v 28.3 h -10.3 z m 104.15,39.11 c -11.63,0 -18.57,-7.47 -18.57,-20.45 0,-12.98 7,-20.61 18.4,-20.61 11.4,0 18.15,7.25 18.15,20.08 0,0.68 -0.08,1.36 -0.08,2 h -26.27 c 0.08,7.47 3.18,11.24 9.29,11.24 3.93,0 6.52,-1.58 8.95,-5 l 7.61,4.22 c -3.35,5.58 -9.37,8.52 -17.48,8.52 z m 7.78,-25.66 c 0,-5.28 -3,-8.38 -7.95,-8.38 -4.68,0 -7.61,3 -8,8.38 z M 34.89,260.61 c -10.27,0 -19.52,-6.54 -19.52,-20.82 0,-14.28 9.25,-20.79 19.52,-20.79 10.27,0 19.52,6.55 19.52,20.82 0,14.27 -9.26,20.79 -19.52,20.79 z m 0,-32.86 c -7.75,0 -9.19,7 -9.19,12 0,5 1.44,12.05 9.19,12.05 7.75,0 9.19,-7 9.19,-12.05 0,-5.05 -1.44,-12 -9.19,-12 z M 61.53,220 h 9.87 v 4.64 a 15.29,15.29 0 0 1 10.87,-5.45 8.6,8.6 0 0 1 1.34,0.07 V 229 h -0.5 c -4.52,0 -9.46,0.7 -11,4.21 v 26.24 H 61.53 Z m 128.81,31 c 7.88,-0.06 8.54,-8.07 8.54,-13.31 0,-6.16 -3,-11.18 -8.61,-11.18 -3.73,0 -7.89,2.72 -7.89,11.61 0,4.88 0.34,12.93 7.96,12.88 z m 18.52,-31.12 v 37.35 c 0,6.6 -0.5,17.45 -19.31,17.57 -7.75,0 -14.94,-3.05 -16.38,-9.83 l 10.25,-1.65 c 0.43,1.94 1.61,3.88 7.42,3.88 5.39,0 8,-2.58 8,-8.75 v -4.59 l -0.14,-0.14 c -1.65,2.94 -4.16,5.74 -10.19,5.74 -9.19,0 -16.44,-6.38 -16.44,-19.72 0,-13.19 7.47,-20.57 15.86,-20.58 7.87,0 10.79,3.57 11.46,5.46 h -0.12 l 0.85,-4.72 z m 46.89,-13.09 h -4.08 v 11.3 h -2.16 v -11.3 h -4.08 v -1.74 h 10.32 z m 17,11.3 H 270.6 V 207.2 h -0.07 l -4.27,10.89 h -1.36 l -4.27,-10.89 h -0.06 v 10.89 h -2.15 v -13 h 3.32 l 3.89,9.9 3.83,-9.9 h 3.29 z"
           id="b" />
      </g>
    </g>
  </g>
</svg>
