<svg xmlns="http://www.w3.org/2000/svg" viewBox="0 0 400 225">
  <path fill="#50beb7" d="M400 225H0V0h400v225"/>
  <path fill="#040606" d="M152.36 148.68l-12.24 4.15s-1.57 23.9 5.34 28.35c6.9 4.47 13.18 4.78 17.26 3.83l-10.36-36.33M247.64 148.68l12.24 4.15s1.57 23.9-5.33 28.35c-6.91 4.47-13.19 4.78-17.27 3.83l10.36-36.33M174.96 65.84l-4.08-8.6s-2.2-2.56-6.28-.33c-4.08 2.24-4.08 4.15-3.14 5.74 0 0-2.2-2.87-4.39-1.27-2.2 1.59-7.53 6.05-5.02 9.24 2.5 3.18 7.84 11.15 7.84 11.15l15.07-15.93"/>
  <path fill="#040606" d="M167.11 73.6a.42.42 0 01-.37-.23l-5.65-10.51a.43.43 0 01.17-.59c.2-.11.46-.03.58.17l5.65 10.52c.1.2.03.47-.17.58a.42.42 0 01-.2.06M240.1 81.77s5.34-7.97 7.85-11.15c2.51-3.19-2.82-7.65-5.02-9.24-2.2-1.6-4.4 1.27-4.4 1.27.95-1.6.95-3.5-3.13-5.74-4.08-2.23-6.28.32-6.28.32l-4.08 8.6 15.07 15.94"/>
  <path fill="#040606" d="M232.89 73.6a.42.42 0 01-.2-.06.43.43 0 01-.18-.58l5.65-10.52c.12-.2.37-.28.58-.17.2.12.28.38.17.59l-5.65 10.51a.42.42 0 01-.37.23"/>
  <path fill="#4a4c4f" d="M178.73 49.27c-2.2 3.5-1.57 15.61-1.57 15.61l7.53-1.27s-.62-12.11 1.57-15.62l-7.53 1.28M221.27 49.27c2.2 3.5 1.57 15.61 1.57 15.61l-7.53-1.27s.62-12.11-1.57-15.62l7.53 1.28"/>
  <path fill="#040606" d="M203.38 45.44h3.14c6.59 0 16.32 12.11 16.32 12.11s0-12.74-7.53-17.52c-7.54-4.78-9.42-4.78-11.3-4.78h-8.02c-1.88 0-3.76 0-11.3 4.78-7.53 4.78-7.53 17.52-7.53 17.52s9.73-12.1 16.32-12.1h9.9"/>
  <path fill="#f46c20" d="M204.95 189.47s25.74.64 34.21 0c8.48-.64 11.3-19.76 11.3-19.76v-47.16c0-13.38-3.13-37.28-12.87-50.02-9.73-12.75-34.84-16.25-34.84-16.25h-5.5s-25.11 3.5-34.84 16.25c-9.74 12.74-12.87 36.64-12.87 50.02v47.16s2.82 19.12 11.3 19.76c8.47.64 34.21 0 34.21 0h9.9"/>
  <path fill="#fbce17" d="M205.26 133.7h18.52v-26.12h-47.56v26.13h29.04"/>
  <path fill="#fff" d="M207.46 127.97h8.47a2.53 2.53 0 002.52-2.55v-9.24c0-1.4-1.13-2.55-2.52-2.55h-31.86a2.53 2.53 0 00-2.52 2.55v9.24c0 1.41 1.13 2.55 2.52 2.55h23.39"/>
  <path fill="#040606" d="M205.89 152.19h22.91c9.1 0 9.74-6.37 9.74-6.37h-77.08s.63 6.37 9.74 6.37h34.69"/>
  <path fill="#fff" d="M197.66 79.5h-2.74v-1.72h2.74zm-2.74-12.87c.06-.7.65-1.28 1.36-1.28a1.38 1.38 0 011.38 1.39c0 .77-.62 1.4-1.38 1.4-.75 0-1.36-.63-1.36-1.4v-.1m3.58-.1a2.23 2.23 0 00-2.22-2.05c-1.14 0-2.1.9-2.2 2.04V80.35h4.43V66.74l-.01-.2"/>
  <path fill="#fff" d="M205.88 78.1l-2.53 1.07-.65-1.59 2.53-1.07zm-7.39-10.81a1.4 1.4 0 01.77-1.72c.67-.28 1.43.02 1.75.66l.05.09a1.4 1.4 0 01-.75 1.83 1.37 1.37 0 01-1.82-.86m3.26-1.49a2.2 2.2 0 00-2.81-1.02 2.26 2.26 0 00-1.2 2.94l5.15 12.57 4.1-1.73-5.15-12.57-.09-.19M228.93 171.65l-2.6-.9.55-1.62 2.6.9zm1.5-13.07c.27-.65 1.01-1 1.69-.77.69.24 1.06.98.89 1.67l-.03.1a1.37 1.37 0 01-1.75.87 1.4 1.4 0 01-.85-1.77l.04-.1m3.42 1.08a2.26 2.26 0 00-1.45-2.66 2.21 2.21 0 00-2.73 1.21l-.08.2-4.32 12.88 4.2 1.45 4.32-12.89.06-.2"/>
  <path fill="#040606" d="M242.8 90.93a55.92 55.92 0 00-10.05-12.8c-6.09-5.8-16.23-12.74-30-12.74h-5.5c-13.78 0-23.93 6.94-30.03 12.77a55.8 55.8 0 00-10.02 12.77l-.89-.48c.03-.06 3.5-6.6 10.22-13.04 6.23-5.95 16.6-13.04 30.72-13.04h5.5c14.11 0 24.5 7.1 30.72 13.04a56.96 56.96 0 0110.22 13.04l-.89.48M230.37 157.8h-60.74c-5.91 0-6.43-2.1-6.47-2.34a.51.51 0 01.42-.59.5.5 0 01.58.42s.5 1.48 5.47 1.48h60.74c4.99 0 5.47-1.5 5.48-1.5a.5.5 0 01.57-.41c.28.04.46.32.42.6-.04.24-.56 2.34-6.47 2.34M166.17 144.24a.34.34 0 01-.33-.34v-42.38c0-.18.15-.34.33-.34.19 0 .34.16.34.34v42.38c0 .2-.15.34-.34.34M233.83 144.24a.34.34 0 01-.34-.34v-42.38c0-.18.15-.34.34-.34.18 0 .33.16.33.34v42.38c0 .2-.15.34-.33.34"/>
  <path fill="#040606" d="M233.35 113.65h-.04l-67.18-8.6a.34.34 0 01.09-.68l67.17 8.6c.18.03.32.2.3.39a.34.34 0 01-.34.3M233.35 126.4h-.04l-67.18-8.6a.34.34 0 01.09-.68l67.17 8.6c.18.03.32.2.3.38a.34.34 0 01-.34.3M233.35 139.15h-.04l-67.18-8.6a.34.34 0 01.09-.68l67.17 8.6c.18.02.32.2.3.38a.34.34 0 01-.34.3"/>
  <path fill="#040606" d="M166.17 113.65a.34.34 0 01-.33-.3.34.34 0 01.3-.37l67.17-8.6c.18-.03.35.1.37.29.03.18-.1.36-.29.38l-67.17 8.6h-.05M166.17 126.4a.34.34 0 01-.33-.3.34.34 0 01.3-.38l67.17-8.6c.18-.02.35.1.37.3.03.18-.1.35-.29.38l-67.17 8.6h-.05M166.17 139.15a.34.34 0 01-.33-.3.34.34 0 01.3-.38l67.17-8.6c.18-.03.35.1.37.3.03.18-.1.35-.29.37l-67.17 8.6h-.05"/>
</svg>
