<svg xmlns="http://www.w3.org/2000/svg" width="305" height="110">
  <g fill="none" fill-rule="evenodd">
    <path fill="#FF7900" d="M0 0h110v110H0z"/>
    <path fill="#FFF" fill-rule="nonzero" d="M43.072 99.172a8.995 8.995 0 0 1-5.048 1.52 4.236 4.236 0 0 1-4.54-4.438c0-3.425 3.12-5.235 9.627-5.968v-.85c0-1.108-.843-1.756-2.403-1.756a4.564 4.564 0 0 0-3.69 1.755l-2.723-1.56c1.43-1.987 3.602-2.983 6.514-2.988 3.979 0 6.241 1.724 6.241 4.533v11.078h-3.62l-.358-1.326Zm-5.633-3.215a1.841 1.841 0 0 0 1.81 2.021c1.4-.055 2.73-.63 3.729-1.615v-3.62c-3.76.437-5.539 1.405-5.539 3.214ZM50.179 85.636l3.323-.46.367 1.81c1.88-1.373 3.37-2.107 5.25-2.107 3.12 0 4.767 1.67 4.767 4.97v10.641h-4.018v-9.939c0-1.872-.491-2.715-1.95-2.715a5.93 5.93 0 0 0-3.737 1.693v10.961h-4.002V85.636ZM90.52 100.787c-4.502 0-7.193-2.895-7.193-7.927s2.723-7.98 7.13-7.98c4.408 0 7.022 2.808 7.022 7.8v.781H87.337c0 2.894 1.233 4.361 3.596 4.361a3.9 3.9 0 0 0 3.464-1.958l2.95 1.63c-1.35 2.154-3.683 3.293-6.827 3.293Zm3.011-9.94c0-2.051-1.162-3.245-3.074-3.245-1.91 0-2.948 1.17-3.12 3.246h6.194ZM13.512 100.95c-3.97 0-7.56-2.535-7.56-8.059 0-5.523 3.59-8.066 7.56-8.066 3.971 0 7.56 2.535 7.56 8.066 0 5.532-3.558 8.06-7.56 8.06Zm0-12.732c-3.003 0-3.557 2.715-3.557 4.681 0 1.966.554 4.681 3.557 4.681 3.004 0 3.558-2.707 3.558-4.68 0-1.974-.554-4.682-3.558-4.682ZM23.833 85.223h3.823v1.833a5.937 5.937 0 0 1 4.213-2.114c.171-.016.343-.016.515 0v3.768h-.195c-1.748 0-3.66.273-4.276 1.63v10.142h-4.08v-15.26ZM73.731 97.198c3.05 0 3.308-3.12 3.308-5.15 0-2.386-1.17-4.337-3.339-4.337-1.443 0-3.058 1.061-3.058 4.502 0 1.911.14 5.032 3.09 4.985Zm7.17-12.053v14.471c0 2.551-.195 6.756-7.474 6.803-3.004 0-5.789-1.178-6.35-3.807l3.97-.64c.164.78.625 1.506 2.88 1.506 2.082 0 3.12-.999 3.12-3.386v-1.779l-.055-.054a4.01 4.01 0 0 1-3.947 2.215c-3.558 0-6.366-2.465-6.366-7.637s2.894-7.965 6.147-7.973c3.043 0 4.182 1.388 4.44 2.122h-.048l.328-1.826 3.355-.015ZM99.062 80.105h-1.56v4.377h-.835v-4.377h-1.56v-.679h3.994l-.039.679Zm6.608 4.377h-.858V80.26l-1.654 4.22h-.53l-1.639-4.22v4.22h-.827v-5.055h1.28l1.513 3.839 1.483-3.839h1.232v5.056ZM150.84 39.803a18.052 18.052 0 0 1 3.76.359 8.184 8.184 0 0 1 2.91 1.193 5.539 5.539 0 0 1 1.889 2.208 7.801 7.801 0 0 1 .663 3.394 6.304 6.304 0 0 1-.991 3.643 7.146 7.146 0 0 1-2.933 2.387 6.959 6.959 0 0 1 3.986 2.692 8.808 8.808 0 0 1 .468 8.41 7.482 7.482 0 0 1-2.286 2.613 10.313 10.313 0 0 1-3.276 1.498 14.979 14.979 0 0 1-3.784.484H137.25V39.818l13.59-.015Zm-.78 11.702a4.572 4.572 0 0 0 2.793-.78 3.074 3.074 0 0 0 1.092-2.63c.027-.576-.1-1.149-.366-1.661a2.691 2.691 0 0 0-.968-1.014 4.306 4.306 0 0 0-1.396-.507 9.288 9.288 0 0 0-1.638-.14h-5.945v6.755l6.428-.023Zm.367 12.256a8.238 8.238 0 0 0 1.779-.18 4.447 4.447 0 0 0 1.498-.608 3.02 3.02 0 0 0 1.03-1.155 3.9 3.9 0 0 0 .382-1.856 3.737 3.737 0 0 0-1.249-3.175 5.367 5.367 0 0 0-3.323-.952h-6.912v7.926h6.795ZM178.551 68.684v-2.91h-.125a6.499 6.499 0 0 1-2.832 2.629 8.332 8.332 0 0 1-3.557.78 10.196 10.196 0 0 1-3.784-.6 5.508 5.508 0 0 1-2.34-1.725 6.655 6.655 0 0 1-1.194-2.707 17.1 17.1 0 0 1-.343-3.542V47.77h5.742v11.81a7.302 7.302 0 0 0 .78 3.901 3.12 3.12 0 0 0 2.87 1.28 3.987 3.987 0 0 0 3.402-1.397c.702-.928 1.046-2.465 1.046-4.595V47.846h5.75v20.916l-5.415-.078ZM192.664 63.488c.244.433.583.807.99 1.092a4.22 4.22 0 0 0 1.397.624 6.639 6.639 0 0 0 1.638.203c.428-.003.854-.05 1.272-.14a4.345 4.345 0 0 0 1.217-.445c.354-.192.663-.458.905-.78a2.13 2.13 0 0 0 .367-1.272c0-.866-.578-1.513-1.724-1.942a33.89 33.89 0 0 0-4.79-1.295 27.574 27.574 0 0 1-2.45-.671 8.582 8.582 0 0 1-2.122-1.007 5.009 5.009 0 0 1-1.498-1.56 4.478 4.478 0 0 1-.562-2.34 6.241 6.241 0 0 1 .78-3.316 5.812 5.812 0 0 1 2.083-2.044 9.104 9.104 0 0 1 2.91-1.053 18.6 18.6 0 0 1 3.316-.297 16.396 16.396 0 0 1 3.3.32 8.839 8.839 0 0 1 2.855 1.092 6.49 6.49 0 0 1 2.075 2.044c.596.971.936 2.077.991 3.215h-5.46a2.52 2.52 0 0 0-1.257-2.247 5.75 5.75 0 0 0-2.668-.585c-.352.002-.703.023-1.053.062-.356.03-.704.12-1.03.265-.302.132-.57.332-.78.585-.508.716-.4 1.697.25 2.286.437.352.937.617 1.474.78.683.223 1.379.405 2.083.547.78.163 1.56.335 2.387.522s1.646.421 2.442.687a8.27 8.27 0 0 1 2.13 1.076 5.211 5.211 0 0 1 1.49 1.654c.402.752.599 1.597.57 2.45a6.647 6.647 0 0 1-.827 3.456 6.577 6.577 0 0 1-2.17 2.247 8.722 8.722 0 0 1-3.05 1.193c-2.33.468-4.73.468-7.06 0a9.315 9.315 0 0 1-3.12-1.217 6.951 6.951 0 0 1-2.224-2.247 7.021 7.021 0 0 1-.952-3.495h5.461c.003.545.145 1.08.414 1.553ZM209.125 44.53v-4.727h5.765v4.727h-5.765Zm5.765 3.238v20.916h-5.742V47.768h5.742ZM224.252 47.768v2.918h.125a6.553 6.553 0 0 1 2.832-2.653 8.137 8.137 0 0 1 3.557-.827 9.728 9.728 0 0 1 3.784.624 5.664 5.664 0 0 1 2.34 1.74c.59.805.997 1.729 1.194 2.707a17.1 17.1 0 0 1 .343 3.542v12.865h-5.742V56.872a7.341 7.341 0 0 0-.78-3.9 3.12 3.12 0 0 0-2.972-1.24 3.987 3.987 0 0 0-3.402 1.396c-.702.928-1.053 2.465-1.053 4.595v10.922h-5.687V47.768h5.46ZM248.28 63.652a5.149 5.149 0 0 0 3.721 1.256 5.087 5.087 0 0 0 2.996-.874 3.596 3.596 0 0 0 1.56-1.841h5.056a9.611 9.611 0 0 1-3.722 5.383 10.977 10.977 0 0 1-6.069 1.615 11.82 11.82 0 0 1-4.447-.78 9.237 9.237 0 0 1-3.362-2.247 10.142 10.142 0 0 1-2.122-3.472 12.74 12.74 0 0 1-.78-4.454c-.01-1.492.254-2.973.78-4.37a10.142 10.142 0 0 1 5.562-5.82 10.774 10.774 0 0 1 4.346-.85c1.62-.04 3.227.313 4.68 1.03a9.26 9.26 0 0 1 3.254 2.77 11.484 11.484 0 0 1 1.84 3.963c.38 1.53.517 3.109.406 4.68h-15.103c.073 1.852.54 3.189 1.404 4.01Zm6.49-11a4.026 4.026 0 0 0-3.12-1.14 4.93 4.93 0 0 0-2.278.469 4.299 4.299 0 0 0-1.459 1.154c-.352.428-.617.921-.78 1.452a6.39 6.39 0 0 0-.257 1.38h9.362a6.569 6.569 0 0 0-1.467-3.3v-.015ZM269.5 63.488c.245.433.583.807.99 1.092a4.22 4.22 0 0 0 1.397.624 6.639 6.639 0 0 0 1.639.203c.427-.003.853-.05 1.271-.14a4.213 4.213 0 0 0 1.21-.445c.357-.19.669-.456.912-.78a2.13 2.13 0 0 0 .367-1.272c0-.866-.577-1.513-1.724-1.942a34.498 34.498 0 0 0-4.79-1.295 27.574 27.574 0 0 1-2.45-.671 8.472 8.472 0 0 1-2.122-1.007 4.923 4.923 0 0 1-1.498-1.56 4.408 4.408 0 0 1-.562-2.34 6.32 6.32 0 0 1 .78-3.316 5.898 5.898 0 0 1 2.091-2.044 9.104 9.104 0 0 1 2.91-1.053 18.598 18.598 0 0 1 3.316-.297 16.45 16.45 0 0 1 3.3.32 8.73 8.73 0 0 1 2.847 1.092 6.592 6.592 0 0 1 2.083 2.044c.596.971.936 2.077.991 3.215h-5.46a2.512 2.512 0 0 0-1.25-2.247 5.757 5.757 0 0 0-2.675-.585c-.35.003-.698.023-1.045.062a3.323 3.323 0 0 0-1.038.265 2.153 2.153 0 0 0-.78.585 1.56 1.56 0 0 0-.32 1.03c-.017.483.19.947.562 1.256.44.35.943.615 1.482.78.683.224 1.378.406 2.083.547.78.163 1.56.335 2.387.522s1.646.421 2.442.687a8.098 8.098 0 0 1 2.122 1.076c.614.436 1.126 1 1.498 1.654.402.752.599 1.597.57 2.45a6.725 6.725 0 0 1-.827 3.456 6.577 6.577 0 0 1-2.17 2.247 8.722 8.722 0 0 1-3.05 1.193c-2.33.468-4.73.468-7.06 0a9.315 9.315 0 0 1-3.12-1.217 6.88 6.88 0 0 1-2.224-2.247 7.021 7.021 0 0 1-.952-3.495h5.461c0 .544.14 1.079.406 1.553ZM290.68 63.488c.245.433.584.807.992 1.092a4.22 4.22 0 0 0 1.396.624 6.639 6.639 0 0 0 1.638.203c.428-.003.854-.05 1.272-.14a4.345 4.345 0 0 0 1.217-.445c.354-.192.663-.458.905-.78a2.13 2.13 0 0 0 .367-1.272c0-.866-.578-1.513-1.724-1.942a34.186 34.186 0 0 0-4.79-1.295 27.574 27.574 0 0 1-2.45-.671 8.582 8.582 0 0 1-2.122-1.007 4.923 4.923 0 0 1-1.498-1.56 4.478 4.478 0 0 1-.562-2.34 6.241 6.241 0 0 1 .78-3.316 5.812 5.812 0 0 1 2.122-2.083 9.104 9.104 0 0 1 2.91-1.053 18.598 18.598 0 0 1 3.316-.297 16.45 16.45 0 0 1 3.3.32 8.73 8.73 0 0 1 2.847 1.092 6.592 6.592 0 0 1 2.083 2.044c.596.971.937 2.077.991 3.215h-5.46a2.535 2.535 0 0 0-1.257-2.247 5.757 5.757 0 0 0-2.676-.585c-.349.003-.698.023-1.045.062-.356.03-.704.12-1.03.265-.302.132-.57.332-.78.585a1.74 1.74 0 0 0 .242 2.286c.44.35.944.615 1.482.78.683.224 1.379.406 2.083.547.78.163 1.56.335 2.387.522s1.646.421 2.442.687a8.27 8.27 0 0 1 2.13 1.076 5.211 5.211 0 0 1 1.49 1.654c.402.752.599 1.597.57 2.45a6.647 6.647 0 0 1-.827 3.456 6.577 6.577 0 0 1-2.17 2.247 8.722 8.722 0 0 1-3.05 1.193c-2.33.468-4.73.468-7.06 0a9.315 9.315 0 0 1-3.12-1.217 6.951 6.951 0 0 1-2.224-2.247 7.021 7.021 0 0 1-.952-3.495h5.461a3.175 3.175 0 0 0 .375 1.592ZM142.103 102.035a4.478 4.478 0 0 0 1.396 1.638c.616.437 1.31.752 2.044.928a9.62 9.62 0 0 0 2.427.305c.608-.004 1.215-.05 1.817-.14a6.148 6.148 0 0 0 1.818-.547 3.979 3.979 0 0 0 1.42-1.108c.39-.517.591-1.154.57-1.802a2.535 2.535 0 0 0-.78-1.903 5.898 5.898 0 0 0-1.967-1.21 18.599 18.599 0 0 0-2.754-.85c-1.022-.242-2.06-.515-3.12-.78-1.059-.27-2.1-.6-3.12-.99a10.68 10.68 0 0 1-2.755-1.522 6.81 6.81 0 0 1-2.707-5.703 7.505 7.505 0 0 1 .952-3.9 8.66 8.66 0 0 1 2.48-2.731 10.992 10.992 0 0 1 3.488-1.615c1.27-.351 2.583-.53 3.9-.53a18.486 18.486 0 0 1 4.354.507c1.324.31 2.578.866 3.698 1.638a8.332 8.332 0 0 1 2.566 2.894 8.8 8.8 0 0 1 .952 4.268h-6.147a5.094 5.094 0 0 0-.546-2.146 3.628 3.628 0 0 0-1.233-1.334 5.266 5.266 0 0 0-1.763-.686 10.922 10.922 0 0 0-2.161-.203 7.349 7.349 0 0 0-1.56.164 4.236 4.236 0 0 0-1.397.561c-.41.264-.76.61-1.03 1.014a2.684 2.684 0 0 0-.405 1.56c-.02.479.09.954.32 1.374.327.438.77.776 1.279.975.85.372 1.729.67 2.63.89 1.115.296 2.581.67 4.383 1.13.52.11 1.27.305 2.247.586a10.57 10.57 0 0 1 2.856 1.357 8.667 8.667 0 0 1 2.45 2.489 7.076 7.076 0 0 1 1.029 3.978 8.777 8.777 0 0 1-.78 3.683 7.918 7.918 0 0 1-2.286 2.933 10.922 10.922 0 0 1-3.76 1.927 17.99 17.99 0 0 1-5.196.687 18.31 18.31 0 0 1-4.634-.586 11.796 11.796 0 0 1-3.963-1.84 9.042 9.042 0 0 1-2.73-3.2 9.526 9.526 0 0 1-.976-4.61h6.148c-.018.849.17 1.689.546 2.45ZM168.628 104.141a5.874 5.874 0 0 0 6.717.382 3.596 3.596 0 0 0 1.56-1.84h5.055a9.572 9.572 0 0 1-3.721 5.382 10.922 10.922 0 0 1-6.07 1.615 12.006 12.006 0 0 1-4.446-.78 9.143 9.143 0 0 1-3.355-2.247 9.892 9.892 0 0 1-2.122-3.48 12.693 12.693 0 0 1-.78-4.446c-.01-1.492.254-2.973.78-4.369a10.095 10.095 0 0 1 5.563-5.828 10.922 10.922 0 0 1 4.345-.85 9.884 9.884 0 0 1 4.68 1.038 9.26 9.26 0 0 1 3.254 2.77 11.28 11.28 0 0 1 1.841 3.962c.383 1.53.52 3.11.406 4.681h-15.12c.086 1.826.555 3.175 1.413 4.01Zm6.475-11.008a4.065 4.065 0 0 0-3.12-1.13 4.946 4.946 0 0 0-2.287.467c-.563.276-1.06.67-1.458 1.155-.354.427-.619.92-.78 1.45-.139.45-.228.913-.266 1.382h9.362a6.701 6.701 0 0 0-1.451-3.324ZM190.565 88.242v3.9h.078a7.162 7.162 0 0 1 1.1-1.802 6.959 6.959 0 0 1 1.56-1.412 7.864 7.864 0 0 1 1.896-.912 6.835 6.835 0 0 1 2.107-.328c.426.01.848.077 1.256.203v5.344a10.372 10.372 0 0 0-.975-.14 8.792 8.792 0 0 0-1.093-.063 6.093 6.093 0 0 0-2.668.523 4.626 4.626 0 0 0-1.755 1.435 5.765 5.765 0 0 0-.952 2.13 11.6 11.6 0 0 0-.289 2.629v9.424h-5.741V88.242h5.476ZM207.502 109.157l-7.162-20.915h6.023l4.416 14.276h.078l4.408-14.276h5.702l-7.076 20.915zM222.91 85.004v-4.727h5.742v4.727h-5.742Zm5.742 3.238v20.915h-5.742V88.242h5.742ZM242.382 92.002a3.994 3.994 0 0 0-2.301.632 4.868 4.868 0 0 0-1.56 1.615 7.084 7.084 0 0 0-.827 2.184c-.16.77-.24 1.554-.242 2.34-.002.787.08 1.572.242 2.341.145.745.408 1.461.78 2.122a4.626 4.626 0 0 0 1.474 1.56c.68.422 1.47.634 2.27.609a4.236 4.236 0 0 0 3.176-1.155 5.461 5.461 0 0 0 1.388-3.12h5.547a9.51 9.51 0 0 1-3.238 6.35 10.423 10.423 0 0 1-6.834 2.185 11.468 11.468 0 0 1-4.306-.78 9.463 9.463 0 0 1-3.339-2.208 9.97 9.97 0 0 1-2.145-3.37 11.702 11.702 0 0 1-.78-4.315 14.043 14.043 0 0 1 .702-4.509 10.095 10.095 0 0 1 2.083-3.596 9.557 9.557 0 0 1 3.362-2.34 11.468 11.468 0 0 1 4.525-.851c1.21-.004 2.416.161 3.58.491 1.106.3 2.148.8 3.074 1.475a7.599 7.599 0 0 1 3.176 5.968h-5.617c-.32-2.426-1.732-3.628-4.19-3.628ZM261.254 104.141a5.874 5.874 0 0 0 6.717.382 3.596 3.596 0 0 0 1.56-1.84h5.056a9.533 9.533 0 0 1-3.722 5.382 10.922 10.922 0 0 1-6.046 1.615c-1.52.024-3.032-.24-4.454-.78a9.143 9.143 0 0 1-3.355-2.247 10.01 10.01 0 0 1-2.122-3.48 12.697 12.697 0 0 1-.78-4.446 12.338 12.338 0 0 1 .78-4.369 10.095 10.095 0 0 1 5.562-5.828 10.922 10.922 0 0 1 4.354-.85 9.869 9.869 0 0 1 4.68 1.038 9.26 9.26 0 0 1 3.254 2.77 11.28 11.28 0 0 1 1.84 3.962 14.58 14.58 0 0 1 .406 4.681h-15.142c.078 1.826.554 3.175 1.412 4.01Zm6.498-11.008a4.057 4.057 0 0 0-3.12-1.13 4.97 4.97 0 0 0-2.286.467c-.563.276-1.06.67-1.459 1.155-.353.427-.618.92-.78 1.45-.135.451-.223.914-.265 1.382h9.362a6.701 6.701 0 0 0-1.452-3.324ZM282.435 103.954c.244.433.583.806.99 1.092a4.08 4.08 0 0 0 1.397.632 6.639 6.639 0 0 0 1.638.203c.428-.003.854-.05 1.272-.14.425-.09.834-.24 1.217-.445.354-.193.663-.459.905-.78.257-.373.386-.82.367-1.272 0-.866-.57-1.514-1.717-1.943a33.289 33.289 0 0 0-4.798-1.295 27.574 27.574 0 0 1-2.45-.67 8.582 8.582 0 0 1-2.121-1.007 5.009 5.009 0 0 1-1.498-1.56 4.478 4.478 0 0 1-.562-2.34 6.32 6.32 0 0 1 .78-3.316 5.75 5.75 0 0 1 2.083-2.044 9.167 9.167 0 0 1 2.91-1.053 17.893 17.893 0 0 1 3.316-.305 16.386 16.386 0 0 1 3.3.328 8.769 8.769 0 0 1 2.855 1.092 6.592 6.592 0 0 1 2.083 2.044c.589.974.929 2.078.99 3.214h-5.46a2.52 2.52 0 0 0-1.256-2.246 5.75 5.75 0 0 0-2.668-.586c-.352.003-.704.024-1.053.063-.356.03-.704.12-1.03.265-.302.132-.57.332-.78.585-.508.715-.4 1.697.25 2.286.436.352.937.617 1.474.78a18.98 18.98 0 0 0 2.083.546c.78.156 1.56.336 2.387.523.825.187 1.64.417 2.442.686a8.27 8.27 0 0 1 2.13 1.077c.61.44 1.12 1.003 1.498 1.654.396.754.59 1.598.561 2.45a6.647 6.647 0 0 1-.827 3.456 6.553 6.553 0 0 1-2.16 2.246 8.761 8.761 0 0 1-3.059 1.194 18.007 18.007 0 0 1-3.495.343 16.921 16.921 0 0 1-3.565-.366 9.502 9.502 0 0 1-3.12-1.21 6.623 6.623 0 0 1-3.176-5.741h5.461a3.12 3.12 0 0 0 .406 1.56Z"/>
  </g>
</svg>
