<svg xmlns="http://www.w3.org/2000/svg" viewBox="0 0 400 225">
  <path fill="#ffd200" d="M400 225H0V0h400v225"/>
  <path fill="#161717" d="M241.15 181.08a7.22 7.22 0 01-7.22 7.22h-67.86a7.22 7.22 0 01-7.22-7.22V43.92a7.22 7.22 0 017.22-7.22h67.86a7.22 7.22 0 017.22 7.22v137.16"/>
  <path fill="none" stroke="#040606" stroke-miterlimit="10" stroke-width=".3266" d="M241.15 181.08a7.22 7.22 0 01-7.22 7.22h-67.86a7.22 7.22 0 01-7.22-7.22V43.92a7.22 7.22 0 017.22-7.22h67.86a7.22 7.22 0 017.22 7.22z"/>
  <path fill="#fff" d="M235.96 161.15h-71.92V49.05h71.92v112.1"/>
  <path fill="#f46c20" d="M206.35 179.83h-12.7v-12.69h12.7v12.7"/>
  <path fill="#7f8283" d="M226.97 129.77v3.53H175.5V70.55h3.52v59.22h47.95"/>
  <path fill="#f46c20" d="M184.2 128.36h-3.53V98.28h3.53v30.08"/>
  <path fill="#fbce17" d="M191.9 128.36h-5.77v-21.15h5.77v21.15M206 128.36h-5.77V98.75H206v29.61M220.1 128.36h-5.77V80.9h5.78v47.47"/>
  <path fill="#f46c20" d="M198.3 128.36h-3.53V80.9h3.53v47.47M212.4 128.36h-3.52V87.94h3.52v40.42M226.5 128.36h-3.52v-55h3.52v55"/>
  <path fill="#4a4c4f" d="M173.62 135.65a1.18 1.18 0 11-2.35 0 1.18 1.18 0 012.35 0M173.62 128.6a1.18 1.18 0 11-2.35 0 1.18 1.18 0 012.35 0M173.62 121.55a1.18 1.18 0 11-2.35 0 1.18 1.18 0 012.35 0M173.62 114.5a1.17 1.17 0 11-2.35 0 1.17 1.17 0 012.35 0M173.62 107.4a1.17 1.17 0 11-2.35 0 1.17 1.17 0 012.35 0M173.62 100.35a1.18 1.18 0 11-2.35 0 1.18 1.18 0 012.35 0M173.62 93.3a1.18 1.18 0 11-2.35 0 1.18 1.18 0 012.35 0M173.62 86.24a1.18 1.18 0 11-2.35 0 1.18 1.18 0 012.35 0M173.62 79.2a1.18 1.18 0 11-2.35 0 1.18 1.18 0 012.35 0M173.62 72.14a1.18 1.18 0 11-2.35 0 1.18 1.18 0 012.35 0M180.67 135.65a1.18 1.18 0 11-2.35 0 1.18 1.18 0 012.35 0M187.72 135.65a1.18 1.18 0 11-2.35 0 1.18 1.18 0 012.35 0M194.77 135.65a1.18 1.18 0 11-2.35 0 1.18 1.18 0 012.35 0M201.83 135.65a1.18 1.18 0 11-2.35 0 1.18 1.18 0 012.35 0M208.88 135.65a1.17 1.17 0 11-2.35 0 1.17 1.17 0 012.35 0M215.93 135.65a1.18 1.18 0 11-2.35 0 1.18 1.18 0 012.35 0M222.98 135.65a1.18 1.18 0 11-2.35 0 1.18 1.18 0 012.35 0M230.03 135.65a1.18 1.18 0 11-2.35 0 1.18 1.18 0 012.35 0"/>
</svg>
