<svg xmlns="http://www.w3.org/2000/svg">
  <symbol fill="currentColor" viewBox="0 0 1000 1000" id="heart-recommend">
    <path d="M851.8 172.224C754.746 75.18 597.77 74.613 500 170.492c-97.77-95.879-254.746-95.312-351.795 1.732-96.042 96.038-97.605 250.77-4.7 348.724L500 914v-.006.006l356.5-393.05c92.9-97.956 91.338-252.688-4.7-348.726Zm-65.476 277.332L500 766.694 213.677 449.557l-.145-.162a150.005 150.005 0 0 1 217.526-206.464q.222.222.45.438l43.788 41.64L500 308.784l24.7-23.77 43.794-41.645q.226-.216.449-.438A149.05 149.05 0 0 1 675.018 199a150 150 0 0 1 111.451 250.4Z" style="fill-rule:evenodd"/>
  </symbol>
</svg>
