<svg xmlns="http://www.w3.org/2000/svg" viewBox="0 0 1333.33 864.4">
  <path fill="#faf89f" d="M1333.33 864.4H0V0h1333.33v864.4"/>
  <path fill="#7f8283" d="M864.42 257.27l119.34 206.7 119.33 206.7H625.75l119.33-206.7 119.34-206.7"/>
  <path fill="#4a4c4f" d="M864.41 257.27v413.4H625.75z"/>
  <path fill="#cecfcd" d="M808.27 324.2l20.8 44-195.6 293.07 161.08-299.7 13.72-37.38"/>
  <path fill="#4a4c4f" d="M920.57 324.2l-20.8 44 195.6 293.07-161.08-299.7-13.72-37.38"/>
  <path fill="#7f8283" d="M92.5 667.81l287.24-535.8 269.43 535.8z"/>
  <path fill="#4a4c4f" d="M379.73 132.01v535.8H92.5z"/>
  <path fill="#cecfcd" d="M302.08 242.81l27.08 57.27L74.52 681.64l209.7-390.17 17.86-48.66"/>
  <path fill="#4a4c4f" d="M448.28 242.81l-27.08 57.27 254.65 381.56-209.71-390.17-17.86-48.66"/>
  <path fill="#403195" d="M623.55 456.93h-3.51l1.43-42.44h.66l1.42 42.44"/>
  <path fill="#7f8283" d="M646.11 419.8c0 22-24.31 16.51-24.31 16.51v-93.43s24.31 49.93 24.31 76.9"/>
  <path fill="#cecfcd" d="M597.47 419.8c0 22 24.32 16.51 24.32 16.51v-93.43s-24.32 49.93-24.32 76.9"/>
  <path fill="#040606" d="M671.86 455.31h-5.34l2.17-64.44h1l2.17 64.44"/>
  <path fill="#f46c20" d="M706.12 398.91c0 33.42-36.92 25.1-36.92 25.1V282.13s36.92 75.81 36.92 116.78"/>
  <path fill="#f9a91a" d="M632.27 398.91c0 33.42 36.92 25.1 36.92 25.1V282.13s-36.92 75.81-36.92 116.78"/>
  <path fill="#403195" d="M945.38 666.68h-6.09l2.47-73.47h1.15l2.47 73.47"/>
  <path fill="#f9a91a" d="M984.43 602.38c0 38.1-42.09 28.6-42.09 28.6V469.22s42.1 86.44 42.1 133.15"/>
  <path fill="#fbce17" d="M900.23 602.38c0 38.1 42.1 28.6 42.1 28.6V469.22s-42.1 86.44-42.1 133.15"/>
  <path fill="#040606" d="M1071.03 551.24h-4.85l1.97-58.5h.91l1.97 58.5"/>
  <path fill="#f9a91a" d="M1102.14 500.04c0 30.34-33.53 22.76-33.53 22.76V394.01s33.53 68.84 33.53 106.04"/>
  <path fill="#fbce17" d="M1035.08 500.04c0 30.34 33.52 22.76 33.52 22.76V394.01s-33.52 68.84-33.52 106.04"/>
  <path fill="#403195" d="M742.03 531h-3.52l1.42-42.45h.67l1.43 42.44"/>
  <path fill="#f9a91a" d="M764.59 493.86c0 22-24.32 16.5-24.32 16.5v-93.42s24.32 49.93 24.32 76.92"/>
  <path fill="#fbce17" d="M715.95 493.86c0 22 24.31 16.5 24.31 16.5v-93.42s-24.31 49.93-24.31 76.92"/>
  <path fill="#403195" d="M372.6 588.02h-3.52l1.42-42.44h.67l1.42 42.44"/>
  <path fill="#f9a91a" d="M395.16 550.88c0 22-24.32 16.52-24.32 16.52v-93.43s24.32 49.93 24.32 76.91"/>
  <path fill="#fbce17" d="M346.51 550.88c0 22 24.32 16.52 24.32 16.52v-93.43s-24.32 49.93-24.32 76.91"/>
  <path fill="#56c382" d="M385.66 666.98S397.2 424.1 597.02 424.41c199.05.32 212.27 242.56 212.27 242.56H385.66"/>
  <path fill="#56c382" d="M1232.16 701.87H81.73a19.56 19.56 0 01-19.51-19.5 19.56 19.56 0 0119.5-19.5h1150.44c10.73 0 19.5 8.76 19.5 19.5 0 10.72-8.77 19.5-19.5 19.5"/>
  <path fill="#040606" d="M1232.16 691.87H81.73c-9 0-16.6-6.19-18.83-14.5-.43 1.6-.68 3.26-.68 5 0 10.72 8.78 19.5 19.5 19.5h1150.44c10.73 0 19.5-8.78 19.5-19.5 0-1.74-.24-3.4-.67-5a19.57 19.57 0 01-18.83 14.5"/>
  <path fill="#56c382" d="M930.53 666.98s9.27-129.57 147.14-129.57c148.47 0 155.1 129.57 155.1 129.57H930.53"/>
  <path fill="#56c382" d="M1081.63 537.48v129.5h-151.1s9.26-129.57 147.13-129.57c1.33 0 2.66 0 3.97.07M75 666.98s13.33-162.9 178.33-162.9C440 504.08 455 666.98 455 666.98H75"/>
  <path fill="#56c382" d="M265 504.34v162.64H75s13.33-162.9 178.33-162.9c3.97 0 7.87.06 11.67.26"/>
  <path fill="#f9a91a" d="M913.6 666.98a2.58 2.58 0 002.55-2.58l-.03-14.64a2.58 2.58 0 00-2.58-2.56 2.58 2.58 0 00-2.56 2.58l.04 14.63a2.58 2.58 0 002.57 2.57m8.01 0a2.58 2.58 0 002.56-2.58l-.09-35.3a2.57 2.57 0 00-5.14.01l.1 35.3a2.58 2.58 0 002.57 2.57"/>
  <path fill="#040606" d="M917.37 666.98a2.58 2.58 0 002.56-2.58l-.06-24.97a2.58 2.58 0 00-2.57-2.56 2.58 2.58 0 00-2.57 2.57l.07 24.97a2.58 2.58 0 002.57 2.57m8.28 0a2.58 2.58 0 002.56-2.58l-.1-41.14a2.57 2.57 0 00-2.58-2.56 2.58 2.58 0 00-2.56 2.57l.1 41.14a2.58 2.58 0 002.58 2.57"/>
  <path fill="#f9a91a" d="M929.4 666.98a2.58 2.58 0 002.56-2.58l-.07-24.12a2.58 2.58 0 00-2.57-2.57 2.58 2.58 0 00-2.56 2.58l.06 24.12a2.58 2.58 0 002.57 2.57"/>
  <path fill="#040606" d="M933.15 666.98a2.58 2.58 0 002.56-2.58l-.04-14.64a2.58 2.58 0 00-2.57-2.56 2.58 2.58 0 00-2.56 2.58l.04 14.63a2.58 2.58 0 002.57 2.57"/>
  <path fill="#7f8283" d="M909.6 666.98a2.25 2.25 0 002.23-2.25l-.02-7.78a2.24 2.24 0 00-4.47.01l.01 7.78a2.25 2.25 0 002.25 2.24"/>
  <path fill="#f9a91a" d="M936.53 666.98a2.2 2.2 0 002.18-2.2l-.02-8.34a2.2 2.2 0 00-2.2-2.18c-1.2 0-2.18 1-2.18 2.2l.03 8.33c0 1.2.99 2.2 2.19 2.2"/>
  <path fill="#56c382" d="M731.88 666.98s5.1-71.25 80.9-71.25c81.64 0 85.29 71.25 85.29 71.25H731.88"/>
  <path fill="#fbce17" d="M873.2 666.8s1.37-19.26 21.86-19.26c22.06 0 23.04 19.25 23.04 19.25h-44.9"/>
  <path fill="#f46c20" d="M854 666.98s.86-12.1 13.75-12.1c13.87 0 14.49 12.1 14.49 12.1H854m-251.47-535a62.66 62.66 0 11-125.3 0 62.66 62.66 0 01125.3 0"/>
  <path fill="#5bb8e9" d="M794.54 230.61h133.89s5-6.38 0-8.88c-5-2.5-11.4 0-14.17 4.44-2.78 4.45 9.44-24.16-21.39-25.27-25.61-.93-25 21.94-25 21.94s-3.05-27.22-29.72-22.22c-19.5 3.66-19.17 21.94-19.17 21.94s-3.05-9.72-14.44-7.7c-13.53 2.4-10 15.76-10 15.76m-559.77-30.47h133.88s5-6.4 0-8.9-11.38 0-14.16 4.45c-2.78 4.45 9.44-24.17-21.4-25.28-25.6-.92-25 21.95-25 21.95s-3.05-27.22-29.72-22.22c-19.5 3.66-19.16 21.94-19.16 21.94s-3.06-9.72-14.44-7.7c-13.53 2.4-10 15.76-10 15.76"/>
  <path fill="#fbce17" d="M116.15 667.5s2.74-38.22 43.4-38.22c43.8 0 45.76 38.22 45.76 38.22h-89.16"/>
  <path fill="#f46c20" d="M101.5 667.5s.86-12.1 13.74-12.1c13.87 0 14.5 12.1 14.5 12.1h-28.25m79.15 0s1.6-22.33 25.36-22.33c25.59 0 26.73 22.33 26.73 22.33h-52.09"/>
  <path fill="#040606" d="M518.3 504.84h-5.33l2.17-64.44h1l2.17 64.44"/>
  <path fill="#f9a91a" d="M552.57 448.45c0 33.4-36.93 25.07-36.93 25.07V331.66s36.93 75.82 36.93 116.8"/>
  <path fill="#fbce17" d="M478.71 448.45c0 33.4 36.92 25.07 36.92 25.07V331.66s-36.92 75.82-36.92 116.8"/>
  <path fill="#040606" d="M1033.5 565.23h-3.52l1.43-42.44h.66l1.43 42.44"/>
  <path fill="#f46c20" d="M1056.06 528.1c0 22-24.31 16.51-24.31 16.51v-93.43s24.31 49.93 24.31 76.91"/>
  <path fill="#f9a91a" d="M1007.42 528.1c0 22 24.32 16.51 24.32 16.51v-93.43s-24.32 49.93-24.32 76.91"/>
  <path fill="#040606" d="M326.65 536.98h-5.77l2.34-69.68h1.1l2.33 69.68"/>
  <path fill="#f46c20" d="M363.7 476.01c0 36.12-39.92 27.11-39.92 27.11l-.01-153.4s39.93 81.98 39.93 126.3"/>
  <path fill="#f9a91a" d="M283.83 476.01c0 36.12 39.93 27.11 39.93 27.11v-153.4s-39.93 81.98-39.93 126.3"/>
  <path fill="#040606" d="M1215.02 675.71h-6.76l2.74-81.6h1.28l2.74 81.6"/>
  <path fill="#f46c20" d="M1258.4 604.31c0 42.3-46.75 31.74-46.75 31.74l-.01-179.6s46.76 96 46.76 147.86"/>
  <path fill="#f9a91a" d="M1164.89 604.31c0 42.3 46.74 31.74 46.74 31.74l.01-179.6s-46.75 96-46.75 147.86"/>
  <path fill="#040606" d="M157.49 568.73h-4.77l1.93-57.59h.9l1.94 57.6"/>
  <path fill="#f46c20" d="M188.1 518.34c0 29.85-33 22.4-33 22.4V413.98s33 67.75 33 104.36"/>
  <path fill="#f9a91a" d="M122.1 518.34c0 29.85 33 22.4 33 22.4V413.98s-33 67.75-33 104.36"/>
  <path fill="#040606" d="M109.6 624.21h-5.41l2.2-65.33h1.02l2.2 65.32"/>
  <path fill="#f9a91a" d="M144.33 567.04c0 33.87-37.43 25.42-37.43 25.42v-143.8s37.43 76.85 37.43 118.38"/>
  <path fill="#fbce17" d="M69.46 567.04c0 33.87 37.43 25.42 37.43 25.42v-143.8s-37.43 76.85-37.43 118.38"/>
  <path fill="#040606" d="M421.08 675.71h-6.76l2.74-81.6h1.28l2.74 81.6"/>
  <path fill="#f46c20" d="M464.45 604.31c0 42.3-46.74 31.74-46.74 31.74v-179.6s46.74 96 46.74 147.86"/>
  <path fill="#f9a91a" d="M370.94 604.31c0 42.3 46.75 31.74 46.75 31.74l.01-179.6s-46.76 96-46.76 147.86"/>
  <path fill="#040606" d="M583 609.14h-6.27l2.54-75.7h1.18l2.54 75.7"/>
  <path fill="#f46c20" d="M623.25 542.9c0 39.24-43.38 29.45-43.38 29.45V405.67s43.38 89.1 43.38 137.22"/>
  <path fill="#f9a91a" d="M536.47 542.9c0 39.24 43.39 29.45 43.39 29.45V405.67s-43.39 89.1-43.39 137.22"/>
  <path fill="#fbce17" d="M436.42 666.8s1.38-19.26 21.87-19.26c22.06 0 23.04 19.25 23.04 19.25h-44.9"/>
  <path fill="#f9a91a" d="M494.97 667.41a2.4 2.4 0 01-2.38-2.38l.03-13.57a2.38 2.38 0 114.76.02l-.03 13.56a2.4 2.4 0 01-2.38 2.38m-7.43 0a2.4 2.4 0 01-2.37-2.39l.08-32.7a2.39 2.39 0 014.76 0l-.08 32.71a2.4 2.4 0 01-2.39 2.38"/>
  <path fill="#040606" d="M491.46 667.41a2.4 2.4 0 01-2.37-2.38l.06-23.14a2.4 2.4 0 012.38-2.37 2.4 2.4 0 012.38 2.38l-.06 23.14a2.4 2.4 0 01-2.39 2.38m-7.67 0a2.39 2.39 0 01-2.37-2.39l.1-38.12c0-1.3 1.07-2.38 2.38-2.37a2.4 2.4 0 012.38 2.38l-.1 38.12a2.4 2.4 0 01-2.4 2.38"/>
  <path fill="#f9a91a" d="M480.32 667.41a2.39 2.39 0 01-2.37-2.38l.06-22.36a2.38 2.38 0 014.75.01l-.05 22.36a2.4 2.4 0 01-2.4 2.38"/>
  <path fill="#040606" d="M476.84 667.41a2.4 2.4 0 01-2.37-2.38l.03-13.57a2.38 2.38 0 014.76.01l-.03 13.57a2.4 2.4 0 01-2.39 2.38m21.83 0a2.08 2.08 0 01-2.07-2.08l.02-7.2a2.07 2.07 0 114.14 0l-.02 7.2c0 1.15-.94 2.08-2.07 2.08"/>
  <path fill="#f9a91a" d="M473.7 667.41a2.03 2.03 0 01-2.01-2.03l.02-7.73a2.03 2.03 0 014.06.01l-.03 7.73c0 1.12-.92 2.03-2.03 2.03"/>
  <path fill="#ade2c5" d="M1030.54 690.1h-747.2a23.25 23.25 0 00-23.17 23.18 23.25 23.25 0 0023.18 23.18h140.42a21.77 21.77 0 00-2.22 9.54v2.32c0 12.11 9.9 22.02 22.02 22.02h426.75c12.1 0 22.02-9.9 22.02-22.02V746c0-3.42-.81-6.65-2.22-9.54h140.42a23.25 23.25 0 0023.18-23.18 23.25 23.25 0 00-23.18-23.18"/>
  <path fill="#040606" d="M870.32 770.34H443.57a22.1 22.1 0 01-21.9-19.73c-.06.68-.12 1.35-.12 2.05V755c0 12.11 9.9 22.02 22.02 22.02h426.75c12.1 0 22.02-9.9 22.02-22.02v-2.33c0-.7-.06-1.37-.12-2.05a22.1 22.1 0 01-21.9 19.73m-446.55-33.88H283.35a23.25 23.25 0 01-22.91-19.85c-.16 1.1-.27 2.2-.27 3.34a23.25 23.25 0 0023.18 23.17h138.41c.32-2.35 1-4.6 2-6.66m606.78 0H890.12c1 2.07 1.69 4.31 2 6.66h138.42a23.25 23.25 0 0023.18-23.17c0-1.14-.1-2.25-.27-3.34a23.25 23.25 0 01-22.91 19.85"/>
  <path fill="#f9a91a" d="M981.85 697.46h-.94c-.94 0-1.72-.78-1.71-1.73l.16-63.3c0-.95.78-1.72 1.72-1.72h.94c.95 0 1.72.8 1.72 1.73l-.16 63.3c0 .95-.78 1.72-1.73 1.72"/>
  <path fill="#040606" d="M981.47 649.72a5.3 5.3 0 01-5.29-5.28v-34.08a5.3 5.3 0 015.29-5.28 5.3 5.3 0 015.28 5.28v34.08a5.3 5.3 0 01-5.28 5.28"/>
  <path fill="#f9a91a" d="M996.64 697.46h-.93c-.95 0-1.73-.78-1.72-1.73l.16-63.3c0-.95.78-1.72 1.73-1.72h.93c.95 0 1.72.8 1.72 1.73l-.16 63.3c0 .95-.78 1.72-1.73 1.72"/>
  <path fill="#040606" d="M996.26 649.72a5.3 5.3 0 01-5.29-5.28v-34.08a5.3 5.3 0 015.29-5.28 5.3 5.3 0 015.29 5.28v34.08a5.3 5.3 0 01-5.29 5.28"/>
  <path fill="#f9a91a" d="M1011.44 697.46h-.94c-.95 0-1.72-.78-1.72-1.73l.16-63.3c0-.95.78-1.72 1.73-1.72h.94c.94 0 1.72.8 1.71 1.73l-.16 63.3c0 .95-.78 1.72-1.72 1.72"/>
  <path fill="#040606" d="M1011.05 649.72a5.3 5.3 0 01-5.28-5.28v-34.08a5.3 5.3 0 015.28-5.28 5.3 5.3 0 015.29 5.28v34.08a5.3 5.3 0 01-5.29 5.28"/>
  <path fill="#f9a91a" d="M1026.23 697.46h-.94c-.95 0-1.72-.78-1.72-1.73l.17-63.3c0-.95.78-1.72 1.72-1.72h.94c.94 0 1.72.8 1.72 1.73l-.17 63.3c0 .95-.78 1.72-1.72 1.72m-36.55 0h-1.73c-.73 0-1.32-.6-1.32-1.33l.1-36.83c0-.72.6-1.32 1.32-1.3h1.73c.73 0 1.33.6 1.32 1.31l-.1 36.83c0 .73-.59 1.32-1.32 1.32m-16.22 0h-1.73c-.73 0-1.33-.6-1.33-1.33l.1-36.83c0-.72.6-1.32 1.33-1.3h1.73c.73 0 1.32.6 1.32 1.31l-.1 36.83c0 .73-.6 1.32-1.32 1.32"/>
  <path fill="#040606" d="M1025.84 649.72a5.3 5.3 0 01-5.28-5.28v-34.08a5.3 5.3 0 015.28-5.28 5.3 5.3 0 015.3 5.28v34.08a5.3 5.3 0 01-5.3 5.28"/>
  <path fill="#f9a91a" d="M1019.4 697.46h-1.74c-.73 0-1.32-.6-1.32-1.33l.1-36.83c0-.72.6-1.32 1.32-1.3h1.73c.73 0 1.32.6 1.32 1.31l-.09 36.83c0 .73-.6 1.32-1.33 1.32m-14.17 0h-1.74c-.72 0-1.32-.6-1.31-1.33l.09-36.83c0-.72.6-1.32 1.32-1.3h1.74c.73 0 1.32.6 1.32 1.31l-.1 36.83c0 .73-.6 1.32-1.32 1.32m-651.83 0h.94c.94 0 1.72-.78 1.71-1.73l-.16-63.3c0-.95-.78-1.72-1.73-1.72h-.93c-.95 0-1.72.8-1.72 1.73l.16 63.3c0 .95.78 1.72 1.73 1.72"/>
  <path fill="#040606" d="M353.77 649.72a5.3 5.3 0 005.29-5.28v-34.08a5.3 5.3 0 00-5.29-5.28 5.3 5.3 0 00-5.28 5.28v34.08a5.3 5.3 0 005.28 5.28"/>
  <path fill="#f9a91a" d="M338.6 697.46h.93c.95 0 1.72-.78 1.72-1.73l-.16-63.3c0-.95-.78-1.72-1.73-1.72h-.94c-.94 0-1.71.8-1.71 1.73l.16 63.3c0 .95.78 1.72 1.73 1.72"/>
  <path fill="#040606" d="M338.98 649.72a5.3 5.3 0 005.29-5.28v-34.08a5.3 5.3 0 00-5.29-5.28 5.3 5.3 0 00-5.29 5.28v34.08a5.3 5.3 0 005.3 5.28"/>
  <path fill="#f9a91a" d="M323.8 697.46h.94c.95 0 1.72-.78 1.72-1.73l-.16-63.3c0-.95-.78-1.72-1.73-1.72h-.94c-.94 0-1.72.8-1.71 1.73l.16 63.3c0 .95.78 1.72 1.73 1.72"/>
  <path fill="#040606" d="M324.19 649.72a5.3 5.3 0 005.28-5.28v-34.08a5.3 5.3 0 00-5.28-5.28 5.3 5.3 0 00-5.29 5.28v34.08a5.3 5.3 0 005.29 5.28"/>
  <path fill="#f9a91a" d="M309.01 697.46h.94c.95 0 1.72-.78 1.72-1.73l-.17-63.3c0-.95-.77-1.72-1.72-1.72h-.94c-.95 0-1.72.8-1.72 1.73l.17 63.3c0 .95.78 1.72 1.72 1.72m36.55 0h1.73c.73 0 1.32-.6 1.32-1.33l-.1-36.83c0-.72-.6-1.32-1.32-1.3h-1.73c-.73 0-1.33.6-1.33 1.31l.1 36.83c0 .73.6 1.32 1.33 1.32m16.22 0h1.74c.73 0 1.32-.6 1.32-1.33l-.1-36.83c0-.72-.6-1.32-1.33-1.3h-1.73c-.73 0-1.32.6-1.32 1.31l.1 36.83c0 .73.6 1.32 1.32 1.32"/>
  <path fill="#040606" d="M309.4 649.72a5.3 5.3 0 005.28-5.28v-34.08a5.3 5.3 0 00-5.29-5.28 5.3 5.3 0 00-5.28 5.28v34.08a5.3 5.3 0 005.28 5.28"/>
  <path fill="#f9a91a" d="M315.85 697.46h1.73c.73 0 1.32-.6 1.32-1.33l-.1-36.83c0-.72-.6-1.32-1.32-1.3h-1.73c-.73 0-1.33.6-1.32 1.31l.1 36.83c0 .73.6 1.32 1.32 1.32m14.17 0h1.74c.72 0 1.32-.6 1.32-1.33l-.1-36.83c0-.72-.6-1.32-1.33-1.3h-1.73c-.73 0-1.32.6-1.32 1.31l.1 36.83c0 .73.6 1.32 1.32 1.32m399.65 0h-.94c-.95 0-1.73-.78-1.72-1.73l.16-63.62c0-.95.78-1.72 1.73-1.72h.94c.95 0 1.73.8 1.73 1.74l-.16 63.6c0 .96-.78 1.73-1.74 1.73"/>
  <path fill="#040606" d="M729.29 649.5a5.33 5.33 0 01-5.32-5.32v-34.23a5.33 5.33 0 015.32-5.32 5.33 5.33 0 015.31 5.32v34.23c0 2.93-2.4 5.32-5.31 5.32"/>
  <path fill="#f9a91a" d="M744.53 697.46h-.94c-.95 0-1.72-.78-1.72-1.73l.16-63.62c0-.95.79-1.72 1.74-1.72h.94c.95 0 1.73.8 1.72 1.74l-.16 63.6c0 .96-.78 1.73-1.74 1.73"/>
  <path fill="#040606" d="M744.15 649.5a5.33 5.33 0 01-5.31-5.32v-34.23c0-2.93 2.4-5.32 5.31-5.32a5.33 5.33 0 015.31 5.32v34.23a5.33 5.33 0 01-5.3 5.32"/>
  <path fill="#f9a91a" d="M737.54 697.46h-1.74c-.73 0-1.33-.6-1.33-1.34l.1-37c0-.73.6-1.33 1.33-1.33h1.74c.74 0 1.33.61 1.33 1.34l-.1 37c0 .74-.6 1.33-1.33 1.33m15.61 0h-1.74c-.73 0-1.33-.6-1.33-1.34l.1-37c0-.73.6-1.33 1.33-1.33h1.74c.73 0 1.33.61 1.33 1.34l-.1 37c0 .74-.6 1.33-1.33 1.33m-32.13 0h-1.74c-.73 0-1.33-.6-1.32-1.34l.1-37c0-.73.6-1.33 1.33-1.33h1.74c.73 0 1.32.61 1.32 1.34l-.1 37c0 .74-.6 1.33-1.33 1.33"/>
</svg>

