<?xml version="1.0" encoding="UTF-8" standalone="no"?>
<svg
   xmlns:dc="http://purl.org/dc/elements/1.1/"
   xmlns:cc="http://creativecommons.org/ns#"
   xmlns:rdf="http://www.w3.org/1999/02/22-rdf-syntax-ns#"
   xmlns:svg="http://www.w3.org/2000/svg"
   xmlns="http://www.w3.org/2000/svg"
   version="1.1"
   id="svg9287"
   viewBox="0 0 354.33125 354.33"
   height="99.999802mm"
   width="100.00015mm">
  <defs
     id="defs9289">
    <clipPath
       clipPathUnits="userSpaceOnUse"
       id="clipPath9849">
      <path
         d="m 0,841.89 595.28,0 L 595.28,0 0,0 0,841.89 Z"
         id="path9851" />
    </clipPath>
  </defs>
  <metadata
     id="metadata9292">
    <rdf:RDF>
      <cc:Work
         rdf:about="">
        <dc:format>image/svg+xml</dc:format>
        <dc:type
           rdf:resource="http://purl.org/dc/dcmitype/StillImage" />
        <dc:title></dc:title>
      </cc:Work>
    </rdf:RDF>
  </metadata>
  <g
     transform="translate(303.5942,-355.19725)"
     id="layer1">
    <g
       style="fill:#ff7900;fill-opacity:1"
       id="g9843"
       transform="matrix(1.25,0,0,-1.25,-498.4792,1058.5435)">
      <g
         style="fill:#ff7900;fill-opacity:1"
         id="g9845">
        <g
           style="fill:#ff7900;fill-opacity:1"
           id="g9847"
           clip-path="url(#clipPath9849)">
          <path
             d="m 155.908,279.213 283.465,0 0,283.464 -283.465,0 0,-283.464 z m 28.355,170.055 c -3.955,56.557 28.069,85.093 62.727,85.093 20.685,0 39.014,-10.537 50.458,-26.792 l 0.38,0 c 11.443,16.255 29.776,26.792 50.461,26.792 34.658,0 66.684,-28.536 62.727,-85.093 -5.934,-84.839 -71.002,-141.742 -113.378,-141.742 -42.374,0 -107.445,56.903 -113.375,141.742"
             style="fill:#ff7900;fill-opacity:1;fill-rule:nonzero;stroke:none"
             id="path9853" />
        </g>
      </g>
    </g>
  </g>
</svg>
