<?xml version="1.0" encoding="UTF-8" standalone="no"?>
<svg
   xmlns:dc="http://purl.org/dc/elements/1.1/"
   xmlns:cc="http://creativecommons.org/ns#"
   xmlns:rdf="http://www.w3.org/1999/02/22-rdf-syntax-ns#"
   xmlns:svg="http://www.w3.org/2000/svg"
   xmlns="http://www.w3.org/2000/svg"
   xmlns:sodipodi="http://sodipodi.sourceforge.net/DTD/sodipodi-0.dtd"
   xmlns:inkscape="http://www.inkscape.org/namespaces/inkscape"
   width="50"
   height="50"
   id="svg2"
   version="1.1"
   inkscape:version="0.48.1 "
   sodipodi:docname="orange_logo.svg">
  <metadata
     id="metadata26">
    <rdf:RDF>
      <cc:Work
         rdf:about="">
        <dc:format>image/svg+xml</dc:format>
        <dc:type
           rdf:resource="http://purl.org/dc/dcmitype/StillImage" />
      </cc:Work>
    </rdf:RDF>
  </metadata>
  <defs
     id="defs24" />
  <sodipodi:namedview
     pagecolor="#ffffff"
     bordercolor="#666666"
     borderopacity="1"
     objecttolerance="10"
     gridtolerance="10"
     guidetolerance="10"
     inkscape:pageopacity="0"
     inkscape:pageshadow="2"
     inkscape:window-width="1280"
     inkscape:window-height="962"
     id="namedview22"
     showgrid="false"
     fit-margin-top="0"
     fit-margin-left="0"
     fit-margin-right="0"
     fit-margin-bottom="0"
     inkscape:zoom="1.026455"
     inkscape:cx="141.75"
     inkscape:cy="141.75"
     inkscape:window-x="-8"
     inkscape:window-y="-8"
     inkscape:window-maximized="1"
     inkscape:current-layer="svg2" />
  <path
     d="M 0,0 H 50 V 50 H 0 z"
     id="path4"
     inkscape:connector-curvature="0"
     style="fill:#ff7900" />
  <g
     id="g6"
     style="fill:#ffffff"
     transform="scale(0.17636684,0.17636684)">
    <path
       d="m 111.2,256 c -4,2.6 -8.4,3.9 -13,3.9 -7.4,0 -11.7,-4.9 -11.7,-11.5 0,-8.8 8.1,-13.5 24.8,-15.4 v -2.2 c 0,-2.9 -2.2,-4.5 -6.2,-4.5 -4,0 -7.3,1.6 -9.6,4.5 l -7,-4 c 3.7,-5.1 9.3,-7.7 16.8,-7.7 10.3,0 16.1,4.5 16.1,11.7 v 28.6 h -9.2 l -1,-3.4 z m -14.6,-8.3 c 0,2.6 1.7,5.1 4.7,5.1 3.3,0 6.4,-1.4 9.6,-4.2 v -9.3 c -9.7,1.3 -14.3,3.7 -14.3,8.4 z"
       id="path8"
       inkscape:connector-curvature="0" />
    <path
       d="m 129.5,221.1 8.6,-1.2 0.9,4.7 c 4.9,-3.5 8.7,-5.4 13.6,-5.4 8.1,0 12.3,4.3 12.3,12.8 v 27.5 h -10.4 v -25.7 c 0,-4.8 -1.3,-7 -5,-7 -3.1,0 -6.2,1.4 -9.7,4.4 v 28.3 h -10.3 v -38.4 z"
       id="path10"
       inkscape:connector-curvature="0" />
    <path
       d="m 233.7,260.2 c -11.6,0 -18.6,-7.5 -18.6,-20.5 0,-13.1 7,-20.6 18.4,-20.6 11.4,0 18.2,7.2 18.2,20.1 0,0.7 -0.1,1.4 -0.1,2 h -26.3 c 0.1,7.5 3.2,11.2 9.3,11.2 3.9,0 6.5,-1.6 8.9,-5.1 l 7.6,4.2 c -3.3,5.7 -9.3,8.7 -17.4,8.7 z m 7.8,-25.7 c 0,-5.3 -3,-8.4 -7.9,-8.4 -4.7,0 -7.6,3 -8,8.4 h 15.9 z"
       id="path12"
       inkscape:connector-curvature="0" />
    <path
       d="m 34.9,260.6 c -10.3,0 -19.5,-6.5 -19.5,-20.8 0,-14.3 9.3,-20.8 19.5,-20.8 10.3,0 19.5,6.5 19.5,20.8 0,14.3 -9.2,20.8 -19.5,20.8 z m 0,-32.9 c -7.7,0 -9.2,7 -9.2,12 0,5.1 1.4,12 9.2,12 7.8,0 9.2,-7 9.2,-12 0,-5 -1.5,-12 -9.2,-12 z"
       id="path14"
       inkscape:connector-curvature="0" />
    <path
       d="m 61.5,220 h 9.9 v 4.6 c 1.9,-2.5 6.5,-5.5 10.9,-5.5 0.4,0 0.9,0 1.3,0.1 v 9.7 h -0.5 c -4.5,0 -9.5,0.7 -11,4.2 v 26.2 H 61.5 V 220 z"
       id="path16"
       inkscape:connector-curvature="0" />
    <path
       d="m 190.3,251 c 7.9,-0.1 8.5,-8.1 8.5,-13.3 0,-6.2 -3,-11.2 -8.6,-11.2 -3.7,0 -7.9,2.7 -7.9,11.6 0.1,4.9 0.4,12.9 8,12.9 z m 18.6,-31.1 v 37.4 c 0,6.6 -0.5,17.4 -19.3,17.6 -7.8,0 -14.9,-3.1 -16.4,-9.8 l 10.2,-1.6 c 0.4,1.9 1.6,3.9 7.4,3.9 5.4,0 8,-2.6 8,-8.7 v -4.6 l -0.1,-0.1 c -1.6,2.9 -4.2,5.7 -10.2,5.7 -9.2,0 -16.4,-6.4 -16.4,-19.7 0,-13.2 7.5,-20.6 15.9,-20.6 7.9,0 10.8,3.6 11.5,5.5 h -0.1 l 0.9,-4.7 h 8.6 z"
       id="path18"
       inkscape:connector-curvature="0" />
    <path
       d="m 255.7,206.8 h -4.1 v 11.3 h -2.2 v -11.3 h -4.1 v -1.7 h 10.3 v 1.7 z m 17,11.3 h -2.2 v -10.9 h -0.1 l -4.3,10.9 h -1.4 l -4.3,-10.9 h -0.1 v 10.9 h -2.2 v -13 h 3.3 l 3.9,9.9 3.8,-9.9 h 3.3 v 13 z"
       id="path20"
       inkscape:connector-curvature="0" />
  </g>
</svg>
